<?xml version="1.0" encoding="UTF-8" standalone="no"?>
<svg
   width="572.427"
   height="34.351"
   viewBox="0 0 572.427 34.351"
   version="1.1"
   id="svg71"
   xmlns="http://www.w3.org/2000/svg"
   xmlns:svg="http://www.w3.org/2000/svg">
  <defs
     id="defs5">
    <clipPath
       id="clip-path">
      <rect
         width="572.427"
         height="34.351"
         fill="none"
         id="rect2" />
    </clipPath>
  </defs>
  <g
     id="Repeat_Grid_237"
     data-name="Repeat Grid 237"
     opacity="1"
     clip-path="url(#clip-path)"
     style="opacity:0.02">
    <g
       transform="translate(-1495.316 -551.999)"
       id="g8">
      <path
         id="Path_4200"
         data-name="Path 4200"
         d="M-7377.333,15852l-53.351,53.351h17.351c2,0,53.351-53.351,53.351-53.351Z"
         transform="translate(8926 -15300)"
         fill="#fff" />
    </g>
    <g
       transform="translate(-1467.316 -551.999)"
       id="g11">
      <path
         id="Path_4201"
         data-name="Path 4201"
         d="M-7377.333,15852l-53.351,53.351h17.351c2,0,53.351-53.351,53.351-53.351Z"
         transform="translate(8926 -15300)"
         fill="#fff" />
    </g>
    <g
       transform="translate(-1439.316 -551.999)"
       id="g14">
      <path
         id="Path_4202"
         data-name="Path 4202"
         d="M-7377.333,15852l-53.351,53.351h17.351c2,0,53.351-53.351,53.351-53.351Z"
         transform="translate(8926 -15300)"
         fill="#fff" />
    </g>
    <g
       transform="translate(-1411.316 -551.999)"
       id="g17">
      <path
         id="Path_4203"
         data-name="Path 4203"
         d="M-7377.333,15852l-53.351,53.351h17.351c2,0,53.351-53.351,53.351-53.351Z"
         transform="translate(8926 -15300)"
         fill="#fff" />
    </g>
    <g
       transform="translate(-1383.316 -551.999)"
       id="g20">
      <path
         id="Path_4204"
         data-name="Path 4204"
         d="M-7377.333,15852l-53.351,53.351h17.351c2,0,53.351-53.351,53.351-53.351Z"
         transform="translate(8926 -15300)"
         fill="#fff" />
    </g>
    <g
       transform="translate(-1355.316 -551.999)"
       id="g23">
      <path
         id="Path_4205"
         data-name="Path 4205"
         d="M-7377.333,15852l-53.351,53.351h17.351c2,0,53.351-53.351,53.351-53.351Z"
         transform="translate(8926 -15300)"
         fill="#fff" />
    </g>
    <g
       transform="translate(-1327.316 -551.999)"
       id="g26">
      <path
         id="Path_4206"
         data-name="Path 4206"
         d="M-7377.333,15852l-53.351,53.351h17.351c2,0,53.351-53.351,53.351-53.351Z"
         transform="translate(8926 -15300)"
         fill="#fff" />
    </g>
    <g
       transform="translate(-1299.316 -551.999)"
       id="g29">
      <path
         id="Path_4207"
         data-name="Path 4207"
         d="M-7377.333,15852l-53.351,53.351h17.351c2,0,53.351-53.351,53.351-53.351Z"
         transform="translate(8926 -15300)"
         fill="#fff" />
    </g>
    <g
       transform="translate(-1271.316 -551.999)"
       id="g32">
      <path
         id="Path_4208"
         data-name="Path 4208"
         d="M-7377.333,15852l-53.351,53.351h17.351c2,0,53.351-53.351,53.351-53.351Z"
         transform="translate(8926 -15300)"
         fill="#fff" />
    </g>
    <g
       transform="translate(-1243.316 -551.999)"
       id="g35">
      <path
         id="Path_4209"
         data-name="Path 4209"
         d="M-7377.333,15852l-53.351,53.351h17.351c2,0,53.351-53.351,53.351-53.351Z"
         transform="translate(8926 -15300)"
         fill="#fff" />
    </g>
    <g
       transform="translate(-1215.316 -551.999)"
       id="g38">
      <path
         id="Path_4210"
         data-name="Path 4210"
         d="M-7377.333,15852l-53.351,53.351h17.351c2,0,53.351-53.351,53.351-53.351Z"
         transform="translate(8926 -15300)"
         fill="#fff" />
    </g>
    <g
       transform="translate(-1187.316 -551.999)"
       id="g41">
      <path
         id="Path_4211"
         data-name="Path 4211"
         d="M-7377.333,15852l-53.351,53.351h17.351c2,0,53.351-53.351,53.351-53.351Z"
         transform="translate(8926 -15300)"
         fill="#fff" />
    </g>
    <g
       transform="translate(-1159.316 -551.999)"
       id="g44">
      <path
         id="Path_4212"
         data-name="Path 4212"
         d="M-7377.333,15852l-53.351,53.351h17.351c2,0,53.351-53.351,53.351-53.351Z"
         transform="translate(8926 -15300)"
         fill="#fff" />
    </g>
    <g
       transform="translate(-1131.316 -551.999)"
       id="g47">
      <path
         id="Path_4213"
         data-name="Path 4213"
         d="M-7377.333,15852l-53.351,53.351h17.351c2,0,53.351-53.351,53.351-53.351Z"
         transform="translate(8926 -15300)"
         fill="#fff" />
    </g>
    <g
       transform="translate(-1103.316 -551.999)"
       id="g50">
      <path
         id="Path_4214"
         data-name="Path 4214"
         d="M-7377.333,15852l-53.351,53.351h17.351c2,0,53.351-53.351,53.351-53.351Z"
         transform="translate(8926 -15300)"
         fill="#fff" />
    </g>
    <g
       transform="translate(-1075.316 -551.999)"
       id="g53">
      <path
         id="Path_4215"
         data-name="Path 4215"
         d="M-7377.333,15852l-53.351,53.351h17.351c2,0,53.351-53.351,53.351-53.351Z"
         transform="translate(8926 -15300)"
         fill="#fff" />
    </g>
    <g
       transform="translate(-1047.316 -551.999)"
       id="g56">
      <path
         id="Path_4216"
         data-name="Path 4216"
         d="M-7377.333,15852l-53.351,53.351h17.351c2,0,53.351-53.351,53.351-53.351Z"
         transform="translate(8926 -15300)"
         fill="#fff" />
    </g>
    <g
       transform="translate(-1019.316 -551.999)"
       id="g59">
      <path
         id="Path_4217"
         data-name="Path 4217"
         d="M-7377.333,15852l-53.351,53.351h17.351c2,0,53.351-53.351,53.351-53.351Z"
         transform="translate(8926 -15300)"
         fill="#fff" />
    </g>
    <g
       transform="translate(-991.316 -551.999)"
       id="g62">
      <path
         id="Path_4218"
         data-name="Path 4218"
         d="M-7377.333,15852l-53.351,53.351h17.351c2,0,53.351-53.351,53.351-53.351Z"
         transform="translate(8926 -15300)"
         fill="#fff" />
    </g>
    <g
       transform="translate(-963.316 -551.999)"
       id="g65">
      <path
         id="Path_4219"
         data-name="Path 4219"
         d="M-7377.333,15852l-53.351,53.351h17.351c2,0,53.351-53.351,53.351-53.351Z"
         fill="#fff"
         transform="translate(8926 -15300)"
         style="fill:#ffffff;fill-opacity:1;opacity:1" />
    </g>
    <g
       transform="translate(-935.316 -551.999)"
       id="g68">
      <path
         id="Path_4220"
         data-name="Path 4220"
         d="M-7377.333,15852l-53.351,53.351h17.351c2,0,53.351-53.351,53.351-53.351Z"
         transform="translate(8926 -15300)"
         fill="#fff" />
    </g>
  </g>
</svg>
