<svg width="100%" height="100%" viewBox="0 0 3477 408" version="1.1" xmlns="http://www.w3.org/2000/svg" xmlns:xlink="http://www.w3.org/1999/xlink" style="fill-rule:evenodd;clip-rule:evenodd;stroke-linejoin:round;stroke-miterlimit:2;">
	<style type="text/css">
		.st0{fill:#FFFFFF;}
	</style>
	<g>
		<g id="Logo">
			<g id="Layer_2">
				<g id="Dibotical">
					<path class="st0" id="Path_2" d="M391.117,107.613c-17.475,-27.559 -42.563,-49.475 -72.217,-63.092c-33.417,-15.358 -69.871,-22.967 -106.642,-22.258l-212.258,-0l37.304,81.716l170.796,0c27.654,-1.329 54.771,8.142 75.583,26.4c19.63,19.1 30.071,45.784 28.613,73.134c1.491,27.354 -8.954,54.054 -28.613,73.137c-20.796,18.283 -47.921,27.767 -75.583,26.417l-65.358,-0l-0,-142.525l-103.513,-0l0,224.441l173.013,0c36.766,0.704 73.225,-6.908 106.641,-22.262c29.696,-13.667 54.796,-35.671 72.234,-63.325c17.395,-28.921 26.225,-62.196 25.446,-95.938c0.775,-33.708 -8.055,-66.954 -25.446,-95.846Z" style="fill-rule:nonzero;"/>
					<rect class="st0" id="Path_3" x="471.054" y="22.063" width="103.512" height="362.921" />
					<path class="st0" id="Path_4" d="M867.804,22.063l-101.946,-0l-161.508,362.92l105.596,0l28.617,-70.491l111.987,-0l-30.179,-75.709l-51.363,0l47.025,-116.125l47.059,116.125l30.395,75.709l28.613,70.491l107.667,0l-161.963,-362.92Z" style="fill-rule:nonzero;"/>
					<path class="st0" id="Path_5" d="M3006.53,22.063l-101.946,-0l-161.529,362.92l105.6,0l28.612,-70.491l112.005,-0l-30.375,-75.709l-51.179,0l47.02,-116.125l46.971,116.125l30.342,75.709l28.612,70.491l107.704,0l-161.837,-362.92Z" style="fill-rule:nonzero;"/>
					<path class="st0" id="Path_6" d="M1389.59,229.696c-12.655,-15.946 -29.771,-27.767 -49.163,-33.958c14.921,-7.196 27.542,-18.413 36.442,-32.392c8.591,-13.925 13.008,-30.029 12.721,-46.392c0.625,-27.833 -13.25,-54.075 -36.604,-69.229c-32.08,-19.117 -69.213,-28.067 -106.48,-25.662l-187.337,-0l-0,362.92l197.629,0c39.008,2.417 77.892,-6.587 111.863,-25.916c25.062,-15.871 39.829,-43.975 38.691,-73.617c0.554,-20.071 -5.716,-39.742 -17.779,-55.787l0.017,0.033Zm-227.934,-133.546l71.1,0c34.792,0 52.188,11.579 52.188,34.733c-0,23.513 -17.396,35.271 -52.188,35.271l-71.1,0l0,-70.004Zm86.775,214.6l-86.775,0l0,-73.458l86.775,-0c36.254,-0 54.384,12.271 54.384,36.821c-0,24.545 -18.13,36.804 -54.384,36.783l0,-0.146Z" style="fill-rule:nonzero;"/>
					<path class="st0" id="Path_7" d="M1863.76,22.063l-0,81.395l112.383,0l-0,281.525l103.475,0l-0,-281.525l111.933,0l0,-81.396l-327.791,0Z" style="fill-rule:nonzero;"/>
					<rect class="st0" id="Path_8" x="2230.23" y="22.063" width="103.512" height="362.921"/>
					<path class="st0" id="Path_9" d="M2595.11,307.204c-18.512,0.346 -36.8,-4.112 -53.071,-12.937c-15.3,-8.484 -27.808,-21.234 -35.991,-36.696c-8.729,-16.629 -13.108,-35.204 -12.725,-53.984c-0.371,-18.779 4.008,-37.354 12.725,-53.987c8.2,-15.417 20.708,-28.125 35.991,-36.571c16.28,-8.812 34.563,-13.267 53.071,-12.937c33.775,-0.017 65.7,15.712 86.271,42.508l65.971,-59.208c-17.75,-22.196 -40.667,-39.713 -66.746,-51.017c-28.591,-12.088 -59.391,-18.092 -90.429,-17.617c-35.879,-0.583 -71.358,7.692 -103.275,24.096c-29.679,15.325 -54.55,38.558 -71.858,67.121c-17.717,29.408 -26.855,63.192 -26.384,97.521c-0.541,34.283 8.509,68.05 26.129,97.462c17.296,28.588 42.171,51.838 71.859,67.163c31.916,16.404 67.396,24.683 103.279,24.096c31.038,0.47 61.837,-5.53 90.429,-17.617c26.104,-11.25 49.054,-28.733 66.833,-50.912l-65.72,-59.042c-20.567,26.846 -52.538,42.6 -86.359,42.558Z" style="fill-rule:nonzero;"/>
					<path class="st0" id="Path_10" d="M3301.4,303.571l0,-281.509l-103.496,0l0,362.921l278.142,0l-0,-81.412l-174.646,-0Z" style="fill-rule:nonzero;"/>
					<path class="st0" id="Path_11" d="M1645.44,95.379c59.312,0 108.116,48.804 108.116,108.117c0,59.312 -48.804,108.117 -108.117,108.117c-59.312,-0 -108.12,-48.805 -108.12,-108.117c-0,-59.313 48.808,-108.117 108.12,-108.117m0.001,-95.379c-111.646,0 -203.513,91.871 -203.513,203.513c0,111.645 91.867,203.512 203.513,203.512c111.641,0 203.512,-91.867 203.512,-203.512c0,-111.642 -91.871,-203.513 -203.512,-203.513Z" style="fill-rule:nonzero;"/>
					<path class="st0" id="Path_12" d="M1689.44,198.221c0.004,0.3 0.008,0.596 0.008,0.892c-0,24.145 -19.871,44.016 -44.017,44.016c-24.15,0 -44.021,-19.871 -44.021,-44.016c0,-0.296 0.004,-0.592 0.013,-0.892l-38.854,-0c-0,45.462 37.408,82.871 82.87,82.871c45.463,-0 82.871,-37.409 82.871,-82.871l-38.87,-0Z" style="fill-rule:nonzero;"/>
				</g>
			</g>
		</g>
	</g>
</svg>