<?xml version="1.0" encoding="UTF-8" standalone="no"?><!DOCTYPE svg PUBLIC "-//W3C//DTD SVG 1.1//EN" "http://www.w3.org/Graphics/SVG/1.1/DTD/svg11.dtd"><svg width="100%" height="100%" viewBox="0 0 7847 1396" version="1.1" xmlns="http://www.w3.org/2000/svg" xmlns:xlink="http://www.w3.org/1999/xlink" xml:space="preserve" xmlns:serif="http://www.serif.com/" style="fill-rule:evenodd;clip-rule:evenodd;stroke-linejoin:round;stroke-miterlimit:2;"><g id="Rogue_Logo"><path d="M1527.78,1038.9l349.992,349.996l1151.45,-0l0,-1388.89l-1501.45,0l0,1038.9Zm347.221,-691.671l0,530.025l164.417,164.417l642.587,-0l0,-694.442l-807.004,0Z" style="fill:#fff;"/><g><path d="M6018.42,1388.89l291.475,-291.479l-0,-1097.41l-347.221,0l-0,844.292l-197.375,197.375l-609.629,-0l-0,-1041.67l-347.221,0l-0,1388.89l1209.97,-0Z" style="fill:#fff;"/></g><path d="M6448.79,1098.87l290.025,290.025l1107.26,-0l0,-347.225l-1050.06,-0l-0,-175.242l851.704,0l-0,-347.221l-851.704,0l-0,-171.979l1050.06,0l0,-347.225l-1397.28,0l-0,1098.87Z" style="fill:#fff;"/><path d="M971.092,681.758l-491.046,0l713.437,713.442l491.046,0l-713.437,-713.442Zm417.796,-681.758l-1388.89,0l0,1388.89l347.221,-0l-0,-1041.67l651.042,0l-0,277.775l390.625,0l-0,-625Z" style="fill:#fff;"/><path d="M3536.56,347.225l1133,0l0,-347.225l-1501.44,0l-0.001,1388.89l1501.45,-0l0,-763.892l-347.221,0l0.001,416.667l-807.001,-0l21.221,-694.442Z" style="fill:#fff;"/></g></svg>