<?xml version="1.0" encoding="UTF-8" standalone="no"?><!DOCTYPE svg PUBLIC "-//W3C//DTD SVG 1.1//EN" "http://www.w3.org/Graphics/SVG/1.1/DTD/svg11.dtd"><svg width="100%" height="100%" viewBox="0 0 248 88" version="1.1" xmlns="http://www.w3.org/2000/svg" xmlns:xlink="http://www.w3.org/1999/xlink" xml:space="preserve" xmlns:serif="http://www.serif.com/" style="fill-rule:evenodd;clip-rule:evenodd;stroke-linejoin:round;stroke-miterlimit:2;"><path d="M123.684,87.999l-0.025,-0l-0.076,-0.001l-0.151,-0.002l-0.065,-0.001l-0.048,-0l-0.069,-0.001l-0.102,-0.002l-0.101,-0.002l-0.068,-0.002l-0.049,-0.001l-0.065,-0.001l-0.15,-0.005l-0.075,-0.002l-0.026,-0.001l-0.032,-0l-0.281,-0.01c-0.104,-0.004 -0.207,-0.008 -0.313,-0.013l-0.024,-0.001l-0.075,-0.004l-0.152,-0.007l-0.063,-0.004l-0.048,-0.002l-0.067,-0.004l-0.103,-0.005l-0.099,-0.006l-0.067,-0.004l-0.049,-0.003l-0.065,-0.004l-0.147,-0.01l-0.075,-0.005l-0.026,-0.002l-0.032,-0.002l-0.278,-0.02c-0.104,-0.008 -0.209,-0.017 -0.31,-0.025l-0.024,-0.002l-0.073,-0.006l-0.152,-0.013l-0.062,-0.006l-0.046,-0.004l-0.068,-0.007l-0.102,-0.009l-0.098,-0.01l-0.065,-0.006l-0.049,-0.005l-0.065,-0.006l-0.145,-0.016l-0.074,-0.007l-0.025,-0.003l-0.033,-0.003l-0.26,-0.029l-0.014,-0.002c-0.103,-0.012 -0.206,-0.024 -0.307,-0.036l-0.023,-0.003l-0.072,-0.009l-0.152,-0.019l-0.061,-0.008l-0.045,-0.005l-0.067,-0.009l-0.102,-0.014l-0.096,-0.013l-0.064,-0.008l-0.048,-0.007l-0.066,-0.009l-0.142,-0.021l-0.073,-0.01l-0.026,-0.004l-0.033,-0.004l-0.253,-0.038l-0.017,-0.003c-0.102,-0.015 -0.203,-0.031 -0.304,-0.048l-0.022,-0.003l-0.07,-0.012l-0.152,-0.024l-0.06,-0.01l-0.044,-0.008l-0.065,-0.011l-0.102,-0.017l-0.096,-0.017l-0.062,-0.011l-0.048,-0.008l-0.065,-0.012l-0.141,-0.025l-0.071,-0.013l-0.025,-0.005l-0.034,-0.006l-0.248,-0.047l-0.018,-0.003c-0.1,-0.019 -0.199,-0.039 -0.301,-0.059l-0.02,-0.004l-0.068,-0.014l-0.153,-0.031l-0.059,-0.012l-0.042,-0.009l-0.065,-0.013l-0.102,-0.021l-0.094,-0.021l-0.061,-0.012l-0.046,-0.011l-0.067,-0.014l-0.138,-0.031l-0.069,-0.015l-0.025,-0.005l-0.034,-0.008l-0.244,-0.055l-0.018,-0.004c-0.1,-0.023 -0.199,-0.047 -0.298,-0.07l-0.019,-0.005l-0.065,-0.016l-0.154,-0.037l-0.058,-0.014l-0.041,-0.01l-0.062,-0.016l-0.103,-0.025l-0.093,-0.024l-0.058,-0.014l-0.046,-0.012l-0.067,-0.017l-0.138,-0.036l-0.065,-0.017l-0.025,-0.007l-0.035,-0.009l-0.241,-0.064l-0.016,-0.005c-0.099,-0.026 -0.198,-0.054 -0.294,-0.081l-0.018,-0.004l-0.062,-0.018l-0.155,-0.043l-0.057,-0.017l-0.039,-0.011l-0.061,-0.017l-0.103,-0.03l-0.093,-0.027l-0.056,-0.017l-0.044,-0.013l-0.067,-0.02l-0.137,-0.041l-0.063,-0.019l-0.023,-0.007l-0.037,-0.011l-0.239,-0.074l-0.012,-0.003c-0.097,-0.031 -0.194,-0.061 -0.292,-0.092l-0.016,-0.005l-0.057,-0.019l-0.157,-0.05l-0.058,-0.019l-0.036,-0.012l-0.058,-0.019l-0.105,-0.035l-0.092,-0.03l-0.053,-0.018l-0.042,-0.014l-0.069,-0.023l-0.136,-0.047l-0.059,-0.02l-0.023,-0.008l-0.037,-0.013l-0.246,-0.086c-0.096,-0.033 -0.192,-0.068 -0.289,-0.103l-0.014,-0.005l-0.052,-0.019l-0.16,-0.058l-0.057,-0.021l-0.035,-0.012l-0.054,-0.021l-0.106,-0.039l-0.092,-0.035l-0.05,-0.018l-0.04,-0.016l-0.07,-0.026l-0.136,-0.052l-0.055,-0.021l-0.021,-0.008l-0.039,-0.015l-0.24,-0.094c-0.096,-0.038 -0.193,-0.076 -0.286,-0.114l-0.013,-0.005l-0.045,-0.019l-0.164,-0.066l-0.057,-0.024l-0.032,-0.013l-0.051,-0.021l-0.108,-0.044l-0.091,-0.039l-0.047,-0.019l-0.038,-0.016l-0.071,-0.03l-0.137,-0.058l-0.049,-0.022l-0.02,-0.008c-0.187,-0.08 -0.373,-0.162 -0.558,-0.244l-0.011,-0.005l-0.038,-0.017l-0.168,-0.075l-0.057,-0.027l-0.029,-0.013l-0.047,-0.021l-0.11,-0.05l-0.092,-0.043l-0.042,-0.019l-0.036,-0.017l-0.072,-0.034l-0.138,-0.064l-0.044,-0.021l-0.018,-0.009c-0.185,-0.087 -0.369,-0.176 -0.551,-0.265l-0.008,-0.004l-0.031,-0.015l-0.172,-0.085l-0.058,-0.029l-0.026,-0.013l-0.042,-0.022l-0.112,-0.056l-0.092,-0.047l-0.039,-0.019l-0.033,-0.017l-0.074,-0.038l-0.138,-0.071l-0.039,-0.02l-0.016,-0.008c-0.183,-0.095 -0.364,-0.191 -0.543,-0.287l-0.206,-0.111l-0.058,-0.032l-0.023,-0.012l-0.038,-0.021l-0.114,-0.063l-0.093,-0.051l-0.034,-0.019l-0.03,-0.016l-0.076,-0.043l-0.139,-0.078l-0.033,-0.019l-0.014,-0.008c-0.179,-0.101 -0.358,-0.204 -0.535,-0.307l-0.2,-0.118l-0.059,-0.035l-0.019,-0.011l-0.033,-0.02l-0.117,-0.07l-0.093,-0.056l-0.03,-0.018l-0.026,-0.016l-0.078,-0.047l-0.14,-0.085l-0.028,-0.017l-0.012,-0.008c-0.176,-0.108 -0.352,-0.218 -0.527,-0.329l-0.193,-0.123l-0.06,-0.038l-0.016,-0.011l-0.028,-0.018l-0.119,-0.077l-0.093,-0.061l-0.026,-0.017l-0.023,-0.015l-0.08,-0.052l-0.141,-0.093l-0.022,-0.015l-0.009,-0.006c-0.258,-0.171 -0.513,-0.345 -0.766,-0.521l-0.012,-0.009l-0.023,-0.016l-0.122,-0.085l-0.094,-0.066l-0.021,-0.015l-0.02,-0.014l-0.081,-0.057l-0.141,-0.101l-0.024,-0.017c-0.253,-0.182 -0.503,-0.366 -0.75,-0.551l-0.151,-0.114l-0.094,-0.072l-0.018,-0.013l-0.016,-0.012l-0.083,-0.063l-0.141,-0.109l-0.016,-0.013c-0.247,-0.191 -0.491,-0.384 -0.734,-0.581l-0.145,-0.117l-0.094,-0.077l-0.014,-0.011l-0.012,-0.011l-0.084,-0.069l-0.141,-0.117l-0.01,-0.008c-0.241,-0.201 -0.48,-0.404 -0.716,-0.609l-0.139,-0.122l-0.093,-0.082l-0.105,-0.092l-0.143,-0.128c-0.235,-0.21 -0.468,-0.423 -0.699,-0.639l-0.132,-0.124l-0.093,-0.087l-0.014,-0.014c-0.378,-0.359 -0.751,-0.725 -1.117,-1.098l-0.009,-0.009c-0.368,-0.374 -0.728,-0.755 -1.082,-1.142l-0.005,-0.005c-0.355,-0.388 -0.703,-0.783 -1.044,-1.184l-0.002,-0.002c-0.342,-0.402 -0.676,-0.81 -1.004,-1.224l-0,-0c-0.328,-0.415 -0.649,-0.836 -0.961,-1.261l-83.31,0c-2.87,0 -5.2,-2.33 -5.2,-5.2l0,-41.6c0,-2.87 2.33,-5.2 5.2,-5.2l83.31,0l0.078,-0.107c0.288,-0.389 0.582,-0.774 0.883,-1.154l0,-0c0.327,-0.414 0.662,-0.822 1.004,-1.224l0.002,-0.002c0.341,-0.401 0.688,-0.795 1.044,-1.184l0.005,-0.005c0.354,-0.387 0.715,-0.768 1.082,-1.142l0.009,-0.009c0.365,-0.372 0.738,-0.738 1.117,-1.098l0.107,-0.101l0.127,-0.12l0.005,-0.004c0.231,-0.216 0.464,-0.429 0.699,-0.639l0.143,-0.128l0.085,-0.075l0.113,-0.099l0.127,-0.111l0.012,-0.011c0.236,-0.205 0.475,-0.408 0.716,-0.609l0.151,-0.125l0.084,-0.069l0.012,-0.011l0.014,-0.011l0.094,-0.077l0.126,-0.102l0.019,-0.015c0.243,-0.196 0.487,-0.39 0.734,-0.581l0.157,-0.122l0.083,-0.063l0.016,-0.012l0.018,-0.013l0.094,-0.072l0.124,-0.093l0.027,-0.021c0.248,-0.186 0.497,-0.369 0.75,-0.551l0.165,-0.118l0.081,-0.057l0.02,-0.014l0.021,-0.015l0.094,-0.066l0.122,-0.085l0.023,-0.016l0.012,-0.009c0.254,-0.177 0.509,-0.35 0.766,-0.521l0.009,-0.006l0.022,-0.015l0.141,-0.093l0.08,-0.052l0.023,-0.015l0.026,-0.017l0.093,-0.061l0.119,-0.077l0.028,-0.018l0.016,-0.011l0.06,-0.038l0.193,-0.123c0.175,-0.111 0.351,-0.221 0.527,-0.329l0.012,-0.008l0.028,-0.017l0.14,-0.085l0.078,-0.047l0.026,-0.016l0.03,-0.018l0.093,-0.056l0.117,-0.07l0.033,-0.02l0.019,-0.011l0.059,-0.035l0.182,-0.107l0.018,-0.011c0.177,-0.103 0.356,-0.206 0.535,-0.307l0.014,-0.008l0.033,-0.019l0.139,-0.078l0.076,-0.043l0.03,-0.016l0.034,-0.019l0.093,-0.051l0.114,-0.063l0.038,-0.021l0.023,-0.012l0.058,-0.032l0.177,-0.096l0.029,-0.015c0.18,-0.097 0.36,-0.192 0.543,-0.287l0.016,-0.008l0.039,-0.02l0.138,-0.071l0.074,-0.038l0.033,-0.017l0.039,-0.019l0.092,-0.047l0.112,-0.056l0.042,-0.022l0.026,-0.013l0.058,-0.029l0.172,-0.085l0.031,-0.015l0.008,-0.004c0.183,-0.09 0.366,-0.178 0.551,-0.265l0.018,-0.009l0.044,-0.021l0.138,-0.064l0.072,-0.034l0.036,-0.017l0.042,-0.019l0.092,-0.043l0.11,-0.05l0.047,-0.021l0.029,-0.013l0.057,-0.027l0.168,-0.075l0.038,-0.017l0.011,-0.005c0.185,-0.082 0.371,-0.164 0.558,-0.244l0.02,-0.008l0.049,-0.022l0.137,-0.058l0.071,-0.03l0.038,-0.016l0.047,-0.019l0.091,-0.039l0.108,-0.044l0.051,-0.021l0.032,-0.013l0.057,-0.024l0.164,-0.066l0.045,-0.019l0.013,-0.005c0.095,-0.038 0.19,-0.076 0.286,-0.114l0.24,-0.094l0.039,-0.015l0.021,-0.008l0.055,-0.021l0.136,-0.052l0.07,-0.026l0.04,-0.016l0.05,-0.018l0.092,-0.035l0.106,-0.039l0.054,-0.021l0.035,-0.012l0.057,-0.021l0.16,-0.058l0.052,-0.019l0.014,-0.005c0.096,-0.035 0.193,-0.069 0.289,-0.103l0.246,-0.086l0.037,-0.013l0.023,-0.008l0.059,-0.02l0.136,-0.047l0.069,-0.023l0.042,-0.014l0.053,-0.018l0.092,-0.03l0.105,-0.035l0.058,-0.019l0.036,-0.012l0.058,-0.019l0.157,-0.05l0.057,-0.019l0.016,-0.005c0.097,-0.031 0.194,-0.061 0.292,-0.092l0.251,-0.077l0.037,-0.011l0.023,-0.007l0.063,-0.019l0.137,-0.041l0.067,-0.02l0.044,-0.013l0.056,-0.017l0.093,-0.027l0.103,-0.03l0.061,-0.017l0.039,-0.011l0.057,-0.017l0.155,-0.043l0.062,-0.018l0.018,-0.004c0.098,-0.028 0.196,-0.055 0.294,-0.081l0.257,-0.069l0.035,-0.009l0.025,-0.007l0.065,-0.017l0.138,-0.036l0.067,-0.017l0.046,-0.012l0.058,-0.014l0.093,-0.024l0.103,-0.025l0.062,-0.016l0.041,-0.01l0.058,-0.014l0.154,-0.037l0.065,-0.016l0.019,-0.005c0.1,-0.023 0.199,-0.047 0.298,-0.07l0.262,-0.059l0.034,-0.008l0.025,-0.005l0.069,-0.015l0.138,-0.031l0.067,-0.014l0.046,-0.011l0.061,-0.012l0.094,-0.021l0.102,-0.021l0.065,-0.013l0.042,-0.009l0.059,-0.012l0.153,-0.031l0.068,-0.014l0.02,-0.004c0.1,-0.02 0.201,-0.04 0.301,-0.059l0.266,-0.05l0.034,-0.006l0.025,-0.005l0.071,-0.013l0.141,-0.025l0.065,-0.012l0.048,-0.008l0.062,-0.011l0.096,-0.017l0.102,-0.017l0.065,-0.011l0.044,-0.008l0.06,-0.01l0.152,-0.024l0.07,-0.012l0.022,-0.003c0.101,-0.017 0.203,-0.033 0.304,-0.048l0.27,-0.041l0.033,-0.004l0.026,-0.004l0.073,-0.01l0.142,-0.021l0.066,-0.009l0.048,-0.007l0.064,-0.008l0.096,-0.013l0.102,-0.014l0.067,-0.009l0.045,-0.005l0.061,-0.008l0.152,-0.019l0.072,-0.009l0.023,-0.003c0.102,-0.012 0.204,-0.024 0.307,-0.036l0.274,-0.031l0.033,-0.003l0.025,-0.003l0.074,-0.007l0.145,-0.016l0.065,-0.006l0.049,-0.005l0.065,-0.006l0.098,-0.01l0.102,-0.009l0.068,-0.007l0.046,-0.004l0.062,-0.006l0.152,-0.013l0.073,-0.006l0.024,-0.002c0.103,-0.009 0.207,-0.017 0.31,-0.025l0.278,-0.02l0.032,-0.002l0.026,-0.002l0.075,-0.005l0.147,-0.01l0.065,-0.004l0.049,-0.003l0.067,-0.004l0.099,-0.006l0.103,-0.005l0.067,-0.004l0.048,-0.002l0.063,-0.004l0.152,-0.007l0.075,-0.004l0.024,-0.001c0.104,-0.004 0.208,-0.009 0.313,-0.013l0.281,-0.01l0.032,-0l0.026,-0.001l0.075,-0.002l0.15,-0.005l0.065,-0.001l0.049,-0.001l0.068,-0.002l0.101,-0.002l0.102,-0.002l0.069,-0.001l0.048,-0l0.065,-0.001l0.151,-0.002l0.076,-0.001l0.025,0l0.032,-0l0.284,-0.001c0,0 0.284,0.001 0.284,0.001l0.032,0l0.025,0l0.076,0.001l0.151,0.002l0.065,0.001l0.048,0l0.069,0.001l0.102,0.002l0.101,0.002l0.068,0.002l0.049,0.001l0.065,0.001l0.15,0.005l0.075,0.002l0.026,0.001l0.032,0l0.281,0.01c0.104,0.004 0.207,0.008 0.313,0.013l0.024,0.001l0.075,0.004l0.152,0.007l0.063,0.004l0.048,0.002l0.067,0.004l0.103,0.005l0.099,0.006l0.067,0.004l0.049,0.003l0.065,0.004l0.147,0.01l0.075,0.005l0.026,0.002l0.032,0.002l0.278,0.02c0.104,0.008 0.209,0.017 0.31,0.025l0.024,0.002l0.073,0.006l0.152,0.013l0.062,0.006l0.046,0.004l0.068,0.007l0.102,0.009l0.098,0.01l0.065,0.006l0.049,0.005l0.065,0.006l0.145,0.016l0.074,0.007l0.025,0.003l0.033,0.003l0.26,0.029l0.014,0.002c0.103,0.012 0.206,0.024 0.307,0.036l0.023,0.003l0.072,0.009l0.152,0.019l0.061,0.008l0.045,0.005l0.067,0.009l0.102,0.014l0.096,0.013l0.064,0.008l0.048,0.007l0.066,0.009l0.142,0.021l0.073,0.01l0.026,0.004l0.033,0.004l0.253,0.038l0.017,0.003c0.102,0.015 0.203,0.031 0.304,0.048l0.022,0.003l0.07,0.012l0.152,0.024l0.06,0.01l0.044,0.008l0.065,0.011l0.102,0.017l0.096,0.017l0.062,0.011l0.048,0.008l0.065,0.012l0.141,0.025l0.071,0.013l0.025,0.005l0.034,0.006l0.248,0.047l0.018,0.003c0.1,0.019 0.199,0.039 0.301,0.059l0.02,0.004l0.068,0.014l0.153,0.031l0.059,0.012l0.042,0.009l0.065,0.013l0.102,0.021l0.094,0.021l0.061,0.012l0.046,0.011l0.067,0.014l0.138,0.031l0.069,0.015l0.025,0.005l0.034,0.008l0.244,0.055l0.018,0.004c0.1,0.023 0.199,0.047 0.298,0.07l0.019,0.005l0.065,0.016l0.154,0.037l0.058,0.014l0.041,0.01l0.062,0.016l0.103,0.025l0.093,0.024l0.058,0.014l0.046,0.012l0.067,0.017l0.138,0.036l0.065,0.017l0.025,0.007l0.035,0.009l0.241,0.064l0.016,0.005c0.099,0.026 0.198,0.054 0.294,0.081l0.018,0.004l0.062,0.018l0.155,0.043l0.057,0.017l0.039,0.011l0.061,0.017l0.103,0.03l0.093,0.027l0.056,0.017l0.044,0.013l0.067,0.02l0.137,0.041l0.063,0.019l0.023,0.007l0.037,0.011l0.239,0.074l0.012,0.003c0.097,0.031 0.194,0.061 0.292,0.092l0.016,0.005l0.057,0.019l0.157,0.05l0.058,0.019l0.036,0.012l0.058,0.019l0.105,0.035l0.092,0.03l0.053,0.018l0.042,0.014l0.069,0.023l0.136,0.047l0.059,0.02l0.023,0.008l0.037,0.013l0.246,0.086c0.096,0.033 0.192,0.068 0.289,0.103l0.014,0.005l0.052,0.019l0.16,0.058l0.057,0.021l0.035,0.012l0.054,0.021l0.106,0.039l0.092,0.035l0.05,0.018l0.04,0.016l0.07,0.026l0.136,0.052l0.055,0.021l0.021,0.008l0.039,0.015l0.24,0.094c0.096,0.038 0.193,0.076 0.286,0.114l0.013,0.005l0.045,0.019l0.164,0.066l0.057,0.024l0.032,0.013l0.051,0.021l0.108,0.044l0.091,0.039l0.047,0.019l0.038,0.016l0.071,0.03l0.137,0.058l0.049,0.022l0.02,0.008c0.187,0.08 0.373,0.162 0.558,0.244l0.011,0.005l0.038,0.017l0.168,0.075l0.057,0.027l0.029,0.013l0.047,0.021l0.11,0.05l0.092,0.043l0.042,0.019l0.036,0.017l0.072,0.034l0.138,0.064l0.044,0.021l0.018,0.009c0.185,0.087 0.369,0.176 0.551,0.265l0.008,0.004l0.031,0.015l0.172,0.085l0.058,0.029l0.026,0.013l0.042,0.022l0.112,0.056l0.092,0.047l0.039,0.019l0.033,0.017l0.074,0.038l0.138,0.071l0.039,0.02l0.016,0.008c0.183,0.095 0.364,0.191 0.543,0.287l0.206,0.111l0.058,0.032l0.023,0.012l0.038,0.021l0.114,0.063l0.093,0.051l0.034,0.019l0.03,0.016l0.076,0.043l0.139,0.078l0.033,0.019l0.014,0.008c0.179,0.101 0.358,0.204 0.535,0.307l0.2,0.118l0.059,0.035l0.019,0.011l0.033,0.02l0.117,0.07l0.093,0.056l0.03,0.018l0.026,0.016l0.078,0.047l0.14,0.085l0.028,0.017l0.012,0.008c0.176,0.108 0.352,0.218 0.527,0.329l0.193,0.123l0.06,0.038l0.016,0.011l0.028,0.018l0.119,0.077l0.093,0.061l0.026,0.017l0.023,0.015l0.08,0.052l0.141,0.093l0.022,0.015l0.009,0.006c0.258,0.171 0.513,0.345 0.766,0.521l0.012,0.009l0.023,0.016l0.122,0.085l0.094,0.066l0.021,0.015l0.02,0.014l0.081,0.057l0.141,0.101l0.024,0.017c0.253,0.182 0.503,0.366 0.75,0.551l0.151,0.114l0.094,0.072l0.018,0.013l0.016,0.012l0.083,0.063l0.141,0.109l0.016,0.013c0.247,0.191 0.491,0.384 0.734,0.581l0.145,0.117l0.094,0.077l0.014,0.011l0.012,0.011l0.084,0.069l0.141,0.117l0.01,0.008c0.241,0.201 0.48,0.404 0.716,0.609l0.139,0.122l0.093,0.082l0.105,0.092l0.143,0.128c0.235,0.21 0.468,0.423 0.699,0.639l0.132,0.124l0.093,0.087l0.014,0.014c0.378,0.359 0.751,0.725 1.117,1.098l0.009,0.009c0.368,0.374 0.728,0.755 1.082,1.142l0.005,0.005c0.355,0.388 0.703,0.783 1.044,1.184l0.002,0.002c0.342,0.402 0.676,0.81 1.004,1.224l0,0c0.328,0.415 0.649,0.836 0.961,1.261c0,0 83.31,0 83.31,0c2.87,0 5.2,2.33 5.2,5.2l0,41.6c0,2.87 -2.33,5.2 -5.2,5.2l-83.31,0c-0.313,0.427 -0.634,0.847 -0.961,1.261l-0,0c-0.327,0.414 -0.662,0.822 -1.004,1.224l-0.002,0.002c-0.341,0.401 -0.688,0.795 -1.044,1.184l-0.005,0.005c-0.354,0.387 -0.715,0.768 -1.082,1.142l-0.009,0.009c-0.365,0.372 -0.738,0.738 -1.117,1.098l-0.107,0.101l-0.127,0.12l-0.005,0.004c-0.231,0.216 -0.464,0.429 -0.699,0.639l-0.143,0.128l-0.085,0.075l-0.113,0.099l-0.127,0.111l-0.012,0.011c-0.236,0.205 -0.475,0.408 -0.716,0.609l-0.151,0.125l-0.084,0.069l-0.012,0.011l-0.014,0.011l-0.094,0.077l-0.126,0.102l-0.019,0.015c-0.243,0.196 -0.487,0.39 -0.734,0.581l-0.157,0.122l-0.083,0.063l-0.016,0.012l-0.018,0.013l-0.094,0.072l-0.124,0.093l-0.027,0.021c-0.248,0.186 -0.497,0.369 -0.75,0.551l-0.165,0.118l-0.081,0.057l-0.02,0.014l-0.021,0.015l-0.094,0.066l-0.122,0.085l-0.023,0.016l-0.012,0.009c-0.254,0.177 -0.509,0.35 -0.766,0.521l-0.009,0.006l-0.022,0.015l-0.141,0.093l-0.08,0.052l-0.023,0.015l-0.026,0.017l-0.093,0.061l-0.119,0.077l-0.028,0.018l-0.016,0.011l-0.06,0.038l-0.193,0.123c-0.175,0.111 -0.351,0.221 -0.527,0.329l-0.012,0.008l-0.028,0.017l-0.14,0.085l-0.078,0.047l-0.026,0.016l-0.03,0.018l-0.093,0.056l-0.117,0.07l-0.033,0.02l-0.019,0.011l-0.059,0.035l-0.182,0.107l-0.018,0.011c-0.177,0.103 -0.356,0.206 -0.535,0.307l-0.014,0.008l-0.033,0.019l-0.139,0.078l-0.076,0.043l-0.03,0.016l-0.034,0.019l-0.093,0.051l-0.114,0.063l-0.038,0.021l-0.023,0.012l-0.058,0.032l-0.177,0.096l-0.029,0.015c-0.18,0.097 -0.36,0.192 -0.543,0.287l-0.016,0.008l-0.039,0.02l-0.138,0.071l-0.074,0.038l-0.033,0.017l-0.039,0.019l-0.092,0.047l-0.112,0.056l-0.042,0.022l-0.026,0.013l-0.058,0.029l-0.172,0.085l-0.031,0.015l-0.008,0.004c-0.183,0.09 -0.366,0.178 -0.551,0.265l-0.018,0.009l-0.044,0.021l-0.138,0.064l-0.072,0.034l-0.036,0.017l-0.042,0.019l-0.092,0.043l-0.11,0.05l-0.047,0.021l-0.029,0.013l-0.057,0.027l-0.168,0.075l-0.038,0.017l-0.011,0.005c-0.185,0.082 -0.371,0.164 -0.558,0.244l-0.02,0.008l-0.049,0.022l-0.137,0.058l-0.071,0.03l-0.038,0.016l-0.047,0.019l-0.091,0.039l-0.108,0.044l-0.051,0.021l-0.032,0.013l-0.057,0.024l-0.164,0.066l-0.045,0.019l-0.013,0.005c-0.095,0.038 -0.19,0.076 -0.286,0.114l-0.24,0.094l-0.039,0.015l-0.021,0.008l-0.055,0.021l-0.136,0.052l-0.07,0.026l-0.04,0.016l-0.05,0.018l-0.092,0.035l-0.106,0.039l-0.054,0.021l-0.035,0.012l-0.057,0.021l-0.16,0.058l-0.052,0.019l-0.014,0.005c-0.096,0.035 -0.193,0.069 -0.289,0.103l-0.246,0.086l-0.037,0.013l-0.023,0.008l-0.059,0.02l-0.136,0.047l-0.069,0.023l-0.042,0.014l-0.053,0.018l-0.092,0.03l-0.105,0.035l-0.058,0.019l-0.036,0.012l-0.058,0.019l-0.157,0.05l-0.057,0.019l-0.016,0.005c-0.097,0.031 -0.194,0.061 -0.292,0.092l-0.251,0.077l-0.037,0.011l-0.023,0.007l-0.063,0.019l-0.137,0.041l-0.067,0.02l-0.044,0.013l-0.056,0.017l-0.093,0.027l-0.103,0.03l-0.061,0.017l-0.039,0.011l-0.057,0.017l-0.155,0.043l-0.062,0.018l-0.018,0.004c-0.098,0.028 -0.196,0.055 -0.294,0.081l-0.257,0.069l-0.035,0.009l-0.025,0.007l-0.065,0.017l-0.138,0.036l-0.067,0.017l-0.046,0.012l-0.058,0.014l-0.093,0.024l-0.103,0.025l-0.062,0.016l-0.041,0.01l-0.058,0.014l-0.154,0.037l-0.065,0.016l-0.019,0.005c-0.1,0.023 -0.199,0.047 -0.298,0.07l-0.262,0.059l-0.034,0.008l-0.025,0.005l-0.069,0.015l-0.138,0.031l-0.067,0.014l-0.046,0.011l-0.061,0.012l-0.094,0.021l-0.102,0.021l-0.065,0.013l-0.042,0.009l-0.059,0.012l-0.153,0.031l-0.068,0.014l-0.02,0.004c-0.1,0.02 -0.201,0.04 -0.301,0.059l-0.266,0.05l-0.034,0.006l-0.025,0.005l-0.071,0.013l-0.141,0.025l-0.065,0.012l-0.048,0.008l-0.062,0.011l-0.096,0.017l-0.102,0.017l-0.065,0.011l-0.044,0.008l-0.06,0.01l-0.152,0.024l-0.07,0.012l-0.022,0.003c-0.101,0.017 -0.203,0.033 -0.304,0.048l-0.27,0.041l-0.033,0.004l-0.026,0.004l-0.073,0.01l-0.142,0.021l-0.066,0.009l-0.048,0.007l-0.064,0.008l-0.096,0.013l-0.102,0.014l-0.067,0.009l-0.045,0.005l-0.061,0.008l-0.152,0.019l-0.072,0.009l-0.023,0.003c-0.102,0.012 -0.204,0.024 -0.307,0.036l-0.274,0.031l-0.033,0.003l-0.025,0.003l-0.074,0.007l-0.145,0.016l-0.065,0.006l-0.049,0.005l-0.065,0.006l-0.098,0.01l-0.102,0.009l-0.068,0.007l-0.046,0.004l-0.062,0.006l-0.152,0.013l-0.073,0.006l-0.024,0.002c-0.103,0.009 -0.207,0.017 -0.31,0.025l-0.278,0.02l-0.032,0.002l-0.026,0.002l-0.075,0.005l-0.147,0.01l-0.065,0.004l-0.049,0.003l-0.067,0.004l-0.099,0.006l-0.103,0.005l-0.067,0.004l-0.048,0.002l-0.063,0.004l-0.152,0.007l-0.075,0.004l-0.024,0.001c-0.104,0.004 -0.208,0.009 -0.313,0.013l-0.281,0.01l-0.032,0l-0.026,0.001l-0.075,0.002l-0.15,0.005l-0.065,0.001l-0.049,0.001l-0.068,0.002l-0.101,0.002l-0.102,0.002l-0.069,0.001l-0.048,0l-0.065,0.001l-0.151,0.002l-0.076,0.001l-0.025,-0l-0.032,0l-0.284,0.001l-0.284,-0.001l-0.032,-0Z"/></svg>