<?xml version="1.0" encoding="UTF-8" standalone="no"?><!DOCTYPE svg PUBLIC "-//W3C//DTD SVG 1.1//EN" "http://www.w3.org/Graphics/SVG/1.1/DTD/svg11.dtd"><svg width="100%" height="100%" viewBox="0 0 97 89" version="1.1" xmlns="http://www.w3.org/2000/svg" xmlns:xlink="http://www.w3.org/1999/xlink" xml:space="preserve" xmlns:serif="http://www.serif.com/" style="fill-rule:evenodd;clip-rule:evenodd;stroke-linejoin:round;stroke-miterlimit:2;"><path id="Color" d="M41.498,86.589c-3.542,1.473 -7.426,2.286 -11.498,2.286c-16.557,-0 -30,-13.443 -30,-30c0,-8.539 3.575,-16.249 9.309,-21.715c2.255,11.645 9.905,21.375 20.242,26.482c1.15,9.049 5.53,17.096 11.947,22.947Zm41.922,-52.653c8.035,5.383 13.33,14.548 13.33,24.939c-0,16.557 -13.443,30 -30,30c-13.902,-0 -25.607,-9.476 -29.005,-22.317c2.693,0.616 5.499,0.942 8.38,0.942c19.368,-0 35.326,-14.715 37.295,-33.564Zm-37.295,-33.936c16.557,0 30,13.443 30,30c0,16.557 -13.443,30 -30,30c-16.557,0 -30,-13.443 -30,-30c0,-16.557 13.443,-30 30,-30Z" style="fill:#fff;"/></svg>