<?xml version="1.0" encoding="UTF-8" standalone="no"?><!DOCTYPE svg PUBLIC "-//W3C//DTD SVG 1.1//EN" "http://www.w3.org/Graphics/SVG/1.1/DTD/svg11.dtd"><svg width="100%" height="100%" viewBox="0 0 528 142" version="1.1" xmlns="http://www.w3.org/2000/svg" xmlns:xlink="http://www.w3.org/1999/xlink" xml:space="preserve" xmlns:serif="http://www.serif.com/" style="fill-rule:evenodd;clip-rule:evenodd;stroke-linejoin:round;stroke-miterlimit:2;"><g><path d="M347.518,0c39.094,0 70.833,31.739 70.833,70.833c0,39.094 -31.739,70.834 -70.833,70.834c-39.094,-0 -70.834,-31.74 -70.834,-70.834c0,-39.094 31.74,-70.833 70.834,-70.833Zm-97.478,48.438c-1.65,7.199 -2.522,14.696 -2.522,22.395c-0,6.59 0.639,13.032 1.858,19.271l-228.543,0c-11.498,0 -20.833,-9.335 -20.833,-20.833c-0,-11.498 9.335,-20.833 20.833,-20.833l229.207,-0Zm194.956,-0l61.49,-0c11.498,-0 20.833,9.335 20.833,20.833c0,11.498 -9.335,20.833 -20.833,20.833l-60.827,0c1.22,-6.239 1.859,-12.681 1.859,-19.271c-0,-7.699 -0.872,-15.196 -2.522,-22.395Z" style="fill:#ebebeb;"/></g></svg>