<?xml version="1.0" encoding="UTF-8" standalone="no"?><!DOCTYPE svg PUBLIC "-//W3C//DTD SVG 1.1//EN" "http://www.w3.org/Graphics/SVG/1.1/DTD/svg11.dtd"><svg width="100%" height="100%" viewBox="0 0 471 337" version="1.1" xmlns="http://www.w3.org/2000/svg" xmlns:xlink="http://www.w3.org/1999/xlink" xml:space="preserve" xmlns:serif="http://www.serif.com/" style="fill-rule:evenodd;clip-rule:evenodd;stroke-linejoin:round;stroke-miterlimit:2;"><path d="M70.833,194.444c39.094,0 70.834,31.74 70.834,70.834c-0,39.094 -31.74,70.833 -70.834,70.833c-39.094,0 -70.833,-31.739 -70.833,-70.833c0,-39.094 31.739,-70.834 70.833,-70.834Zm329.167,0c39.094,0 70.833,31.74 70.833,70.834c0,39.094 -31.739,70.833 -70.833,70.833c-39.094,0 -70.833,-31.739 -70.833,-70.833c-0,-39.094 31.739,-70.834 70.833,-70.834Zm-12.886,-19.932c-9.244,-32.054 -28.621,-59.832 -54.431,-79.633c2.082,-7.668 3.192,-15.728 3.192,-24.046c0,-5.039 -0.407,-9.983 -1.191,-14.796c43.647,25.985 75.871,69.192 87.273,120.226c-7.033,-1.733 -14.388,-2.652 -21.957,-2.652c-4.371,0 -8.671,0.307 -12.886,0.901Zm-232.091,-124.932c-1.622,6.821 -2.481,13.938 -2.481,21.253c-0,6.031 0.583,11.926 1.698,17.637c-30.64,20.208 -53.656,51.05 -63.774,87.252c-6.324,-1.382 -12.894,-2.111 -19.633,-2.111c-4.943,0 -9.795,0.392 -14.525,1.147c12.728,-54.852 49.565,-100.509 98.715,-125.178Zm89.185,-49.58c39.094,-0 70.834,31.739 70.834,70.833c-0,39.094 -31.74,70.834 -70.834,70.834c-39.094,-0 -70.833,-31.74 -70.833,-70.834c0,-39.094 31.739,-70.833 70.833,-70.833Z" style="fill:#ebebeb;"/></svg>