<?xml version="1.0" encoding="UTF-8" standalone="no"?><!DOCTYPE svg PUBLIC "-//W3C//DTD SVG 1.1//EN" "http://www.w3.org/Graphics/SVG/1.1/DTD/svg11.dtd"><svg width="100%" height="100%" viewBox="0 0 517 273" version="1.1" xmlns="http://www.w3.org/2000/svg" xmlns:xlink="http://www.w3.org/1999/xlink" xml:space="preserve" xmlns:serif="http://www.serif.com/" style="fill-rule:evenodd;clip-rule:evenodd;stroke-linejoin:round;stroke-miterlimit:2;"><path d="M337.708,181.25c25.296,0 45.834,20.537 45.834,45.833c-0,25.296 -20.538,45.834 -45.834,45.834c-25.296,-0 -45.833,-20.538 -45.833,-45.834c0,-25.296 20.537,-45.833 45.833,-45.833Zm-291.875,0c25.296,0 45.834,20.537 45.834,45.833c-0,25.296 -20.538,45.834 -45.834,45.834c-25.296,-0 -45.833,-20.538 -45.833,-45.834c0,-25.296 20.537,-45.833 45.833,-45.833Zm262.872,-9.534c-8.743,4.593 -16.268,11.197 -21.959,19.196l-78.368,-89.711c8.743,-4.594 16.268,-11.197 21.959,-19.196l78.368,89.711Zm-177.114,-85.613c6.307,7.474 14.334,13.45 23.469,17.317l-61.443,83.394c-6.307,-7.474 -14.333,-13.451 -23.469,-17.317l61.443,-83.394Zm291.697,0.035c6.313,7.47 14.344,13.441 23.482,17.3l-61.308,83.34c-6.313,-7.47 -14.344,-13.44 -23.482,-17.299l61.308,-83.341Zm47.754,-86.138c25.296,0 45.833,20.537 45.833,45.833c0,25.296 -20.537,45.834 -45.833,45.834c-25.296,-0 -45.834,-20.538 -45.834,-45.834c0,-25.296 20.538,-45.833 45.834,-45.833Zm-291.667,0c25.296,0 45.833,20.537 45.833,45.833c0,25.296 -20.537,45.834 -45.833,45.834c-25.296,-0 -45.833,-20.538 -45.833,-45.834c-0,-25.296 20.537,-45.833 45.833,-45.833Z" style="fill:#ebebeb;"/></svg>