<?xml version="1.0" encoding="UTF-8" standalone="no"?><!DOCTYPE svg PUBLIC "-//W3C//DTD SVG 1.1//EN" "http://www.w3.org/Graphics/SVG/1.1/DTD/svg11.dtd"><svg width="100%" height="100%" viewBox="0 0 85 53" version="1.1" xmlns="http://www.w3.org/2000/svg" xmlns:xlink="http://www.w3.org/1999/xlink" xml:space="preserve" xmlns:serif="http://www.serif.com/" style="fill-rule:evenodd;clip-rule:evenodd;stroke-linejoin:round;stroke-miterlimit:2;"><path d="M35.794,4.672c0.062,-0.012 0.124,-0.024 0.186,-0.035l0,-2.516c0,-1.171 0.891,-2.121 1.988,-2.121l9.28,0c1.097,0 1.988,0.95 1.988,2.121l-0,2.551l29.531,-0c0.647,-0 1.172,1.148 1.172,2.562c-0,1.415 -0.525,2.563 -1.172,2.563l-16.789,-0c9.471,6.077 16.252,16.45 17.966,28.585l2.337,-0c1.097,-0 1.988,0.95 1.988,2.121l0,9.898c0,1.171 -0.891,2.121 -1.988,2.121l-9.279,0c-1.098,0 -1.989,-0.95 -1.989,-2.121l0,-9.898c0,-1.171 0.891,-2.121 1.989,-2.121l3.107,-0c-2.129,-13.507 -11.246,-24.497 -23.243,-28.585l-3.63,-0l-0,2.223c-0,1.17 -0.891,2.121 -1.988,2.121l-9.28,-0c-1.097,-0 -1.988,-0.951 -1.988,-2.121l0,-2.223l-3.856,-0c-11.997,4.087 -21.116,15.078 -23.244,28.585l2.387,-0c1.098,-0 1.989,0.95 1.989,2.121l-0,9.898c-0,1.171 -0.891,2.121 -1.989,2.121l-9.279,0c-1.097,0 -1.988,-0.95 -1.988,-2.121l-0,-9.898c-0,-1.171 0.891,-2.121 1.988,-2.121l3.057,-0c1.715,-12.135 8.495,-22.508 17.966,-28.585l-16.895,-0c-0.646,-0 -1.172,-1.148 -1.172,-2.563c0,-1.414 0.526,-2.562 1.172,-2.562l29.678,-0Z" style="fill:#fff;"/></svg>