<?xml version="1.0" encoding="UTF-8" standalone="no"?><!DOCTYPE svg PUBLIC "-//W3C//DTD SVG 1.1//EN" "http://www.w3.org/Graphics/SVG/1.1/DTD/svg11.dtd"><svg width="100%" height="100%" viewBox="0 0 90 53" version="1.1" xmlns="http://www.w3.org/2000/svg" xmlns:xlink="http://www.w3.org/1999/xlink" xml:space="preserve" xmlns:serif="http://www.serif.com/" style="fill-rule:evenodd;clip-rule:evenodd;stroke-linejoin:round;stroke-miterlimit:2;"><path d="M38.382,4.637l-0,-2.516c-0,-1.171 0.95,-2.121 2.121,-2.121l9.898,-0c1.171,-0 2.121,0.95 2.121,2.121l0,2.559c16.915,3.045 30.186,16.63 32.759,33.702l2.492,-0c1.171,-0 2.121,0.95 2.121,2.121l0,9.898c0,1.171 -0.95,2.121 -2.121,2.121l-9.898,0c-1.171,0 -2.121,-0.95 -2.121,-2.121l-0,-9.898c-0,-1.171 0.95,-2.121 2.121,-2.121l3.314,-0c-2.494,-14.839 -13.989,-26.64 -28.667,-29.589l0,3.227c0,1.17 -0.95,2.121 -2.121,2.121l-9.898,-0c-1.171,-0 -2.121,-0.951 -2.121,-2.121l-0,-3.275c-14.795,2.868 -26.401,14.717 -28.909,29.637l2.547,-0c1.17,-0 2.121,0.95 2.121,2.121l-0,9.898c-0,1.171 -0.951,2.121 -2.121,2.121l-9.899,0c-1.171,0 -2.121,-0.95 -2.121,-2.121l0,-9.898c0,-1.171 0.95,-2.121 2.121,-2.121l3.261,-0c2.585,-17.154 15.97,-30.787 33,-33.745Z" style="fill:#fff;"/></svg>