<?xml version="1.0" encoding="UTF-8" standalone="no"?><!DOCTYPE svg PUBLIC "-//W3C//DTD SVG 1.1//EN" "http://www.w3.org/Graphics/SVG/1.1/DTD/svg11.dtd"><svg width="100%" height="100%" viewBox="0 0 86 65" version="1.1" xmlns="http://www.w3.org/2000/svg" xmlns:xlink="http://www.w3.org/1999/xlink" xml:space="preserve" xmlns:serif="http://www.serif.com/" style="fill-rule:evenodd;clip-rule:evenodd;stroke-linejoin:round;stroke-miterlimit:2;"><path d="M85.536,53.53c0,-2.224 -1.805,-4.03 -4.03,-4.03l-7.69,-0c-2.224,-0 -4.03,1.806 -4.03,4.03l0,7.44c0,2.224 1.806,4.03 4.03,4.03l7.69,-0c2.225,-0 4.03,-1.806 4.03,-4.03l0,-7.44Zm-20.775,0.387l-61.412,-0c-1.84,-0 -3.333,1.493 -3.333,3.333c-0,1.84 1.493,3.333 3.333,3.333l61.412,0l0,-6.666Zm-13.725,-18.084l30.438,0c1.84,0 3.333,-1.493 3.333,-3.333c0,-1.84 -1.493,-3.333 -3.333,-3.333l-30.438,-0l0,-0.387c0,-2.224 -1.805,-4.03 -4.03,-4.03l-7.69,0c-2.224,0 -4.03,1.806 -4.03,4.03l0,7.44c0,2.224 1.806,4.03 4.03,4.03l7.69,-0c2.225,-0 4.03,-1.806 4.03,-4.03l0,-0.387Zm-21.525,-6.666l-26.162,-0c-1.84,-0 -3.333,1.493 -3.333,3.333c-0,1.84 1.493,3.333 3.333,3.333l26.162,0l0,-6.666Zm-13.761,-25.137c-0,-2.224 -1.806,-4.03 -4.03,-4.03l-7.69,0c-2.224,0 -4.03,1.806 -4.03,4.03l0,7.44c0,2.224 1.806,4.03 4.03,4.03l7.69,-0c2.224,-0 4.03,-1.806 4.03,-4.03l-0,-7.44Zm4.761,0.387l0,6.666l60.963,0c1.84,0 3.333,-1.493 3.333,-3.333c0,-1.84 -1.493,-3.333 -3.333,-3.333l-60.963,-0Z" style="fill:#fff;"/></svg>