<?xml version="1.0" encoding="UTF-8" standalone="no"?><!DOCTYPE svg PUBLIC "-//W3C//DTD SVG 1.1//EN" "http://www.w3.org/Graphics/SVG/1.1/DTD/svg11.dtd"><svg width="100%" height="100%" viewBox="0 0 61 62" version="1.1" xmlns="http://www.w3.org/2000/svg" xmlns:xlink="http://www.w3.org/1999/xlink" xml:space="preserve" xmlns:serif="http://www.serif.com/" style="fill-rule:evenodd;clip-rule:evenodd;stroke-linejoin:round;stroke-miterlimit:2;"><path id="Main" d="M26.25,39.75c-0,-2.898 -2.352,-5.25 -5.25,-5.25l-15.75,0c-2.898,0 -5.25,2.352 -5.25,5.25l-0,16.5c-0,2.898 2.352,5.25 5.25,5.25l15.75,-0c2.898,-0 5.25,-2.352 5.25,-5.25l-0,-16.5Zm34.079,-0c-0,-2.898 -2.353,-5.25 -5.25,-5.25l-15.75,0c-2.898,0 -5.25,2.352 -5.25,5.25l-0,16.5c-0,2.898 2.352,5.25 5.25,5.25l15.75,-0c2.897,-0 5.25,-2.352 5.25,-5.25l-0,-16.5Zm-34.079,-34.5c-0,-2.898 -2.352,-5.25 -5.25,-5.25l-15.75,0c-2.898,0 -5.25,2.352 -5.25,5.25l-0,16.5c-0,2.898 2.352,5.25 5.25,5.25l15.75,-0c2.898,-0 5.25,-2.352 5.25,-5.25l-0,-16.5Zm34.079,-0c-0,-2.898 -2.353,-5.25 -5.25,-5.25l-15.75,0c-2.898,0 -5.25,2.352 -5.25,5.25l-0,16.5c-0,2.898 2.352,5.25 5.25,5.25l15.75,-0c2.897,-0 5.25,-2.352 5.25,-5.25l-0,-16.5Z" style="fill:#fff;"/></svg>