<?xml version="1.0" encoding="UTF-8" standalone="no"?><!DOCTYPE svg PUBLIC "-//W3C//DTD SVG 1.1//EN" "http://www.w3.org/Graphics/SVG/1.1/DTD/svg11.dtd"><svg width="100%" height="100%" viewBox="0 0 87 67" version="1.1" xmlns="http://www.w3.org/2000/svg" xmlns:xlink="http://www.w3.org/1999/xlink" xml:space="preserve" xmlns:serif="http://www.serif.com/" style="fill-rule:evenodd;clip-rule:evenodd;stroke-linejoin:round;stroke-miterlimit:2;"><path d="M4.296,66.334l78.125,0c2.3,0 4.167,-1.867 4.167,-4.166c0,-2.3 -1.867,-4.167 -4.167,-4.167l-78.125,-0c-2.299,-0 -4.166,1.867 -4.166,4.167c-0,2.299 1.867,4.166 4.166,4.166Zm0,-24l78.125,0c2.3,0 4.167,-1.867 4.167,-4.166c0,-2.3 -1.867,-4.167 -4.167,-4.167l-78.125,-0c-2.299,-0 -4.166,1.867 -4.166,4.167c-0,2.299 1.867,4.166 4.166,4.166Zm82.432,-35.667c-0,-3.682 -2.985,-6.667 -6.667,-6.667l-73.394,-0c-3.682,-0 -6.667,2.985 -6.667,6.667l-0,7c-0,3.682 2.985,6.666 6.667,6.666l73.394,0c3.682,0 6.667,-2.984 6.667,-6.666l-0,-7Zm-6.667,-0l-73.394,-0l-0,7l73.394,-0l0,-7Z" style="fill:#fff;"/></svg>