<?xml version="1.0" encoding="utf-8"?>
<!-- Generator: Adobe Illustrator 27.7.0, SVG Export Plug-In . SVG Version: 6.00 Build 0)  -->
<svg version="1.1" id="Layer_1" xmlns="http://www.w3.org/2000/svg" xmlns:xlink="http://www.w3.org/1999/xlink" x="0px" y="0px"
	 viewBox="0 0 512 512" style="enable-background:new 0 0 512 512;" xml:space="preserve">
<g>
	<path d="M475.3,426.9L270.5,286.1c-8.73-6-20.28-6-29.01,0L36.7,426.9c-11.65,8.01-14.6,23.95-6.59,35.6s23.95,14.6,35.6,6.59
		L256,338.27L446.3,469.1c11.65,8.01,27.59,5.06,35.6-6.59C489.91,450.85,486.95,434.91,475.3,426.9L475.3,426.9z"/>
	<path d="M230.4,64v243.2c0,14.14,11.46,25.6,25.6,25.6c14.14,0,25.6-11.46,25.6-25.6V64c0-14.14-11.46-25.6-25.6-25.6
		C241.86,38.4,230.4,49.86,230.4,64"/>
	<path d="M204.8,64c0.02,28.29,22.91,51.18,51.2,51.2c28.29-0.02,51.18-22.91,51.2-51.2c-0.02-28.29-22.91-51.18-51.2-51.2
		C227.71,12.82,204.82,35.71,204.8,64c0,14.14,11.46,25.6,25.6,25.6c14.14,0,25.6-11.46,25.6-25.6v0v0h0
		c0-14.14-11.46-25.6-25.6-25.6C216.26,38.4,204.8,49.86,204.8,64L204.8,64z"/>
	<path d="M0,448c0.02,28.29,22.91,51.18,51.2,51.2c28.29-0.02,51.18-22.91,51.2-51.2c-0.02-28.29-22.91-51.18-51.2-51.2
		C22.91,396.82,0.02,419.71,0,448c0,14.14,11.46,25.6,25.6,25.6s25.6-11.46,25.6-25.6l0,0l0,0h0c0-14.14-11.46-25.6-25.6-25.6
		S0,433.86,0,448L0,448z"/>
	<path d="M409.6,448c0.02,28.29,22.91,51.18,51.2,51.2c28.29-0.02,51.18-22.91,51.2-51.2c-0.02-28.29-22.91-51.18-51.2-51.2
		C432.51,396.82,409.62,419.71,409.6,448c0,14.14,11.46,25.6,25.6,25.6c14.14,0,25.6-11.46,25.6-25.6l0,0l0,0h0
		c0-14.14-11.46-25.6-25.6-25.6C421.06,422.4,409.6,433.86,409.6,448L409.6,448z"/>
</g>
</svg>
