<?xml version="1.0" encoding="UTF-8" standalone="no"?><!DOCTYPE svg PUBLIC "-//W3C//DTD SVG 1.1//EN" "http://www.w3.org/Graphics/SVG/1.1/DTD/svg11.dtd"><svg width="100%" height="100%" viewBox="0 0 71 71" version="1.1" xmlns="http://www.w3.org/2000/svg" xmlns:xlink="http://www.w3.org/1999/xlink" xml:space="preserve" xmlns:serif="http://www.serif.com/" style="fill-rule:evenodd;clip-rule:evenodd;stroke-linejoin:round;stroke-miterlimit:2;"><path d="M63.431,66.708l-56.107,0c-0.151,1.116 -0.297,2.228 -0.44,3.334l57.006,-0c-0.148,-1.106 -0.3,-2.218 -0.459,-3.334Zm-56.102,-0.039l56.097,0c-1.377,-9.693 -3.222,-19.665 -6.57,-27.954c-4.096,-10.141 -10.473,-17.715 -21.835,-17.715c-11.33,0 -17.52,7.555 -21.442,17.667c-3.22,8.303 -4.933,18.294 -6.25,28.002Zm-7.329,-1.6c1.82,-13.007 4.383,-26.474 9.899,-36.172c5.294,-9.308 13.149,-15.397 25.122,-15.397c11.942,0 19.915,6.069 25.361,15.354c5.026,8.569 7.773,20.077 9.66,31.614l-0,-57.135c-0,-1.841 -1.493,-3.333 -3.334,-3.333l-63.375,-0c-1.841,-0 -3.333,1.492 -3.333,3.333l0,61.736Z" style="fill:#fff;"/></svg>