<?xml version="1.0" encoding="UTF-8" standalone="no"?><!DOCTYPE svg PUBLIC "-//W3C//DTD SVG 1.1//EN" "http://www.w3.org/Graphics/SVG/1.1/DTD/svg11.dtd"><svg width="100%" height="100%" viewBox="0 0 105 77" version="1.1" xmlns="http://www.w3.org/2000/svg" xmlns:xlink="http://www.w3.org/1999/xlink" xml:space="preserve" xmlns:serif="http://www.serif.com/" style="fill-rule:evenodd;clip-rule:evenodd;stroke-linejoin:round;stroke-miterlimit:2;"><path id="Library" d="M11.275,69.775l19.625,0l-9.813,-9.813l-9.812,9.813Zm67.475,0l-26.621,-26.622l-19.801,19.801l6.822,6.821l39.6,0Zm4.938,-3.312l-0,-45.563l-76.751,-0l0,44.963l12.088,-12.088c1.139,-1.139 2.986,-1.139 4.125,0l5.054,5.054l21.862,-21.863c1.139,-1.139 2.986,-1.139 4.125,0l29.497,29.497Zm6.937,-10.963l6.7,-0l-0,-48.563l-76.312,0l-0,6.963l65.839,-0c2.083,-0 3.773,1.69 3.773,3.772l-0,37.828Zm-0,17.502l-0,-10.19l10.244,0c2.08,0 3.768,-1.688 3.768,-3.768l0,-55.275c0,-2.08 -1.688,-3.769 -3.768,-3.769l-82.838,0c-2.08,0 -3.768,1.689 -3.768,3.769l-0,10.131l-10.491,-0c-2.082,-0 -3.772,1.69 -3.772,3.772l0,55.33c0,2.083 1.69,3.773 3.772,3.773l83.08,-0c2.083,-0 3.773,-1.69 3.773,-3.773Z" style="fill:#fff;"/></svg>