<?xml version="1.0" encoding="UTF-8" standalone="no"?><!DOCTYPE svg PUBLIC "-//W3C//DTD SVG 1.1//EN" "http://www.w3.org/Graphics/SVG/1.1/DTD/svg11.dtd"><svg width="100%" height="100%" viewBox="0 0 103 103" version="1.1" xmlns="http://www.w3.org/2000/svg" xmlns:xlink="http://www.w3.org/1999/xlink" xml:space="preserve" xmlns:serif="http://www.serif.com/" style="fill-rule:evenodd;clip-rule:evenodd;stroke-linejoin:round;stroke-miterlimit:2;"><g><circle cx="51.298" cy="52.473" r="30" style="fill:#fff;"/><path d="M23.602,23.404c0.39,-0.39 0.39,-1.023 -0,-1.414l-7.071,-7.071c-0.391,-0.39 -1.024,-0.39 -1.415,0l-2.121,2.122c-0.39,0.39 -0.39,1.023 0,1.414l7.071,7.071c0.39,0.39 1.024,0.39 1.414,-0l2.122,-2.122Z" style="fill:#fff;"/><path d="M12,49.875c0,-0.552 -0.448,-1 -1,-1l-10,0c-0.552,0 -1,0.448 -1,1l0,3c0,0.552 0.448,1 1,1l10,0c0.552,0 1,-0.448 1,-1l0,-3Z" style="fill:#fff;"/><path d="M102.75,49.875c0,-0.552 -0.448,-1 -1,-1l-10,0c-0.552,0 -1,0.448 -1,1l0,3c0,0.552 0.448,1 1,1l10,0c0.552,0 1,-0.448 1,-1l0,-3Z" style="fill:#fff;"/><path d="M49.883,90.75c-0.552,-0 -1,0.448 -1,1l-0,10c-0,0.552 0.448,1 1,1l3,0c0.552,0 1,-0.448 1,-1l-0,-10c-0,-0.552 -0.448,-1 -1,-1l-3,-0Z" style="fill:#fff;"/><path d="M49.883,-0c-0.552,-0 -1,0.448 -1,1l-0,10c-0,0.552 0.448,1 1,1l3,0c0.552,0 1,-0.448 1,-1l-0,-10c-0,-0.552 -0.448,-1 -1,-1l-3,-0Z" style="fill:#fff;"/><path d="M78.995,23.404c-0.39,-0.39 -0.39,-1.023 0,-1.414l7.071,-7.071c0.39,-0.39 1.024,-0.39 1.414,0l2.122,2.122c0.39,0.39 0.39,1.023 -0,1.414l-7.071,7.071c-0.391,0.39 -1.024,0.39 -1.415,-0l-2.121,-2.122Z" style="fill:#fff;"/><path d="M23.602,85.291c0.39,0.39 0.39,1.023 -0,1.414l-7.071,7.071c-0.391,0.39 -1.024,0.39 -1.415,-0l-2.121,-2.122c-0.39,-0.39 -0.39,-1.023 0,-1.414l7.071,-7.071c0.39,-0.39 1.024,-0.39 1.414,0l2.122,2.122Z" style="fill:#fff;"/><path d="M78.995,85.291c-0.39,0.39 -0.39,1.023 0,1.414l7.071,7.071c0.39,0.39 1.024,0.39 1.414,-0l2.122,-2.122c0.39,-0.39 0.39,-1.023 -0,-1.414l-7.071,-7.071c-0.391,-0.39 -1.024,-0.39 -1.415,0l-2.121,2.122Z" style="fill:#fff;"/></g></svg>