<?xml version="1.0" encoding="UTF-8" standalone="no"?><!DOCTYPE svg PUBLIC "-//W3C//DTD SVG 1.1//EN" "http://www.w3.org/Graphics/SVG/1.1/DTD/svg11.dtd"><svg width="100%" height="100%" viewBox="0 0 78 78" version="1.1" xmlns="http://www.w3.org/2000/svg" xmlns:xlink="http://www.w3.org/1999/xlink" xml:space="preserve" xmlns:serif="http://www.serif.com/" style="fill-rule:evenodd;clip-rule:evenodd;stroke-linejoin:round;stroke-miterlimit:2;"><path id="Material" d="M49.1,77.934l-35.811,-35.811l-9.694,9.693l26.118,26.118l19.387,-0Zm28.862,-4.085c-0.217,1.709 -1.357,3.131 -2.904,3.751l-19.826,-0l22.73,-22.85l0,19.099Zm-55.269,3.751l-22.693,-22.812l-0,18.466c-0,1.969 1.219,3.655 2.942,4.346l19.751,-0Zm55.269,-48.504l-0.001,-0.002l-35.942,35.941l9.693,9.693l26.25,-26.25l0,-19.382Zm-61.617,9.97l22.617,22.617l9.694,-9.693l-22.617,-22.617l-9.694,9.693Zm12.75,-12.75l22.617,22.617l9.694,-9.693l-22.617,-22.617l-9.694,9.693Zm-29.095,2.843l0,19.387l35.73,-35.73l-9.693,-9.693l-26.037,26.036Zm48.869,-29.159l-19.387,-0l35.729,35.728l9.693,-9.693l-26.035,-26.035Zm25.237,-0c2.017,0.341 3.597,1.976 3.856,4.019l0,18.831l-22.73,-22.85l18.874,-0Zm-74.106,22.812l22.693,-22.812l-18.799,-0c-2.209,0.374 -3.894,2.299 -3.894,4.614l0,18.198Z" style="fill:#fff;"/></svg>