<?xml version="1.0" encoding="UTF-8" standalone="no"?><!DOCTYPE svg PUBLIC "-//W3C//DTD SVG 1.1//EN" "http://www.w3.org/Graphics/SVG/1.1/DTD/svg11.dtd"><svg width="100%" height="100%" viewBox="0 0 525 142" version="1.1" xmlns="http://www.w3.org/2000/svg" xmlns:xlink="http://www.w3.org/1999/xlink" xml:space="preserve" xmlns:serif="http://www.serif.com/" style="fill-rule:evenodd;clip-rule:evenodd;stroke-linejoin:round;stroke-miterlimit:2;"><path d="M454.167,0c39.094,0 70.833,31.739 70.833,70.833c0,39.094 -31.739,70.834 -70.833,70.834c-39.094,-0 -70.834,-31.74 -70.834,-70.834c0,-39.094 31.74,-70.833 70.834,-70.833Zm-383.334,0c39.094,0 70.834,31.739 70.834,70.833c-0,39.094 -31.74,70.834 -70.834,70.834c-39.094,-0 -70.833,-31.74 -70.833,-70.834c-0,-39.094 31.739,-70.833 70.833,-70.833Zm284.994,52.604c-1.09,5.91 -1.66,12.004 -1.66,18.229c-0,8.069 0.957,15.916 2.766,23.438l-188.866,-0c1.809,-7.522 2.766,-15.369 2.766,-23.438c0,-6.225 -0.57,-12.319 -1.66,-18.229l186.654,0Z" style="fill:#ebebeb;"/></svg>