<?xml version="1.0" encoding="UTF-8" standalone="no"?><!DOCTYPE svg PUBLIC "-//W3C//DTD SVG 1.1//EN" "http://www.w3.org/Graphics/SVG/1.1/DTD/svg11.dtd"><svg width="100%" height="100%" viewBox="0 0 82 72" version="1.1" xmlns="http://www.w3.org/2000/svg" xmlns:xlink="http://www.w3.org/1999/xlink" xml:space="preserve" xmlns:serif="http://www.serif.com/" style="fill-rule:evenodd;clip-rule:evenodd;stroke-linejoin:round;stroke-miterlimit:2;"><path d="M30.606,25.565c-2.692,-2.712 -4.356,-6.446 -4.356,-10.565c-0,-8.279 6.721,-15 15,-15c8.279,-0 15,6.721 15,15c-0,4.119 -1.664,7.853 -4.356,10.565l10.712,16.898c1.186,-0.302 2.429,-0.463 3.709,-0.463c8.279,0 15,6.721 15,15c-0,8.279 -6.721,15 -15,15c-7.133,0 -13.11,-4.99 -14.628,-11.667l-22.059,0c-1.518,6.677 -7.495,11.667 -14.628,11.667c-8.279,0 -15,-6.721 -15,-15c0,-8.279 6.721,-15 15,-15c1.644,0 3.227,0.265 4.709,0.755l10.897,-17.19Zm18.675,2.103l10.146,16.006c-4.818,2.497 -8.112,7.53 -8.112,13.326l-21.315,-0c-0,-5.438 -2.9,-10.205 -7.238,-12.835l10.457,-16.497c2.323,1.477 5.078,2.332 8.031,2.332c2.953,-0 5.708,-0.855 8.031,-2.332Z" style="fill:#fff;"/></svg>