<?xml version="1.0" encoding="UTF-8" standalone="no"?><!DOCTYPE svg PUBLIC "-//W3C//DTD SVG 1.1//EN" "http://www.w3.org/Graphics/SVG/1.1/DTD/svg11.dtd"><svg width="100%" height="100%" viewBox="0 0 86 80" version="1.1" xmlns="http://www.w3.org/2000/svg" xmlns:xlink="http://www.w3.org/1999/xlink" xml:space="preserve" xmlns:serif="http://www.serif.com/" style="fill-rule:evenodd;clip-rule:evenodd;stroke-linejoin:round;stroke-miterlimit:2;"><path id="Relationship" d="M19.653,53.983l10.625,-18.939c0.118,-0.21 0.385,-0.285 0.596,-0.167l1.144,0.642c0.211,0.118 0.286,0.385 0.168,0.596l-10.672,19.023c3.327,2.46 5.486,6.411 5.486,10.862c0,7.451 -6.049,13.5 -13.5,13.5c-7.451,0 -13.5,-6.049 -13.5,-13.5c0,-7.451 6.049,-13.5 13.5,-13.5c2.216,0 4.308,0.535 6.153,1.483Zm38.868,11.267c0.39,-7.103 6.28,-12.75 13.479,-12.75c7.451,0 13.5,6.049 13.5,13.5c-0,7.451 -6.049,13.5 -13.5,13.5c-6.965,0 -12.705,-5.286 -13.424,-12.063l-21.932,0c-0.242,0 -0.438,-0.196 -0.438,-0.437l0,-1.313c0,-0.241 0.196,-0.437 0.438,-0.437l21.877,0Zm-25.39,0.435c0,-0.24 -0.195,-0.435 -0.435,-0.435l-1.305,-0c-0.24,-0 -0.435,0.195 -0.435,0.435l0,1.305c0,0.24 0.195,0.435 0.435,0.435l1.305,-0c0.24,-0 0.435,-0.195 0.435,-0.435l0,-1.305Zm29.644,-18.331c0.209,-0.117 0.475,-0.043 0.592,0.167l0.639,1.138c0.117,0.209 0.043,0.475 -0.167,0.592l-1.138,0.639c-0.209,0.117 -0.475,0.043 -0.592,-0.167l-0.639,-1.138c-0.117,-0.209 -0.043,-0.475 0.167,-0.592l1.138,-0.639Zm-14.176,-21.686c-1.769,0.854 -3.754,1.332 -5.849,1.332c-7.451,0 -13.5,-6.049 -13.5,-13.5c0,-7.451 6.049,-13.5 13.5,-13.5c7.451,0 13.5,6.049 13.5,13.5c0,4.574 -2.28,8.62 -5.763,11.062l10.949,19.516c0.118,0.211 0.043,0.478 -0.168,0.596l-1.144,0.642c-0.211,0.118 -0.478,0.043 -0.596,-0.168l-10.929,-19.48Zm-15.074,7.17c0.209,0.118 0.475,0.043 0.592,-0.166l0.639,-1.138c0.117,-0.21 0.043,-0.475 -0.167,-0.592l-1.138,-0.639c-0.209,-0.117 -0.475,-0.043 -0.592,0.167l-0.639,1.138c-0.117,0.209 -0.043,0.474 0.167,0.592l1.138,0.638Z" style="fill:#fff;"/></svg>