<?xml version="1.0" encoding="UTF-8" standalone="no"?><!DOCTYPE svg PUBLIC "-//W3C//DTD SVG 1.1//EN" "http://www.w3.org/Graphics/SVG/1.1/DTD/svg11.dtd"><svg width="100%" height="100%" viewBox="0 0 119 100" version="1.1" xmlns="http://www.w3.org/2000/svg" xmlns:xlink="http://www.w3.org/1999/xlink" xml:space="preserve" xmlns:serif="http://www.serif.com/" style="fill-rule:evenodd;clip-rule:evenodd;stroke-linejoin:round;stroke-miterlimit:2;"><path id="Repeat" d="M35.212,83.708c3.128,-0.037 28.568,-0.315 54.008,0.003c32.035,0.401 29.058,-33.947 29.058,-33.947c-0.231,-2.492 -2.442,-4.327 -4.934,-4.096c-2.492,0.231 -4.327,2.442 -4.096,4.934c-0,-0 2.466,24.321 -19.915,24.041c-26.743,-0.334 -53.487,-0.013 -54.497,-0.001l-0.164,0l9.366,-9.365c1.769,-1.77 1.769,-4.643 -0,-6.413c-1.77,-1.77 -4.644,-1.77 -6.413,0l-16.835,16.835c-1.77,1.77 -1.77,4.641 0,6.412l16.427,16.427c1.769,1.769 4.643,1.769 6.412,-0c1.77,-1.77 1.77,-4.644 0,-6.413l-8.417,-8.417Zm47.927,-67.551c-3.128,0.037 -28.568,0.315 -54.008,-0.003c-32.035,-0.401 -29.058,33.947 -29.058,33.947c0.231,2.492 2.442,4.327 4.934,4.096c2.492,-0.231 4.328,-2.442 4.096,-4.934c0,0 -2.466,-24.321 19.915,-24.041c26.743,0.334 53.487,0.013 54.498,0l0.163,0l-9.365,9.366c-1.77,1.77 -1.77,4.643 -0,6.413c1.769,1.769 4.643,1.769 6.413,-0l16.834,-16.835c1.771,-1.771 1.771,-4.642 -0,-6.412l-16.426,-16.427c-1.77,-1.769 -4.643,-1.769 -6.413,0c-1.77,1.77 -1.77,4.643 -0,6.413l8.417,8.417Z" style="fill:#fff;"/></svg>