<?xml version="1.0" encoding="UTF-8" standalone="no"?><!DOCTYPE svg PUBLIC "-//W3C//DTD SVG 1.1//EN" "http://www.w3.org/Graphics/SVG/1.1/DTD/svg11.dtd"><svg width="100%" height="100%" viewBox="0 0 122 68" version="1.1" xmlns="http://www.w3.org/2000/svg" xmlns:xlink="http://www.w3.org/1999/xlink" xml:space="preserve" xmlns:serif="http://www.serif.com/" style="fill-rule:evenodd;clip-rule:evenodd;stroke-linejoin:round;stroke-miterlimit:2;"><path d="M33.594,0c18.542,0 33.595,15.053 33.595,33.594c-0,18.542 -15.053,33.595 -33.595,33.595c-18.541,-0 -33.594,-15.053 -33.594,-33.595c0,-18.541 15.053,-33.594 33.594,-33.594Zm26.374,0.017c0.351,-0.011 0.706,-0.017 1.062,-0.017c18.541,0 33.594,15.053 33.594,33.594c0,18.017 -14.213,32.74 -32.027,33.559c9.463,-7.704 15.51,-19.442 15.51,-32.581c0,-14.318 -7.182,-26.973 -18.139,-34.555Zm26.876,-0c0.351,-0.011 0.706,-0.017 1.062,-0.017c18.541,0 33.594,15.053 33.594,33.594c0,18.017 -14.213,32.74 -32.027,33.559c9.463,-7.704 15.51,-19.442 15.51,-32.581c-0,-14.318 -7.182,-26.973 -18.139,-34.555Z" style="fill:#fff;"/></svg>