<?xml version="1.0" encoding="UTF-8" standalone="no"?><!DOCTYPE svg PUBLIC "-//W3C//DTD SVG 1.1//EN" "http://www.w3.org/Graphics/SVG/1.1/DTD/svg11.dtd"><svg width="100%" height="100%" viewBox="0 0 109 60" version="1.1" xmlns="http://www.w3.org/2000/svg" xmlns:xlink="http://www.w3.org/1999/xlink" xml:space="preserve" xmlns:serif="http://www.serif.com/" style="fill-rule:evenodd;clip-rule:evenodd;stroke-linejoin:round;stroke-miterlimit:2;"><path d="M30,0c16.557,0 30,13.443 30,30c0,16.557 -13.443,30 -30,30c-16.557,-0 -30,-13.443 -30,-30c0,-16.557 13.443,-30 30,-30Zm23.552,0.015c0.313,-0.01 0.63,-0.015 0.948,-0.015c16.557,0 30,13.443 30,30c-0,16.089 -12.692,29.237 -28.6,29.968c8.45,-6.88 13.85,-17.362 13.85,-29.095c0,-12.786 -6.413,-24.087 -16.198,-30.858Zm24,-0c0.313,-0.01 0.63,-0.015 0.948,-0.015c16.557,-0 30,13.443 30,30c-0,16.089 -12.692,29.237 -28.6,29.968c8.45,-6.88 13.85,-17.362 13.85,-29.095c0,-12.786 -6.413,-24.087 -16.198,-30.858Z" style="fill:#fff;"/></svg>