<?xml version="1.0" encoding="UTF-8" standalone="no"?><!DOCTYPE svg PUBLIC "-//W3C//DTD SVG 1.1//EN" "http://www.w3.org/Graphics/SVG/1.1/DTD/svg11.dtd"><svg width="100%" height="100%" viewBox="0 0 98 77" version="1.1" xmlns="http://www.w3.org/2000/svg" xmlns:xlink="http://www.w3.org/1999/xlink" xml:space="preserve" xmlns:serif="http://www.serif.com/" style="fill-rule:evenodd;clip-rule:evenodd;stroke-linejoin:round;stroke-miterlimit:2;"><path d="M57.586,4.89l3.436,-4.89l-12.872,0l3.436,4.89l0,71.11l6,0l0,-71.11Zm-15.75,58.109l-40.036,-0c-0.993,-0 -1.8,0.806 -1.8,1.8l0,5.4c0,0.993 0.807,1.8 1.8,1.8l40.036,-0l0,-9Zm25.5,-0l0,9l15.325,-0c0.994,-0 1.8,-0.807 1.8,-1.8l0,-5.4c0,-0.994 -0.806,-1.8 -1.8,-1.8l-15.325,-0Zm-25.5,-19.5l-40.036,-0c-0.993,-0 -1.8,0.806 -1.8,1.8l0,5.4c0,0.993 0.807,1.8 1.8,1.8l40.036,-0l0,-9Zm25.5,-0l0,9l28.075,-0c0.994,-0 1.8,-0.807 1.8,-1.8l0,-5.4c0,-0.994 -0.806,-1.8 -1.8,-1.8l-28.075,-0Zm-25.5,-19.5l-40.036,-0c-0.993,-0 -1.8,0.806 -1.8,1.8l0,5.4c0,0.993 0.807,1.8 1.8,1.8l40.036,-0l0,-9Zm25.5,-0l0,9l15.325,-0c0.994,-0 1.8,-0.807 1.8,-1.8l0,-5.4c0,-0.994 -0.806,-1.8 -1.8,-1.8l-15.325,-0Zm-25.5,-19.5l-40.036,-0c-0.993,-0 -1.8,0.806 -1.8,1.8l0,5.4c0,0.993 0.807,1.8 1.8,1.8l40.036,-0l0,-9Zm25.5,-0l0,9l28.075,-0c0.994,-0 1.8,-0.807 1.8,-1.8l0,-5.4c0,-0.994 -0.806,-1.8 -1.8,-1.8l-28.075,-0Z" style="fill:#fff;"/></svg>