<?xml version="1.0" encoding="UTF-8" standalone="no"?><!DOCTYPE svg PUBLIC "-//W3C//DTD SVG 1.1//EN" "http://www.w3.org/Graphics/SVG/1.1/DTD/svg11.dtd"><svg width="100%" height="100%" viewBox="0 0 400 400" version="1.1" xmlns="http://www.w3.org/2000/svg" xmlns:xlink="http://www.w3.org/1999/xlink" xml:space="preserve" xmlns:serif="http://www.serif.com/" style="fill-rule:evenodd;clip-rule:evenodd;stroke-linejoin:round;stroke-miterlimit:2;"><path d="M281.098,283.014c-7.837,48.678 -22.361,88.736 -40.691,112.894c-13.049,2.683 -26.565,4.092 -40.407,4.092c-13.842,0 -27.358,-1.409 -40.407,-4.092c-18.33,-24.158 -32.854,-64.216 -40.691,-112.894l162.196,-0Zm-190.156,-0c6.082,39.32 16.269,73.758 28.992,100.291c-45.073,-19.74 -81.489,-55.616 -101.919,-100.291l72.927,-0Zm291.043,-0c-20.43,44.675 -56.846,80.551 -101.919,100.291c12.723,-26.533 22.91,-60.971 28.992,-100.291l72.927,-0Zm-373.427,-25c-5.566,-18.372 -8.558,-37.846 -8.558,-58.014c0,-18.578 2.539,-36.568 7.291,-53.653l79.98,-0c-1.661,17.235 -2.549,35.195 -2.549,53.653c0,20.019 1.044,39.452 2.988,58.014l-79.152,-0Zm106.997,-0c-1.991,-18.484 -3.055,-37.938 -3.055,-58.014c-0,-18.502 0.903,-36.475 2.605,-53.653l169.79,-0c1.702,17.178 2.605,35.151 2.605,53.653c0,20.076 -1.064,39.53 -3.055,58.014l-168.89,-0Zm196.735,-0c1.944,-18.562 2.988,-37.995 2.988,-58.014c-0,-18.458 -0.888,-36.418 -2.549,-53.653l79.98,-0c4.752,17.085 7.291,35.075 7.291,53.653c0,20.168 -2.992,39.642 -8.558,58.014l-79.152,-0Zm-296.206,-136.667c20.021,-46.705 57.323,-84.276 103.85,-104.652c-13.191,27.51 -23.657,63.516 -29.646,104.652l-74.204,-0Zm102.137,-0c7.661,-50.652 22.499,-92.382 41.372,-117.255c13.049,-2.683 26.565,-4.092 40.407,-4.092c13.842,-0 27.358,1.409 40.407,4.092c18.873,24.873 33.711,66.603 41.372,117.255l-163.558,-0Zm191.491,-0c-5.989,-41.136 -16.455,-77.142 -29.646,-104.652c46.527,20.376 83.829,57.947 103.85,104.652l-74.204,-0Z" style="fill:#fff;"/></svg>