<?xml version="1.0" encoding="UTF-8" standalone="no"?><!DOCTYPE svg PUBLIC "-//W3C//DTD SVG 1.1//EN" "http://www.w3.org/Graphics/SVG/1.1/DTD/svg11.dtd"><svg width="100%" height="100%" viewBox="0 0 400 400" version="1.1" xmlns="http://www.w3.org/2000/svg" xmlns:xlink="http://www.w3.org/1999/xlink" xml:space="preserve" xmlns:serif="http://www.serif.com/" style="fill-rule:evenodd;clip-rule:evenodd;stroke-linejoin:round;stroke-miterlimit:2;"><path d="M200,0c-110.383,0 -200,89.617 -200,200c0,110.383 89.617,200 200,200c110.383,0 200,-89.617 200,-200c0,-110.383 -89.617,-200 -200,-200Zm-128.654,107.737l220.917,220.917c-25.987,18.677 -57.85,29.679 -92.263,29.679c-87.387,0 -158.333,-70.946 -158.333,-158.333c-0,-34.413 11.002,-66.276 29.679,-92.263Zm256.437,185.725l-221.245,-221.245c26.199,-19.205 58.516,-30.55 93.462,-30.55c87.387,-0 158.333,70.946 158.333,158.333c0,34.946 -11.345,67.263 -30.55,93.462Z" style="fill:#fff;"/></svg>