<?xml version="1.0" encoding="UTF-8" standalone="no"?><!DOCTYPE svg PUBLIC "-//W3C//DTD SVG 1.1//EN" "http://www.w3.org/Graphics/SVG/1.1/DTD/svg11.dtd"><svg width="100%" height="100%" viewBox="0 0 283 400" version="1.1" xmlns="http://www.w3.org/2000/svg" xmlns:xlink="http://www.w3.org/1999/xlink" xml:space="preserve" xmlns:serif="http://www.serif.com/" style="fill-rule:evenodd;clip-rule:evenodd;stroke-linejoin:round;stroke-miterlimit:2;"><path d="M203.925,368.792l0,-44.438l-124.83,0l-0,44.438c-0,17.224 13.983,31.208 31.207,31.208l62.416,-0c17.224,-0 31.207,-13.984 31.207,-31.208Zm-156.237,-123.538c-29.243,-25.704 -47.688,-63.251 -47.688,-105.046c-0,-77.383 63.23,-140.208 141.113,-140.208c77.882,-0 141.112,62.825 141.112,140.208c0,41.795 -18.445,79.342 -47.688,105.046c-10.855,13.105 -24.641,33.206 -30.612,56.325l-125.624,-0c-2.562,-9.822 -6.504,-19.232 -11.35,-28.14c-5.404,-9.935 -11.905,-19.246 -19.087,-27.974l-0.176,-0.211Zm66.685,-200.098c-26.21,-0 -47.49,21.279 -47.49,47.49l-13.568,-0c-0,-33.699 27.359,-61.059 61.058,-61.059l-0,13.569Z" style="fill:#ebebeb;"/></svg>