<?xml version="1.0" encoding="UTF-8" standalone="no"?><!DOCTYPE svg PUBLIC "-//W3C//DTD SVG 1.1//EN" "http://www.w3.org/Graphics/SVG/1.1/DTD/svg11.dtd"><svg width="100%" height="100%" viewBox="0 0 82 75" version="1.1" xmlns="http://www.w3.org/2000/svg" xmlns:xlink="http://www.w3.org/1999/xlink" xml:space="preserve" xmlns:serif="http://www.serif.com/" style="fill-rule:evenodd;clip-rule:evenodd;stroke-linejoin:round;stroke-miterlimit:2;"><path id="Color" d="M35.02,73.071c-2.99,1.243 -6.267,1.929 -9.704,1.929c-13.972,0 -25.316,-11.344 -25.316,-25.316c-0,-7.206 3.017,-13.713 7.856,-18.325c1.903,9.827 8.359,18.038 17.081,22.347c0.971,7.637 4.667,14.428 10.083,19.365Zm35.377,-44.433c6.78,4.543 11.249,12.276 11.249,21.046c-0,13.972 -11.344,25.316 -25.317,25.316c-11.731,0 -21.61,-7.997 -24.477,-18.833c2.273,0.52 4.641,0.795 7.072,0.795c16.344,0 29.811,-12.418 31.473,-28.324Zm-31.473,-28.638c13.973,0 25.317,11.344 25.317,25.316c-0,13.973 -11.344,25.317 -25.317,25.317c-13.972,-0 -25.316,-11.344 -25.316,-25.317c-0,-13.972 11.344,-25.316 25.316,-25.316Z" style="fill:#fff;"/></svg>