<?xml version="1.0" encoding="UTF-8" standalone="no"?><!DOCTYPE svg PUBLIC "-//W3C//DTD SVG 1.1//EN" "http://www.w3.org/Graphics/SVG/1.1/DTD/svg11.dtd"><svg width="100%" height="100%" viewBox="0 0 75 75" version="1.1" xmlns="http://www.w3.org/2000/svg" xmlns:xlink="http://www.w3.org/1999/xlink" xml:space="preserve" xmlns:serif="http://www.serif.com/" style="fill-rule:evenodd;clip-rule:evenodd;stroke-linejoin:round;stroke-miterlimit:2;"><path id="Scale" d="M75,12c0,-6.623 -5.377,-12 -12,-12l-51,0c-6.623,0 -12,5.377 -12,12l0,51c0,6.623 5.377,12 12,12l51,0c6.623,0 12,-5.377 12,-12l0,-51Zm-62.402,0.536c0.532,-0.548 1.276,-0.887 2.099,-0.885l15.736,0.04c1.61,0.004 2.913,1.314 2.909,2.924c-0.004,1.609 -1.314,2.913 -2.924,2.909l-8.708,-0.022l15.137,15.213l20.611,20.612l0,-8.695c0,-1.61 1.307,-2.917 2.917,-2.917c1.61,0 2.917,1.307 2.917,2.917l-0,15.736c-0,0.394 -0.079,0.77 -0.22,1.112l-0.004,0.009c-0.142,0.342 -0.352,0.663 -0.631,0.942l-0.069,0.069c-0.279,0.278 -0.601,0.487 -0.944,0.628l-0.008,0.004c-0.343,0.141 -0.719,0.218 -1.113,0.217l-15.736,-0.04c-1.61,-0.004 -2.913,-1.314 -2.909,-2.924c0.004,-1.609 1.314,-2.913 2.924,-2.909l8.695,0.022l-20.56,-20.663l-15.175,-15.175l-0,8.708c-0,1.61 -1.307,2.917 -2.917,2.917c-1.61,-0 -2.917,-1.307 -2.917,-2.917l0,-15.736c0,-0.823 0.341,-1.566 0.89,-2.096Z" style="fill:#fff;"/></svg>