<svg xmlns="http://www.w3.org/2000/svg" width="16" height="16" viewBox="0 0 16 16">
  <path id="Icon_map-health" data-name="Icon map-health" d="M16.72,6.053a.334.334,0,0,0-.333-.333H12.053a.334.334,0,0,1-.333-.333V1.053A.334.334,0,0,0,11.387.72H6.053a.334.334,0,0,0-.333.333V5.387a.334.334,0,0,1-.333.333H1.053a.334.334,0,0,0-.333.333v5.333a.334.334,0,0,0,.333.333H5.387a.334.334,0,0,1,.333.333v4.333a.334.334,0,0,0,.333.333h5.333a.334.334,0,0,0,.333-.333V12.053a.334.334,0,0,1,.333-.333h4.333a.334.334,0,0,0,.333-.333Z" transform="translate(-0.72 -0.72)"/>
</svg>
