<?xml version="1.0" encoding="UTF-8" standalone="no"?><!DOCTYPE svg PUBLIC "-//W3C//DTD SVG 1.1//EN" "http://www.w3.org/Graphics/SVG/1.1/DTD/svg11.dtd"><svg width="100%" height="100%" viewBox="0 0 75 75" version="1.1" xmlns="http://www.w3.org/2000/svg" xmlns:xlink="http://www.w3.org/1999/xlink" xml:space="preserve" xmlns:serif="http://www.serif.com/" style="fill-rule:evenodd;clip-rule:evenodd;stroke-linejoin:round;stroke-miterlimit:2;"><path id="Material" d="M47.234,74.972l-34.45,-34.45l-9.325,9.325l25.125,25.125l18.65,0Zm27.766,-3.93c-0.209,1.644 -1.306,3.013 -2.795,3.609l-19.072,0l21.867,-21.981l0,18.372Zm-53.169,3.609l-21.831,-21.945l-0,17.764c-0,1.894 1.172,3.517 2.831,4.181l19,0Zm53.169,-46.661l-0.002,-0.002l-34.575,34.576l9.324,9.325l25.253,-25.253l0,-18.646Zm-59.276,9.591l21.758,21.758l9.325,-9.325l-21.758,-21.757l-9.325,9.324Zm12.266,-12.265l21.757,21.758l9.325,-9.325l-21.757,-21.758l-9.325,9.325Zm-27.99,2.735l-0,18.65l34.372,-34.372l-9.325,-9.325l-25.047,25.047Zm47.012,-28.051l-18.65,0l34.371,34.371l9.324,-9.325l-25.045,-25.046Zm24.278,0c1.941,0.328 3.46,1.9 3.71,3.866l0,18.116l-21.867,-21.982l18.157,0Zm-71.29,21.945l21.831,-21.945l-18.085,0c-2.125,0.36 -3.746,2.211 -3.746,4.439l0,17.506Z" style="fill:#fff;"/></svg>