<?xml version="1.0" encoding="UTF-8" standalone="no"?><!DOCTYPE svg PUBLIC "-//W3C//DTD SVG 1.1//EN" "http://www.w3.org/Graphics/SVG/1.1/DTD/svg11.dtd"><svg width="100%" height="100%" viewBox="0 0 75 100" version="1.1" xmlns="http://www.w3.org/2000/svg" xmlns:xlink="http://www.w3.org/1999/xlink" xml:space="preserve" xmlns:serif="http://www.serif.com/" style="fill-rule:evenodd;clip-rule:evenodd;stroke-linejoin:round;stroke-miterlimit:2;"><path id="Fire" d="M24.981,99.88c-0,0 -24.559,-9.914 -24.922,-32.343c-0,0 -1.364,-16.143 9.065,-28.857c10.428,-12.714 25.571,-25.074 22,-38.68c-0,0 21.571,14.537 20.285,21.251c-1.285,6.715 -8,20 -0.571,24.143c-0,0 12.714,10.143 13.286,-2l0.428,-8c0,0 9.916,15.143 9.672,29.143c0,0 2.757,17 -19.815,32.572c0,-0 -8,-17.858 -11.428,-22c-3.429,-4.143 -7,-11 -8.715,4.571c0,0 -4.285,15.114 -9.285,20.2Z" style="fill:#fff;"/></svg>