<?xml version="1.0" encoding="UTF-8" standalone="no"?>
<!DOCTYPE svg PUBLIC "-//W3C//DTD SVG 1.1//EN" "http://www.w3.org/Graphics/SVG/1.1/DTD/svg11.dtd">
<svg width="100%" height="100%" viewBox="0 0 95 76" version="1.1" xmlns="http://www.w3.org/2000/svg" xmlns:xlink="http://www.w3.org/1999/xlink" xml:space="preserve" xmlns:serif="http://www.serif.com/" style="fill-rule:evenodd;clip-rule:evenodd;stroke-linejoin:round;stroke-miterlimit:2;">
    <g transform="matrix(1,0,0,1,-1686.63,-3064.46)">
        <g transform="matrix(1,0,0,1,187.7,2.57275)">
            <path d="M1590.63,3101.09C1591.23,3098.7 1590.69,3096.17 1589.17,3094.23C1587.65,3092.29 1585.33,3091.16 1582.87,3091.16C1566.18,3091.16 1533.88,3091.16 1522.9,3091.16C1520.6,3091.16 1518.5,3092.47 1517.5,3094.54C1512.71,3104.44 1499.07,3132.62 1499.07,3132.62C1499.66,3135.32 1502.06,3137.34 1504.93,3137.34C1520.42,3137.34 1561.61,3137.34 1577.1,3137.34C1580.42,3137.34 1583.1,3134.66 1583.1,3131.34C1583.1,3131.34 1587.67,3112.99 1590.63,3101.09ZM1498.93,3119.28C1498.93,3119.28 1509.67,3097.42 1513.86,3088.89C1514.87,3086.83 1516.96,3085.53 1519.25,3085.53C1533.43,3085.53 1583.1,3085.53 1583.1,3085.53L1583.1,3080.65C1583.1,3077.34 1580.42,3074.65 1577.11,3074.65C1565.38,3074.63 1540.51,3074.61 1540.51,3074.61C1540.51,3074.61 1536.98,3068.69 1534.49,3065.23C1532.99,3063.13 1530.57,3061.89 1527.99,3061.89C1522.2,3061.89 1511.61,3061.89 1504.93,3061.89C1503.34,3061.89 1501.82,3062.52 1500.69,3063.65C1499.57,3064.78 1498.93,3066.3 1498.93,3067.89L1498.93,3119.28Z" style="fill:white;"/>
        </g>
    </g>
</svg>
