<?xml version="1.0" encoding="UTF-8" standalone="no"?><!DOCTYPE svg PUBLIC "-//W3C//DTD SVG 1.1//EN" "http://www.w3.org/Graphics/SVG/1.1/DTD/svg11.dtd"><svg width="100%" height="100%" viewBox="0 0 75 75" version="1.1" xmlns="http://www.w3.org/2000/svg" xmlns:xlink="http://www.w3.org/1999/xlink" xml:space="preserve" xmlns:serif="http://www.serif.com/" style="fill-rule:evenodd;clip-rule:evenodd;stroke-linejoin:round;stroke-miterlimit:2;"><path id="Grid" d="M75,6c0,-3.311 -2.689,-6 -6,-6l-63,0c-3.311,0 -6,2.689 -6,6l0,63c0,3.311 2.689,6 6,6l63,0c3.311,0 6,-2.689 6,-6l0,-63Zm-51.471,46.882c0,-0.779 -0.632,-1.411 -1.411,-1.411l-14.824,-0c-0.779,-0 -1.412,0.632 -1.412,1.411l0,14.824c0,0.779 0.633,1.412 1.412,1.412l14.824,-0c0.779,-0 1.411,-0.633 1.411,-1.412l0,-14.824Zm22.795,0c-0,-0.779 -0.633,-1.411 -1.412,-1.411l-14.824,-0c-0.779,-0 -1.412,0.632 -1.412,1.411l0,14.824c0,0.779 0.633,1.412 1.412,1.412l14.824,-0c0.779,-0 1.412,-0.633 1.412,-1.412l-0,-14.824Zm22.794,0c-0,-0.779 -0.633,-1.411 -1.412,-1.411l-14.824,-0c-0.779,-0 -1.411,0.632 -1.411,1.411l-0,14.824c-0,0.779 0.632,1.412 1.411,1.412l14.824,-0c0.779,-0 1.412,-0.633 1.412,-1.412l-0,-14.824Zm-45.589,-22.794c0,-0.779 -0.632,-1.412 -1.411,-1.412l-14.824,0c-0.779,0 -1.412,0.633 -1.412,1.412l0,14.824c0,0.779 0.633,1.412 1.412,1.412l14.824,-0c0.779,-0 1.411,-0.633 1.411,-1.412l0,-14.824Zm22.795,0c-0,-0.779 -0.633,-1.412 -1.412,-1.412l-14.824,0c-0.779,0 -1.412,0.633 -1.412,1.412l0,14.824c0,0.779 0.633,1.412 1.412,1.412l14.824,-0c0.779,-0 1.412,-0.633 1.412,-1.412l-0,-14.824Zm22.794,0c-0,-0.779 -0.633,-1.412 -1.412,-1.412l-14.824,0c-0.779,0 -1.411,0.633 -1.411,1.412l-0,14.824c-0,0.779 0.632,1.412 1.411,1.412l14.824,-0c0.779,-0 1.412,-0.633 1.412,-1.412l-0,-14.824Zm-45.589,-22.794c0,-0.779 -0.632,-1.412 -1.411,-1.412l-14.824,0c-0.779,0 -1.412,0.633 -1.412,1.412l0,14.824c0,0.779 0.633,1.411 1.412,1.411l14.824,0c0.779,0 1.411,-0.632 1.411,-1.411l0,-14.824Zm22.795,0c-0,-0.779 -0.633,-1.412 -1.412,-1.412l-14.824,0c-0.779,0 -1.412,0.633 -1.412,1.412l0,14.824c0,0.779 0.633,1.411 1.412,1.411l14.824,0c0.779,0 1.412,-0.632 1.412,-1.411l-0,-14.824Zm22.794,0c-0,-0.779 -0.633,-1.412 -1.412,-1.412l-14.824,0c-0.779,0 -1.411,0.633 -1.411,1.412l-0,14.824c-0,0.779 0.632,1.411 1.411,1.411l14.824,0c0.779,0 1.412,-0.632 1.412,-1.411l-0,-14.824Z" style="fill:#fff;"/><path d="M75,6c0,-3.311 -2.689,-6 -6,-6l-63,0c-3.311,0 -6,2.689 -6,6l0,63c0,3.311 2.689,6 6,6l63,0c3.311,0 6,-2.689 6,-6l0,-63Zm-51.471,46.882c0,-0.779 -0.632,-1.411 -1.411,-1.411l-14.824,-0c-0.779,-0 -1.412,0.632 -1.412,1.411l0,14.824c0,0.779 0.633,1.412 1.412,1.412l14.824,-0c0.779,-0 1.411,-0.633 1.411,-1.412l0,-14.824Zm22.795,0c-0,-0.779 -0.633,-1.411 -1.412,-1.411l-14.824,-0c-0.779,-0 -1.412,0.632 -1.412,1.411l0,14.824c0,0.779 0.633,1.412 1.412,1.412l14.824,-0c0.779,-0 1.412,-0.633 1.412,-1.412l-0,-14.824Zm22.794,0c-0,-0.779 -0.633,-1.411 -1.412,-1.411l-14.824,-0c-0.779,-0 -1.411,0.632 -1.411,1.411l-0,14.824c-0,0.779 0.632,1.412 1.411,1.412l14.824,-0c0.779,-0 1.412,-0.633 1.412,-1.412l-0,-14.824Zm-45.589,-22.794c0,-0.779 -0.632,-1.412 -1.411,-1.412l-14.824,0c-0.779,0 -1.412,0.633 -1.412,1.412l0,14.824c0,0.779 0.633,1.412 1.412,1.412l14.824,-0c0.779,-0 1.411,-0.633 1.411,-1.412l0,-14.824Zm22.795,0c-0,-0.779 -0.633,-1.412 -1.412,-1.412l-14.824,0c-0.779,0 -1.412,0.633 -1.412,1.412l0,14.824c0,0.779 0.633,1.412 1.412,1.412l14.824,-0c0.779,-0 1.412,-0.633 1.412,-1.412l-0,-14.824Zm22.794,0c-0,-0.779 -0.633,-1.412 -1.412,-1.412l-14.824,0c-0.779,0 -1.411,0.633 -1.411,1.412l-0,14.824c-0,0.779 0.632,1.412 1.411,1.412l14.824,-0c0.779,-0 1.412,-0.633 1.412,-1.412l-0,-14.824Zm-45.589,-22.794c0,-0.779 -0.632,-1.412 -1.411,-1.412l-14.824,0c-0.779,0 -1.412,0.633 -1.412,1.412l0,14.824c0,0.779 0.633,1.411 1.412,1.411l14.824,0c0.779,0 1.411,-0.632 1.411,-1.411l0,-14.824Zm22.795,0c-0,-0.779 -0.633,-1.412 -1.412,-1.412l-14.824,0c-0.779,0 -1.412,0.633 -1.412,1.412l0,14.824c0,0.779 0.633,1.411 1.412,1.411l14.824,0c0.779,0 1.412,-0.632 1.412,-1.411l-0,-14.824Zm22.794,0c-0,-0.779 -0.633,-1.412 -1.412,-1.412l-14.824,0c-0.779,0 -1.411,0.633 -1.411,1.412l-0,14.824c-0,0.779 0.632,1.411 1.411,1.411l14.824,0c0.779,0 1.412,-0.632 1.412,-1.411l-0,-14.824Z" style="fill:#fff;"/></svg>