<?xml version="1.0" encoding="UTF-8" standalone="no"?><!DOCTYPE svg PUBLIC "-//W3C//DTD SVG 1.1//EN" "http://www.w3.org/Graphics/SVG/1.1/DTD/svg11.dtd"><svg width="100%" height="100%" viewBox="0 0 64 70" version="1.1" xmlns="http://www.w3.org/2000/svg" xmlns:xlink="http://www.w3.org/1999/xlink" xml:space="preserve" xmlns:serif="http://www.serif.com/" style="fill-rule:evenodd;clip-rule:evenodd;stroke-linejoin:round;stroke-miterlimit:2;"><path id="Brush_Decal" d="M20.51,43.053c1.473,1.408 3.736,3.244 6.37,5.118c2.497,1.777 4.853,3.25 6.635,4.191c0.012,1.501 -0.061,5.863 -1.202,8.359c-6.332,13.845 -23.5,7.34 -23.5,7.34c-8.475,-4.882 -8.813,-17.185 -8.813,-17.185c-0,0 3.03,2.025 6.371,3.613c3.341,1.588 3.464,-3.19 3.464,-3.19c2.266,-6.007 8.795,-7.836 10.675,-8.246Zm4.409,-2.232c-1.204,-3.267 -0.846,-9.612 1.766,-13.202c4.879,-6.705 21.408,-23.689 27.505,-27.028c1.62,-0.887 4.436,-0.838 6.337,0.576c2.028,1.509 3.081,4.477 2.736,6.418c-1.222,6.896 -11.519,27.778 -16.411,34.383c-2.771,3.741 -9.286,5.442 -12.941,5.251c-3.656,-0.191 -7.788,-3.131 -8.992,-6.398Z" style="fill:#fff;"/></svg>