<?xml version="1.0" encoding="UTF-8" standalone="no"?><!DOCTYPE svg PUBLIC "-//W3C//DTD SVG 1.1//EN" "http://www.w3.org/Graphics/SVG/1.1/DTD/svg11.dtd"><svg width="100%" height="100%" viewBox="0 0 101 97" version="1.1" xmlns="http://www.w3.org/2000/svg" xmlns:xlink="http://www.w3.org/1999/xlink" xml:space="preserve" xmlns:serif="http://www.serif.com/" style="fill-rule:evenodd;clip-rule:evenodd;stroke-linejoin:round;stroke-miterlimit:2;"><path d="M16.328,26.939l-12.715,-12.715c-3.252,-3.252 -3.252,-8.533 0,-11.785c3.252,-3.252 8.533,-3.252 11.785,0l15.881,15.881c5.4,-1.977 11.613,-3.199 18.721,-3.199c37.334,-0 50,33.705 50,33.705l-0.009,0.024c-0.233,0.606 -4.87,12.399 -16.319,21.863l11.465,11.465c3.252,3.252 3.252,8.533 -0,11.785c-3.252,3.252 -8.533,3.252 -11.785,-0l-14.631,-14.631c-5.4,1.977 -11.613,3.199 -18.721,3.199c-37.334,0 -50,-33.705 -50,-33.705l0.009,-0.024c0.233,-0.606 4.87,-12.399 16.319,-21.863Zm13.38,13.38l7.343,7.344c-0.034,0.384 -0.051,0.771 -0.051,1.163c0,7.175 5.825,13 13,13c0.392,0 0.779,-0.017 1.163,-0.051l7.344,7.343c-2.618,1.1 -5.492,1.708 -8.507,1.708c-12.142,0 -22,-9.858 -22,-22c0,-3.015 0.608,-5.889 1.708,-8.507Zm40.584,17.014l-7.343,-7.344c0.034,-0.383 0.051,-0.771 0.051,-1.163c0,-7.175 -5.825,-13 -13,-13c-0.392,0 -0.779,0.017 -1.163,0.051l-7.344,-7.343c2.618,-1.1 5.492,-1.708 8.507,-1.708c12.142,0 22,9.858 22,22c0,3.015 -0.608,5.889 -1.708,8.507Z" style="fill:#fff;"/></svg>