<?xml version="1.0" encoding="UTF-8" standalone="no"?><!DOCTYPE svg PUBLIC "-//W3C//DTD SVG 1.1//EN" "http://www.w3.org/Graphics/SVG/1.1/DTD/svg11.dtd"><svg width="100%" height="100%" viewBox="0 0 75 66" version="1.1" xmlns="http://www.w3.org/2000/svg" xmlns:xlink="http://www.w3.org/1999/xlink" xml:space="preserve" xmlns:serif="http://www.serif.com/" style="fill-rule:evenodd;clip-rule:evenodd;stroke-linejoin:round;stroke-miterlimit:2;"><path id="Foliage" d="M13.529,38.948c1.272,-0.668 2.555,-1.274 3.831,-1.824c10.05,-4.322 19.618,-5.099 19.618,-5.099c1.305,-0.107 2.451,0.865 2.559,2.17c0.107,1.305 -0.866,2.451 -2.171,2.558c0,0 -8.841,0.734 -18.131,4.73c-2.568,1.104 -5.176,2.458 -7.635,4.124c-4.526,3.627 -8.599,8.188 -11.203,13.803c-0.992,2.138 -0.061,4.679 2.077,5.67c2.138,0.992 4.679,0.061 5.67,-2.077c2.163,-4.663 5.656,-8.357 9.476,-11.276c2.785,3.86 6.565,6.249 9.98,7.767c7.686,3.416 51.925,1.83 47.022,-41.398c-0,-0 -1.307,-5.681 -1.474,-10.553c-0.182,-5.263 -0.621,-8.039 -3.28,-7.47c-3.653,0.783 -6.542,12.45 -18.64,12.166c-12.099,-0.285 -32.595,-2.136 -36.723,16.937c-0.79,3.655 -1.08,6.896 -0.976,9.772Z" style="fill:#fff;"/></svg>