<?xml version="1.0" encoding="UTF-8" standalone="no"?><!DOCTYPE svg PUBLIC "-//W3C//DTD SVG 1.1//EN" "http://www.w3.org/Graphics/SVG/1.1/DTD/svg11.dtd"><svg width="100%" height="100%" viewBox="0 0 75 75" version="1.1" xmlns="http://www.w3.org/2000/svg" xmlns:xlink="http://www.w3.org/1999/xlink" xml:space="preserve" xmlns:serif="http://www.serif.com/" style="fill-rule:evenodd;clip-rule:evenodd;stroke-linejoin:round;stroke-miterlimit:2;"><path id="Reset" d="M37.5,0c20.697,0 37.5,16.803 37.5,37.5c0,20.697 -16.803,37.5 -37.5,37.5c-20.697,0 -37.5,-16.803 -37.5,-37.5c0,-20.697 16.803,-37.5 37.5,-37.5Zm-0.366,44.262l16.104,0c1.49,0 2.7,-1.209 2.7,-2.7l-0,-8.1c-0,-1.49 -1.21,-2.7 -2.7,-2.7l-16.104,0l0,-10.681c0,-0.656 -0.385,-1.252 -0.983,-1.52c-0.599,-0.269 -1.3,-0.162 -1.79,0.274l-19.625,17.431c-0.356,0.317 -0.56,0.77 -0.56,1.246c-0,0.477 0.204,0.93 0.56,1.247l19.625,17.431c0.49,0.436 1.191,0.543 1.79,0.274c0.598,-0.269 0.983,-0.864 0.983,-1.52l0,-10.682Z" style="fill:#fff;"/></svg>