<?xml version="1.0" encoding="UTF-8" standalone="no"?><!DOCTYPE svg PUBLIC "-//W3C//DTD SVG 1.1//EN" "http://www.w3.org/Graphics/SVG/1.1/DTD/svg11.dtd"><svg width="100%" height="100%" viewBox="0 0 100 101" version="1.1" xmlns="http://www.w3.org/2000/svg" xmlns:xlink="http://www.w3.org/1999/xlink" xml:space="preserve" xmlns:serif="http://www.serif.com/" style="fill-rule:evenodd;clip-rule:evenodd;stroke-linejoin:round;stroke-miterlimit:2;"><path d="M17.444,20.23c-9.72,0.548 -17.444,8.614 -17.444,18.47l0,42.966c0,10.211 8.29,18.5 18.5,18.5l37,0c8.023,0 14.861,-5.119 17.421,-12.266c-0.648,0.044 -1.302,0.066 -1.961,0.066l-24.72,0c-15.917,0 -28.84,-12.923 -28.84,-28.84l0,-30.286c0,-0.536 0.015,-1.069 0.044,-1.598l-0,-7.012Zm53.606,-20.23l-26.75,0c-10.21,0 -18.5,8.29 -18.5,18.5l0,42.966c0,10.211 8.29,18.5 18.5,18.5l37,0c10.21,0 18.5,-8.289 18.5,-18.5l0,-31.411l-10.25,0c-10.21,0 -18.5,-8.289 -18.5,-18.5l-0,-11.555Zm13.852,55.112c0,-0.828 -0.672,-1.5 -1.5,-1.5l-38.75,-0c-0.828,-0 -1.5,0.672 -1.5,1.5l0,3c0,0.828 0.672,1.5 1.5,1.5l38.75,-0c0.828,-0 1.5,-0.672 1.5,-1.5l0,-3Zm0,-13c0,-0.828 -0.672,-1.5 -1.5,-1.5l-38.75,-0c-0.828,-0 -1.5,0.672 -1.5,1.5l0,3c0,0.828 0.672,1.5 1.5,1.5l38.75,-0c0.828,-0 1.5,-0.672 1.5,-1.5l0,-3Zm-18.25,-13c0,-0.828 -0.672,-1.5 -1.5,-1.5l-20.25,-0c-0.828,-0 -1.5,0.672 -1.5,1.5l0,3c0,0.828 0.672,1.5 1.5,1.5l20.25,-0c0.828,-0 1.5,-0.672 1.5,-1.5l0,-3Zm12.144,-28.265c-0.154,0.682 -0.235,1.392 -0.235,2.12l-0,9.04c-0,5.301 4.303,9.605 9.605,9.605l9.729,-0c0.525,-0 1.04,-0.042 1.542,-0.124l-20.641,-20.641Z" style="fill:#fff;"/></svg>