<?xml version="1.0" encoding="UTF-8" standalone="no"?><!DOCTYPE svg PUBLIC "-//W3C//DTD SVG 1.1//EN" "http://www.w3.org/Graphics/SVG/1.1/DTD/svg11.dtd"><svg width="100%" height="100%" viewBox="0 0 75 75" version="1.1" xmlns="http://www.w3.org/2000/svg" xmlns:xlink="http://www.w3.org/1999/xlink" xml:space="preserve" xmlns:serif="http://www.serif.com/" style="fill-rule:evenodd;clip-rule:evenodd;stroke-linejoin:round;stroke-miterlimit:2;"><path id="Magnet" d="M48.189,41.878l-9.55,9.55c-4.228,4.228 -11.094,4.228 -15.322,0c-4.229,-4.228 -4.229,-11.094 -0,-15.322l9.55,-9.55l-14.195,-14.195l-9.573,9.573c-12.132,12.132 -12.132,31.83 -0,43.962c12.131,12.131 31.829,12.131 43.961,-0l9.574,-9.574l-14.445,-14.444Zm-17.603,-41.431l-8.136,8.136l14.195,14.194l1.153,-1.152c0.054,-0.042 0.106,-0.087 0.156,-0.137l6.837,-6.837c0.596,-0.595 0.596,-1.563 -0,-2.159l-12.046,-12.045c-0.596,-0.596 -1.563,-0.596 -2.159,-0Zm35.826,52.097l8.136,-8.136c0.595,-0.596 0.595,-1.563 -0,-2.159l-12.262,-12.261c-0.596,-0.596 -1.563,-0.596 -2.159,-0l-4.524,4.524l-0.024,-0.024l-3.612,3.612l14.445,14.444Z" style="fill:#fff;"/></svg>