<?xml version="1.0" encoding="UTF-8" standalone="no"?><!DOCTYPE svg PUBLIC "-//W3C//DTD SVG 1.1//EN" "http://www.w3.org/Graphics/SVG/1.1/DTD/svg11.dtd"><svg width="100%" height="100%" viewBox="0 0 74 75" version="1.1" xmlns="http://www.w3.org/2000/svg" xmlns:xlink="http://www.w3.org/1999/xlink" xml:space="preserve" xmlns:serif="http://www.serif.com/" style="fill-rule:evenodd;clip-rule:evenodd;stroke-linejoin:round;stroke-miterlimit:2;"><path id="Main" d="M32.012,48.476c0,-3.534 -2.869,-6.403 -6.402,-6.403l-19.208,0c-3.533,0 -6.402,2.869 -6.402,6.403l0,20.122c0,3.533 2.869,6.402 6.402,6.402l19.208,0c3.533,0 6.402,-2.869 6.402,-6.402l0,-20.122Zm41.56,-0c-0,-3.534 -2.869,-6.403 -6.403,-6.403l-19.207,0c-3.534,0 -6.403,2.869 -6.403,6.403l0,20.122c0,3.533 2.869,6.402 6.403,6.402l19.207,0c3.534,0 6.403,-2.869 6.403,-6.402l-0,-20.122Zm-41.56,-42.074c0,-3.533 -2.869,-6.402 -6.402,-6.402l-19.208,0c-3.533,0 -6.402,2.869 -6.402,6.402l0,20.122c0,3.534 2.869,6.403 6.402,6.403l19.208,-0c3.533,-0 6.402,-2.869 6.402,-6.403l0,-20.122Zm41.56,0c-0,-3.533 -2.869,-6.402 -6.403,-6.402l-19.207,0c-3.534,0 -6.403,2.869 -6.403,6.402l0,20.122c0,3.534 2.869,6.403 6.403,6.403l19.207,-0c3.534,-0 6.403,-2.869 6.403,-6.403l-0,-20.122Z" style="fill:#fff;"/></svg>