<?xml version="1.0" encoding="UTF-8" standalone="no"?>
<!DOCTYPE svg PUBLIC "-//W3C//DTD SVG 1.1//EN" "http://www.w3.org/Graphics/SVG/1.1/DTD/svg11.dtd">
<svg width="100%" height="100%" viewBox="0 0 85 76" version="1.1" xmlns="http://www.w3.org/2000/svg" xmlns:xlink="http://www.w3.org/1999/xlink" xml:space="preserve" xmlns:serif="http://www.serif.com/" style="fill-rule:evenodd;clip-rule:evenodd;stroke-linejoin:round;stroke-miterlimit:2;">
    <g transform="matrix(1,0,0,1,-1510.18,-3064.46)">
        <g transform="matrix(1,0,0,1,11.2494,2.57275)">
            <path d="M1540.51,3074.61C1540.51,3074.61 1536.96,3069.24 1534.47,3065.48C1532.99,3063.24 1530.48,3061.89 1527.8,3061.89C1521.97,3061.89 1511.53,3061.89 1504.93,3061.89C1501.62,3061.89 1498.93,3064.58 1498.93,3067.89C1498.93,3082.01 1498.93,3117.22 1498.93,3131.34C1498.93,3134.66 1501.62,3137.34 1504.93,3137.34C1520.42,3137.34 1561.61,3137.34 1577.1,3137.34C1580.42,3137.34 1583.1,3134.66 1583.1,3131.34C1583.1,3119.37 1583.1,3092.62 1583.1,3080.65C1583.1,3077.34 1580.42,3074.65 1577.11,3074.65C1565.38,3074.63 1540.51,3074.61 1540.51,3074.61Z" style="fill:white;"/>
        </g>
    </g>
</svg>
