<?xml version="1.0" encoding="UTF-8" standalone="no"?><!DOCTYPE svg PUBLIC "-//W3C//DTD SVG 1.1//EN" "http://www.w3.org/Graphics/SVG/1.1/DTD/svg11.dtd"><svg width="100%" height="100%" viewBox="0 0 95 94" version="1.1" xmlns="http://www.w3.org/2000/svg" xmlns:xlink="http://www.w3.org/1999/xlink" xml:space="preserve" xmlns:serif="http://www.serif.com/" style="fill-rule:evenodd;clip-rule:evenodd;stroke-linejoin:round;stroke-miterlimit:2;"><path d="M64.76,81.381c3.459,0 6.268,2.808 6.268,6.268c-0,3.459 -2.809,6.267 -6.268,6.267c-3.459,0 -6.267,-2.808 -6.267,-6.267c-0,-3.46 2.808,-6.268 6.267,-6.268Zm-36.352,-0.418c3.46,0 6.268,2.809 6.268,6.268c-0,3.459 -2.808,6.267 -6.268,6.267c-3.459,0 -6.267,-2.808 -6.267,-6.267c-0,-3.459 2.808,-6.268 6.267,-6.268Zm18.803,-16.922c3.459,-0 6.268,2.808 6.268,6.267c-0,3.46 -2.809,6.268 -6.268,6.268c-3.459,-0 -6.267,-2.808 -6.267,-6.268c-0,-3.459 2.808,-6.267 6.267,-6.267Zm28.622,-5.432c3.459,-0 6.267,2.808 6.267,6.268c0,3.459 -2.808,6.267 -6.267,6.267c-3.459,0 -6.268,-2.808 -6.268,-6.267c0,-3.46 2.809,-6.268 6.268,-6.268Zm-58.706,-0.418c3.459,0 6.267,2.809 6.267,6.268c0,3.459 -2.808,6.267 -6.267,6.267c-3.459,0 -6.268,-2.808 -6.268,-6.267c0,-3.459 2.809,-6.268 6.268,-6.268Zm8.409,-46.753c5.019,-6.959 12.844,-11.438 21.627,-11.438c8.649,0 16.368,4.342 21.395,11.12c0.49,-0.027 0.984,-0.04 1.482,-0.04c13.231,0 23.973,9.478 23.973,21.153c0,11.675 -10.742,21.153 -23.973,21.153c-1.961,0 -3.867,-0.208 -5.692,-0.601c-4.704,4.1 -10.682,6.555 -17.185,6.555c-6.401,0 -12.293,-2.379 -16.961,-6.363c-1.987,0.471 -4.075,0.722 -6.229,0.722c-13.231,0 -23.973,-9.478 -23.973,-21.153c0,-11.674 10.742,-21.153 23.973,-21.153c0.526,0 1.047,0.015 1.563,0.045Z" style="fill:#fff;"/></svg>