<?xml version="1.0" encoding="UTF-8" standalone="no"?><!DOCTYPE svg PUBLIC "-//W3C//DTD SVG 1.1//EN" "http://www.w3.org/Graphics/SVG/1.1/DTD/svg11.dtd"><svg width="100%" height="100%" viewBox="0 0 85 75" version="1.1" xmlns="http://www.w3.org/2000/svg" xmlns:xlink="http://www.w3.org/1999/xlink" xml:space="preserve" xmlns:serif="http://www.serif.com/" style="fill-rule:evenodd;clip-rule:evenodd;stroke-linejoin:round;stroke-miterlimit:2;"><path d="M31.881,26.63c-2.804,-2.824 -4.537,-6.714 -4.537,-11.005c-0,-8.624 7.001,-15.625 15.625,-15.625c8.623,-0 15.625,7.001 15.625,15.625c-0,4.291 -1.734,8.181 -4.538,11.005l11.159,17.602c1.235,-0.315 2.53,-0.482 3.863,-0.482c8.624,-0 15.625,7.001 15.625,15.625c0,8.624 -7.001,15.625 -15.625,15.625c-7.43,-0 -13.656,-5.197 -15.237,-12.153l-22.979,0c-1.581,6.956 -7.807,12.153 -15.237,12.153c-8.624,-0 -15.625,-7.001 -15.625,-15.625c-0,-8.624 7.001,-15.625 15.625,-15.625c1.713,-0 3.361,0.276 4.905,0.787l11.351,-17.907Zm19.453,2.191l10.569,16.673c-5.018,2.601 -8.45,7.844 -8.45,13.881l-22.203,-0c-0,-5.665 -3.021,-10.63 -7.54,-13.37l10.893,-17.184c2.42,1.538 5.29,2.429 8.366,2.429c3.076,-0 5.945,-0.891 8.365,-2.429Z" style="fill:#fff;"/></svg>