<?xml version="1.0" encoding="UTF-8" standalone="no"?><!DOCTYPE svg PUBLIC "-//W3C//DTD SVG 1.1//EN" "http://www.w3.org/Graphics/SVG/1.1/DTD/svg11.dtd"><svg width="100%" height="100%" viewBox="0 0 75 75" version="1.1" xmlns="http://www.w3.org/2000/svg" xmlns:xlink="http://www.w3.org/1999/xlink" xml:space="preserve" xmlns:serif="http://www.serif.com/" style="fill-rule:evenodd;clip-rule:evenodd;stroke-linejoin:round;stroke-miterlimit:2;"><path id="Rotation" d="M19.256,16.684c3.936,-10.057 10.641,-16.684 18.244,-16.684c6.75,0 12.793,5.224 16.817,13.434l-9.593,-2.765c-2.107,-2.332 -4.526,-3.851 -7.224,-3.851c-3.061,0 -5.76,1.953 -8.054,4.829c-0.696,0.873 -1.352,1.827 -1.962,2.855c3.144,-0.566 6.457,-0.878 9.878,-0.897c20.696,-0.12 37.561,10.491 37.637,23.679c0.052,9.001 -7.73,16.891 -19.255,21.032c-3.937,10.057 -10.641,16.684 -18.244,16.684c-6.902,0 -13.064,-5.461 -17.086,-13.991l9.443,2.844c2.204,2.6 4.764,4.329 7.643,4.329c3.06,-0 5.759,-1.953 8.054,-4.829c0.696,-0.873 1.351,-1.827 1.962,-2.855c-3.145,0.566 -6.458,0.878 -9.879,0.897c-20.696,0.12 -37.561,-10.491 -37.637,-23.679c-0.052,-9.001 7.73,-16.891 19.256,-21.032Zm38.967,33.131c0.785,-3.858 1.212,-8.002 1.212,-12.315c0,-3.254 -0.243,-6.411 -0.699,-9.419l-6.88,-1.984c0.755,3.548 1.16,7.394 1.16,11.403c-0,5.508 -0.764,10.711 -2.152,15.252c-4.044,1.156 -8.54,1.798 -13.266,1.825c-10.556,0.061 -20.003,-2.957 -25.835,-7.966c-2.945,-2.53 -4.925,-5.537 -4.945,-8.934l0,-0c-0.019,-3.397 1.927,-6.427 4.842,-8.991c1.481,-1.301 3.2,-2.475 5.116,-3.501c-0.785,3.858 -1.212,8.002 -1.212,12.315c0,3.2 0.235,6.306 0.677,9.274l6.891,2.075c-0.748,-3.532 -1.149,-7.36 -1.149,-11.349c0,-5.508 0.765,-10.711 2.152,-15.252c4.044,-1.156 8.54,-1.798 13.266,-1.825c10.556,-0.061 20.003,2.957 25.835,7.966c2.945,2.53 4.925,5.537 4.945,8.934c0.02,3.397 -1.926,6.427 -4.842,8.991c-1.48,1.301 -3.2,2.475 -5.116,3.501Z" style="fill:#fff;"/></svg>