<?xml version="1.0" encoding="UTF-8" standalone="no"?><!DOCTYPE svg PUBLIC "-//W3C//DTD SVG 1.1//EN" "http://www.w3.org/Graphics/SVG/1.1/DTD/svg11.dtd"><svg width="100%" height="100%" viewBox="0 0 75 51" version="1.1" xmlns="http://www.w3.org/2000/svg" xmlns:xlink="http://www.w3.org/1999/xlink" xml:space="preserve" xmlns:serif="http://www.serif.com/" style="fill-rule:evenodd;clip-rule:evenodd;stroke-linejoin:round;stroke-miterlimit:2;"><path id="Eye" d="M74.978,25.36c-7.352,18.604 -25.056,25.076 -36.014,25.285c-29.85,0.568 -38.964,-25.339 -38.964,-25.339l0.002,-0.005c0.141,-0.397 9.345,-25.856 38.962,-25.292c10.969,0.209 28.698,6.652 36.036,25.297l-0.022,0.054Zm-37.478,-16.6c9.132,-0 16.546,7.414 16.546,16.546c0,9.132 -7.414,16.546 -16.546,16.546c-9.132,-0 -16.546,-7.414 -16.546,-16.546c-0,-9.132 7.414,-16.546 16.546,-16.546Zm-0,6.614c5.493,0 9.953,4.46 9.953,9.953c-0,5.493 -4.46,9.953 -9.953,9.953c-5.493,0 -9.953,-4.46 -9.953,-9.953c0,-5.493 4.46,-9.953 9.953,-9.953Z" style="fill:#fff;"/></svg>