<?xml version="1.0" encoding="UTF-8" standalone="no"?><!DOCTYPE svg PUBLIC "-//W3C//DTD SVG 1.1//EN" "http://www.w3.org/Graphics/SVG/1.1/DTD/svg11.dtd"><svg width="100%" height="100%" viewBox="0 0 75 75" version="1.1" xmlns="http://www.w3.org/2000/svg" xmlns:xlink="http://www.w3.org/1999/xlink" xml:space="preserve" xmlns:serif="http://www.serif.com/" style="fill-rule:evenodd;clip-rule:evenodd;stroke-linejoin:round;stroke-miterlimit:2;"><path d="M37.5,0c20.697,0 37.5,16.803 37.5,37.5c-0,20.697 -16.803,37.5 -37.5,37.5c-20.697,0 -37.5,-16.803 -37.5,-37.5c0,-20.697 16.803,-37.5 37.5,-37.5Zm-0,6.75c17.385,0 30.75,13.365 30.75,30.75c-0,17.385 -13.365,30.75 -30.75,30.75c-17.385,0 -30.75,-13.365 -30.75,-30.75c-0,-17.385 13.365,-30.75 30.75,-30.75Zm-0.093,8.25c12.418,0 22.5,10.082 22.5,22.5c0,12.418 -10.082,22.5 -22.5,22.5c-6.26,0 -11.926,-2.562 -16.006,-6.693l16.006,-16.006l0,-22.301Z" style="fill:#fff;"/></svg>