<?xml version="1.0" encoding="UTF-8" standalone="no"?><!DOCTYPE svg PUBLIC "-//W3C//DTD SVG 1.1//EN" "http://www.w3.org/Graphics/SVG/1.1/DTD/svg11.dtd"><svg width="100%" height="100%" viewBox="0 0 76 76" version="1.1" xmlns="http://www.w3.org/2000/svg" xmlns:xlink="http://www.w3.org/1999/xlink" xml:space="preserve" xmlns:serif="http://www.serif.com/" style="fill-rule:evenodd;clip-rule:evenodd;stroke-linejoin:round;stroke-miterlimit:2;"><path d="M49.05,55.457c-5.115,3.796 -11.447,6.043 -18.3,6.043c-16.971,-0 -30.75,-13.779 -30.75,-30.75c-0,-16.971 13.779,-30.75 30.75,-30.75c16.971,0 30.75,13.779 30.75,30.75c0,6.865 -2.254,13.207 -6.062,18.325c1.536,-0.09 3.102,0.452 4.275,1.624l14.128,14.128c2.178,2.178 2.178,5.715 -0,7.894l-1.146,1.145c-2.178,2.179 -5.715,2.179 -7.894,0l-14.127,-14.127c-1.175,-1.175 -1.716,-2.744 -1.624,-4.282Zm-17.86,-43.777c10.348,0 18.75,8.402 18.75,18.75c-0,10.349 -8.402,18.75 -18.75,18.75c-10.348,0 -18.75,-8.401 -18.75,-18.75c-0,-10.348 8.402,-18.75 18.75,-18.75Z" style="fill:#fff;"/></svg>