<?xml version="1.0" encoding="UTF-8" standalone="no"?><!DOCTYPE svg PUBLIC "-//W3C//DTD SVG 1.1//EN" "http://www.w3.org/Graphics/SVG/1.1/DTD/svg11.dtd"><svg width="100%" height="100%" viewBox="0 0 88 100" version="1.1" xmlns="http://www.w3.org/2000/svg" xmlns:xlink="http://www.w3.org/1999/xlink" xml:space="preserve" xmlns:serif="http://www.serif.com/" style="fill-rule:evenodd;clip-rule:evenodd;stroke-linejoin:round;stroke-miterlimit:2;"><path id="Lock" d="M73.139,44.19l-14.76,0l-0,0.02l-30,-0l-0,-14.7c-0,-8.279 6.721,-15 15,-15c7.529,-0 13.769,5.558 14.838,12.791l14.858,0c-1.272,-15.28 -14.091,-27.301 -29.696,-27.301c-16.447,0 -29.8,13.353 -29.8,29.8l-0,12.838c-0,0.527 0.014,1.051 0.041,1.572l-2.487,-0c-6.144,-0 -11.133,4.989 -11.133,11.133l-0,33.4c-0,6.145 4.989,11.134 11.133,11.134l65.734,-0c6.144,-0 11.133,-4.989 11.133,-11.134l0,-33.4c0,-6.144 -4.989,-11.133 -11.133,-11.133l-3.729,-0l0.001,-0.02Z" style="fill:#fff;"/></svg>