<?xml version="1.0" encoding="UTF-8" standalone="no"?><!DOCTYPE svg PUBLIC "-//W3C//DTD SVG 1.1//EN" "http://www.w3.org/Graphics/SVG/1.1/DTD/svg11.dtd"><svg width="100%" height="100%" viewBox="0 0 101 68" version="1.1" xmlns="http://www.w3.org/2000/svg" xmlns:xlink="http://www.w3.org/1999/xlink" xml:space="preserve" xmlns:serif="http://www.serif.com/" style="fill-rule:evenodd;clip-rule:evenodd;stroke-linejoin:round;stroke-miterlimit:2;"><path d="M0.009,33.681c0.392,-1.019 13.24,-33.681 49.991,-33.681c37.334,0 50,33.705 50,33.705l-0.009,0.025c-0.392,1.019 -13.24,33.68 -49.991,33.68c-37.334,0 -50,-33.705 -50,-33.705l0.009,-0.024Zm49.991,-21.976c12.142,0 22,9.858 22,22c0,12.142 -9.858,22 -22,22c-12.142,0 -22,-9.858 -22,-22c0,-12.142 9.858,-22 22,-22Zm0,9c7.175,0 13,5.825 13,13c0,7.175 -5.825,13 -13,13c-7.175,0 -13,-5.825 -13,-13c0,-7.175 5.825,-13 13,-13Z" style="fill:#fff;"/></svg>