<?xml version="1.0" encoding="UTF-8" standalone="no"?><!DOCTYPE svg PUBLIC "-//W3C//DTD SVG 1.1//EN" "http://www.w3.org/Graphics/SVG/1.1/DTD/svg11.dtd"><svg width="100%" height="100%" viewBox="0 0 250 545" version="1.1" xmlns="http://www.w3.org/2000/svg" xmlns:xlink="http://www.w3.org/1999/xlink" xml:space="preserve" xmlns:serif="http://www.serif.com/" style="fill-rule:evenodd;clip-rule:evenodd;stroke-linejoin:round;stroke-miterlimit:2;"><path d="M237.5,123.611l0,0.038l-225,0l0,-0.038l-12.5,0l0,54.167l45,-0l0,289.583l79.738,76.865l78.595,-76.865l0,-289.583l46.667,-0l0,-54.167l-12.5,0Zm-77.521,58.568l-70.834,0l0,266.667l35.855,33.333l34.979,-33.333l-0,-266.667Zm-97.479,-72.106l125,0l0,-85.073c0,-13.798 -11.202,-25 -25,-25l-75,-0c-13.798,-0 -25,11.202 -25,25l0,85.073Z" style="fill:#fff;"/></svg>