<?xml version="1.0" encoding="UTF-8" standalone="no"?><!DOCTYPE svg PUBLIC "-//W3C//DTD SVG 1.1//EN" "http://www.w3.org/Graphics/SVG/1.1/DTD/svg11.dtd"><svg width="100%" height="100%" viewBox="0 0 98 98" version="1.1" xmlns="http://www.w3.org/2000/svg" xmlns:xlink="http://www.w3.org/1999/xlink" xml:space="preserve" xmlns:serif="http://www.serif.com/" style="fill-rule:evenodd;clip-rule:evenodd;stroke-linejoin:round;stroke-miterlimit:2;"><path id="Atmosphere" d="M49,0c27.044,0 49,21.956 49,49c0,27.044 -21.956,49 -49,49c-27.044,0 -49,-21.956 -49,-49c0,-27.044 21.956,-49 49,-49Zm-5.995,58.131c-0.051,0.912 0.314,1.837 1.068,2.469l18.464,15.467c1.27,1.063 3.163,0.896 4.227,-0.373l3.852,-4.6c1.064,-1.269 0.896,-3.162 -0.373,-4.226l-15.243,-12.769l0,-31.837c0,-1.656 -1.344,-3 -3,-3l-6,-0c-1.656,-0 -3,1.344 -3,3l0,35.702c0,0.056 0.002,0.112 0.005,0.167Z" style="fill:#fff;"/></svg>