<?xml version="1.0" encoding="UTF-8" standalone="no"?><!DOCTYPE svg PUBLIC "-//W3C//DTD SVG 1.1//EN" "http://www.w3.org/Graphics/SVG/1.1/DTD/svg11.dtd"><svg width="100%" height="100%" viewBox="0 0 66 75" version="1.1" xmlns="http://www.w3.org/2000/svg" xmlns:xlink="http://www.w3.org/1999/xlink" xml:space="preserve" xmlns:serif="http://www.serif.com/" style="fill-rule:evenodd;clip-rule:evenodd;stroke-linejoin:round;stroke-miterlimit:2;"><path id="Lock" d="M10.215,33.157l-1.865,0c-4.608,0 -8.35,3.742 -8.35,8.35l0,25.05c0,4.609 3.742,8.35 8.35,8.35l49.3,0c4.608,0 8.35,-3.741 8.35,-8.35l0,-25.05c0,-4.608 -3.742,-8.35 -8.35,-8.35l-2.797,0c0.021,-0.39 0.031,-0.783 0.031,-1.178l0,-9.629c0,-12.335 -10.015,-22.35 -22.35,-22.35c-12.335,0 -22.35,10.015 -22.35,22.35l0,9.629c0,0.395 0.01,0.788 0.031,1.178Zm33.569,0l0,-11.025c0,-6.209 -5.041,-11.25 -11.25,-11.25c-6.209,0 -11.25,5.041 -11.25,11.25l0,11.025l22.5,0Z" style="fill:#fff;"/></svg>