<?xml version="1.0" encoding="UTF-8" standalone="no"?><!DOCTYPE svg PUBLIC "-//W3C//DTD SVG 1.1//EN" "http://www.w3.org/Graphics/SVG/1.1/DTD/svg11.dtd"><svg width="100%" height="100%" viewBox="0 0 400 400" version="1.1" xmlns="http://www.w3.org/2000/svg" xmlns:xlink="http://www.w3.org/1999/xlink" xml:space="preserve" xmlns:serif="http://www.serif.com/" style="fill-rule:evenodd;clip-rule:evenodd;stroke-linejoin:round;stroke-miterlimit:2;"><path d="M0,334.877l0,41.123c0,13.246 10.754,24 24,24l352,0c13.246,0 24,-10.754 24,-24l0,-142.183c-11.983,-1.829 -24.69,-3.064 -37.759,-3.31c-42.696,-0.803 -89.608,9.01 -126.826,45.484c-45.481,44.571 -109.581,60.142 -170.488,61.779c-22.562,0.607 -44.621,-0.668 -64.927,-2.893Zm0,-125l0,83.109c19.781,2.332 41.527,3.732 63.807,3.133c50.694,-1.363 104.591,-12.791 142.444,-49.887c46.116,-45.194 103.871,-58.38 156.775,-57.384c12.713,0.24 25.125,1.304 36.974,2.913l0,-82.944c-11.983,-1.829 -24.69,-3.064 -37.759,-3.31c-42.696,-0.803 -89.608,9.01 -126.826,45.484c-45.481,44.571 -109.581,60.142 -170.488,61.779c-22.562,0.607 -44.621,-0.668 -64.927,-2.893Zm0,-41.891c19.781,2.332 41.527,3.732 63.807,3.133c50.694,-1.363 104.591,-12.791 142.444,-49.887c46.116,-45.194 103.871,-58.38 156.775,-57.384c12.713,0.24 25.125,1.304 36.974,2.913l0,-42.761c0,-13.246 -10.754,-24 -24,-24l-352,0c-13.246,0 -24,10.754 -24,24l0,143.986Z" style="fill:#ebebeb;"/></svg>