<?xml version="1.0" encoding="UTF-8" standalone="no"?><!DOCTYPE svg PUBLIC "-//W3C//DTD SVG 1.1//EN" "http://www.w3.org/Graphics/SVG/1.1/DTD/svg11.dtd"><svg width="100%" height="100%" viewBox="0 0 100 99" version="1.1" xmlns="http://www.w3.org/2000/svg" xmlns:xlink="http://www.w3.org/1999/xlink" xml:space="preserve" xmlns:serif="http://www.serif.com/" style="fill-rule:evenodd;clip-rule:evenodd;stroke-linejoin:round;stroke-miterlimit:2;"><path id="Icon_Sphere" d="M49.963,86.1c3.556,1.575 7.189,2.995 10.881,4.265c-0.281,1.715 -0.643,3.407 -1.052,5.089c-3.171,1.175 -6.404,2.148 -9.7,2.911c-0.058,0.014 -0.115,0.022 -0.173,0.006c0,0 0,0 0,0c-1.399,-0.371 -2.8,-0.74 -4.2,-1.11l-0,0c-1.934,-0.562 -3.756,-1.168 -5.55,-1.846c-0.399,-1.685 -0.734,-3.383 -1.061,-5.083c2.652,-0.921 5.283,-1.894 7.877,-2.966c0.997,-0.411 1.99,-0.832 2.978,-1.266Zm27.65,-2.539c1.582,0.584 3.177,1.129 4.783,1.641c-0.318,0.741 -0.67,1.474 -0.993,2.22c-0.303,0.701 -0.652,1.347 -1.332,1.735c-0.058,0.033 -0.114,0.069 -0.167,0.109c-3.428,2.567 -7.057,4.597 -10.919,6.231c-0.315,0.134 -0.628,0.091 -0.936,0.063c-0.411,-0.039 -0.821,-0.095 -1.232,-0.107c0,0 0,0 0,0c-0.638,-0.018 -1.274,-0.11 -1.91,-0.198c0.372,-1.63 0.691,-3.272 0.942,-4.927c4.039,-2.035 7.969,-4.284 11.764,-6.767Zm-55.246,-0.061c3.773,2.484 7.689,4.751 11.732,6.794c0.287,1.645 0.595,3.286 0.964,4.915c-1.26,0.163 -2.525,0.276 -3.798,0.3l-0.001,0c-0.731,-0.08 -1.268,-0.467 -1.848,-0.727c-3.494,-1.57 -6.755,-3.536 -9.796,-5.867c-0,-0 -0,-0 -0,-0c-0.187,-0.143 -0.338,-0.304 -0.445,-0.515c-0.545,-1.076 -1.038,-2.174 -1.517,-3.279c1.587,-0.488 3.156,-1.033 4.709,-1.621Zm43.794,-22.032c3.588,2.082 7.191,4.158 10.805,6.217c-0.299,2.143 -0.572,4.292 -0.908,6.43c-0,-0 -0,-0 -0,-0c-0.274,1.74 -0.644,3.464 -0.95,5.199l-0.001,0.005c-3.775,2.446 -7.663,4.693 -11.682,6.715c-3.737,-1.247 -7.407,-2.667 -11.023,-4.23c0.016,-4.138 0.016,-8.276 -0.003,-12.415c3.766,-2.046 7.488,-4.169 11.17,-6.365c0.001,-0.001 0.002,-0.001 0.004,-0.002c0.907,-0.545 1.758,-1.041 2.588,-1.554Zm-32.41,-0.006c4.5,2.743 9.072,5.392 13.717,7.918c-0.01,4.137 -0.005,8.274 0.018,12.412c-0.714,0.286 -1.421,0.606 -2.135,0.91l-0,-0c-2.961,1.234 -5.877,2.321 -8.834,3.293c-4.011,-2.023 -7.883,-4.284 -11.649,-6.731c-0.681,-3.34 -1.266,-6.695 -1.652,-10.084c-0.059,-0.513 -0.119,-1.026 -0.183,-1.539c3.576,-2.054 7.149,-4.113 10.718,-6.179Zm61.248,2.413c-0.556,3.369 -1.35,6.681 -2.355,9.944c-0.003,0.012 -0.007,0.022 -0.015,0.03c0,0 0,0 0,0c-2.352,2.504 -4.847,4.852 -7.504,7.03c-0.912,-0.301 -1.844,-0.577 -2.771,-0.864l-0,-0c-0.779,-0.277 -1.497,-0.548 -2.209,-0.79c0.659,-3.122 1.103,-6.281 1.531,-9.442c-0,0 -0,0 -0,0c0.094,-0.696 0.172,-1.394 0.243,-2.093c3.131,-2.296 6.18,-4.7 9.149,-7.294c0.341,0.286 0.679,0.571 1.011,0.864c0,-0 0,-0 0,-0c0.981,0.864 1.944,1.747 2.92,2.615Zm-86.031,-3.498l0.271,0.237c2.879,2.527 5.817,4.834 8.824,7.055c0.453,3.854 0.974,7.709 1.786,11.515c-1.641,0.551 -3.278,1.115 -4.932,1.625c-2.522,-2.117 -4.937,-4.345 -7.185,-6.753c-0.171,-0.183 -0.297,-0.378 -0.369,-0.619c0,0 0,0 0,0c-0.945,-3.162 -1.724,-6.361 -2.249,-9.62c1.245,-1.191 2.541,-2.325 3.854,-3.44Zm40.972,-26.985c4.646,2.531 9.216,5.192 13.743,7.929c0.152,4.866 0.085,9.733 0.056,14.6c-0.002,0.359 -0.089,0.736 -0.023,1.076c0.033,0.173 -0.097,0.238 -0.213,0.32c-0.127,0.089 -0.266,0.175 -0.411,0.261c-4.346,2.582 -8.719,5.115 -13.151,7.545c-1.816,-1.03 -3.653,-2.049 -5.487,-3.074l0,-0c-2.804,-1.653 -5.527,-3.271 -8.257,-4.873c-0.128,-4.071 -0.116,-8.144 -0.093,-12.217c0.007,-1.209 0.071,-2.418 0.097,-3.627c3.435,-2.082 6.899,-4.115 10.399,-6.085c1.11,-0.625 2.232,-1.228 3.34,-1.855Zm29.493,1.674c2.94,2.209 5.804,4.508 8.605,6.893c0.423,0.359 0.642,0.731 0.662,1.27c0.151,4.254 0.209,8.506 -0.093,12.757c-2.944,2.627 -6.029,5.078 -9.194,7.431c-3.589,-2.075 -7.19,-4.151 -10.798,-6.214c0.12,-3.588 0.125,-7.178 0.102,-10.768c-0.011,-1.701 -0.054,-3.401 -0.109,-5.101c0.622,-0.341 1.234,-0.716 1.854,-1.075l0,0c3.045,-1.758 6.017,-3.463 8.971,-5.193Zm-58.896,0.042c2.183,1.286 4.386,2.552 6.584,3.827c0.001,0 0.002,0.001 0.004,0.002c1.43,0.824 2.778,1.622 4.142,2.384c-0.072,2.281 -0.035,4.563 -0.084,6.846c-0.064,3.009 0.027,6.023 0.098,9.034c-3.588,2.039 -7.162,4.102 -10.722,6.189c-3.145,-2.37 -6.222,-4.821 -9.16,-7.447c-0.183,-3.638 -0.16,-7.276 -0.11,-10.915c0.011,-0.833 0.073,-1.665 0.11,-2.498c2.936,-2.61 5.982,-5.082 9.138,-7.422Zm76.845,4.034c0.544,0.746 1.089,1.493 1.657,2.221c-0,0 -0,0 -0,0c0.37,0.475 0.523,1.009 0.585,1.596c0,-0 0,-0 0,-0c0.374,3.529 0.54,7.06 0.162,10.6c-0.065,0.606 -0.106,1.214 -0.157,1.821c-0.052,0.61 -0.215,1.163 -0.59,1.673c0,-0 0,-0 0,-0c-0.559,0.76 -1.1,1.533 -1.662,2.28c-1.246,-1.137 -2.52,-2.242 -3.835,-3.299c0.131,-2.334 0.201,-4.671 0.216,-7.01c-0,-0.018 -0,-0.037 -0.001,-0.056c-0.064,-2.25 -0.046,-4.38 -0.21,-6.5c1.319,-1.07 2.594,-2.198 3.835,-3.326Zm-90.913,3.308c-0.061,1.432 -0.128,2.864 -0.142,4.296c-0.031,3.085 -0.05,6.171 0.168,9.252c-1.272,1.069 -2.522,2.162 -3.756,3.274c-0.475,-0.645 -0.9,-1.332 -1.427,-1.931c-0.829,-0.942 -1.015,-2.087 -1.08,-3.284c-0.082,-1.501 -0.25,-3.003 -0.23,-4.503c0.028,-2.213 0.095,-4.431 0.419,-6.63c0.011,-0.075 0.016,-0.152 0.017,-0.228c0,-0.255 0.101,-0.424 0.215,-0.596c0.656,-0.99 1.327,-1.968 2.052,-2.925c0.481,0.437 0.959,0.867 1.441,1.292c0,-0 0,-0 0,-0c0.764,0.672 1.537,1.336 2.323,1.983Zm8.399,-24.833c1.662,0.505 3.307,1.059 4.943,1.643c-0.782,3.821 -1.34,7.677 -1.753,11.554c-2.924,2.145 -5.764,4.395 -8.506,6.767l-0.595,0.517c-1.334,-1.118 -2.629,-2.279 -3.877,-3.493c0.575,-3.307 1.315,-6.577 2.306,-9.787c0.029,-0.093 0.047,-0.186 0.116,-0.259c-0,-0 -0,-0 -0,-0c2.323,-2.456 4.76,-4.788 7.366,-6.942Zm70.318,-0.071c1.535,1.257 3.018,2.57 4.443,3.952c0.014,0.013 0.028,0.027 0.043,0.04c1.104,0.995 2.042,2.037 3.003,3.052l0.044,0.134c0.999,3.233 1.749,6.523 2.316,9.858c-1.278,1.216 -2.614,2.366 -3.958,3.508c-2.94,-2.59 -6.018,-5.008 -9.181,-7.319c-0.004,-0.169 -0.014,-0.415 -0.03,-0.56c-0.422,-3.689 -0.969,-7.358 -1.693,-10.999c1.657,-0.584 3.319,-1.169 5.013,-1.666Zm-48.696,-5.121c3.728,1.242 7.383,2.67 10.989,4.224c-0.017,4.162 -0.02,8.324 -0.014,12.487c-4.639,2.518 -9.21,5.182 -13.731,7.929c-3.571,-2.082 -7.147,-4.156 -10.731,-6.215c0.298,-2.741 0.69,-5.468 1.168,-8.183c0.205,-1.164 0.459,-2.32 0.674,-3.483c1.804,-1.161 3.611,-2.315 5.473,-3.382c0.005,-0.003 0.01,-0.006 0.016,-0.009c2.068,-1.217 4.109,-2.299 6.156,-3.368Zm26.961,-0.028c4.021,2.031 7.914,4.283 11.69,6.74c0.818,3.861 1.356,7.766 1.854,11.677c-2.93,1.643 -5.828,3.342 -8.737,5.02l-0,0c-0.746,0.43 -1.444,0.807 -2.11,1.215c-4.282,-2.61 -8.596,-5.167 -13.033,-7.499c-0.294,-0.154 -0.519,-0.277 -0.638,-0.482c-0.12,-0.207 -0.115,-0.465 -0.106,-0.796c0.105,-3.869 0.051,-7.743 0.031,-11.614c3.624,-1.573 7.301,-3.009 11.049,-4.261Zm-28.41,-9.242c-0.093,0.417 -0.185,0.837 -0.27,1.258c-0.248,1.239 -0.484,2.48 -0.704,3.723c-4.021,2.055 -7.946,4.308 -11.731,6.8c-0.6,-0.227 -1.216,-0.439 -1.829,-0.661c-0.013,-0.004 -0.026,-0.009 -0.039,-0.013l-2.849,-0.948c0.376,-0.832 0.759,-1.661 1.082,-2.512c0.35,-0.923 1.09,-1.455 1.852,-2.003c3.319,-2.389 6.855,-4.381 10.64,-5.932c0.225,-0.092 0.454,-0.047 0.68,-0.024c0.354,0.036 0.708,0.086 1.059,0.1c0.705,0.029 1.407,0.118 2.109,0.212Zm47.387,10.079c-1.605,0.512 -3.2,1.053 -4.775,1.654c-3.802,-2.487 -7.734,-4.748 -11.792,-6.79c-0.246,-1.671 -0.574,-3.328 -0.941,-4.976c1.184,-0.143 2.374,-0.23 3.562,-0.341c0.243,-0.023 0.431,0.138 0.644,0.227c2.585,1.085 5.075,2.35 7.437,3.863c0.006,0.004 0.011,0.007 0.017,0.011c1.468,0.915 2.803,1.863 4.102,2.865c0.182,0.141 0.335,0.29 0.427,0.5c-0,0 -0,0 -0,0c0.437,0.997 0.875,1.993 1.319,2.987Zm-22.592,-10.313c0.367,1.709 0.739,3.423 1.044,5.153c-3.707,1.248 -7.343,2.703 -10.93,4.283c-3.556,-1.567 -7.176,-2.999 -10.868,-4.246c0.332,-1.718 0.661,-3.444 1.064,-5.156c0.684,-0.222 1.356,-0.481 2.034,-0.723l0.002,-0c2.55,-0.881 5.042,-1.604 7.571,-2.206c0.224,-0.054 0.429,-0.015 0.64,0.035c3.203,0.771 6.352,1.718 9.443,2.86Z" style="fill:#fff;"/><path d="M49.963,86.1c3.556,1.575 7.189,2.995 10.881,4.265c-0.281,1.715 -0.643,3.407 -1.052,5.089c-3.171,1.175 -6.404,2.148 -9.7,2.911c-0.058,0.014 -0.115,0.022 -0.173,0.006c0,0 0,0 0,0c-1.399,-0.371 -2.8,-0.74 -4.2,-1.11l-0,0c-1.934,-0.562 -3.756,-1.168 -5.55,-1.846c-0.399,-1.685 -0.734,-3.383 -1.061,-5.083c2.652,-0.921 5.283,-1.894 7.877,-2.966c0.997,-0.411 1.99,-0.832 2.978,-1.266Zm27.65,-2.539c1.582,0.584 3.177,1.129 4.783,1.641c-0.318,0.741 -0.67,1.474 -0.993,2.22c-0.303,0.701 -0.652,1.347 -1.332,1.735c-0.058,0.033 -0.114,0.069 -0.167,0.109c-3.428,2.567 -7.057,4.597 -10.919,6.231c-0.315,0.134 -0.628,0.091 -0.936,0.063c-0.411,-0.039 -0.821,-0.095 -1.232,-0.107c0,0 0,0 0,0c-0.638,-0.018 -1.274,-0.11 -1.91,-0.198c0.372,-1.63 0.691,-3.272 0.942,-4.927c4.039,-2.035 7.969,-4.284 11.764,-6.767Zm-55.246,-0.061c3.773,2.484 7.689,4.751 11.732,6.794c0.287,1.645 0.595,3.286 0.964,4.915c-1.26,0.163 -2.525,0.276 -3.798,0.3l-0.001,0c-0.731,-0.08 -1.268,-0.467 -1.848,-0.727c-3.494,-1.57 -6.755,-3.536 -9.796,-5.867c-0,-0 -0,-0 -0,-0c-0.187,-0.143 -0.338,-0.304 -0.445,-0.515c-0.545,-1.076 -1.038,-2.174 -1.517,-3.279c1.587,-0.488 3.156,-1.033 4.709,-1.621Zm43.794,-22.032c3.588,2.082 7.191,4.158 10.805,6.217c-0.299,2.143 -0.572,4.292 -0.908,6.43c-0,-0 -0,-0 -0,-0c-0.274,1.74 -0.644,3.464 -0.95,5.199l-0.001,0.005c-3.775,2.446 -7.663,4.693 -11.682,6.715c-3.737,-1.247 -7.407,-2.667 -11.023,-4.23c0.016,-4.138 0.016,-8.276 -0.003,-12.415c3.766,-2.046 7.488,-4.169 11.17,-6.365c0.001,-0.001 0.002,-0.001 0.004,-0.002c0.907,-0.545 1.758,-1.041 2.588,-1.554Zm-32.41,-0.006c4.5,2.743 9.072,5.392 13.717,7.918c-0.01,4.137 -0.005,8.274 0.018,12.412c-0.714,0.286 -1.421,0.606 -2.135,0.91c-2.961,1.234 -5.877,2.321 -8.834,3.293c-4.011,-2.023 -7.883,-4.284 -11.649,-6.731c-0.681,-3.34 -1.266,-6.695 -1.652,-10.084c-0.059,-0.513 -0.119,-1.026 -0.183,-1.539c3.576,-2.054 7.149,-4.113 10.718,-6.179Zm61.248,2.413c-0.556,3.369 -1.35,6.681 -2.355,9.944c-0.003,0.012 -0.007,0.022 -0.015,0.03c0,0 0,0 0,0c-2.352,2.504 -4.847,4.852 -7.504,7.03c-0.912,-0.301 -1.844,-0.577 -2.771,-0.864l-0,-0c-0.779,-0.277 -1.497,-0.548 -2.209,-0.79c0.659,-3.122 1.103,-6.281 1.531,-9.442c-0,0 -0,0 -0,0c0.094,-0.696 0.172,-1.394 0.243,-2.093c3.131,-2.296 6.18,-4.7 9.149,-7.294c0.341,0.286 0.679,0.571 1.011,0.864c0,-0 0,-0 0,-0c0.981,0.864 1.944,1.747 2.92,2.615Zm-86.031,-3.498l0.271,0.237c2.879,2.527 5.817,4.834 8.824,7.055c0.453,3.854 0.974,7.709 1.786,11.515c-1.641,0.551 -3.278,1.115 -4.932,1.625c-2.522,-2.117 -4.937,-4.345 -7.185,-6.753c-0.171,-0.183 -0.297,-0.378 -0.369,-0.619c0,0 0,0 0,0c-0.945,-3.162 -1.724,-6.361 -2.249,-9.62c1.245,-1.191 2.541,-2.325 3.854,-3.44Zm40.972,-26.985c4.646,2.531 9.216,5.192 13.743,7.929c0.152,4.866 0.085,9.733 0.056,14.6c-0.002,0.359 -0.089,0.736 -0.023,1.076c0.033,0.173 -0.097,0.238 -0.213,0.32c-0.127,0.089 -0.266,0.175 -0.411,0.261c-4.346,2.582 -8.719,5.115 -13.151,7.545c-1.816,-1.03 -3.653,-2.049 -5.487,-3.074l0,-0c-2.804,-1.653 -5.527,-3.271 -8.257,-4.873c-0.128,-4.071 -0.116,-8.144 -0.093,-12.217c0.007,-1.209 0.071,-2.418 0.097,-3.627c3.435,-2.082 6.899,-4.115 10.399,-6.085c1.11,-0.625 2.232,-1.228 3.34,-1.855Zm29.493,1.674c2.94,2.209 5.804,4.508 8.605,6.893c0.423,0.359 0.642,0.731 0.662,1.27c0.151,4.254 0.209,8.506 -0.093,12.757c-2.944,2.627 -6.029,5.078 -9.194,7.431c-3.589,-2.075 -7.19,-4.151 -10.798,-6.214c0.12,-3.588 0.125,-7.178 0.102,-10.768c-0.011,-1.701 -0.054,-3.401 -0.109,-5.101c0.622,-0.341 1.234,-0.716 1.854,-1.075l0,0c3.045,-1.758 6.017,-3.463 8.971,-5.193Zm-58.896,0.042c2.183,1.286 4.386,2.552 6.584,3.827c0.001,0 0.002,0.001 0.004,0.002c1.43,0.824 2.778,1.622 4.142,2.384c-0.072,2.281 -0.035,4.563 -0.084,6.846c-0.064,3.009 0.027,6.023 0.098,9.034c-3.588,2.039 -7.162,4.102 -10.722,6.189c-3.145,-2.37 -6.222,-4.821 -9.16,-7.447c-0.183,-3.638 -0.16,-7.276 -0.11,-10.915c0.011,-0.833 0.073,-1.665 0.11,-2.498c2.936,-2.61 5.982,-5.082 9.138,-7.422Zm76.845,4.034c0.544,0.746 1.089,1.493 1.657,2.221c-0,0 -0,0 -0,0c0.37,0.475 0.523,1.009 0.585,1.596c0,-0 0,-0 0,-0c0.374,3.529 0.54,7.06 0.162,10.6c-0.065,0.606 -0.106,1.214 -0.157,1.821c-0.052,0.61 -0.215,1.163 -0.59,1.673c0,-0 0,-0 0,-0c-0.559,0.76 -1.1,1.533 -1.662,2.28c-1.246,-1.137 -2.52,-2.242 -3.835,-3.299c0.131,-2.334 0.201,-4.671 0.216,-7.01c-0,-0.018 -0,-0.037 -0.001,-0.056c-0.064,-2.25 -0.046,-4.38 -0.21,-6.5c1.319,-1.07 2.594,-2.198 3.835,-3.326Zm-90.913,3.308c-0.061,1.432 -0.128,2.864 -0.142,4.296c-0.031,3.085 -0.05,6.171 0.168,9.252c-1.272,1.069 -2.522,2.162 -3.756,3.274c-0.475,-0.645 -0.9,-1.332 -1.427,-1.931c-0.829,-0.942 -1.015,-2.087 -1.08,-3.284c-0.082,-1.501 -0.25,-3.003 -0.23,-4.503c0.028,-2.213 0.095,-4.431 0.419,-6.63c0.011,-0.075 0.016,-0.152 0.017,-0.228c0,-0.255 0.101,-0.424 0.215,-0.596c0.656,-0.99 1.327,-1.968 2.052,-2.925c0.481,0.437 0.959,0.867 1.441,1.292c0,-0 0,-0 0,-0c0.764,0.672 1.537,1.336 2.323,1.983Zm8.399,-24.833c1.662,0.505 3.307,1.059 4.943,1.643c-0.782,3.821 -1.34,7.677 -1.753,11.554c-2.924,2.145 -5.764,4.395 -8.506,6.767l-0.595,0.517c-1.334,-1.118 -2.629,-2.279 -3.877,-3.493c0.575,-3.307 1.315,-6.577 2.306,-9.787c0.029,-0.093 0.047,-0.186 0.116,-0.259c-0,-0 -0,-0 -0,-0c2.323,-2.456 4.76,-4.788 7.366,-6.942Zm70.318,-0.071c1.535,1.257 3.018,2.57 4.443,3.952c0.014,0.013 0.028,0.027 0.043,0.04c1.104,0.995 2.042,2.037 3.003,3.052l0.044,0.134c0.999,3.233 1.749,6.523 2.316,9.858c-1.278,1.216 -2.614,2.366 -3.958,3.508c-2.94,-2.59 -6.018,-5.008 -9.181,-7.319c-0.004,-0.169 -0.014,-0.415 -0.03,-0.56c-0.422,-3.689 -0.969,-7.358 -1.693,-10.999c1.657,-0.584 3.319,-1.169 5.013,-1.666Zm-48.696,-5.121c3.728,1.242 7.383,2.67 10.989,4.224c-0.017,4.162 -0.02,8.324 -0.014,12.487c-4.639,2.518 -9.21,5.182 -13.731,7.929c-3.571,-2.082 -7.147,-4.156 -10.731,-6.215c0.298,-2.741 0.69,-5.468 1.168,-8.183c0.205,-1.164 0.459,-2.32 0.674,-3.483c1.804,-1.161 3.611,-2.315 5.473,-3.382c0.005,-0.003 0.01,-0.006 0.016,-0.009c2.068,-1.217 4.109,-2.299 6.156,-3.368Zm26.961,-0.028c4.021,2.031 7.914,4.283 11.69,6.74c0.818,3.861 1.356,7.766 1.854,11.677c-2.93,1.643 -5.828,3.342 -8.737,5.02c-0.746,0.43 -1.444,0.807 -2.11,1.215c-4.282,-2.61 -8.596,-5.167 -13.033,-7.499c-0.294,-0.154 -0.519,-0.277 -0.638,-0.482c-0.12,-0.207 -0.115,-0.465 -0.106,-0.796c0.105,-3.869 0.051,-7.743 0.031,-11.614c3.624,-1.573 7.301,-3.009 11.049,-4.261Zm-28.41,-9.242c-0.093,0.417 -0.185,0.837 -0.27,1.258c-0.248,1.239 -0.484,2.48 -0.704,3.723c-4.021,2.055 -7.946,4.308 -11.731,6.8c-0.6,-0.227 -1.216,-0.439 -1.829,-0.661l-2.888,-0.961c0.376,-0.832 0.759,-1.661 1.082,-2.512c0.35,-0.923 1.09,-1.455 1.852,-2.003c3.319,-2.389 6.855,-4.381 10.64,-5.932c0.225,-0.092 0.454,-0.047 0.68,-0.024c0.354,0.036 0.708,0.086 1.059,0.1c0.705,0.029 1.407,0.118 2.109,0.212Zm47.387,10.079c-1.605,0.512 -3.2,1.053 -4.775,1.654c-3.802,-2.487 -7.734,-4.748 -11.792,-6.79c-0.246,-1.671 -0.574,-3.328 -0.941,-4.976c1.184,-0.143 2.374,-0.23 3.562,-0.341c0.243,-0.023 0.431,0.138 0.644,0.227c2.585,1.085 5.075,2.35 7.437,3.863c0.006,0.004 0.011,0.007 0.017,0.011c1.468,0.915 2.803,1.863 4.102,2.865c0.182,0.141 0.335,0.29 0.427,0.5c-0,0 -0,0 -0,0c0.437,0.997 0.875,1.993 1.319,2.987Zm-22.592,-10.313c0.367,1.709 0.739,3.423 1.044,5.153c-3.707,1.248 -7.343,2.703 -10.93,4.283c-3.556,-1.567 -7.176,-2.999 -10.868,-4.246c0.332,-1.718 0.661,-3.444 1.064,-5.156c0.684,-0.222 1.356,-0.481 2.034,-0.723l0.002,-0c2.55,-0.881 5.042,-1.604 7.571,-2.206c0.224,-0.054 0.429,-0.015 0.64,0.035c3.203,0.771 6.352,1.718 9.443,2.86Z" style="fill:#fff;"/></svg>