<?xml version="1.0" encoding="UTF-8" standalone="no"?><!DOCTYPE svg PUBLIC "-//W3C//DTD SVG 1.1//EN" "http://www.w3.org/Graphics/SVG/1.1/DTD/svg11.dtd"><svg width="100%" height="100%" viewBox="0 0 121 64" version="1.1" xmlns="http://www.w3.org/2000/svg" xmlns:xlink="http://www.w3.org/1999/xlink" xml:space="preserve" xmlns:serif="http://www.serif.com/" style="fill-rule:evenodd;clip-rule:evenodd;stroke-linejoin:round;stroke-miterlimit:2;"><path id="EYE" d="M119.491,29.391c-1.075,-1.199 -26.922,-29.391 -59.296,-29.391c-32.374,0 -58.221,28.192 -59.296,29.391c-1.199,1.34 -1.199,3.365 0,4.705c1.075,1.199 26.922,29.391 59.296,29.391c32.373,-0 58.221,-28.192 59.296,-29.391c1.198,-1.34 1.198,-3.365 -0,-4.705Zm-42.8,-4.278c0.696,1.817 1.078,3.791 1.078,5.854c0,9.046 -7.345,16.391 -16.391,16.391c-9.046,-0 -16.391,-7.345 -16.391,-16.391c0,-9.046 7.345,-16.391 16.391,-16.391c1.495,0 2.943,0.2 4.318,0.576c-0.232,0.758 -0.357,1.562 -0.357,2.396c0,4.523 3.673,8.195 8.196,8.195c1.118,0 2.184,-0.224 3.156,-0.63Z" style="fill:#fff;fill-rule:nonzero;"/></svg>