<?xml version="1.0" encoding="UTF-8" standalone="no"?><!DOCTYPE svg PUBLIC "-//W3C//DTD SVG 1.1//EN" "http://www.w3.org/Graphics/SVG/1.1/DTD/svg11.dtd"><svg width="100%" height="100%" viewBox="0 0 121 82" version="1.1" xmlns="http://www.w3.org/2000/svg" xmlns:xlink="http://www.w3.org/1999/xlink" xml:space="preserve" xmlns:serif="http://www.serif.com/" style="fill-rule:evenodd;clip-rule:evenodd;stroke-linejoin:round;stroke-miterlimit:2;"><path d="M91.541,65.175l7.38,7.548c2.009,2.056 1.972,5.356 -0.083,7.366c-2.056,2.009 -5.356,1.972 -7.366,-0.084l-69.563,-71.157c-2.01,-2.055 -1.972,-5.356 0.083,-7.365c2.056,-2.009 5.356,-1.972 7.366,0.083l11.379,11.64c6.079,-1.993 12.623,-3.25 19.458,-3.25c32.374,0 58.221,28.193 59.296,29.391c1.198,1.34 1.198,3.366 -0,4.705c-0.691,0.771 -11.625,12.702 -27.95,21.123Zm-67.393,-44.352l20.887,21.366c0.606,7.915 6.844,14.264 14.708,15.044l14.234,14.561c-4.418,1.042 -9.03,1.649 -13.782,1.649c-32.374,0 -58.221,-28.192 -59.296,-29.391c-1.199,-1.339 -1.199,-3.365 0,-4.705c0.622,-0.694 9.552,-10.44 23.249,-18.524Zm51.525,28.12l-21.989,-22.493c2.295,-1.224 4.914,-1.918 7.694,-1.918c1.495,0 2.943,0.201 4.318,0.576c-0.232,0.758 -0.357,1.563 -0.357,2.396c0,4.524 3.673,8.196 8.196,8.196c1.118,-0 2.184,-0.225 3.156,-0.631c0.696,1.818 1.078,3.792 1.078,5.854c0,2.913 -0.761,5.649 -2.096,8.02Z" style="fill:#fff;"/></svg>