<?xml version="1.0" encoding="UTF-8" standalone="no"?><!DOCTYPE svg PUBLIC "-//W3C//DTD SVG 1.1//EN" "http://www.w3.org/Graphics/SVG/1.1/DTD/svg11.dtd"><svg width="100%" height="100%" viewBox="0 0 434 434" version="1.1" xmlns="http://www.w3.org/2000/svg" xmlns:xlink="http://www.w3.org/1999/xlink" xml:space="preserve" xmlns:serif="http://www.serif.com/" style="fill-rule:evenodd;clip-rule:evenodd;stroke-linejoin:round;stroke-miterlimit:2;"><g id="Circle"><path d="M216.667,0c119.581,0 216.666,97.085 216.666,216.667c0,119.581 -97.085,216.666 -216.666,216.666c-119.582,0 -216.667,-97.085 -216.667,-216.666c0,-119.582 97.085,-216.667 216.667,-216.667Zm-0,20.833c108.083,0 195.833,87.75 195.833,195.834c0,108.083 -87.75,195.833 -195.833,195.833c-108.084,-0 -195.834,-87.75 -195.834,-195.833c0,-108.084 87.75,-195.834 195.834,-195.834Z" style="fill:#fff;fill-opacity:0.2;"/><path d="M429.846,255.591c-4.335,23.801 -12.76,47.271 -25.544,69.412c-12.968,22.463 -29.363,41.725 -48.152,57.514l-13.037,-16.264c16.825,-14.211 31.512,-31.514 43.147,-51.666c11.646,-20.172 19.291,-41.563 23.182,-63.259l20.404,4.263Zm-353.518,126.208c-18.442,-15.659 -34.55,-34.695 -47.328,-56.839c-12.964,-22.465 -21.442,-46.296 -25.716,-70.464l20.603,-3.153c3.89,21.677 11.527,43.049 23.157,63.205c11.642,20.174 26.341,37.493 43.181,51.715l-13.897,15.536Zm67.454,-369.214c22.78,-8.147 47.318,-12.585 72.885,-12.585c25.937,0 50.816,4.567 73.884,12.945l-7.566,19.421c-20.72,-7.465 -43.048,-11.533 -66.318,-11.533c-23.292,0 -45.64,4.075 -66.375,11.554l-6.51,-19.802Z" style="fill:#fff;fill-opacity:0.2;"/></g></svg>