<svg id="Component_30_65" data-name="Component 30 – 65" xmlns="http://www.w3.org/2000/svg" width="50.554" height="50.549" viewBox="0 0 50.554 50.549">
  <path id="Subtraction_447" data-name="Subtraction 447" d="M9501.233-20497.893a25.1,25.1,0,0,1-9.842-1.986,25.147,25.147,0,0,1-8.035-5.414,25.144,25.144,0,0,1-5.416-8.033,25.1,25.1,0,0,1-1.986-9.84,25.092,25.092,0,0,1,1.986-9.838,25.2,25.2,0,0,1,5.416-8.035,25.205,25.205,0,0,1,8.035-5.416,25.132,25.132,0,0,1,9.842-1.986,25.109,25.109,0,0,1,9.838,1.986,25.191,25.191,0,0,1,8.034,5.416,25.2,25.2,0,0,1,5.416,8.035,25.092,25.092,0,0,1,1.986,9.838,25.1,25.1,0,0,1-1.986,9.84,25.144,25.144,0,0,1-5.416,8.033,25.111,25.111,0,0,1-8.034,5.414A25.074,25.074,0,0,1,9501.233-20497.893Zm-.006-39.074c-3.737,0-4.225.016-5.687.088a10.111,10.111,0,0,0-3.347.639,6.664,6.664,0,0,0-2.444,1.594,6.7,6.7,0,0,0-1.594,2.439,10.385,10.385,0,0,0-.645,3.352c-.067,1.459-.083,1.947-.083,5.689s.016,4.23.083,5.693a10.305,10.305,0,0,0,.645,3.346,6.727,6.727,0,0,0,1.594,2.445,6.664,6.664,0,0,0,2.444,1.594,10.21,10.21,0,0,0,3.347.639c1.513.066,2.01.082,5.688.082s4.176-.016,5.693-.082a10.211,10.211,0,0,0,3.348-.639,6.753,6.753,0,0,0,2.444-1.594,6.8,6.8,0,0,0,1.593-2.445,10.178,10.178,0,0,0,.64-3.346c.067-1.465.083-1.951.083-5.693s-.016-4.229-.083-5.689a10.225,10.225,0,0,0-.64-3.352,6.788,6.788,0,0,0-1.593-2.439,6.753,6.753,0,0,0-2.444-1.594,10.127,10.127,0,0,0-3.348-.639C9505.435-20536.953,9504.989-20536.967,9501.228-20536.967Zm0,25.115c-3.652,0-4.132-.016-5.574-.078a7.706,7.706,0,0,1-2.563-.479,4.248,4.248,0,0,1-1.588-1.031,4.349,4.349,0,0,1-1.031-1.584,7.827,7.827,0,0,1-.475-2.562c-.068-1.482-.083-1.922-.083-5.58s.015-4.094.083-5.574a7.724,7.724,0,0,1,.475-2.564,4.361,4.361,0,0,1,1.031-1.588,4.345,4.345,0,0,1,1.588-1.031,7.763,7.763,0,0,1,2.563-.475c1.468-.066,1.907-.082,5.574-.082s4.107.016,5.58.082a7.731,7.731,0,0,1,2.558.475,4.373,4.373,0,0,1,1.589,1.031,4.239,4.239,0,0,1,1.031,1.588,7.552,7.552,0,0,1,.479,2.564c.063,1.484.077,1.926.077,5.574s-.014,4.094-.077,5.58a7.64,7.64,0,0,1-.479,2.563,4.211,4.211,0,0,1-1.031,1.584,4.275,4.275,0,0,1-1.589,1.031,7.69,7.69,0,0,1-2.558.479C9505.392-20511.869,9505.011-20511.852,9501.228-20511.852Zm0-18.4a7.093,7.093,0,0,0-7.085,7.086,7.1,7.1,0,0,0,7.085,7.09,7.1,7.1,0,0,0,7.086-7.09A7.093,7.093,0,0,0,9501.228-20530.252Zm7.37-1.934a1.656,1.656,0,0,0-1.655,1.654,1.657,1.657,0,0,0,1.655,1.656,1.657,1.657,0,0,0,1.655-1.656A1.656,1.656,0,0,0,9508.6-20532.186Zm-7.37,13.619a4.606,4.606,0,0,1-4.6-4.6,4.606,4.606,0,0,1,4.6-4.6,4.606,4.606,0,0,1,4.6,4.6A4.606,4.606,0,0,1,9501.228-20518.566Z" transform="translate(-9475.954 20548.441)" fill="#fff"/>
</svg>
