<?xml version="1.0" encoding="UTF-8" standalone="no"?><!DOCTYPE svg PUBLIC "-//W3C//DTD SVG 1.1//EN" "http://www.w3.org/Graphics/SVG/1.1/DTD/svg11.dtd"><svg width="100%" height="100%" viewBox="0 0 100 100" version="1.1" xmlns="http://www.w3.org/2000/svg" xmlns:xlink="http://www.w3.org/1999/xlink" xml:space="preserve" xmlns:serif="http://www.serif.com/" style="fill-rule:evenodd;clip-rule:evenodd;stroke-linejoin:round;stroke-miterlimit:2;"><path d="M50,0c27.596,0 50,22.404 50,50c0,27.596 -22.404,50 -50,50c-27.596,0 -50,-22.404 -50,-50c0,-27.596 22.404,-50 50,-50Zm-5.694,76.863l0,-5.25l3.763,-3.763l5.95,0l3.762,3.763l0,5.25l-3.762,3.762l-5.95,0l-3.763,-3.762Zm0.963,-23.713l15.75,-15.225l-0,-3.937l-4.463,-4.463l-11.462,0l-4.113,4.113l0,4.987l-11.725,0l0,-8.575l10.675,-10.675l21.788,0l11.025,11.025l-0,11.025l-15.925,15.4l-0,7.088l-11.55,-0l-0,-10.763Z" style="fill:#fff;"/></svg>