<svg id="Component_29_65" data-name="Component 29 – 65" xmlns="http://www.w3.org/2000/svg" width="50.559" height="50.549" viewBox="0 0 50.559 50.549">
  <path id="Subtraction_446" data-name="Subtraction 446" d="M9435.146-20441.453a25.146,25.146,0,0,1-9.844-1.984,25.079,25.079,0,0,1-8.033-5.416,25.138,25.138,0,0,1-5.415-8.033,25.018,25.018,0,0,1-1.99-9.838,25.075,25.075,0,0,1,1.99-9.844,25.09,25.09,0,0,1,5.415-8.027,25.061,25.061,0,0,1,8.033-5.42,25.23,25.23,0,0,1,9.844-1.986,25.228,25.228,0,0,1,9.843,1.986,25.082,25.082,0,0,1,8.028,5.42,25.166,25.166,0,0,1,5.42,8.027,25.25,25.25,0,0,1,1.985,9.844,25.193,25.193,0,0,1-1.985,9.838,25.17,25.17,0,0,1-5.42,8.033,25.057,25.057,0,0,1-8.028,5.416A25.145,25.145,0,0,1,9435.146-20441.453Zm-1.064-21.867v0l6.685,8.746h8.542l-10.882-14.395,9.313-10.609H9443.5l-7.076,7.992-6.043-7.992h-8.753l10.424,13.654-9.869,11.35h4.243l7.657-8.746Zm10.285,6.254h-2.355l-15.4-20.109h2.53l15.222,20.107Z" transform="translate(-9409.864 20492.002)" fill="#fff"/>
</svg>
