<?xml version="1.0" encoding="utf-8"?>
<!-- Generator: Adobe Illustrator 26.0.3, SVG Export Plug-In . SVG Version: 6.00 Build 0)  -->
<svg version="1.1" id="Layer_1" xmlns="http://www.w3.org/2000/svg" xmlns:xlink="http://www.w3.org/1999/xlink" x="0px" y="0px"
	 viewBox="0 0 512 512" style="enable-background:new 0 0 512 512;" xml:space="preserve">
<style type="text/css">
	.st0{fill:#FFFFFF;}
</style>
<g>
	<path class="st0" d="M134.77,87.15c-2.9,3.48-1.91,8.75,2.06,10.92c10.72,5.85,30.84,18.22,50.1,37.53
		c6.97,6.99,13.2,14.24,18.7,21.74L217,175.07c13.15,23.75,19.54,49.7,19.08,77.6h-70.23l99.65,108.73l108.73-108.73h-65.28
		c0.74-64.42-24.22-123.25-72.61-170.7C210.01,56.16,192,44.69,183.04,39.91c-3.64-1.94-8.14-1.04-10.78,2.13L134.77,87.15z"/>
</g>
<path class="st0" d="M372.44,292.19l-25.41,23.24c32.16,10.27,54.63,26,58.05,44.34c6.63,35.58-60.26,66.82-149.95,66.82
	s-156.59-31.24-149.95-66.82c4-21.43,34.05-39.32,75.3-49.09l-22.75-24.33c-55.23,14.19-97.3,40.76-105.54,73.42
	C37.99,416,128,467.7,255.13,467.7S472.26,416,458.07,359.78C450.84,331.12,417.59,307.18,372.44,292.19z"/>
</svg>
