<svg id="Icon_awesome-reddit" data-name="Icon awesome-reddit" xmlns="http://www.w3.org/2000/svg" width="50.552" height="50.552" viewBox="0 0 50.552 50.552">
  <path id="Icon_awesome-reddit-2" data-name="Icon awesome-reddit" d="M20.284,30.883a2.523,2.523,0,1,1,2.507-2.507A2.525,2.525,0,0,1,20.284,30.883Zm30.83-5.045A25.276,25.276,0,1,1,25.838.563,25.271,25.271,0,0,1,51.114,25.838Zm-13.484-4.2A3.411,3.411,0,0,0,35.2,22.658a16.477,16.477,0,0,0-8.775-2.711l1.773-7.98,5.646,1.274a2.512,2.512,0,0,0,2.507,2.507A2.538,2.538,0,1,0,34.1,12.079l-6.237-1.386a.6.6,0,0,0-.7.448l-1.947,8.806A16.625,16.625,0,0,0,16.5,22.679a3.373,3.373,0,1,0-3.924,5.361,7.356,7.356,0,0,0-.173,1.58c0,5.361,6.034,9.7,13.453,9.7,7.45,0,13.484-4.342,13.484-9.7a6.511,6.511,0,0,0-.194-1.61A3.363,3.363,0,0,0,37.63,21.639ZM30.608,33.482c-1.855,1.855-7.756,1.824-9.54,0a.616.616,0,0,0-.846,0,.6.6,0,0,0,0,.876c2.324,2.324,8.9,2.324,11.231,0a.6.6,0,0,0,0-.876A.616.616,0,0,0,30.608,33.482Zm.785-7.644a2.523,2.523,0,1,0,2.538,2.538A2.519,2.519,0,0,0,31.393,25.838Z" transform="translate(-0.563 -0.563)" fill="#fff"/>
</svg>
