<?xml version="1.0" encoding="UTF-8" standalone="no"?><!DOCTYPE svg PUBLIC "-//W3C//DTD SVG 1.1//EN" "http://www.w3.org/Graphics/SVG/1.1/DTD/svg11.dtd"><svg width="100%" height="100%" viewBox="0 0 72 100" version="1.1" xmlns="http://www.w3.org/2000/svg" xmlns:xlink="http://www.w3.org/1999/xlink" xml:space="preserve" xmlns:serif="http://www.serif.com/" style="fill-rule:evenodd;clip-rule:evenodd;stroke-linejoin:round;stroke-miterlimit:2;"><g id="Mouse_Left"><path d="M71.703,45.352l-71.703,-0l0,24.533c0,16.621 13.494,30.115 30.115,30.115l11.473,0c16.621,0 30.115,-13.494 30.115,-30.115l0,-24.533Zm-40.151,-8.6l-0,-36.752l-1.437,0c-16.621,0 -30.115,13.494 -30.115,30.115l0,6.637l31.552,-0Zm8.6,-0l31.551,-0l0,-6.637c0,-16.621 -13.494,-30.115 -30.115,-30.115l-1.436,0l-0,36.752Z" style="fill:#fff;fill-opacity:0.6;"/><path d="M31.552,36.752l-0,-36.752l-1.437,0c-16.621,0 -30.115,13.494 -30.115,30.115l0,6.637l31.552,-0Z" style="fill:#fff;"/></g></svg>