<?xml version="1.0" encoding="UTF-8" standalone="no"?><!DOCTYPE svg PUBLIC "-//W3C//DTD SVG 1.1//EN" "http://www.w3.org/Graphics/SVG/1.1/DTD/svg11.dtd"><svg width="100%" height="100%" viewBox="0 0 72 100" version="1.1" xmlns="http://www.w3.org/2000/svg" xmlns:xlink="http://www.w3.org/1999/xlink" xml:space="preserve" xmlns:serif="http://www.serif.com/" style="fill-rule:evenodd;clip-rule:evenodd;stroke-linejoin:round;stroke-miterlimit:2;"><g id="Mouse_Middle"><path d="M71.703,30.115c0,-16.621 -13.494,-30.115 -30.115,-30.115l-11.473,-0c-16.621,-0 -30.115,13.494 -30.115,30.115l0,39.77c0,16.621 13.494,30.115 30.115,30.115l11.473,-0c16.621,-0 30.115,-13.494 30.115,-30.115l0,-39.77Zm-24.685,-7.515c0,-5.39 -4.376,-9.767 -9.766,-9.767c-0,0 -2.8,0 -2.8,0c-5.391,0 -9.767,4.377 -9.767,9.767c-0,0 -0,24.8 -0,24.8c-0,5.39 4.376,9.767 9.767,9.767l2.8,-0c5.39,-0 9.766,-4.377 9.766,-9.767c0,-0 0,-24.8 0,-24.8Zm-4.166,0c-0,-3.091 -2.51,-5.6 -5.6,-5.6l-2.8,0c-3.091,0 -5.6,2.509 -5.6,5.6l-0,24.8c-0,3.091 2.509,5.6 5.6,5.6l2.8,0c3.09,0 5.6,-2.509 5.6,-5.6l-0,-24.8Z" style="fill:#fff;fill-opacity:0.6;"/><path d="M42.852,22.6c-0,-3.091 -2.51,-5.6 -5.6,-5.6l-2.8,0c-3.091,0 -5.6,2.509 -5.6,5.6l-0,24.8c-0,3.091 2.509,5.6 5.6,5.6l2.8,-0c3.09,-0 5.6,-2.509 5.6,-5.6l-0,-24.8Z" style="fill:#fff;"/></g></svg>