<svg id="Component_25_69" data-name="Component 25 – 69" xmlns="http://www.w3.org/2000/svg" width="50.559" height="50.548" viewBox="0 0 50.559 50.548">
  <path id="Subtraction_443" data-name="Subtraction 443" d="M25.284,50.548A25.279,25.279,0,0,1,15.44,1.986,25.277,25.277,0,0,1,43.155,43.148a25.2,25.2,0,0,1-17.871,7.4ZM22.62,21.324a8.433,8.433,0,0,0-5.444,2.047,8.325,8.325,0,0,0-2.87,5.523c-.022.48-.018,1.007.007,1.657a8.406,8.406,0,0,0,4.067,6.356,8.188,8.188,0,0,0,4.13,1.16c.118,0,.253,0,.412-.015a8.273,8.273,0,0,0,6.58-3.574A8.562,8.562,0,0,0,31,30.092c.018-1.794.018-3.626.018-5.4l0-.482c0-1.263,0-2.571.006-3.857a13.5,13.5,0,0,0,1.8,1.034,11.9,11.9,0,0,0,4.677,1.081V17.982a7.951,7.951,0,0,1-4.721-1.993,6.87,6.87,0,0,1-1.949-4.64c-.536,0-1.081.006-1.609.006h-.015c-.892,0-1.816,0-2.728.017-.026,2.93-.022,5.9-.02,8.768,0,1.528,0,3.109,0,4.664,0,.547,0,1.1,0,1.638v.089c0,1.389,0,2.826-.074,4.243a2.436,2.436,0,0,1-.412,1.1l-.009.013-.035.063a3.755,3.755,0,0,1-3.087,1.8c-.087.007-.177.013-.279.013a3.816,3.816,0,0,1-3.617-3.21c0-.1,0-.194-.007-.292l0-.011a3.566,3.566,0,0,1,.166-1.489,3.86,3.86,0,0,1,1.513-1.949,3.634,3.634,0,0,1,2.078-.615,4.158,4.158,0,0,1,1.286.2c0-.752.015-1.528.024-2.119l0-.133c.013-.883.028-1.8.017-2.693A7.591,7.591,0,0,0,22.62,21.324Z" fill="#fff"/>
</svg>
