<?xml version="1.0" encoding="UTF-8" standalone="no"?><!DOCTYPE svg PUBLIC "-//W3C//DTD SVG 1.1//EN" "http://www.w3.org/Graphics/SVG/1.1/DTD/svg11.dtd"><svg width="100%" height="100%" viewBox="0 0 72 100" version="1.1" xmlns="http://www.w3.org/2000/svg" xmlns:xlink="http://www.w3.org/1999/xlink" xml:space="preserve" xmlns:serif="http://www.serif.com/" style="fill-rule:evenodd;clip-rule:evenodd;stroke-linejoin:round;stroke-miterlimit:2;"><g id="Mouse_Right"><path d="M0,45.352l71.703,-0l0,24.533c0,16.621 -13.494,30.115 -30.115,30.115l-11.473,0c-16.621,0 -30.115,-13.494 -30.115,-30.115l0,-24.533Zm40.152,-8.6l-0,-36.752l1.436,0c16.621,0 30.115,13.494 30.115,30.115l0,6.637l-31.551,-0Zm-8.6,-0l-31.552,-0l0,-6.637c0,-16.621 13.494,-30.115 30.115,-30.115l1.437,0l-0,36.752Z" style="fill:#fff;fill-opacity:0.6;"/><path d="M40.152,36.752l-0,-36.752l1.436,0c16.621,0 30.115,13.494 30.115,30.115l0,6.637l-31.551,-0Z" style="fill:#fff;"/></g></svg>