<svg id="Component_26_69" data-name="Component 26 – 69" xmlns="http://www.w3.org/2000/svg" width="50.559" height="50.548" viewBox="0 0 50.559 50.548">
  <path id="Subtraction_444" data-name="Subtraction 444" d="M25.284,50.548A25.279,25.279,0,0,1,15.44,1.986,25.277,25.277,0,0,1,43.155,43.148a25.2,25.2,0,0,1-17.871,7.4Zm.17-27.1c-3.809,0-8.829.046-10.858.153a3.785,3.785,0,0,0-3.726,3.654c-.018.331-.035.63-.052.9l0,.05-.009.146c-.078,1.347-.116,2.023-.116,2.887,0,1.1.059,2.717.179,4.816A3.785,3.785,0,0,0,14.6,39.709c2.026.1,7,.153,10.858.153,3.713,0,8.408-.046,10.534-.153a3.8,3.8,0,0,0,3.731-3.654c.1-1.788.148-3.408.148-4.816,0-1.3-.041-2.043-.122-3.528l0-.052-.022-.406A3.8,3.8,0,0,0,35.988,23.6C33.8,23.485,28.947,23.446,25.454,23.446Zm7.121-2.673v.85H34.4V12.509H32.575v7.18a1.781,1.781,0,0,1-1.033.512.617.617,0,0,1-.563-.4,3.284,3.284,0,0,1-.231-1.42V12.509H28.925v6.247h0c.037,1.917.552,2.848,1.577,2.848a4.043,4.043,0,0,0,2.067-.829ZM24.37,12.509a2.737,2.737,0,0,0-2.738,2.732v3.65a2.735,2.735,0,0,0,5.469,0v-3.65A2.734,2.734,0,0,0,24.37,12.509Zm-8.205,4.354v4.76h1.823v-4.76l.017.013,3.558-6.19H19.044L17.073,14.6,15.1,10.686H12.59l3.552,6.19.02-.011ZM35.307,38.035A2.737,2.737,0,0,1,32.575,35.3v-3.65a2.735,2.735,0,0,1,5.469,0V33.48H34.4V35.3a.912.912,0,0,0,1.823,0v-.912h1.823V35.3A2.739,2.739,0,0,1,35.307,38.035Zm0-7.293a.908.908,0,0,0-.909.909v.914h1.823v-.914A.912.912,0,0,0,35.307,30.742ZM27.1,38.035H25.278V27.1H27.1v2.961a3.168,3.168,0,0,1,2.113-1.073,1.569,1.569,0,0,1,1.533,1.758v5.442a1.648,1.648,0,0,1-1.679,1.827,3.083,3.083,0,0,1-1.967-.846v.87Zm1.09-6.94a1.649,1.649,0,0,0-1.09.556v4.788a1.61,1.61,0,0,0,1.084.462.656.656,0,0,0,.739-.689V31.937A.743.743,0,0,0,28.191,31.1Zm-4.736,6.94H21.632v-.852a5.317,5.317,0,0,1-2.337.831c-1.166,0-1.284-1.125-1.308-2.278V30.742h1.823v5.026c0,.536.242.829.682.829a1.932,1.932,0,0,0,1.14-.5V30.742h1.823v7.293Zm-7.291,0H14.341V28.919H12.515V27.1h5.473v1.823H16.165v9.116ZM24.37,19.8a.925.925,0,0,1-.914-.909v-3.65a.912.912,0,0,1,1.823,0v3.65A.923.923,0,0,1,24.37,19.8Z" fill="#fff"/>
</svg>
