<svg id="Component_31_65" data-name="Component 31 – 65" xmlns="http://www.w3.org/2000/svg" width="50.548" height="50.557" viewBox="0 0 50.548 50.557">
  <path id="Subtraction_441" data-name="Subtraction 441" d="M25.269,50.557A25.267,25.267,0,0,1,0,25.278,25.273,25.273,0,0,1,43.144,7.4,25.278,25.278,0,0,1,25.269,50.557ZM21.095,14.319a13,13,0,0,0-7.306,2.745,34.91,34.91,0,0,0-3.75,15.211l.006.011a7.831,7.831,0,0,0,1.812,1.9,10.4,10.4,0,0,0,6.136,2.049A.014.014,0,0,0,18,36.232a.525.525,0,0,1,.057-.076c.724-.877,1.28-1.557,1.694-2.084a8.184,8.184,0,0,1-4.575-3.081,10.513,10.513,0,0,0,.973.589.324.324,0,0,0,.07.042.054.054,0,0,0,.035.02,18.951,18.951,0,0,0,9.16,2.333,18.34,18.34,0,0,0,7.112-1.413,15.528,15.528,0,0,0,3-1.537,8.4,8.4,0,0,1-4.72,3.1c.416.523.938,1.171,1.559,1.919.105.126.159.187.161.192a10.539,10.539,0,0,0,6.153-2.049,7.691,7.691,0,0,0,1.834-1.919,34.9,34.9,0,0,0-3.763-15.206,12.987,12.987,0,0,0-7.3-2.745H29.42l-.366.419a17.651,17.651,0,0,1,6.5,3.316A21.84,21.84,0,0,0,25.1,15.4,22.636,22.636,0,0,0,16.067,17.3c-.881.4-1.413.689-1.544.763a17.7,17.7,0,0,1,6.86-3.421l-.26-.318ZM29.92,29.841a2.9,2.9,0,1,1,2.66-2.889A2.789,2.789,0,0,1,29.92,29.841Zm-9.554-.212a2.637,2.637,0,0,1-2.586-2.895,2.64,2.64,0,0,1,2.586-2.9,2.9,2.9,0,0,1,0,5.8Z" fill="#fff"/>
</svg>
