<?xml version="1.0" encoding="UTF-8" standalone="no"?><!DOCTYPE svg PUBLIC "-//W3C//DTD SVG 1.1//EN" "http://www.w3.org/Graphics/SVG/1.1/DTD/svg11.dtd"><svg width="100%" height="100%" viewBox="0 0 106 79" version="1.1" xmlns="http://www.w3.org/2000/svg" xmlns:xlink="http://www.w3.org/1999/xlink" xml:space="preserve" xmlns:serif="http://www.serif.com/" style="fill-rule:evenodd;clip-rule:evenodd;stroke-linejoin:round;stroke-miterlimit:2;"><path id="Check" d="M39.76,49.958c0,0 35.829,-35.102 47.42,-46.459c1.973,-1.932 5.138,-1.9 7.071,0.073c2.253,2.299 5.171,5.277 7.424,7.577c1.932,1.972 1.9,5.138 -0.072,7.071c-11.429,11.197 -47.017,46.064 -58.343,57.161c-1.944,1.904 -5.055,1.904 -6.999,-0c-7.512,-7.36 -25.113,-24.605 -32.689,-32.028c-1.973,-1.933 -2.005,-5.098 -0.073,-7.071c2.253,-2.299 5.171,-5.277 7.424,-7.577c1.933,-1.973 5.098,-2.005 7.071,-0.072c6.982,6.841 21.766,21.325 21.766,21.325Z" style="fill:#fff;"/></svg>