<?xml version="1.0" encoding="UTF-8" standalone="no"?><!DOCTYPE svg PUBLIC "-//W3C//DTD SVG 1.1//EN" "http://www.w3.org/Graphics/SVG/1.1/DTD/svg11.dtd"><svg width="100%" height="100%" viewBox="0 0 368 405" version="1.1" xmlns="http://www.w3.org/2000/svg" xmlns:xlink="http://www.w3.org/1999/xlink" xml:space="preserve" xmlns:serif="http://www.serif.com/" style="fill-rule:evenodd;clip-rule:evenodd;stroke-linecap:round;stroke-linejoin:round;stroke-miterlimit:1.5;"><path d="M315.795,296.755l29.583,17.093l-145.61,84.069l0,-34.174l116.027,-66.988Zm-263.949,0l116.027,66.988l-0,34.174l-145.611,-84.069l29.584,-17.093Zm131.974,42.022l-118.38,-68.347l0,-136.694l118.38,-68.346l118.381,68.346l-0,136.694l-118.381,68.347Zm0,-230.114l19.872,73.549l73.549,19.871l-73.549,19.872l-19.872,73.548l-19.871,-73.548l-73.549,-19.872l73.549,-19.871l19.871,-73.549Zm-147.975,26.34l0,134.161l-29.595,17.1l0,-168.361l29.595,17.1Zm325.546,-17.1l-0,168.361l-29.595,-17.1l-0,-134.161l29.595,-17.1Zm-16.013,-27.585l-29.583,17.093l-116.027,-66.988l0,-34.173l145.61,84.068Zm-177.505,-84.068l-0,34.173l-116.027,66.988l-29.584,-17.093l145.611,-84.068Z" style="stroke:#fff;stroke-width:12.5px;"/></svg>