<svg width="31" height="24" viewBox="0 0 31 24" fill="none" xmlns="http://www.w3.org/2000/svg">
<g id="Icon_Camera 1" clip-path="url(#clip0_194_272)">
<path id="Icon_Camera" opacity="0.9" d="M11.568 4.81597C11.568 3.86267 11.8507 2.93077 12.3803 2.13813C12.9099 1.34548 13.6627 0.727689 14.5435 0.362875C15.4242 -0.00193983 16.3933 -0.097392 17.3283 0.0885888C18.2633 0.27457 19.1222 0.73363 19.7963 1.40772C20.4703 2.08181 20.9294 2.94065 21.1154 3.87564C21.3014 4.81063 21.2059 5.77977 20.8411 6.66051C20.4763 7.54125 19.8585 8.29403 19.0658 8.82366C18.2732 9.35329 17.3413 9.63597 16.388 9.63597C15.1097 9.63597 13.8837 9.12815 12.9797 8.22423C12.0758 7.3203 11.568 6.09432 11.568 4.81597ZM0 4.81597C0 3.86267 0.282688 2.93077 0.812316 2.13813C1.34194 1.34548 2.09473 0.727689 2.97547 0.362875C3.85621 -0.00193983 4.82535 -0.097392 5.76033 0.0885888C6.69532 0.27457 7.55417 0.73363 8.22825 1.40772C8.90234 2.08181 9.3614 2.94065 9.54739 3.87564C9.73337 4.81063 9.63791 5.77977 9.2731 6.66051C8.90828 7.54125 8.29049 8.29403 7.49785 8.82366C6.7052 9.35329 5.77331 9.63597 4.82 9.63597C3.54166 9.63597 2.31567 9.12815 1.41175 8.22423C0.50782 7.3203 0 6.09432 0 4.81597ZM23.136 14.456V11.568C23.1344 11.0571 22.9308 10.5676 22.5696 10.2064C22.2083 9.84519 21.7189 9.64156 21.208 9.63997H1.929C1.41815 9.64156 0.928674 9.84519 0.567446 10.2064C0.206218 10.5676 0.00258234 11.0571 0.000999928 11.568V21.208C0.00231864 21.719 0.205838 22.2087 0.567094 22.5702C0.92835 22.9316 1.41798 23.1354 1.929 23.137H21.209C21.7199 23.1354 22.2093 22.9318 22.5706 22.5705C22.9318 22.2093 23.1354 21.7198 23.137 21.209V18.316L30.849 23.136V9.63597L23.136 14.456ZM19.28 19.276H3.856V13.496H19.28V19.276Z" fill="white"/>
</g>
<defs>
<clipPath id="clip0_194_272">
<rect width="30.849" height="23.136" fill="white"/>
</clipPath>
</defs>
</svg>
