<?xml version="1.0" encoding="UTF-8" standalone="no"?><!DOCTYPE svg PUBLIC "-//W3C//DTD SVG 1.1//EN" "http://www.w3.org/Graphics/SVG/1.1/DTD/svg11.dtd"><svg width="100%" height="100%" viewBox="0 0 100 84" version="1.1" xmlns="http://www.w3.org/2000/svg" xmlns:xlink="http://www.w3.org/1999/xlink" xml:space="preserve" xmlns:serif="http://www.serif.com/" style="fill-rule:evenodd;clip-rule:evenodd;stroke-linejoin:round;stroke-miterlimit:2;"><path d="M59.295,47.726l8.629,9.076l5.817,0l-0,-3.971c-0,-3.077 1.867,-5.847 4.72,-7.002c2.853,-1.154 6.121,-0.462 8.261,1.75l11.152,11.524c2.835,2.928 2.835,7.577 0,10.506l-11.152,11.524c-2.14,2.212 -5.408,2.903 -8.261,1.749c-2.853,-1.154 -4.72,-3.924 -4.72,-7.002l-0,-3.971l-9.058,0c-2.069,0 -4.048,-0.849 -5.474,-2.348l-10.6,-11.149l10.686,-10.686Zm14.446,-36.201l-9.058,-0c-2.069,-0 -4.048,0.849 -5.474,2.348l-41.577,43.728c0,-0 -9.599,-0 -14.632,-0c-1.657,-0 -3,1.343 -3,3c0,2.641 0,6.466 0,9.107c0,0.796 0.316,1.559 0.879,2.121c0.562,0.563 1.325,0.879 2.121,0.879c5.775,-0 17.873,-0 17.873,-0c2.069,-0 4.048,-0.849 5.474,-2.349l41.577,-43.727l5.817,-0l-0,3.97c-0,3.078 1.867,5.848 4.72,7.002c2.853,1.155 6.121,0.463 8.261,-1.749l11.152,-11.524c2.835,-2.929 2.835,-7.577 0,-10.506l-11.152,-11.524c-2.14,-2.212 -5.408,-2.904 -8.261,-1.749c-2.853,1.154 -4.72,3.924 -4.72,7.002l-0,3.971Zm-45.889,25.056l-10.22,-10.748c0,-0 -9.599,-0 -14.632,-0c-1.657,-0 -3,-1.343 -3,-3c0,-2.641 0,-6.466 0,-9.107c0,-0.796 0.316,-1.559 0.879,-2.121c0.562,-0.563 1.325,-0.879 2.121,-0.879c5.775,-0 17.873,-0 17.873,-0c2.069,-0 4.048,0.849 5.474,2.349l12.19,12.82l-10.685,10.686Z" style="fill:#fff;"/></svg>