<?xml version="1.0" encoding="UTF-8" standalone="no"?><!DOCTYPE svg PUBLIC "-//W3C//DTD SVG 1.1//EN" "http://www.w3.org/Graphics/SVG/1.1/DTD/svg11.dtd"><svg width="100%" height="100%" viewBox="0 0 1603 1067" version="1.1" xmlns="http://www.w3.org/2000/svg" xmlns:xlink="http://www.w3.org/1999/xlink" xml:space="preserve" xmlns:serif="http://www.serif.com/" style="fill-rule:evenodd;clip-rule:evenodd;stroke-linejoin:round;stroke-miterlimit:2;"><path d="M749.084,157.839c-21.517,-15.95 -35.473,-41.528 -35.473,-70.339c0,-48.293 39.208,-87.5 87.5,-87.5c48.293,0 87.5,39.207 87.5,87.5c0,29.497 -14.627,55.605 -37.013,71.455c0.612,0.557 1.325,1.141 2.139,1.751c8.804,16.595 278.289,470.203 283.025,473.309c53.925,-22.355 275.798,-111.007 286.224,-115.129c3.169,-0.487 6.12,-1.43 8.854,-2.83c-2.994,-8.822 -4.617,-18.273 -4.617,-28.101c-0,-48.293 39.207,-87.5 87.5,-87.5c48.292,0 87.5,39.207 87.5,87.5c-0,48.293 -39.208,87.5 -87.5,87.5c-4.496,0 -8.914,-0.34 -13.221,-0.994c-18.512,51.187 -191.105,430.741 -196.843,443.317c-2.133,-0 -3.198,1.065 -3.198,3.198c-273.144,48.092 -548.174,58.22 -825.091,30.381c-58.476,-8.785 -117.109,-18.379 -175.892,-28.782c-2.791,-5.126 -181.986,-389.079 -200.259,-448.04c-4.157,0.607 -8.402,0.92 -12.719,0.92c-48.293,0 -87.5,-39.207 -87.5,-87.5c0,-48.293 39.207,-87.5 87.5,-87.5c48.293,0 87.5,39.207 87.5,87.5c0,9.267 -1.444,18.2 -4.117,26.581c48.784,21.317 289.343,117.821 294.293,119.479c7.916,-9.607 270.464,-454.706 283.026,-473.309c0.276,-0.696 0.563,-1.67 0.882,-2.867Z" style="fill:#fefffe;fill-opacity:0.99;"/></svg>