<?xml version="1.0" encoding="UTF-8" standalone="no"?><!DOCTYPE svg PUBLIC "-//W3C//DTD SVG 1.1//EN" "http://www.w3.org/Graphics/SVG/1.1/DTD/svg11.dtd"><svg width="100%" height="100%" viewBox="0 0 1067 1208" version="1.1" xmlns="http://www.w3.org/2000/svg" xmlns:xlink="http://www.w3.org/1999/xlink" xml:space="preserve" xmlns:serif="http://www.serif.com/" style="fill-rule:evenodd;clip-rule:evenodd;stroke-linejoin:round;stroke-miterlimit:2;"><path id="Icon_Spawn_Wave" d="M518.069,0.074c2.9,-0.229 5.721,0.073 8.464,0.907c6.274,5.268 12.723,10.306 19.344,15.113c1.543,2.757 3.558,5.175 6.045,7.254c5.422,3.813 10.458,8.044 15.113,12.695c3.27,2.773 6.898,4.989 10.881,6.649c3.531,3.025 5.949,6.753 7.254,11.184c2.026,1.927 4.141,3.74 6.348,5.441c0.187,1.242 0.49,2.451 0.907,3.627c1.771,1.067 2.98,2.578 3.627,4.534c-0.605,2.317 -1.614,4.433 -3.023,6.347c0.587,1.288 1.288,2.497 2.116,3.627c2.841,2.537 5.356,5.358 7.556,8.463c-3.167,4.876 -7.399,8.604 -12.694,11.184c9.497,2.531 18.77,5.756 27.807,9.672c6.849,4.03 13.705,8.06 20.554,12.09c8.173,7.869 16.431,15.627 24.785,23.274c5.568,8.012 11.208,15.972 16.926,23.878c8.355,1.443 16.419,3.861 24.181,7.255c5.338,3.777 10.778,7.404 16.322,10.881c3.222,4.433 6.45,8.866 9.672,13.299c3.796,0.232 7.218,1.441 10.277,3.627c10.633,7.873 17.386,18.251 20.251,31.133c4.032,5.642 8.058,11.284 12.09,16.926c36.441,-26.363 73.213,-52.257 110.324,-77.68c9.401,-8.071 19.176,-15.628 29.319,-22.669c7.575,5.2 14.829,10.843 21.763,16.926c11.183,14.005 22.367,28.009 33.55,42.014c7.787,-0.229 15.543,-0.935 23.274,-2.116c1.614,-0.201 2.823,0.403 3.627,1.814c6.65,8.664 13.3,17.329 19.949,25.994c11.075,21.34 22.156,42.7 33.249,64.078c6.432,23.723 12.682,47.5 18.74,71.333c-0.079,16.755 -0.284,33.681 -0.605,50.779c-4.57,3.947 -9.303,7.675 -14.206,11.184c-3.742,1.709 -7.369,3.523 -10.881,5.441c-2.563,8.348 -5.084,16.711 -7.557,25.087c-5.44,12.09 -10.881,24.181 -16.322,36.271c-2.297,2.902 -4.818,5.623 -7.556,8.161c-4.389,1.53 -8.82,2.941 -13.299,4.231c-1.209,0.404 -2.013,1.209 -2.418,2.419c-11.093,3.649 -22.38,6.571 -33.853,8.765c-2.092,5.025 -4.607,9.86 -7.557,14.508c-5.827,4.516 -11.165,9.558 -16.019,15.113c1.517,6.275 3.131,12.526 4.836,18.74c3.754,1.977 7.586,3.791 11.486,5.441c1.299,0.997 2.508,2.104 3.627,3.325c4.914,-0.72 9.751,-0.315 14.508,1.209c0.49,1.191 1.294,2.097 2.418,2.72c2.309,-0.423 4.625,-0.828 6.952,-1.209c0.466,0.085 0.871,0.29 1.209,0.604c8.687,24.508 9.696,49.293 3.023,74.356c-7.454,8.663 -14.914,17.331 -22.367,25.994c-1.203,5.011 -3.017,9.848 -5.441,14.508c-3.7,5.108 -7.629,10.047 -11.788,14.811c-17.99,14.236 -37.939,25.021 -59.847,32.342c-14.109,-2.533 -28.418,-4.951 -42.921,-7.255c-10.379,1.844 -20.759,3.253 -31.132,4.232c-2.267,-0.484 -4.582,-0.786 -6.952,-0.907c-2.315,-2.72 -4.637,-5.44 -6.952,-8.161c-4.159,4.764 -8.088,9.703 -11.788,14.811c-2.249,0.375 -4.467,0.876 -6.65,1.511c-0.52,1.028 -1.33,1.729 -2.418,2.116c-5.459,1.112 -10.899,1.922 -16.322,2.418c-3.355,3.96 -6.48,8.088 -9.37,12.393c-2.66,1.952 -4.975,4.171 -6.952,6.649c1.675,8.27 3.386,16.528 5.139,24.785c0.864,15.506 1.269,31.024 1.209,46.548c-0.103,2.442 -0.405,4.86 -0.907,7.254c-2.962,1.052 -5.985,1.862 -9.068,2.418c0.242,1.536 -0.163,2.847 -1.209,3.93c-2.92,1.36 -5.737,2.871 -8.463,4.533c-0.641,5.786 -1.952,11.426 -3.929,16.927c-0.937,2.551 -2.751,3.959 -5.441,4.231c-0.163,1.645 -0.465,3.259 -0.907,4.837c1.947,1.535 3.863,3.143 5.743,4.836c2.588,4.576 5.61,8.807 9.068,12.694c4.213,8.367 6.027,17.235 5.441,26.599c-2.032,5.423 -3.343,11.069 -3.93,16.927c0.949,1.861 2.255,3.469 3.93,4.836c1.124,4.376 1.027,8.705 -0.303,12.997c-0.235,4.213 -1.045,8.445 -2.418,12.695c0.417,0.646 0.72,1.348 0.907,2.115c0.399,8.911 1.106,17.773 2.116,26.599c-1.82,12.314 -3.833,24.604 -6.045,36.875c3.216,26.774 9.563,52.769 19.042,77.983c0.532,3.911 0.834,7.84 0.907,11.788c-0.835,6.988 -1.439,13.94 -1.814,20.856c-2.448,0.514 -4.866,1.221 -7.254,2.115c1.209,1.826 1.711,3.742 1.511,5.743c2.4,0.085 3.712,1.294 3.93,3.627c2.478,-0.441 4.594,0.164 6.347,1.814c0.78,3.379 1.082,6.807 0.907,10.277c4.37,-0.974 7.895,0.236 10.579,3.627c0.405,6.45 0.405,12.894 -0,19.344c-1.808,2.213 -4.026,3.821 -6.65,4.836c-6.281,-0.368 -12.429,-0.368 -18.438,0c-6.667,-1.487 -13.214,-3.3 -19.646,-5.44c-0.297,-0.986 -0.399,-1.995 -0.303,-3.023l-6.649,0c0.096,1.427 -0,2.835 -0.303,4.232c-2.146,1.946 -4.467,3.657 -6.951,5.138c-8.059,0.405 -16.123,0.405 -24.181,0c-6.45,-1.088 -12.798,-3.004 -19.042,-5.743c-0.006,-3.826 -0.109,-7.756 -0.303,-11.788c1.415,-9.491 1.512,-19.06 0.303,-28.714c-3.234,-2.932 -6.559,-5.755 -9.975,-8.463c-3.27,-6.59 -4.884,-13.542 -4.836,-20.856c0.738,-6.964 0.738,-13.614 0,-19.949c0.484,-2.666 0.786,-5.386 0.907,-8.161c1.342,-3.313 2.249,-6.74 2.72,-10.277c-1.215,-8.3 -2.521,-16.763 -3.929,-25.389c-5.006,-12.605 -10.247,-25.1 -15.718,-37.48c-2.272,-10.997 -3.681,-22.077 -4.231,-33.249c1.155,-7.23 2.666,-14.387 4.534,-21.46c-0.218,-0.738 -0.52,-1.445 -0.907,-2.116c-4.703,-2.684 -8.125,-6.516 -10.277,-11.486c-4.745,-4.243 -7.967,-9.484 -9.672,-15.717c-2.237,-7.974 -2.636,-16.032 -1.209,-24.181c2.079,-3.415 3.391,-7.344 3.929,-11.788c-7.834,-6.68 -13.976,-14.635 -18.437,-23.878c-13.729,-26.574 -24.308,-54.382 -31.737,-83.423c1.009,-1.409 2.218,-2.618 3.627,-3.627c-2.08,-4.492 -3.089,-9.122 -3.023,-13.904c4.625,-3.415 9.056,-7.043 13.299,-10.881c-1.184,-2.551 -2.599,-4.969 -4.231,-7.254c0.127,-0.357 0.326,-0.659 0.604,-0.907c-6.661,-3.234 -11.999,-7.968 -16.019,-14.206c-3.756,8.457 -8.188,16.515 -13.3,24.18c-2.158,2.739 -4.879,4.655 -8.161,5.743c-4.052,2.056 -8.284,3.567 -12.694,4.534c-0.736,-0.302 -1.441,-0.502 -2.116,-0.604c-10.886,0.743 -21.767,1.553 -32.644,2.418c-3.455,-0.012 -6.982,-0.115 -10.579,-0.303c-6.495,-3.542 -12.741,-7.471 -18.74,-11.788c-4.28,-5.942 -8.411,-11.987 -12.393,-18.135c-3.653,5.392 -7.381,10.73 -11.183,16.02c1.373,2.345 2.582,4.763 3.627,7.254c-1.004,1.59 -1.306,3.306 -0.907,5.138c5.476,4.806 9.003,10.754 10.579,17.833c-2.55,9.092 -4.867,18.257 -6.952,27.506c-9.9,28.666 -21.789,56.473 -35.666,83.423c-2.418,4.032 -4.836,8.058 -7.254,12.09c0.498,8.717 -0.61,17.18 -3.325,25.39c1.341,4.092 2.853,8.124 4.534,12.09c0.775,8.929 1.984,17.797 3.627,26.599c0.372,10.488 0.17,20.964 -0.605,31.434c-1.674,9.28 -3.387,18.547 -5.138,27.808c0.378,3.845 0.781,7.671 1.209,11.486c3.584,3.155 7.11,6.378 10.579,9.672c2.217,4.836 4.433,9.672 6.65,14.508c1.794,9.884 0.081,19.055 -5.139,27.506c2.976,7.26 6.2,14.412 9.673,21.46c-0.93,2.364 -1.937,4.679 -3.023,6.952c2.358,1.862 4.978,3.277 7.859,4.232c1.007,1.813 2.418,3.222 4.231,4.231c3.627,0.405 7.254,0.804 10.882,1.209c1.712,1.312 3.425,2.618 5.138,3.93c0.403,3.222 0.403,6.45 -0,9.672c-13.122,3.712 -26.523,5.428 -40.2,5.138c-5.757,0.931 -11.5,1.838 -17.229,2.721c-0.201,-0.2 -0.403,-0.405 -0.605,-0.605c-2.108,0.852 -4.124,1.862 -6.045,3.023c-0.25,-0.278 -0.552,-0.478 -0.906,-0.605c-9.283,0.834 -18.451,2.249 -27.506,4.232c-2.55,0.145 -5.169,-0.061 -7.859,-0.605c-0.302,0.303 -0.604,0.605 -0.906,0.907c-4.885,0.629 -9.721,1.439 -14.509,2.418c-5.475,0.339 -10.814,-0.163 -16.019,-1.511c-0.752,1.898 -1.156,3.911 -1.209,6.045c-0.516,0.979 -1.121,1.185 -1.814,0.604c-1.813,0.406 -3.627,0.804 -5.441,1.21c-0.539,-0.351 -1.144,-0.551 -1.813,-0.605c-12.073,1.155 -23.761,1.959 -35.062,2.418c-4.918,-0.683 -9.855,-1.185 -14.811,-1.511c-0.171,-1.185 -0.171,-2.491 0,-3.93c-5.316,0.351 -10.455,0.75 -15.415,1.209c-4.262,-0.616 -8.393,-1.118 -12.392,-1.511c-0.685,-2.666 -0.786,-5.386 -0.303,-8.161c1.488,-0.882 2.798,-1.989 3.93,-3.325c2.041,-0.272 4.057,-0.677 6.045,-1.209c5.127,-4.219 10.164,-8.554 15.113,-12.997c0.717,-3.947 2.732,-7.073 6.045,-9.37c6.246,-0.199 12.493,-0.405 18.74,-0.604c2.313,-1.082 4.731,-1.79 7.254,-2.116c-0.727,-3.609 0.684,-5.924 4.232,-6.952c-1.828,-0.671 -2.936,-1.983 -3.325,-3.929c-1.249,-4.74 -1.753,-9.473 -1.511,-14.206c9.393,-13.445 18.561,-27.046 27.505,-40.805c0.257,-4.455 0.357,-8.79 0.302,-12.997c-1.316,-11.825 -2.828,-23.812 -4.534,-35.969c-2.133,-4.274 -3.946,-8.705 -5.44,-13.299c-6.952,-8.367 -13.199,-17.229 -18.74,-26.599c-0.18,-2.061 -0.583,-4.08 -1.209,-6.045c-1.209,-1.614 -2.418,-3.222 -3.627,-4.836c-2.083,-5.67 -4.401,-11.214 -6.952,-16.624c0.201,-0.2 0.403,-0.405 0.604,-0.605c-3.743,-11.643 -4.65,-23.431 -2.72,-35.364c2.123,-7.079 4.339,-14.133 6.65,-21.158c1.31,-1.892 3.124,-2.902 5.44,-3.023c2.924,0.563 5.845,0.865 8.766,0.907c2.394,-2.895 4.409,-6.015 6.045,-9.37c-0.386,-1.795 -0.689,-3.609 -0.907,-5.44c-0.914,-0.46 -1.72,-1.064 -2.418,-1.814c-1.599,-7.774 -2.506,-15.633 -2.72,-23.576c-1.951,-0.852 -3.966,-1.457 -6.045,-1.814c0.086,-1.063 -0.116,-2.073 -0.605,-3.022c-1.473,-0.865 -2.984,-1.669 -4.534,-2.418c-0.68,-5.949 -1.386,-11.891 -2.116,-17.833c1.008,-15.808 1.914,-31.629 2.721,-47.455c4.852,-24.634 11.904,-48.609 21.158,-71.937c1.195,-1.699 2.505,-3.313 3.929,-4.836c1.779,-0.448 3.593,-0.75 5.441,-0.907c0.604,-0.604 1.209,-1.209 1.813,-1.814c2.443,-0.102 4.861,-0.405 7.254,-0.906c2.584,-4.969 6.715,-7.387 12.393,-7.254c13.963,1.027 27.161,4.757 39.596,11.183c0.873,0.472 1.679,0.369 2.418,-0.302c3.039,-3.948 5.96,-7.974 8.765,-12.09c2.361,-1.754 4.879,-3.265 7.557,-4.534c-3.624,-4.528 -6.545,-9.467 -8.766,-14.811c-1.714,-6.837 -1.915,-13.487 -0.604,-19.949c3.764,-3.343 7.693,-6.462 11.788,-9.37c4.741,-1.59 9.577,-2.799 14.508,-3.627c-0.439,-0.846 -0.742,-1.753 -0.907,-2.72c-6.165,-1.669 -12.311,-3.585 -18.437,-5.743c-12.494,-14.104 -24.987,-28.213 -37.48,-42.316c-6.254,-0.75 -12.5,-1.554 -18.74,-2.418c-0.865,-0.284 -1.57,-0.786 -2.116,-1.512c-9.133,-18.842 -17.495,-37.987 -25.087,-57.429c-7.754,9.268 -15.411,18.638 -22.972,28.11c-4.846,0.291 -9.682,0.69 -14.508,1.209c-3.294,1.457 -6.72,2.461 -10.277,3.023c-1.865,1.185 -3.78,2.291 -5.743,3.325c-3.224,5.241 -6.448,10.476 -9.672,15.717c-3.165,3.313 -6.187,6.741 -9.068,10.277c0.507,3.978 0.709,8.01 0.605,12.09c-1.397,3.972 -2.606,8.004 -3.628,12.091c-3.324,4.128 -6.649,8.263 -9.974,12.392c-4.433,2.418 -8.866,4.836 -13.299,7.254c-4.416,0.351 -8.748,1.058 -12.997,2.116c-5.156,-1.161 -10.294,-2.472 -15.416,-3.929c-3.541,-2.835 -7.168,-5.556 -10.881,-8.161c-1.83,-2.334 -3.543,-4.752 -5.138,-7.254c-0.296,0.779 -0.397,1.59 -0.302,2.418c-2.671,0.066 -5.291,0.465 -7.859,1.209c3.952,6.293 7.579,12.743 10.881,19.344c-0.881,5.622 -3.803,9.854 -8.765,12.695c-0.839,-0.635 -1.746,-0.737 -2.721,-0.302c-2.235,1.118 -4.451,2.224 -6.649,3.325c-4.298,-0.557 -8.529,-1.463 -12.695,-2.721c-15.601,-12.779 -30.815,-25.982 -45.641,-39.595c-7.695,-15.192 -15.554,-30.305 -23.576,-45.339c-0.847,-3.047 -1.754,-6.069 -2.72,-9.068c-2.028,-1.523 -3.741,-3.337 -5.139,-5.44c-0.945,-9.068 -1.953,-18.136 -3.022,-27.204c-5.277,-11.157 -10.717,-22.24 -16.322,-33.248c-9.42,-10.026 -19.093,-19.899 -29.017,-29.621c-3.703,-7.985 -7.229,-16.045 -10.579,-24.181c0.362,-0.783 0.664,-1.588 0.907,-2.418c3.848,-3.646 7.475,-7.474 10.881,-11.486c9.648,-17.179 19.219,-34.408 28.715,-51.686c-0.202,-0.201 -0.404,-0.403 -0.605,-0.604c0.803,-4.493 1.509,-9.027 2.116,-13.602c2.015,-6.045 4.03,-12.09 6.045,-18.135c1.185,-0.929 2.092,-2.037 2.72,-3.325c0.451,-3.387 1.056,-6.914 1.814,-10.579c-0.542,-1.855 0.062,-3.366 1.813,-4.534c-0.462,-1.251 -0.764,-2.561 -0.906,-3.929c-4.406,-5.081 -6.521,-10.723 -6.348,-16.927c0.843,-4.383 2.153,-8.615 3.93,-12.694c0.932,-1.136 2.04,-2.043 3.324,-2.721c5.829,-0.956 11.673,-1.56 17.531,-1.813c0.956,0.427 1.863,0.931 2.721,1.511c1.58,2.589 3.394,5.007 5.44,7.254c11.495,-22.588 22.981,-45.156 34.458,-67.706c5.791,-3.148 11.836,-4.761 18.135,-4.836c3.414,1.303 6.739,1.202 9.975,-0.302c11.871,0.163 23.659,1.271 35.364,3.325c2.282,-1.293 4.599,-2.502 6.952,-3.627c16.902,1.436 33.929,3.048 51.081,4.836c32.631,-32.53 64.972,-64.972 97.025,-97.327c6.438,-3.712 12.08,-8.447 16.926,-14.206c1.538,-0.66 3.15,-1.063 4.836,-1.209c2.699,-3.307 5.923,-5.926 9.673,-7.859c1.41,-3.828 4.03,-6.448 7.858,-7.859c3.658,-3.987 7.386,-7.916 11.184,-11.788c1.526,-3.138 3.844,-5.455 6.952,-6.951c4.433,-4.433 8.866,-8.867 13.299,-13.3c5.981,1.264 11.422,0.055 16.322,-3.627c2.821,-2.418 5.642,-4.836 8.463,-7.254c2.33,-0.505 4.244,0.2 5.743,2.116c21.153,-21.338 42.412,-42.799 63.776,-64.381c6.709,-0.88 13.358,-1.585 19.949,-2.116Zm61.661,94.304c2.605,-2.808 5.223,-5.629 7.859,-8.463c1.837,-0.896 3.246,-0.393 4.231,1.512c-3.972,2.471 -8.004,4.788 -12.09,6.951Zm-444.319,178.937c24.935,4.614 49.921,9.853 74.96,15.717c-7.212,7.516 -14.567,14.972 -22.065,22.367c-2.246,-5.668 -6.478,-8.691 -12.694,-9.067c-2.502,0.736 -5.022,1.442 -7.557,2.115c-6.073,5.228 -10.003,11.576 -11.788,19.043c0.114,6.233 -2.807,8.45 -8.765,6.649c0.478,-1.763 0.478,-3.476 -0,-5.138c1.204,-0.347 2.111,-1.053 2.72,-2.116c0.403,-3.627 0.403,-7.254 -0,-10.881c-0.935,-3.185 -1.74,-6.409 -2.418,-9.672c-5.486,-6.095 -11.833,-7.203 -19.042,-3.325c-1.713,1.31 -3.426,2.619 -5.139,3.929c-1.209,1.612 -2.418,3.224 -3.627,4.836c0.145,3.957 -1.265,7.383 -4.231,10.277c-0.599,1.89 -1.304,3.703 -2.116,5.441c-1.967,-0.038 -3.78,-0.542 -5.441,-1.512c8.229,-15.348 16.39,-30.763 24.483,-46.245c0.845,-0.949 1.751,-1.756 2.72,-2.418Zm85.841,23.576c3.701,2.792 7.127,5.916 10.277,9.37c-8.849,9.453 -17.916,18.722 -27.203,27.808c-6.087,1.525 -11.226,0.014 -15.415,-4.534c-0.122,-1.823 0.08,-3.636 0.604,-5.441c8.597,-8.597 17.161,-17.16 25.692,-25.692c2.139,-0.323 4.155,-0.827 6.045,-1.511Zm568.245,157.778c5.634,1.811 11.274,3.625 16.926,5.441c1.13,6.936 2.14,13.888 3.023,20.856c-0.678,1.05 -1.282,2.158 -1.814,3.325c3.881,15.021 7.708,30.034 11.486,45.036c-4.987,1.56 -10.023,2.974 -15.113,4.232c-8.451,4.413 -16.914,8.844 -25.39,13.299c-9.896,10.7 -19.568,21.581 -29.016,32.644c-10.162,6.438 -20.234,12.985 -30.226,19.646c-3.041,5.683 -5.761,11.522 -8.161,17.531c-0.169,3.906 -0.774,7.732 -1.814,11.486c-4.479,3.597 -9.013,7.127 -13.601,10.579c-4.087,1.022 -8.119,2.231 -12.091,3.627c-7.344,3.367 -14.393,7.194 -21.158,11.486c-4.709,5.211 -9.545,10.349 -14.508,15.415c-1.124,-1.021 -2.333,-1.928 -3.627,-2.72c-2.485,-0.375 -4.903,-0.979 -7.254,-1.814c2.521,-2.92 5.035,-5.845 7.556,-8.765c0.822,-3.567 1.427,-7.194 1.814,-10.881c7.357,-5.743 14.708,-11.486 22.065,-17.229c5.652,-3.246 11.298,-6.468 16.926,-9.672c8.264,-6.245 16.521,-12.496 24.785,-18.74c1.542,-4.649 2.853,-9.388 3.929,-14.206c5.302,-1.844 10.138,-4.462 14.509,-7.859c1.481,-4.038 3.192,-7.968 5.138,-11.788c2.182,0.393 4.395,0.895 6.65,1.511c1.136,-0.23 2.043,-0.834 2.72,-1.813c6.541,-10.658 11.776,-21.944 15.718,-33.853c2.091,-0.381 4.207,-0.786 6.347,-1.209c6.771,-18.804 13.722,-37.544 20.856,-56.22c1.438,-6.398 2.545,-12.847 3.325,-19.345Zm-167.451,215.812c1.511,0.006 1.614,0.411 0.302,1.209c-0.278,-0.356 -0.381,-0.761 -0.302,-1.209Z" style="fill:#fff;fill-opacity:0.99;"/></svg>