<?xml version="1.0" encoding="UTF-8" standalone="no"?><!DOCTYPE svg PUBLIC "-//W3C//DTD SVG 1.1//EN" "http://www.w3.org/Graphics/SVG/1.1/DTD/svg11.dtd"><svg width="100%" height="100%" viewBox="0 0 1040 1067" version="1.1" xmlns="http://www.w3.org/2000/svg" xmlns:xlink="http://www.w3.org/1999/xlink" xml:space="preserve" xmlns:serif="http://www.serif.com/" style="fill-rule:evenodd;clip-rule:evenodd;stroke-linejoin:round;stroke-miterlimit:2;"><path d="M264.618,859.422c98.332,-0.728 194.344,13.713 288.035,43.322c9.367,4.684 18.734,9.367 28.101,14.051c11.716,8.229 14.448,18.767 8.196,31.613c-21.179,42.761 -47.329,82.179 -78.449,118.259c-71.13,-8.4 -142.554,-14.255 -214.27,-17.563c-72.493,3.327 -144.696,9.182 -216.611,17.563c-32.282,-35.276 -58.432,-74.695 -78.449,-118.259c-1.561,-7.805 -1.561,-15.612 -0,-23.417c7.165,-7.292 15.361,-13.147 24.588,-17.563c48.432,-18.353 98.389,-30.841 149.872,-37.468c29.984,-3.806 59.645,-7.318 88.987,-10.538Zm285.693,-133.48c74.608,0.454 147.982,10.213 220.124,29.272c17.28,5.131 33.672,12.156 49.177,21.076c4.88,3.515 8.002,8.198 9.367,14.05c-8.863,26.708 -21.743,51.296 -38.639,73.765c-10.896,14.793 -22.605,28.844 -35.126,42.152c-35.236,-5.651 -70.753,-9.943 -106.549,-12.88c-13.297,-19.165 -30.471,-33.995 -51.519,-44.493c-41.936,-18.533 -85.649,-30.632 -131.138,-36.297c-0.513,-2.752 0.267,-5.093 2.342,-7.025c24.731,-21.21 44.636,-46.189 59.714,-74.936c7.658,-1.48 15.074,-3.042 22.247,-4.684Zm-283.352,-316.136c99.234,-6.421 169.876,34.948 211.929,124.113c31.449,101.592 3.737,182.382 -83.132,242.371c-88.195,44.814 -168.986,34.276 -242.371,-31.614c-62.591,-73.163 -71.958,-152.783 -28.101,-238.858c33.145,-52.683 80.371,-84.687 141.675,-96.012Zm524.552,192.023c52.144,1.708 103.662,8.342 154.556,19.905c23.352,4.909 44.818,13.885 64.398,26.93c1.494,2.597 2.665,5.328 3.512,8.197c-14.165,34.576 -33.679,65.798 -58.543,93.67c-25.052,-0.787 -50.029,-3.129 -74.936,-7.026c-15.444,-17.874 -34.178,-31.143 -56.202,-39.809c-28.012,-9.73 -56.113,-18.706 -84.303,-26.931c21.792,-21.701 38.964,-46.68 51.518,-74.936Zm-231.833,-262.275c78.568,-1.141 135.161,33.206 169.777,103.037c30.422,89.829 6.615,161.252 -71.423,214.27c-34.052,19.743 -69.958,25.597 -107.721,17.563c25.364,-114.383 -7.421,-208.053 -98.353,-281.01c29.714,-30.469 65.622,-48.423 107.72,-53.86Zm222.466,-58.544c84.755,-2.337 137.444,37.473 158.068,119.429c4.276,93.708 -39.826,148.35 -132.309,163.923c-1.561,-0.78 -3.121,-1.562 -4.683,-2.342c19.081,-101.499 -12.144,-183.46 -93.67,-245.884c20.924,-18.659 45.121,-30.368 72.594,-35.126Zm81.961,-281.01c24.776,21.253 48.582,43.89 71.424,67.911c35.163,36.333 69.899,73.021 104.208,110.062c-33.539,2.73 -67.103,3.121 -100.696,1.171c-24.686,-24.294 -48.884,-48.883 -72.594,-73.765c-23.71,24.882 -47.907,49.471 -72.594,73.765c-33.592,1.95 -67.157,1.559 -100.695,-1.171c57.033,-59.373 114.015,-118.697 170.947,-177.973Z" style="fill:#fefffe;fill-opacity:0.95;"/></svg>