<?xml version="1.0" encoding="UTF-8" standalone="no"?><!DOCTYPE svg PUBLIC "-//W3C//DTD SVG 1.1//EN" "http://www.w3.org/Graphics/SVG/1.1/DTD/svg11.dtd"><svg width="100%" height="100%" viewBox="0 0 125 125" version="1.1" xmlns="http://www.w3.org/2000/svg" xmlns:xlink="http://www.w3.org/1999/xlink" xml:space="preserve" xmlns:serif="http://www.serif.com/" style="fill-rule:evenodd;clip-rule:evenodd;stroke-linejoin:round;stroke-miterlimit:2;"><path d="M76.553,5.842c-7.79,-7.789 -20.438,-7.789 -28.227,0l-42.484,42.484c-7.789,7.789 -7.789,20.437 0,28.227l42.341,42.341c7.79,7.789 20.438,7.789 28.227,-0l42.484,-42.484c7.789,-7.789 7.789,-20.437 -0,-28.227l-42.341,-42.341Zm14.806,50.162c3.903,-3.903 10.24,-3.903 14.142,-0c3.903,3.903 3.903,10.239 0,14.142c-3.902,3.903 -10.239,3.903 -14.142,0c-3.902,-3.903 -3.902,-10.239 0,-14.142Zm-35.355,35.355c3.903,-3.902 10.239,-3.902 14.142,0c3.903,3.903 3.903,10.24 0,14.142c-3.903,3.903 -10.239,3.903 -14.142,0c-3.903,-3.902 -3.903,-10.239 -0,-14.142Zm-0.636,-35.991c3.903,-3.902 10.24,-3.902 14.142,0c3.903,3.903 3.903,10.24 0,14.142c-3.902,3.903 -10.239,3.903 -14.142,0c-3.902,-3.902 -3.902,-10.239 0,-14.142Zm-0.778,-36.134c3.902,-3.902 10.239,-3.902 14.142,0c3.903,3.903 3.903,10.24 -0,14.143c-3.903,3.902 -10.24,3.902 -14.142,-0c-3.903,-3.903 -3.903,-10.24 -0,-14.143Zm-35.356,35.356c3.903,-3.903 10.24,-3.903 14.143,-0c3.902,3.902 3.902,10.239 -0,14.142c-3.903,3.903 -10.24,3.903 -14.143,-0c-3.902,-3.903 -3.902,-10.24 0,-14.142Z" style="fill:#fff;"/></svg>