<?xml version="1.0" encoding="UTF-8" standalone="no"?><!DOCTYPE svg PUBLIC "-//W3C//DTD SVG 1.1//EN" "http://www.w3.org/Graphics/SVG/1.1/DTD/svg11.dtd"><svg width="100%" height="100%" viewBox="0 0 100 89" version="1.1" xmlns="http://www.w3.org/2000/svg" xmlns:xlink="http://www.w3.org/1999/xlink" xml:space="preserve" xmlns:serif="http://www.serif.com/" style="fill-rule:evenodd;clip-rule:evenodd;stroke-linejoin:round;stroke-miterlimit:2;"><path id="Currency" d="M22.701,3.182c1.141,-1.971 3.246,-3.184 5.523,-3.182c9.401,0.008 34.225,0.029 43.626,0.036c2.277,0.002 4.38,1.219 5.517,3.192c4.694,8.146 17.088,29.654 21.782,37.8c1.137,1.973 1.135,4.402 -0.006,6.373c-4.707,8.138 -17.137,29.626 -21.844,37.764c-1.141,1.971 -3.246,3.184 -5.523,3.182c-9.401,-0.008 -34.225,-0.029 -43.626,-0.037c-2.277,-0.002 -4.38,-1.218 -5.517,-3.191c-4.694,-8.146 -17.088,-29.654 -21.782,-37.8c-1.137,-1.973 -1.135,-4.402 0.006,-6.373c4.707,-8.139 17.137,-29.626 21.844,-37.764Zm27.299,19.747c11.725,0 21.244,9.519 21.244,21.244c0,11.725 -9.519,21.245 -21.244,21.245c-11.725,-0 -21.244,-9.52 -21.244,-21.245c-0,-11.725 9.519,-21.244 21.244,-21.244Z" style="fill:#fff;"/></svg>