<svg xmlns="http://www.w3.org/2000/svg" width="37.516" height="37.515" viewBox="0 0 37.516 37.515">
  <path id="Subtraction_730" data-name="Subtraction 730" d="M-3339-12894.243a2.981,2.981,0,0,1-2.121-.877l-15.76-15.76a2.976,2.976,0,0,1-.879-2.118,2.981,2.981,0,0,1,.879-2.124l15.76-15.757a2.982,2.982,0,0,1,2.121-.879,2.982,2.982,0,0,1,2.121.879l15.757,15.757a2.981,2.981,0,0,1,.879,2.124,2.976,2.976,0,0,1-.879,2.118l-15.757,15.76A2.981,2.981,0,0,1-3339-12894.243Zm0-28.051a.979.979,0,0,0-.7.295l-7.588,7.585a.984.984,0,0,0-.217,1.09.985.985,0,0,0,.925.617H-3342v8a1,1,0,0,0,1,1h4a1,1,0,0,0,1-1v-8h4.586a.986.986,0,0,0,.927-.619.982.982,0,0,0-.219-1.088l-7.585-7.585A.987.987,0,0,0-3339-12922.294Z" transform="translate(3357.759 12931.758)"/>
</svg>
