<svg width="24" height="25" viewBox="0 0 24 25" fill="none" xmlns="http://www.w3.org/2000/svg">
<style type="text/css">
	.st0{fill:#FFFFFF;}
</style>
  <g clip-path="url(#clip0_308_11)">
    <path class="st0" d="M20.4729 3.527C18.6026 1.65058 16.1644 0.445217 13.5379 0.0985885C10.9114 -0.24804 8.24396 0.283523 5.95095 1.61051C3.65794 2.93749 1.86805 4.98543 0.859972 7.43544C-0.148109 9.88545 -0.317802 12.6 0.377314 15.1565C1.07243 17.713 2.59334 19.9679 4.70324 21.5701C6.81314 23.1723 9.3936 24.0319 12.0428 24.0151C14.6921 23.9983 17.2614 23.1059 19.3508 21.477C21.4402 19.8481 22.9323 17.5741 23.5949 15.009H20.4729C19.9214 16.5637 18.9531 17.9369 17.674 18.9786C16.3949 20.0203 14.8541 20.6904 13.2199 20.9157C11.5857 21.141 9.92106 20.9128 8.40779 20.256C6.89452 19.5993 5.59087 18.5393 4.63925 17.1918C3.68763 15.8443 3.12466 14.2612 3.01186 12.6155C2.89905 10.9697 3.24074 9.32457 3.9996 7.85985C4.75846 6.39512 5.90529 5.16714 7.31479 4.31007C8.7243 3.45299 10.3423 2.9998 11.9919 3C13.1723 3.00194 14.3404 3.23925 15.428 3.69805C16.5156 4.15684 17.5008 4.82791 18.3259 5.672L13.4929 10.505H23.9999V1.03051e-06L20.4729 3.527Z"/>
  </g>
  <defs>
    <clipPath id="clip0_308_11">
      <rect class="st0" width="24" height="24.015"/>
    </clipPath>
  </defs>
</svg>