<?xml version="1.0" encoding="UTF-8" standalone="no"?><!DOCTYPE svg PUBLIC "-//W3C//DTD SVG 1.1//EN" "http://www.w3.org/Graphics/SVG/1.1/DTD/svg11.dtd"><svg width="100%" height="100%" viewBox="0 0 100 100" version="1.1" xmlns="http://www.w3.org/2000/svg" xmlns:xlink="http://www.w3.org/1999/xlink" xml:space="preserve" xmlns:serif="http://www.serif.com/" style="fill-rule:evenodd;clip-rule:evenodd;stroke-linejoin:round;stroke-miterlimit:2;"><path id="Report_Icon" d="M50,0c27.596,0 50,22.404 50,50c0,27.596 -22.404,50 -50,50c-27.596,0 -50,-22.404 -50,-50c0,-27.596 22.404,-50 50,-50Zm-33.634,28.352l60.039,51.684c-7.046,6.201 -16.29,9.964 -26.405,9.964c-22.077,0 -40,-17.923 -40,-40c0,-7.974 2.338,-15.406 6.366,-21.648Zm67.766,42.502l-59.826,-51.501c6.953,-5.837 15.916,-9.353 25.694,-9.353c22.077,-0 40,17.923 40,40c0,7.639 -2.146,14.78 -5.868,20.854Z" style="fill:#fff;"/></svg>