<svg width="40" height="40" viewBox="0 0 40 40" fill="none" xmlns="http://www.w3.org/2000/svg">
<g id="Icon_Warning_Circle 1" clip-path="url(#clip0_379_6)">
<path id="Union 116" d="M5.85848 34.1466C3.9957 32.2931 2.51893 30.0883 1.51375 27.6603C0.508577 25.2323 -0.00549234 22.6299 0.0020346 20.0021C-0.0052095 17.375 0.509186 14.7728 1.51473 12.3458C2.52027 9.91883 3.99738 7.71557 5.86043 5.86341C7.71307 3.99995 9.91636 2.52179 12.3438 1.51575C14.7713 0.509713 17.3744 -0.00455922 20.002 0.00208148C22.6303 -0.00550197 25.2342 0.509305 27.6622 1.51575C30.0902 2.5222 32.2934 4.00054 34.1456 5.86536C36.0091 7.71665 37.487 9.91901 38.4923 12.3458C39.4975 14.7726 40.0106 17.3753 40.002 20.0021C40.0107 22.6302 39.4969 25.2341 38.4913 27.6622C37.4857 30.0904 36.0079 32.2941 34.1436 34.1466C32.2904 36.0089 30.0867 37.4854 27.6593 38.4904C25.2318 39.4954 22.6293 40.0094 20.002 40.0021C17.3746 40.0088 14.7715 39.4953 12.3438 38.4904C9.91616 37.4854 7.71245 36.0084 5.85848 34.1466ZM4.00203 20.0021C4.00733 24.2439 5.69498 28.3112 8.69442 31.3107C11.6939 34.3101 15.7602 35.9968 20.002 36.0021C24.2441 35.9976 28.311 34.3103 31.3106 31.3107C34.3102 28.3111 35.9975 24.2442 36.002 20.0021C35.9967 15.7602 34.3091 11.6929 31.3097 8.69349C28.3102 5.69405 24.2439 4.00737 20.002 4.00208C15.7605 4.00843 11.6946 5.69623 8.69539 8.69544C5.69619 11.6946 4.00838 15.7606 4.00203 20.0021ZM17.002 31.0021V27.0021H22.002V31.0021H17.002ZM17.002 25.0021V9.00208H23.002L22.002 25.0021H17.002Z" fill="#DEDEDE"/>
</g>
<defs>
<clipPath id="clip0_379_6">
<rect width="40.004" height="40.004" fill="white"/>
</clipPath>
</defs>
</svg>
