<?xml version="1.0" encoding="UTF-8" standalone="no"?>
<!-- Created with Inkscape (http://www.inkscape.org/) -->

<svg
   width="25.018835mm"
   height="13.606835mm"
   viewBox="0 0 25.018835 13.606835"
   version="1.1"
   id="svg5"
   xmlns="http://www.w3.org/2000/svg"
   xmlns:svg="http://www.w3.org/2000/svg">
  <defs
     id="defs2" />
  <g
     id="layer1"
     transform="translate(-59.551476,-133.87313)">
    <path
       style="fill:none;stroke:#ffffff;stroke-width:0.5;stroke-linecap:butt;stroke-linejoin:miter;stroke-opacity:1;stroke-miterlimit:4;stroke-dasharray:none"
       d="m 76.927283,141.18209 c -1.070914,0 -16.95613,0 -16.95613,0 l 7.139424,4.9976"
       id="path42" />
    <path
       style="fill:none;stroke:#ffffff;stroke-width:0.5;stroke-linecap:butt;stroke-linejoin:miter;stroke-opacity:1;stroke-miterlimit:4;stroke-dasharray:none"
       d="m 59.971153,141.18209 7.037629,-4.06318"
       id="path44" />
    <path
       style="fill:none;stroke:#ffffff;stroke-width:0.5;stroke-linecap:butt;stroke-linejoin:miter;stroke-opacity:1;stroke-miterlimit:4;stroke-dasharray:none"
       d="m 79.872296,137.34465 -0.178488,4.46214 2.766529,1.33864 0.08924,3.83744"
       id="path46" />
    <path
       style="fill:none;stroke:#ffffff;stroke-width:0.5;stroke-linecap:butt;stroke-linejoin:miter;stroke-opacity:1;stroke-miterlimit:4;stroke-dasharray:none"
       d="m 79.693806,141.80679 1.160161,2.40955 -1.338644,3.21274"
       id="path48" />
    <path
       style="fill:none;stroke:#ffffff;stroke-width:0.5;stroke-linecap:butt;stroke-linejoin:miter;stroke-opacity:1;stroke-miterlimit:4;stroke-dasharray:none"
       d="m 84.512921,138.14783 -2.409555,1.16016 -2.23107,-1.96334 c 0,0 0.535457,2.40955 0.892428,2.58804 0.356971,0.17849 3.301983,0.6247 3.301983,0.6247"
       id="path50" />
    <path
       style="fill:none;stroke:#ffffff;stroke-width:0.5;stroke-linecap:butt;stroke-linejoin:miter;stroke-opacity:1;stroke-miterlimit:4;stroke-dasharray:none"
       d="m 79.872296,137.34465 -2.766528,-1.42789 2.409555,-1.8741 2.052585,1.69562 -1.695612,1.60637"
       id="path52" />
  </g>
</svg>
