<?xml version="1.0" encoding="UTF-8" standalone="no"?>
<!DOCTYPE svg PUBLIC "-//W3C//DTD SVG 1.1//EN" "http://www.w3.org/Graphics/SVG/1.1/DTD/svg11.dtd">
<svg width="100%" height="100%" viewBox="0 0 148 156" version="1.1" xmlns="http://www.w3.org/2000/svg" xmlns:xlink="http://www.w3.org/1999/xlink" xml:space="preserve" xmlns:serif="http://www.serif.com/" style="fill-rule:evenodd;clip-rule:evenodd;stroke-linejoin:round;stroke-miterlimit:2;">
    <g transform="matrix(1,0,0,1,-131.012,-113.696)">
        <g transform="matrix(-1.05825,-0.837482,0.750827,-0.948751,900.802,987.181)">
            <g transform="matrix(-0.581051,0.512905,-0.459835,-0.648112,977.352,177.777)">
                <path d="M279.012,195.759C279.012,233.554 250.616,264.769 214.012,269.216L214.012,262.159C246.74,257.758 272.012,229.687 272.012,195.759L279.012,195.759ZM196.012,122.302L196.012,129.36C163.284,133.76 138.012,161.831 138.012,195.759C138.012,229.687 163.284,257.758 196.012,262.159L196.012,269.216C159.408,264.769 131.012,233.554 131.012,195.759C131.012,157.964 159.408,126.749 196.012,122.302ZM196.012,245.164C175.509,241.446 159.326,225.263 155.607,204.759L160.443,204.759C164.04,222.635 178.135,236.731 196.012,240.328L196.012,245.164ZM214.012,240.328C231.889,236.731 245.984,222.635 249.581,204.759L254.417,204.759C250.698,225.263 234.515,241.446 214.012,245.164L214.012,240.328ZM224.056,189.115C224.056,189.115 210.953,206.962 205.038,211.251C200.638,214.441 191.377,217.183 188.563,214.85C185.749,212.516 186.031,202.512 188.153,197.251C190.895,190.451 205.016,174.047 205.016,174.047L224.056,189.115ZM196.012,146.354L196.012,151.191C178.135,154.787 164.04,168.883 160.443,186.759L155.607,186.759C159.326,166.255 175.509,150.072 196.012,146.354ZM225.347,186.62C225.616,186.833 226.006,186.787 226.219,186.519L238.533,170.959C238.746,170.69 238.7,170.299 238.431,170.087L234.537,167.005C234.268,166.792 233.878,166.838 233.665,167.106L221.351,182.666C221.138,182.935 221.184,183.326 221.453,183.538L225.347,186.62ZM218.262,181.013C218.53,181.226 218.921,181.18 219.134,180.912L231.448,165.351C231.66,165.083 231.615,164.692 231.346,164.479L227.452,161.397C227.183,161.185 226.792,161.23 226.58,161.499L214.266,177.059C214.053,177.328 214.099,177.719 214.367,177.931L218.262,181.013ZM211.015,175.278C211.283,175.491 211.674,175.445 211.887,175.177L224.201,159.616C224.413,159.348 224.368,158.957 224.099,158.744L220.205,155.662C219.936,155.45 219.545,155.495 219.333,155.764L207.019,171.324C206.806,171.593 206.852,171.984 207.12,172.196L211.015,175.278ZM221.353,153.211L240.554,168.405L266.711,135.353L247.511,120.158L221.353,153.211ZM268.324,136.629L252.836,156.2L266.236,152.34L274.685,141.663L268.324,136.629ZM245.708,118.731L230.22,138.302L230.897,124.373L239.346,113.696L245.708,118.731ZM248.729,118.619C248.538,118.859 248.579,119.21 248.82,119.4L267.147,133.904C267.388,134.095 267.739,134.054 267.929,133.813L270.692,130.322C270.883,130.081 270.842,129.731 270.601,129.54L252.274,115.036C252.033,114.846 251.683,114.886 251.492,115.127L248.729,118.619Z" style="fill:white;"/>
            </g>
        </g>
    </g>
</svg>
