<?xml version="1.0" encoding="UTF-8" standalone="no"?>
<!DOCTYPE svg PUBLIC "-//W3C//DTD SVG 1.1//EN" "http://www.w3.org/Graphics/SVG/1.1/DTD/svg11.dtd">
<svg width="100%" height="100%" viewBox="0 0 163 145" version="1.1" xmlns="http://www.w3.org/2000/svg" xmlns:xlink="http://www.w3.org/1999/xlink" xml:space="preserve" xmlns:serif="http://www.serif.com/" style="fill-rule:evenodd;clip-rule:evenodd;stroke-linejoin:round;stroke-miterlimit:2;">
    <g transform="matrix(1,0,0,1,-710.042,-2137.28)">
        <g id="Boost">
            <path d="M790.857,2246.78L813.17,2246.54C813.17,2246.54 782.147,2276.51 774.741,2281.03C772.033,2282.68 767.381,2276.52 768.731,2273.65C771.417,2267.94 790.857,2246.78 790.857,2246.78ZM768.664,2142.01C769.239,2141.12 770.171,2140.47 771.298,2140.27L788.434,2137.33C789.927,2137.08 791.369,2137.7 792.227,2138.83C796.09,2138.59 799.674,2138.53 802.497,2138.73C810.191,2139.28 818.22,2148.19 823.365,2154.14C823.174,2155.32 823.075,2156.54 823.075,2157.78C823.075,2168.02 829.872,2176.69 839.2,2179.51C840.451,2182.65 841.762,2185.97 843.187,2189.34C843.696,2190.55 844.613,2191.38 845.812,2191.94C846.512,2191.26 847.471,2190.83 848.528,2190.83L862.519,2190.83C863.494,2190.83 864.385,2191.19 865.067,2191.79C867.253,2191.63 869.002,2191.69 869.919,2192.26C872.975,2194.16 872.7,2201.87 869.296,2203.03C868.548,2203.29 867.479,2203.54 866.178,2203.78C865.643,2205.28 864.206,2206.36 862.519,2206.36L848.528,2206.36C847.464,2206.36 846.499,2205.93 845.797,2205.24C841.808,2205.17 838.29,2204.85 836.15,2204.17C830.863,2202.49 826.335,2195.29 825.867,2191.08L804.834,2200.43C804.834,2200.43 818.233,2224 819.791,2230.93C820.7,2234.98 818.277,2241.39 814.182,2242.03C804.406,2243.57 769.974,2242.26 761.132,2240.16C757.646,2239.33 757.753,2230.6 761.132,2229.41C767.091,2227.31 796.888,2227.54 796.888,2227.54C796.888,2227.54 787.621,2216.93 781.172,2206.48C763.712,2221.33 735.232,2236.47 726.696,2238.11C715.457,2240.26 724.993,2217.1 723.858,2203.9C722.722,2190.69 696.403,2173.12 719.505,2173.76C739.755,2174.32 752.625,2164.68 785.556,2157.87C794.533,2156.01 801.245,2156.04 806.264,2157.06C804.217,2154.77 801.816,2152.67 799.576,2152.17C797.936,2151.8 795.704,2151.71 793.141,2151.78C792.595,2152.31 791.891,2152.68 791.089,2152.82L773.954,2155.76C772.233,2156.05 770.58,2155.18 769.811,2153.71C767.523,2153.81 765.636,2153.76 764.404,2153.46C761.142,2152.66 760.57,2144.62 763.703,2143.41C764.882,2142.95 766.592,2142.48 768.664,2142.01ZM844.84,2139.75C854.867,2139.75 863.009,2147.89 863.009,2157.92C863.009,2167.94 854.867,2176.09 844.84,2176.09C834.812,2176.09 826.671,2167.94 826.671,2157.92C826.671,2147.89 834.812,2139.75 844.84,2139.75Z" style="fill:white;"/>
        </g>
    </g>
</svg>
