<?xml version="1.0" encoding="UTF-8" standalone="no"?>
<!-- Created with Inkscape (http://www.inkscape.org/) -->

<svg
   width="104.79852mm"
   height="99.901718mm"
   viewBox="0 0 104.79852 99.901718"
   version="1.1"
   id="svg23"
   inkscape:version="1.1.1 (3bf5ae0d25, 2021-09-20)"
   sodipodi:docname="charges_rocket.svg"
   xmlns:inkscape="http://www.inkscape.org/namespaces/inkscape"
   xmlns:sodipodi="http://sodipodi.sourceforge.net/DTD/sodipodi-0.dtd"
   xmlns="http://www.w3.org/2000/svg"
   xmlns:svg="http://www.w3.org/2000/svg">
  <sodipodi:namedview
     id="namedview25"
     pagecolor="#ffffff"
     bordercolor="#666666"
     borderopacity="1.0"
     inkscape:pageshadow="2"
     inkscape:pageopacity="0.0"
     inkscape:pagecheckerboard="true"
     inkscape:document-units="mm"
     showgrid="false"
     fit-margin-top="0"
     fit-margin-left="0"
     fit-margin-right="0"
     fit-margin-bottom="0"
     inkscape:zoom="0.52410025"
     inkscape:cx="-103.98774"
     inkscape:cy="140.24035"
     inkscape:window-width="1920"
     inkscape:window-height="1017"
     inkscape:window-x="1912"
     inkscape:window-y="-8"
     inkscape:window-maximized="1"
     inkscape:current-layer="layer1" />
  <defs
     id="defs20" />
  <g
     inkscape:label="Layer 1"
     inkscape:groupmode="layer"
     id="layer1"
     transform="translate(-47.543151,-79.949783)">
    <path
       class="st0"
       d="m 125.98457,151.43525 c 0.79375,0.79375 0.87312,1.24354 -0.0794,1.98437 -5.66208,4.445 -11.95916,7.54063 -18.94416,9.2075 -2.16959,0.55563 -4.33917,1.00542 -6.64104,1.50813 -0.423341,-0.26458 -0.926051,-0.44979 -1.296461,-0.79375 -2.09021,-2.06375 -4.18042,-4.10104 -6.16479,-6.24417 -0.4498,-0.47625 -0.82021,-1.34937 -0.71438,-1.95791 1.45521,-9.18105 4.60375,-17.64771 10.477501,-25.00313 0.76729,-0.9525 1.21708,-0.87312 2.01083,-0.0529 7.09084,7.14375 14.20813,14.26105 21.35188,21.35188 z m 11.08604,-17.30375 c 0.60854,0.60854 0.82021,1.27 0.58208,2.11667 -1.42875,5.21229 -4.20687,9.63083 -7.83166,13.57312 -0.66146,0.71438 -1.11125,0.71438 -1.79917,0.0265 -7.27604,-7.3025 -14.55208,-14.605 -21.85458,-21.85458 -0.68792,-0.68792 -0.74084,-1.11125 0,-1.79917 3.94229,-3.62479 8.36083,-6.42938 13.57312,-7.83167 0.26459,-0.0794 0.50271,-0.10583 0.9525,-0.21166 0.3175,0.21166 0.82021,0.39687 1.16417,0.76729 5.08,5.05354 10.13354,10.13354 15.21354,15.21354 z m -0.66146,2.11667 c -0.42333,-0.66146 -0.60854,-1.16417 -0.9525,-1.50813 -4.89479,-4.89479 -9.78958,-9.78958 -14.73729,-14.63146 -0.34396,-0.34396 -1.16417,-0.55562 -1.61396,-0.39687 -3.86291,1.37583 -7.43479,3.25437 -10.50396,6.0325 -0.71437,0.635 -0.89958,1.08479 -0.10583,1.87854 6.6675,6.56167 13.335,13.14979 19.94958,19.79083 0.79375,0.79375 1.29646,0.82021 1.93146,-0.10583 1.03188,-1.53458 2.2225,-2.96333 3.09563,-4.60375 1.08479,-2.09021 1.95791,-4.28625 2.93687,-6.45583 z m -20.29354,25.18833 c 0.0794,0.0794 0.18521,0.15875 0.26458,0.23812 -0.34395,0.79375 -0.68791,1.5875 -1.00541,2.38125 -1.98438,4.81542 -3.99521,9.63084 -5.95313,14.47271 -0.34396,0.82021 -0.635,0.97896 -1.45521,0.60854 -1.5875,-0.76729 -3.28083,-1.34937 -4.86833,-2.11666 -0.50271,-0.23813 -1.08479,-0.76729 -1.16417,-1.27 -0.58208,-2.8575 -1.03187,-5.74146 -1.50812,-8.62542 -0.0529,-0.37042 0,-0.74083 0,-1.29646 5.58271,-0.52916 10.71562,-2.11666 15.68979,-4.39208 z m -2.98979,3.46604 c -3.67771,0.92604 -7.17021,1.82563 -10.66271,2.69875 0.26458,1.79917 0.47625,3.67771 0.84667,5.50333 0.18521,0.87313 0.0265,1.98438 1.11125,2.43417 0.9525,0.39688 1.905,0.74083 2.88396,1.05833 0.76729,0.26459 1.24354,0.15875 1.5875,-0.76729 0.92604,-2.56646 2.01083,-5.10646 3.01625,-7.64646 0.42333,-1.11125 0.8202,-2.24895 1.21708,-3.28083 z M 76.745605,148.12796 c -0.3175,-0.71438 -0.132291,-1.11125 0.502709,-1.37584 5.397505,-2.2225 10.768545,-4.41854 16.166045,-6.61458 0.23813,-0.0529 0.47625,-0.0794 1.03188,-0.18521 -0.60855,1.56104 -1.11125,2.88396 -1.64042,4.20688 -1.4023,3.43958 -2.19605,7.03791 -2.64584,10.71562 -0.10583,0.87313 -0.42333,0.97896 -1.21708,0.82021 -2.96333,-0.52917 -5.92667,-0.97896 -8.863544,-1.56104 -0.423333,-0.0794 -0.926041,-0.52917 -1.11125,-0.92604 -0.79375,-1.66688 -1.455208,-3.38667 -2.2225,-5.08 z m 2.301875,-0.37042 c 0.714375,2.75167 1.164167,5.37104 4.736039,5.37104 1.5875,0 3.20146,0.42334 4.49792,0.635 0.97896,-3.73062 1.85208,-7.19666 2.77812,-10.76854 -3.9952,1.5875 -8.01687,3.175 -12.012079,4.7625 z m 58.10251,-21.43125 c -2.75167,-2.46062 -5.26521,-5.21229 -7.91105,-7.83167 -1.27,-1.27 -3.70416,-1.50812 -5.21229,-0.58208 4.70959,4.70958 9.41917,9.41917 14.2875,14.2875 0.37042,-2.2225 0.79375,-4.1275 -1.16416,-5.87375 z m -5.68855,-8.46667 c 2.14313,2.24896 4.445,4.63021 6.72042,6.985 -0.0265,-3.62479 -3.54542,-7.11729 -6.72042,-6.985 z m -42.068751,40.34896 c 0.13229,0.44979 0.21167,0.89959 0.37042,1.32292 0.37041,1.05833 0.26458,1.24354 -0.87313,1.32292 -0.71437,0.0529 -1.42875,0.0794 -2.14312,0.13229 0,0.0794 0,0.15875 0,0.23812 0.9525,0.37042 1.93145,0.68792 2.88395,1.05834 0.79375,0.29104 0.87313,0.55562 0.3175,1.24354 -0.58208,0.71437 -1.19062,1.40229 -1.7727,2.11666 -3.73063,4.47146 -7.461254,8.94292 -11.191879,13.44084 -0.185208,0.21166 -0.291041,0.50271 -0.449791,0.76729 0.79375,-0.29104 1.42875,-0.66146 2.010833,-1.11125 4.921247,-3.88938 9.816037,-7.75229 14.737297,-11.64167 0.84667,-0.68791 1.16417,-0.58208 1.45521,0.47625 0.21166,0.71438 0.47625,1.42875 0.71437,2.14313 0.0794,0.0265 0.18521,0.0265 0.29104,0.0265 0.15875,-0.55563 0.37042,-1.11125 0.4498,-1.66688 0.15875,-1.19062 0.26458,-1.24354 1.40229,-0.84667 0.44979,0.15875 0.92604,0.26459 1.37583,0.39688 0.0529,-0.10583 0.10583,-0.21167 0.23813,-0.3175 -3.14855,-3.09563 -6.32355,-6.21771 -9.47209,-9.31333 -0.13229,0.0794 -0.23813,0.13229 -0.34396,0.21166 z"
       id="path4"
       style="fill:#ffffff;stroke-width:0.264583" />
    <path
       class="st0"
       d="m 139.69754,114.03358 c 0.79375,0.79375 0.87312,1.24354 -0.0794,1.98437 -5.66208,4.445 -11.95916,7.54063 -18.94416,9.2075 -2.16959,0.55563 -4.33917,1.00542 -6.64104,1.50813 -0.42335,-0.26458 -0.92606,-0.44979 -1.29647,-0.79375 -2.09021,-2.06375 -4.18042,-4.10104 -6.16479,-6.24417 -0.4498,-0.47625 -0.82021,-1.34937 -0.71438,-1.95791 1.45521,-9.18105 4.60375,-17.64771 10.47751,-25.00313 0.76729,-0.9525 1.21708,-0.87312 2.01083,-0.0529 7.09084,7.14375 14.20813,14.26105 21.35188,21.35188 z m 11.08604,-17.30375 c 0.60854,0.60854 0.82021,1.27 0.58208,2.11667 -1.42875,5.21229 -4.20687,9.63083 -7.83166,13.57312 -0.66146,0.71438 -1.11125,0.71438 -1.79917,0.0265 -7.27604,-7.3025 -14.55208,-14.605 -21.85458,-21.85458 -0.68792,-0.68792 -0.74084,-1.11125 0,-1.79917 3.94229,-3.62479 8.36083,-6.42938 13.57312,-7.83167 0.26459,-0.0794 0.50271,-0.10583 0.9525,-0.21166 0.3175,0.21166 0.82021,0.39687 1.16417,0.76729 5.08,5.05354 10.13354,10.13354 15.21354,15.21354 z m -0.66146,2.11667 c -0.42333,-0.66146 -0.60854,-1.16417 -0.9525,-1.50813 -4.89479,-4.89479 -9.78958,-9.78958 -14.73729,-14.63146 -0.34396,-0.34396 -1.16417,-0.55562 -1.61396,-0.39687 -3.86291,1.37583 -7.43479,3.25437 -10.50396,6.0325 -0.71437,0.635 -0.89958,1.08479 -0.10583,1.87854 6.6675,6.56167 13.335,13.14979 19.94958,19.79083 0.79375,0.79375 1.29646,0.82021 1.93146,-0.10583 1.03188,-1.53458 2.2225,-2.96333 3.09563,-4.60375 1.08479,-2.09021 1.95791,-4.28625 2.93687,-6.45583 z m -20.29354,25.18833 c 0.0794,0.0794 0.18521,0.15875 0.26458,0.23812 -0.34395,0.79375 -0.68791,1.5875 -1.00541,2.38125 -1.98438,4.81542 -3.99521,9.63084 -5.95313,14.47271 -0.34396,0.82021 -0.635,0.97896 -1.45521,0.60854 -1.5875,-0.76729 -3.28083,-1.34937 -4.86833,-2.11666 -0.50271,-0.23813 -1.08479,-0.76729 -1.16417,-1.27 -0.58208,-2.8575 -1.03187,-5.74146 -1.50812,-8.62542 -0.0529,-0.37042 0,-0.74083 0,-1.29646 5.58271,-0.52916 10.71562,-2.11666 15.68979,-4.39208 z m -2.98979,3.46604 c -3.67771,0.92604 -7.17021,1.82563 -10.66271,2.69875 0.26458,1.79917 0.47625,3.67771 0.84667,5.50333 0.18521,0.87313 0.0265,1.98438 1.11125,2.43417 0.9525,0.39688 1.905,0.74083 2.88396,1.05833 0.76729,0.26459 1.24354,0.15875 1.5875,-0.76729 0.92604,-2.56646 2.01083,-5.10646 3.01625,-7.64646 0.42333,-1.11125 0.8202,-2.24895 1.21708,-3.28083 z M 90.458566,110.72629 c -0.3175,-0.71438 -0.132291,-1.11125 0.502709,-1.37584 5.397505,-2.2225 10.768545,-4.41854 16.166045,-6.61458 0.23813,-0.0529 0.47625,-0.0794 1.03188,-0.18521 -0.60855,1.56104 -1.11125,2.88396 -1.64042,4.20688 -1.4023,3.43958 -2.19605,7.03791 -2.64584,10.71562 -0.10583,0.87313 -0.42333,0.97896 -1.21708,0.82021 -2.96333,-0.52917 -5.92667,-0.97896 -8.863544,-1.56104 -0.423333,-0.0794 -0.926041,-0.52917 -1.11125,-0.92604 -0.79375,-1.66688 -1.455208,-3.38667 -2.2225,-5.08 z m 2.301875,-0.37042 c 0.714375,2.75167 1.164167,5.37104 4.736039,5.37104 1.5875,0 3.20146,0.42334 4.49792,0.635 0.97896,-3.73062 1.85208,-7.19666 2.77812,-10.76854 -3.9952,1.5875 -8.01687,3.175 -12.012079,4.7625 z M 150.86296,88.92462 c -2.75167,-2.46062 -5.26521,-5.21229 -7.91105,-7.83167 -1.27,-1.27 -3.70416,-1.50812 -5.21229,-0.58208 4.70959,4.70958 9.41917,9.41917 14.2875,14.2875 0.37042,-2.2225 0.79375,-4.1275 -1.16416,-5.87375 z m -5.68855,-8.46667 c 2.14313,2.24896 4.445,4.63021 6.72042,6.985 -0.0265,-3.62479 -3.54542,-7.11729 -6.72042,-6.985 z m -42.06876,40.34896 c 0.13229,0.44979 0.21167,0.89959 0.37042,1.32292 0.37041,1.05833 0.26458,1.24354 -0.87313,1.32292 -0.71437,0.0529 -1.42875,0.0794 -2.14312,0.13229 0,0.0794 0,0.15875 0,0.23812 0.9525,0.37042 1.93145,0.68792 2.88395,1.05834 0.79375,0.29104 0.87313,0.55562 0.3175,1.24354 -0.58208,0.71437 -1.19062,1.40229 -1.7727,2.11666 -3.73063,4.47146 -7.461254,8.94292 -11.191879,13.44084 -0.185208,0.21166 -0.291041,0.50271 -0.449791,0.76729 0.79375,-0.29104 1.42875,-0.66146 2.010833,-1.11125 4.921247,-3.88938 9.816037,-7.75229 14.737297,-11.64167 0.84667,-0.68791 1.16417,-0.58208 1.45521,0.47625 0.21166,0.71438 0.47625,1.42875 0.71437,2.14313 0.0794,0.0265 0.18521,0.0265 0.29104,0.0265 0.15875,-0.55563 0.37042,-1.11125 0.4498,-1.66688 0.15875,-1.19062 0.26458,-1.24354 1.40229,-0.84667 0.44979,0.15875 0.92604,0.26459 1.37583,0.39688 0.0529,-0.10583 0.10583,-0.21167 0.23813,-0.3175 -3.14855,-3.09563 -6.32355,-6.21771 -9.47209,-9.31333 -0.13229,0.0794 -0.23813,0.13229 -0.34396,0.21166 z"
       id="path4-8"
       style="fill:#ffffff;stroke-width:0.264583" />
    <path
       class="st0"
       d="m 96.993776,127.65962 c 0.79375,0.79375 0.87312,1.24354 -0.0794,1.98437 -5.66208,4.445 -11.95916,7.54063 -18.94416,9.2075 -2.16959,0.55563 -4.33917,1.00542 -6.64104,1.50813 -0.42334,-0.26458 -0.92605,-0.44979 -1.29646,-0.79375 -2.09021,-2.06375 -4.18042,-4.10104 -6.16479,-6.24417 -0.4498,-0.47625 -0.82021,-1.34937 -0.71438,-1.95791 1.45521,-9.18105 4.60375,-17.64771 10.4775,-25.00313 0.76729,-0.9525 1.21708,-0.87312 2.01083,-0.0529 7.09084,7.14375 14.20813,14.26105 21.35188,21.35188 z m 11.086044,-17.30375 c 0.60854,0.60854 0.82021,1.27 0.58208,2.11667 -1.42875,5.21229 -4.20687,9.63083 -7.83166,13.57312 -0.66146,0.71438 -1.111254,0.71438 -1.799174,0.0265 -7.27604,-7.3025 -14.55208,-14.605 -21.85458,-21.85458 -0.68792,-0.68792 -0.74084,-1.11125 0,-1.79917 3.94229,-3.62479 8.36083,-6.42938 13.57312,-7.83167 0.26459,-0.0794 0.50271,-0.10583 0.9525,-0.21166 0.3175,0.21166 0.82021,0.39687 1.16417,0.76729 5.08,5.05354 10.133544,10.13354 15.213544,15.21354 z m -0.66146,2.11667 c -0.42333,-0.66146 -0.60854,-1.16417 -0.9525,-1.50813 -4.89479,-4.89479 -9.789584,-9.78958 -14.737294,-14.63146 -0.34396,-0.34396 -1.16417,-0.55562 -1.61396,-0.39687 -3.86291,1.37583 -7.43479,3.25437 -10.50396,6.0325 -0.71437,0.635 -0.89958,1.08479 -0.10583,1.87854 6.6675,6.56167 13.335,13.14979 19.94958,19.79083 0.793754,0.79375 1.296464,0.82021 1.931464,-0.10583 1.03188,-1.53458 2.2225,-2.96333 3.09563,-4.60375 1.08479,-2.09021 1.95791,-4.28625 2.93687,-6.45583 z m -20.293544,25.18833 c 0.0794,0.0794 0.18521,0.15875 0.26458,0.23812 -0.34395,0.79375 -0.68791,1.5875 -1.00541,2.38125 -1.98438,4.81542 -3.99521,9.63084 -5.95313,14.47271 -0.34396,0.82021 -0.635,0.97896 -1.45521,0.60854 -1.5875,-0.76729 -3.28083,-1.34937 -4.86833,-2.11666 -0.50271,-0.23813 -1.08479,-0.76729 -1.16417,-1.27 -0.58208,-2.8575 -1.03187,-5.74146 -1.50812,-8.62542 -0.0529,-0.37042 0,-0.74083 0,-1.29646 5.58271,-0.52916 10.71562,-2.11666 15.68979,-4.39208 z m -2.98979,3.46604 c -3.67771,0.92604 -7.17021,1.82563 -10.66271,2.69875 0.26458,1.79917 0.47625,3.67771 0.84667,5.50333 0.18521,0.87313 0.0265,1.98438 1.11125,2.43417 0.9525,0.39688 1.905,0.74083 2.88396,1.05833 0.76729,0.26459 1.24354,0.15875 1.5875,-0.76729 0.92604,-2.56646 2.01083,-5.10646 3.01625,-7.64646 0.42333,-1.11125 0.8202,-2.24895 1.21708,-3.28083 z M 47.754817,124.35233 c -0.3175,-0.71438 -0.132291,-1.11125 0.502709,-1.37584 5.3975,-2.2225 10.768541,-4.41854 16.16604,-6.61458 0.23813,-0.0529 0.47625,-0.0794 1.03188,-0.18521 -0.60855,1.56104 -1.11125,2.88396 -1.64042,4.20688 -1.402292,3.43958 -2.196042,7.03791 -2.645834,10.71562 -0.105833,0.87313 -0.423333,0.97896 -1.217083,0.82021 -2.963333,-0.52917 -5.926667,-0.97896 -8.863542,-1.56104 -0.423333,-0.0794 -0.926041,-0.52917 -1.11125,-0.92604 -0.79375,-1.66688 -1.455208,-3.38667 -2.2225,-5.08 z m 2.301875,-0.37042 c 0.714375,2.75167 1.164167,5.37104 4.736042,5.37104 1.5875,0 3.201458,0.42334 4.497916,0.635 0.978959,-3.73062 1.852084,-7.19666 2.778125,-10.76854 -3.995208,1.5875 -8.016874,3.175 -12.012083,4.7625 z M 108.1592,102.55066 c -2.75167,-2.46062 -5.26521,-5.21229 -7.91105,-7.83167 -1.270004,-1.27 -3.704164,-1.50812 -5.212294,-0.58208 4.70959,4.70958 9.419174,9.41917 14.287504,14.2875 0.37042,-2.2225 0.79375,-4.1275 -1.16416,-5.87375 z m -5.68855,-8.46667 c 2.14313,2.24896 4.445,4.63021 6.72042,6.985 -0.0265,-3.62479 -3.54542,-7.11729 -6.72042,-6.985 z M 60.4019,134.43295 c 0.132292,0.44979 0.211667,0.89959 0.370417,1.32292 0.370417,1.05833 0.264583,1.24354 -0.873125,1.32292 -0.714375,0.0529 -1.42875,0.0794 -2.143125,0.13229 0,0.0794 0,0.15875 0,0.23812 0.9525,0.37042 1.931458,0.68792 2.883958,1.05834 0.79375,0.29104 0.873125,0.55562 0.3175,1.24354 -0.582083,0.71437 -1.190625,1.40229 -1.772708,2.11666 -3.730625,4.47146 -7.46125,8.94292 -11.191875,13.44084 -0.185208,0.21166 -0.291041,0.50271 -0.449791,0.76729 0.79375,-0.29104 1.42875,-0.66146 2.010833,-1.11125 4.92125,-3.88938 9.816041,-7.75229 14.737292,-11.64167 0.84667,-0.68791 1.16417,-0.58208 1.45521,0.47625 0.21166,0.71438 0.47625,1.42875 0.71437,2.14313 0.0794,0.0265 0.18521,0.0265 0.29104,0.0265 0.15875,-0.55563 0.37042,-1.11125 0.4498,-1.66688 0.15875,-1.19062 0.26458,-1.24354 1.40229,-0.84667 0.44979,0.15875 0.92604,0.26459 1.37583,0.39688 0.0529,-0.10583 0.10583,-0.21167 0.23813,-0.3175 -3.14855,-3.09563 -6.32355,-6.21771 -9.472087,-9.31333 -0.132292,0.0794 -0.238125,0.13229 -0.343959,0.21166 z"
       id="path40"
       style="fill:#ffffff;stroke-width:0.264583" />
  </g>
</svg>
