<?xml version="1.0" encoding="UTF-8" standalone="no"?>
<!DOCTYPE svg PUBLIC "-//W3C//DTD SVG 1.1//EN" "http://www.w3.org/Graphics/SVG/1.1/DTD/svg11.dtd">
<svg width="100%" height="100%" viewBox="0 0 170 174" version="1.1" xmlns="http://www.w3.org/2000/svg" xmlns:xlink="http://www.w3.org/1999/xlink" xml:space="preserve" xmlns:serif="http://www.serif.com/" style="fill-rule:evenodd;clip-rule:evenodd;stroke-linejoin:round;stroke-miterlimit:2;">
    <g transform="matrix(1,0,0,1,-415.226,-1544.98)">
        <g id="Exsplosion" transform="matrix(1.19903,0,0,1.1769,-99.0829,-0.382995)">
            <path d="M547.424,1411.79C554.162,1416.83 558.139,1423.04 558.139,1429.75C558.139,1446.6 533.057,1460.28 502.163,1460.28C471.269,1460.28 446.187,1446.6 446.187,1429.75C446.187,1423.04 450.164,1416.83 456.902,1411.79C453.223,1415.74 451.143,1420.22 451.143,1424.97C451.143,1440.73 474.004,1453.53 502.163,1453.53C530.321,1453.53 553.183,1440.73 553.183,1424.97C553.183,1420.22 551.103,1415.74 547.424,1411.79ZM522.777,1335.43C524.537,1335.12 526.349,1334.96 528.198,1334.96C542.509,1334.96 554.552,1344.75 557.995,1357.99L570.344,1349.43L558.974,1366.58C558.839,1371.75 557.429,1376.6 555.047,1380.83C556.152,1383.75 556.757,1386.9 556.757,1390.2C556.757,1404.02 546.131,1415.38 532.613,1416.53C529.479,1422.59 523.16,1426.73 515.881,1426.73C511.475,1426.73 507.419,1425.21 504.21,1422.67C499.482,1427.12 493.117,1429.84 486.12,1429.84C472.285,1429.84 460.919,1419.18 459.796,1405.63C454.011,1400.78 450.33,1393.5 450.33,1385.36C450.33,1384.87 450.343,1384.39 450.369,1383.91L428.939,1363.77L452.605,1373.09C451.981,1370.75 451.649,1368.29 451.649,1365.76C451.649,1351.19 462.635,1339.16 476.764,1337.54C479.316,1332.56 484.498,1329.14 490.471,1329.14C494.637,1329.14 498.418,1330.8 501.19,1333.5C502.09,1333.42 503.003,1333.38 503.926,1333.38C507.033,1333.38 510.033,1333.84 512.861,1334.7L528.198,1313.08L522.777,1335.43ZM530.047,1378.5C535.998,1380.5 539.83,1385.99 538.886,1391.76C537.809,1398.35 530.912,1402.83 523.493,1401.75C522.862,1401.65 522.248,1401.53 521.654,1401.36C528.438,1401.89 534.618,1397.31 535.684,1390.79C536.494,1385.83 534.134,1381.11 530.047,1378.5ZM474.336,1387.26C466.815,1383.56 462.67,1374.96 464.873,1366.55C467.389,1356.93 477.234,1351.17 486.844,1353.69C487.661,1353.9 488.45,1354.17 489.208,1354.49C480.342,1352.87 471.427,1358.87 468.937,1368.39C467.045,1375.61 469.375,1382.89 474.336,1387.26ZM527.338,1346.53C523.832,1346.39 523.657,1344.06 527.742,1344.22C532.406,1344.4 536.101,1348.8 535.987,1354.04C535.978,1354.49 535.941,1354.92 535.879,1355.35C535.663,1350.6 531.957,1346.71 527.338,1346.53Z" style="fill:white;"/>
        </g>
    </g>
</svg>
