<?xml version="1.0" encoding="UTF-8" standalone="no"?>
<!DOCTYPE svg PUBLIC "-//W3C//DTD SVG 1.1//EN" "http://www.w3.org/Graphics/SVG/1.1/DTD/svg11.dtd">
<svg width="100%" height="100%" viewBox="0 0 155 164" version="1.1" xmlns="http://www.w3.org/2000/svg" xmlns:xlink="http://www.w3.org/1999/xlink" xml:space="preserve" xmlns:serif="http://www.serif.com/" style="fill-rule:evenodd;clip-rule:evenodd;stroke-linejoin:round;stroke-miterlimit:2;">
    <g transform="matrix(1,0,0,1,-716.771,-688.576)">
        <g id="Jumppad">
            <path d="M803.978,734.177L789.334,730.353L827.692,688.576L840.727,743.773L828.019,740.454L814.702,791.456C823.004,792.289 830.742,793.608 837.657,795.321L858.787,791.449L853.607,800.595C864.405,805.331 870.881,811.374 870.881,817.952C870.881,822.762 867.418,827.286 861.336,831.221L870.881,851.773L842.884,839.168C829.554,843.105 812.458,845.471 793.826,845.471C775.816,845.471 759.24,843.26 746.109,839.555L718.972,851.773L728.029,832.273C720.888,828.1 716.771,823.196 716.771,817.952C716.771,811.132 723.732,804.888 735.252,800.078L730.917,790.457L750.792,795.126C756.722,793.697 763.236,792.554 770.179,791.754L747.514,744.544L787.405,790.526C788.027,790.508 788.651,790.492 789.276,790.479L803.978,734.177ZM813.26,796.976C839.008,799.815 857.672,808.137 857.672,817.952C857.672,821.341 855.447,824.552 851.473,827.42C841.199,834.838 819.236,839.968 793.826,839.968C758.589,839.968 729.98,830.103 729.98,817.952C729.98,808.344 747.866,800.166 772.775,797.163L775.586,803.018C765.899,805.413 759.454,809.658 759.454,814.491C759.454,821.963 774.856,828.029 793.826,828.029C812.797,828.029 828.198,821.963 828.198,814.491C828.198,809.598 821.593,805.308 811.705,802.93L813.26,796.976Z" style="fill:white;"/>
        </g>
    </g>
</svg>
