<?xml version="1.0" encoding="UTF-8" standalone="no"?>
<!DOCTYPE svg PUBLIC "-//W3C//DTD SVG 1.1//EN" "http://www.w3.org/Graphics/SVG/1.1/DTD/svg11.dtd">
<svg width="100%" height="100%" viewBox="0 0 161 156" version="1.1" xmlns="http://www.w3.org/2000/svg" xmlns:xlink="http://www.w3.org/1999/xlink" xml:space="preserve" xmlns:serif="http://www.serif.com/" style="fill-rule:evenodd;clip-rule:evenodd;stroke-linejoin:round;stroke-miterlimit:2;">
    <g transform="matrix(1,0,0,1,-126.083,-694.606)">
        <g id="Dash" transform="matrix(1.09303,0,0,1.07963,-127.589,471.885)">
            <path d="M232.081,340.828L282.318,272.934L249.538,271.61L296.103,233.271L295.853,233L286.799,223.761C286.799,223.761 323.284,199.885 377.027,207.962L377.103,207.887C384.65,261.727 360.397,297.983 360.397,297.983L352.138,289.724L313.472,333.106L312.296,303.005L242.886,349.988L328.992,264.986L338.477,286.199L359.113,226.554L296.977,245.816L318.755,255.47L232.081,340.828Z" style="fill:white;"/>
        </g>
    </g>
</svg>
