<?xml version="1.0" encoding="UTF-8" standalone="no"?>
<!DOCTYPE svg PUBLIC "-//W3C//DTD SVG 1.1//EN" "http://www.w3.org/Graphics/SVG/1.1/DTD/svg11.dtd">
<svg width="100%" height="100%" viewBox="0 0 151 156" version="1.1" xmlns="http://www.w3.org/2000/svg" xmlns:xlink="http://www.w3.org/1999/xlink" xml:space="preserve" xmlns:serif="http://www.serif.com/" style="fill-rule:evenodd;clip-rule:evenodd;stroke-linejoin:round;stroke-miterlimit:2;">
    <g transform="matrix(1,0,0,1,-130.598,-2129.5)">
        <path d="M176.745,2153.38C175.812,2151.27 175.294,2148.94 175.294,2146.5C175.294,2137.11 182.911,2129.5 192.294,2129.5C201.676,2129.5 209.294,2137.11 209.294,2146.5C209.294,2150.87 207.635,2154.87 204.912,2157.88C206.039,2158.45 207.021,2159.06 207.798,2159.7C214.398,2165.1 212.598,2173.5 210.998,2179.7C209.398,2185.9 200.398,2190.9 200.398,2190.9C200.398,2190.9 202.598,2193.1 204.885,2196.5C207.172,2199.9 202.998,2205.1 202.998,2205.1L207.798,2207.07C207.798,2207.07 209.798,2223.5 211.798,2227.1C213.798,2230.7 209.198,2234.1 207.798,2240.1C206.398,2246.1 209.998,2268.1 209.998,2268.1C209.998,2268.1 221.213,2277.09 219.879,2278.5C218.546,2279.9 201.998,2276.53 201.998,2276.53C201.998,2276.53 203.598,2261.1 201.398,2256.1C199.198,2251.1 197.198,2240.1 198.798,2235.5C200.398,2230.9 199.598,2229.1 197.198,2221.7C194.798,2214.3 192.398,2211.9 192.398,2211.9L192.398,2211.5C192.398,2211.5 183.198,2230.9 183.198,2235.3C183.198,2239.7 180.398,2241.8 180.398,2241.8C180.398,2241.8 182.109,2245.41 181.548,2247.15C180.981,2248.89 178.197,2250.34 176.998,2252.3C174.606,2256.19 166.598,2265.3 167.198,2270.5C167.798,2275.7 166.998,2277.1 163.998,2281.3C160.998,2285.5 152.998,2285.06 152.398,2283.5C151.798,2281.93 160.398,2271.9 160.398,2271.9L159.798,2269.9C159.798,2269.9 171.798,2240.7 168.398,2238.7C164.998,2236.7 166.198,2233.7 166.198,2233.7L146.998,2241.8C146.998,2241.8 134.398,2235.3 134.998,2227.1C135.598,2218.9 130.598,2209.9 130.598,2209.9C148.198,2211.3 148.398,2200.7 148.798,2196.7C149.198,2192.7 154.398,2180.9 157.998,2178.5C161.598,2176.1 163.998,2182.3 167.398,2177.5C170.798,2172.7 169.798,2172.5 166.598,2167.5C164.291,2163.89 172.168,2156.96 176.745,2153.38ZM250.496,2207.07C242.992,2211.47 237.617,2215.63 219.879,2215.01C219.879,2244.79 228.883,2264.05 250.496,2276.53C272.109,2264.05 281.113,2244.79 281.113,2215.01C263.375,2215.63 258,2211.47 250.496,2207.07ZM245.348,2239.16L235.742,2239.16L250.496,2220.12L265.25,2239.16L255.644,2239.16L255.644,2258.5L245.348,2258.5L245.348,2239.16ZM230.962,2156.02C232.05,2156.58 231.96,2157.2 231.173,2156.32C231.084,2156.22 231.014,2156.12 230.962,2156.02C230.208,2155.64 228.887,2155.28 226.839,2155.49C221.839,2155.99 221.839,2156.82 221.839,2158.32C221.839,2159.82 224.839,2161.3 224.839,2161.3C224.839,2161.3 227.006,2160.99 224.673,2163.15C222.339,2165.32 219.14,2165.99 219.989,2168.49C220.839,2170.99 219.989,2173.49 219.989,2173.49L221.839,2176.32C221.839,2176.32 215.506,2182.32 214.839,2185.32C214.173,2188.32 216.006,2188.15 214.339,2189.99C212.673,2191.82 218.339,2197.49 218.339,2197.49C218.339,2197.49 219.173,2202.49 221.506,2200.15C223.839,2197.82 228.006,2191.32 230.173,2187.32C232.339,2183.32 232.173,2182.32 230.339,2181.15C228.506,2179.99 234.339,2179.32 234.339,2179.32C234.339,2179.32 238.506,2171.49 237.506,2167.49C236.506,2163.49 239.506,2161.65 239.839,2158.99C240.173,2156.32 240.506,2155.49 239.506,2154.15C238.506,2152.82 235.339,2154.32 235.339,2154.32L232.839,2153.49C232.839,2153.49 230.226,2154.65 230.962,2156.02Z" style="fill:white;"/>
    </g>
</svg>
