<?xml version="1.0" encoding="UTF-8" standalone="no"?>
<!DOCTYPE svg PUBLIC "-//W3C//DTD SVG 1.1//EN" "http://www.w3.org/Graphics/SVG/1.1/DTD/svg11.dtd">
<svg width="100%" height="100%" viewBox="0 0 145 160" version="1.1" xmlns="http://www.w3.org/2000/svg" xmlns:xlink="http://www.w3.org/1999/xlink" xml:space="preserve" xmlns:serif="http://www.serif.com/" style="fill-rule:evenodd;clip-rule:evenodd;stroke-linejoin:round;stroke-miterlimit:2;">
    <g transform="matrix(1,0,0,1,-717.944,-112.074)">
        <g transform="matrix(-0.849192,-0.672037,0.672037,-0.849192,1349.3,897.95)">
            <g transform="matrix(-0.724097,0.573039,-0.573039,-0.724097,1491.58,-122.999)">
                <path d="M753.943,247.094C753.943,247.094 742.158,263.022 737.007,266.975C733.175,269.914 725.29,272.688 723.037,270.81C720.783,268.931 721.471,260.321 723.486,255.704C726.09,249.736 738.665,235.003 738.665,235.003L753.943,247.094ZM818.076,242.595C818.076,242.595 806.291,258.522 801.14,262.475C797.309,265.415 789.423,268.189 787.17,266.31C784.916,264.432 785.604,255.821 787.619,251.205C790.223,245.237 802.798,230.503 802.798,230.503L818.076,242.595ZM755.138,244.892C755.354,245.062 755.667,245.026 755.838,244.81L766.931,230.793C767.101,230.577 767.065,230.264 766.849,230.093L763.724,227.62C763.509,227.449 763.195,227.486 763.025,227.701L751.931,241.719C751.761,241.935 751.797,242.248 752.013,242.419L755.138,244.892ZM819.271,240.392C819.487,240.563 819.8,240.526 819.971,240.311L831.064,226.293C831.235,226.078 831.198,225.764 830.983,225.594L827.857,223.12C827.642,222.95 827.328,222.986 827.158,223.202L816.065,237.219C815.894,237.435 815.93,237.749 816.146,237.919L819.271,240.392ZM749.452,240.392C749.668,240.563 749.981,240.526 750.152,240.311L761.245,226.293C761.416,226.078 761.379,225.764 761.164,225.594L758.039,223.12C757.823,222.95 757.51,222.986 757.339,223.202L746.246,237.219C746.075,237.435 746.112,237.749 746.327,237.919L749.452,240.392ZM813.585,235.893C813.801,236.063 814.115,236.027 814.285,235.811L825.378,221.794C825.549,221.578 825.512,221.265 825.297,221.094L822.172,218.621C821.956,218.45 821.643,218.487 821.472,218.702L810.379,232.72C810.208,232.935 810.245,233.249 810.46,233.42L813.585,235.893ZM743.637,235.79C743.853,235.961 744.166,235.924 744.337,235.709L755.43,221.691C755.601,221.476 755.564,221.162 755.349,220.991L752.223,218.518C752.008,218.348 751.694,218.384 751.524,218.6L740.431,232.617C740.26,232.833 740.296,233.146 740.512,233.317L743.637,235.79ZM807.77,231.291C807.986,231.461 808.299,231.425 808.47,231.209L819.563,217.192C819.734,216.976 819.697,216.663 819.482,216.492L816.357,214.019C816.141,213.848 815.827,213.885 815.657,214.1L804.564,228.118C804.393,228.333 804.43,228.647 804.645,228.818L807.77,231.291ZM753.297,216.36L768.704,228.553L792.116,198.968L776.709,186.775L753.297,216.36ZM817.43,211.86L832.837,224.053L856.249,194.469L840.842,182.276L817.43,211.86ZM793.41,199.992L779.548,217.509L790.953,213.588L798.515,204.032L793.41,199.992ZM857.543,195.493L843.681,213.01L855.086,209.089L862.648,199.533L857.543,195.493ZM775.262,185.63L761.4,203.147L762.595,191.146L770.157,181.59L775.262,185.63ZM750.255,177.578C750.255,177.578 738.469,193.505 733.318,197.458C729.487,200.398 721.601,203.171 719.348,201.293C717.094,199.415 717.782,190.804 719.797,186.188C722.402,180.22 734.976,165.486 734.976,165.486L750.255,177.578ZM839.395,181.131L825.533,198.648L826.728,186.647L834.29,177.091L839.395,181.131ZM841.933,180.898C841.762,181.114 841.799,181.427 842.014,181.598L856.64,193.172C856.856,193.343 857.169,193.307 857.34,193.091L859.813,189.966C859.984,189.75 859.947,189.437 859.731,189.266L845.106,177.691C844.89,177.521 844.576,177.557 844.406,177.773L841.933,180.898ZM751.449,175.375C751.665,175.546 751.979,175.509 752.149,175.294L763.242,161.276C763.413,161.061 763.376,160.747 763.161,160.577L760.036,158.103C759.82,157.933 759.507,157.969 759.336,158.185L748.243,172.202C748.072,172.418 748.109,172.732 748.324,172.902L751.449,175.375ZM745.764,170.876C745.979,171.046 746.293,171.01 746.464,170.794L757.557,156.777C757.727,156.561 757.691,156.248 757.475,156.077L754.35,153.604C754.135,153.433 753.821,153.47 753.65,153.685L742.557,167.703C742.387,167.918 742.423,168.232 742.639,168.403L745.764,170.876ZM739.949,166.274C740.164,166.444 740.478,166.408 740.648,166.192L751.741,152.175C751.912,151.959 751.876,151.646 751.66,151.475L748.535,149.002C748.319,148.831 748.006,148.868 747.835,149.083L736.742,163.101C736.571,163.316 736.608,163.63 736.824,163.801L739.949,166.274ZM749.608,146.843L765.015,159.036L788.428,129.452L773.021,117.259L749.608,146.843ZM789.722,130.476L775.859,147.993L787.264,144.072L794.827,134.516L789.722,130.476ZM771.574,116.114L757.711,133.631L758.906,121.63L766.469,112.074L771.574,116.114ZM774.111,115.881C773.94,116.097 773.977,116.41 774.192,116.581L788.818,128.155C789.034,128.326 789.348,128.29 789.518,128.074L791.991,124.949C792.162,124.733 792.125,124.42 791.91,124.249L777.284,112.674C777.068,112.504 776.755,112.54 776.584,112.756L774.111,115.881Z" style="fill:white;"/>
            </g>
        </g>
    </g>
</svg>
