<?xml version="1.0" encoding="UTF-8" standalone="no"?>
<!DOCTYPE svg PUBLIC "-//W3C//DTD SVG 1.1//EN" "http://www.w3.org/Graphics/SVG/1.1/DTD/svg11.dtd">
<svg width="100%" height="100%" viewBox="0 0 172 160" version="1.1" xmlns="http://www.w3.org/2000/svg" xmlns:xlink="http://www.w3.org/1999/xlink" xml:space="preserve" xmlns:serif="http://www.serif.com/" style="fill-rule:evenodd;clip-rule:evenodd;stroke-linejoin:round;stroke-miterlimit:2;">
    <g transform="matrix(1,0,0,1,-710.153,-1265.41)">
        <g transform="matrix(1,0,0,1,-3,250)">
            <path d="M858.51,1117.41L844.607,1116.03L868.535,1081.14L885.14,1120.05L870.728,1118.62C860.77,1151.47 830.235,1175.41 794.153,1175.41C768.677,1175.41 745.966,1163.48 731.315,1144.9L747.54,1144.9C759.717,1156.37 776.12,1163.41 794.153,1163.41C823.986,1163.41 849.358,1144.16 858.51,1117.41ZM730.763,1120.05C732.538,1124.61 734.791,1128.93 737.459,1132.95L723.502,1132.95C721.317,1128.85 719.479,1124.54 718.027,1120.05L730.763,1120.05ZM793.214,1062.61C811.762,1062.61 826.82,1077.55 826.82,1095.95C826.82,1114.35 811.762,1129.29 793.214,1129.29C774.667,1129.29 759.609,1114.35 759.609,1095.95C759.609,1077.55 774.667,1062.61 793.214,1062.61ZM726.155,1094.95C726.154,1095.1 726.153,1095.26 726.153,1095.41C726.153,1099.74 726.56,1103.98 727.338,1108.1L715.156,1108.1C714.496,1103.97 714.153,1099.73 714.153,1095.41C714.153,1095.26 714.154,1095.1 714.155,1094.95L726.155,1094.95ZM727.015,1051.91C741.282,1029.95 766.033,1015.41 794.153,1015.41C819.824,1015.41 842.687,1027.53 857.326,1046.34L841.215,1046.34C828.992,1034.62 812.408,1027.41 794.153,1027.41C771.114,1027.41 750.736,1038.89 738.435,1056.44L751.018,1061.43L718.417,1088.39L713.153,1046.42L727.015,1051.91ZM865.03,1058.3C867.227,1062.48 869.064,1066.88 870.501,1071.46L857.809,1071.46C856.056,1066.81 853.807,1062.4 851.129,1058.3L865.03,1058.3Z" style="fill:white;"/>
        </g>
    </g>
</svg>
