<?xml version="1.0" encoding="UTF-8"?>
<svg clip-rule="evenodd" fill-rule="evenodd" stroke-linejoin="round" stroke-miterlimit="2" version="1.1" viewBox="0 0 656 324" xml:space="preserve" xmlns="http://www.w3.org/2000/svg">
	<style type="text/css">.st0{fill:#FFFFFF;}</style>
	<path class="st0" d="m163.97 323.81c1e-3 -0.141 0.16-30.885 0-62.332-0.253-49.756 122.13-81.942 163.33-78.296 0.448 0.039 0.901 0.088 1.356 0.145 0.456-0.057 0.908-0.106 1.356-0.145 41.203-3.646 163.58 28.54 163.33 78.296-0.159 31.447-0 62.191 0 62.332l1e-3 1e-3h-329.37v-1e-3zm321.82-127.52c10.074-1.317 19.888-1.112 20.299-1.149 37.697-3.335 149.66 26.113 149.43 71.636-0.146 28.772-1e-3 56.9-0 57.029v1e-3h-128.55l-0.55-71.959s2.821-38.612-40.635-55.558zm-316.05-0c-10.074-1.317-19.888-1.112-20.299-1.149-37.697-3.335-149.66 26.113-149.43 71.636 0.147 28.772 1e-3 56.9 0 57.029v1e-3h128.55l0.55-71.959s-2.821-38.612 40.635-55.558zm-20.113-170.65c-35.768-0-64.807 29.039-64.807 64.807s29.039 64.807 64.807 64.807 64.807-29.039 64.807-64.807-29.039-64.807-64.807-64.807zm356.28-0c35.768-0 64.807 29.039 64.807 64.807s-29.039 64.807-64.807 64.807-64.807-29.039-64.807-64.807 29.039-64.807 64.807-64.807zm-178.6-25.642c39.094 0 70.833 31.739 70.833 70.833s-31.739 70.834-70.833 70.834-70.833-31.74-70.833-70.834 31.739-70.833 70.833-70.833z" />
</svg>
