<?xml version="1.0" encoding="UTF-8"?>
<svg clip-rule="evenodd" fill-rule="evenodd" stroke-linejoin="round" stroke-miterlimit="2" version="1.1" viewBox="0 0 516 326" xml:space="preserve" xmlns="http://www.w3.org/2000/svg">
	<style type="text/css">.st0{fill:#FFFFFF;}</style>
	<path class="st0" d="m0 325.9c1e-3 -0.141 0.16-30.884 0-62.331-0.252-49.757 122.13-81.943 163.33-78.297 0.449 0.04 0.901 0.088 1.356 0.145 0.456-0.057 0.908-0.105 1.357-0.145 41.202-3.646 163.58 28.54 163.33 78.297-0.16 31.447-1e-3 62.19-0 62.331v1e-3h-329.37v-1e-3zm329.89-139.37c11.011-1.439 21.738-1.215 22.186-1.255 41.203-3.646 163.58 28.54 163.33 78.297-0.16 31.447-1e-3 62.19-0 62.331v1e-3h-140.5l-0.6-78.65s3.083-42.201-44.414-60.724zm-166.56-184.44c39.094 0 70.834 31.74 70.834 70.834s-31.74 70.833-70.834 70.833-70.833-31.739-70.833-70.833 31.739-70.834 70.833-70.834zm188.54-2.083c39.094 0 70.833 31.739 70.833 70.833s-31.739 70.834-70.833 70.834-70.833-31.74-70.833-70.834 31.739-70.833 70.833-70.833z" />
</svg>
