<?xml version="1.0" encoding="UTF-8" standalone="no"?><!DOCTYPE svg PUBLIC "-//W3C//DTD SVG 1.1//EN" "http://www.w3.org/Graphics/SVG/1.1/DTD/svg11.dtd"><svg width="100%" height="100%" viewBox="0 0 442 384" version="1.1" xmlns="http://www.w3.org/2000/svg" xmlns:xlink="http://www.w3.org/1999/xlink" xml:space="preserve" xmlns:serif="http://www.serif.com/" style="fill-rule:evenodd;clip-rule:evenodd;stroke-linejoin:round;stroke-miterlimit:2;"><path id="Audio" d="M334.66,35.594c-0,0 147.371,147.55 -1.491,313.149c-7.686,8.551 -6.985,21.734 1.566,29.421c8.551,7.687 21.735,6.985 29.421,-1.566c52.618,-58.533 73.317,-115.347 77.095,-165.934c8.873,-118.819 -77.196,-204.6 -77.196,-204.6c-8.149,-8.112 -21.351,-8.082 -29.463,0.067c-8.111,8.149 -8.081,21.351 0.068,29.463Zm-229.527,259.12l-78.327,0c-14.795,0 -26.806,-12.011 -26.806,-26.805l0,-153.681c0,-14.794 12.011,-26.805 26.806,-26.805l80.082,-0l81.306,-63.174c0,0 35.429,-15.278 36.118,18.75c0.677,33.483 0.021,145.185 0,148.751c0.021,3.566 0.677,115.268 -0,148.751c-0.689,34.028 -36.118,18.75 -36.118,18.75l-83.061,-64.537Zm159.23,-200.804c0,0 95.329,97.071 -0.721,195.12c-8.047,8.214 -7.911,21.415 0.303,29.461c8.214,8.047 21.415,7.911 29.461,-0.303c124.784,-127.381 0.668,-253.491 0.668,-253.491c-8.062,-8.199 -21.263,-8.31 -29.462,-0.249c-8.199,8.062 -8.31,21.263 -0.249,29.462Z" style="fill:#fff;"/></svg>