<?xml version="1.0" encoding="UTF-8" standalone="no"?><!DOCTYPE svg PUBLIC "-//W3C//DTD SVG 1.1//EN" "http://www.w3.org/Graphics/SVG/1.1/DTD/svg11.dtd"><svg width="100%" height="100%" viewBox="0 0 475 431" version="1.1" xmlns="http://www.w3.org/2000/svg" xmlns:xlink="http://www.w3.org/1999/xlink" xml:space="preserve" xmlns:serif="http://www.serif.com/" style="fill-rule:evenodd;clip-rule:evenodd;stroke-linejoin:round;stroke-miterlimit:2;"><path id="Video" d="M312.083,382.5l0,-59.167l130.584,0c17.845,0 32.333,-14.488 32.333,-32.333l-0,-258.667c-0,-17.845 -14.488,-32.333 -32.333,-32.333l-410.334,0c-17.845,0 -32.333,14.488 -32.333,32.333l-0,258.667c-0,17.845 14.488,32.333 32.333,32.333l130.584,0l-0,59.167l-66.671,-0c-13.145,-0 -23.817,10.672 -23.817,23.817l-0,24.516l330.142,0l0,-24.516c0,-13.145 -10.672,-23.817 -23.817,-23.817l-66.671,-0Zm104.669,-326.607l-358.333,-0l-0,192.708l358.333,0l0,-192.708Z" style="fill:#fff;"/></svg>