<?xml version="1.0" encoding="UTF-8" standalone="no"?><!DOCTYPE svg PUBLIC "-//W3C//DTD SVG 1.1//EN" "http://www.w3.org/Graphics/SVG/1.1/DTD/svg11.dtd"><svg width="100%" height="100%" viewBox="0 0 465 465" version="1.1" xmlns="http://www.w3.org/2000/svg" xmlns:xlink="http://www.w3.org/1999/xlink" xml:space="preserve" xmlns:serif="http://www.serif.com/" style="fill-rule:evenodd;clip-rule:evenodd;stroke-linejoin:round;stroke-miterlimit:2;"><path id="Crosshair" d="M253.496,22.245c98.359,9.776 176.688,88.105 186.469,186.469l24.618,-0l0,41.667l-24.618,-0c-9.777,98.359 -88.105,176.688 -186.469,186.469l-0,27.733l-41.667,0l-0,-27.733c-98.359,-9.777 -176.689,-88.105 -186.469,-186.469l-25.36,-0l-0,-41.667l25.36,-0c9.776,-98.359 88.105,-176.689 186.469,-186.469l-0,-22.245l41.667,-0l-0,22.245Zm-0,54.534l-0,41.971l-41.667,-0l-0,-41.971c-68.435,9.258 -122.679,63.503 -131.935,131.935l38.856,-0l-0,41.667l-38.856,-0c9.258,68.435 63.503,122.678 131.935,131.934l-0,-36.482l41.667,0l-0,36.482c68.435,-9.257 122.678,-63.502 131.934,-131.934l-39.597,-0l0,-41.667l39.597,-0c-9.257,-68.435 -63.502,-122.679 -131.934,-131.935Z" style="fill:#fff;"/></svg>