<?xml version="1.0" encoding="UTF-8" standalone="no"?><!DOCTYPE svg PUBLIC "-//W3C//DTD SVG 1.1//EN" "http://www.w3.org/Graphics/SVG/1.1/DTD/svg11.dtd"><svg width="100%" height="100%" viewBox="0 0 427 427" version="1.1" xmlns="http://www.w3.org/2000/svg" xmlns:xlink="http://www.w3.org/1999/xlink" xml:space="preserve" xmlns:serif="http://www.serif.com/" style="fill-rule:evenodd;clip-rule:evenodd;stroke-linejoin:round;stroke-miterlimit:2;"><path id="Keybinds" d="M150.558,305.812l0,117.805c0,1.38 1.121,2.5 2.5,2.5l120,-0c1.38,-0 2.5,-1.12 2.5,-2.5l0,-117.805l-62.5,-59.979l-62.5,59.979Zm-30.254,-155.072l-117.804,-0c-1.38,-0 -2.5,1.12 -2.5,2.5l0,120c0,1.38 1.12,2.5 2.5,2.5l117.804,-0l59.979,-62.5l-59.979,-62.5Zm185.508,-0l117.805,-0c1.38,-0 2.5,1.12 2.5,2.5l-0,120c-0,1.38 -1.12,2.5 -2.5,2.5l-117.805,-0l-59.979,-62.5l59.979,-62.5Zm-155.254,-30.436l0,-117.804c0,-1.38 1.121,-2.5 2.5,-2.5l120,0c1.38,0 2.5,1.12 2.5,2.5l0,117.804l-62.5,59.979l-62.5,-59.979Z" style="fill:#fff;"/><path d="M150.558,305.812l0,117.805c0,1.38 1.121,2.5 2.5,2.5l120,-0c1.38,-0 2.5,-1.12 2.5,-2.5l0,-117.805l-62.5,-59.979l-62.5,59.979Zm83.334,78.638l-41.667,0l0,-60.874l20.833,-19.993c0,-0 20.834,19.993 20.834,19.993l-0,60.874Zm-113.588,-233.71l-117.804,-0c-1.38,-0 -2.5,1.12 -2.5,2.5l0,120c0,1.38 1.12,2.5 2.5,2.5l117.804,-0l59.979,-62.5l-59.979,-62.5Zm185.508,-0l117.805,-0c1.38,-0 2.5,1.12 2.5,2.5l-0,120c-0,1.38 -1.12,2.5 -2.5,2.5l-117.805,-0l-59.979,-62.5l59.979,-62.5Zm78.638,83.333l-60.874,0c-0,0 -19.993,-20.833 -19.993,-20.833l19.993,-20.834l60.874,0l0,41.667Zm-342.783,-41.667l60.874,0l19.993,20.834c-0,-0 -19.993,20.833 -19.993,20.833l-60.874,0l-0,-41.667Zm108.891,-72.102l0,-117.804c0,-1.38 1.121,-2.5 2.5,-2.5l120,0c1.38,0 2.5,1.12 2.5,2.5l0,117.804l-62.5,59.979l-62.5,-59.979Zm83.334,-78.637l-0,60.874c-0,-0 -20.834,19.993 -20.834,19.993l-20.833,-19.993l0,-60.874l41.667,-0Z" style="fill:#fff;fill-opacity:0.57;"/></svg>