<?xml version="1.0" encoding="UTF-8"?>
<svg clip-rule="evenodd" fill-rule="evenodd" stroke-linejoin="round" stroke-miterlimit="2" version="1.1" viewBox="0 0 442 324" xml:space="preserve" xmlns="http://www.w3.org/2000/svg">
	<style type="text/css">.st0{fill:#FFFFFF;}</style>
	<path class="st0" d="m112.25 323.81c0-0.141 0.159-30.885-0-62.332-0.253-49.756 122.13-81.942 163.33-78.296 0.448 0.039 0.9 0.088 1.356 0.145 0.455-0.057 0.908-0.106 1.356-0.145 41.203-3.646 163.58 28.54 163.33 78.296-0.16 31.447-1e-3 62.191-0 62.332v1e-3h-329.37l1e-3 -1e-3zm-16.117-211.61v-62.202h-33.929v62.202h-62.202v33.929h62.202v62.202h33.929v-62.202h62.202v-33.929h-62.202zm179.45-112.2c39.094 0 70.833 31.739 70.833 70.833s-31.739 70.834-70.833 70.834-70.834-31.74-70.834-70.834 31.74-70.833 70.834-70.833z"/>
</svg>
