<?xml version="1.0" encoding="UTF-8" standalone="no"?><!DOCTYPE svg PUBLIC "-//W3C//DTD SVG 1.1//EN" "http://www.w3.org/Graphics/SVG/1.1/DTD/svg11.dtd"><svg width="100%" height="100%" viewBox="0 0 428 417" version="1.1" xmlns="http://www.w3.org/2000/svg" xmlns:xlink="http://www.w3.org/1999/xlink" xml:space="preserve" xmlns:serif="http://www.serif.com/" style="fill-rule:evenodd;clip-rule:evenodd;stroke-linejoin:round;stroke-miterlimit:2;"><path id="General" d="M213.569,121.111c-0.529,-0.009 -1.058,-0.014 -1.588,-0.014c-49.08,0 -88.927,39.847 -88.927,88.927c0,49.079 39.847,88.926 88.927,88.926c0.53,0 1.059,-0.005 1.588,-0.014l0.793,0.01c0.265,0.003 0.529,0.004 0.795,0.004c49.079,0 88.926,-39.847 88.926,-88.926c-0,-49.08 -39.847,-88.927 -88.926,-88.927c-0.266,0 -0.53,0.001 -0.795,0.004l-0.793,0.01Zm-43.744,294.983c-0.403,-43.624 -35.942,-78.914 -79.659,-78.914c-15.568,-0 -30.098,4.475 -42.371,12.206l-45.635,-73.451c22.781,-14.023 37.985,-39.194 37.985,-67.888c-0,-29.592 -16.17,-55.437 -40.145,-69.172l44.576,-73.556c12.92,9.04 28.64,14.344 45.59,14.344c43.967,0 79.663,-35.696 79.663,-79.663l87.479,0c-0,43.967 35.696,79.663 79.663,79.663c16.95,0 32.67,-5.304 45.591,-14.344l44.575,73.556c-23.975,13.735 -40.145,39.58 -40.145,69.172c0,28.694 15.204,53.865 37.985,67.888l-45.635,73.451c-12.273,-7.731 -26.803,-12.206 -42.371,-12.206c-43.717,-0 -79.256,35.29 -79.659,78.914l-87.487,-0Z" style="fill:#fff;"/></svg>