<?xml version="1.0" encoding="UTF-8" standalone="no"?>
<!DOCTYPE svg PUBLIC "-//W3C//DTD SVG 1.1//EN" "http://www.w3.org/Graphics/SVG/1.1/DTD/svg11.dtd">
<svg width="100%" height="100%" viewBox="0 0 341 341" version="1.1" xmlns="http://www.w3.org/2000/svg" xmlns:xlink="http://www.w3.org/1999/xlink" xml:space="preserve" xmlns:serif="http://www.serif.com/" style="fill-rule:evenodd;clip-rule:evenodd;stroke-linejoin:round;stroke-miterlimit:2;">
    <g transform="matrix(1,0,0,1,-79.8965,-79.8965)">
        <path d="M316.661,409L409,409L409,298.996L420.103,310.099L420.103,420.103L400.901,420.103L400.901,420.097L250.093,420.069L250.093,420.034L249.907,420.034L249.907,420.069L201.321,420.078L173.008,420.103L173.029,420.083L99.099,420.097L99.099,420.103L79.897,420.103L79.897,310.099L91,298.996L91,409L184.112,409L209.893,383.219L290.523,383.219L316.661,409ZM91,201.004L79.897,189.901L79.897,79.897L99.099,79.897L99.099,79.903L189.907,79.931L200.968,91L91,91L91,201.004ZM299.032,91L409,91L409,201.004L420.103,189.901L420.103,79.897L400.901,79.897L400.901,79.903L310.093,79.931L299.032,91Z" style="fill:white;"/>
    </g>
</svg>
