<svg xmlns="http://www.w3.org/2000/svg" width="2511.869" height="23.243" viewBox="0 0 2511.869 23.243">
  <g id="Compass_4_4" data-name="Compass 4/4" transform="translate(-3901.566 -45)">
    <g id="Compass" transform="translate(2620 11)">
      <path id="Union_95" data-name="Union 95" d="M-5775.142,1489l-8.777-14.22h-.1l.062.793q.17,2.27.17,4.15V1489h-2.648v-17.846h3.541l8.752,14.147h.073q-.024-.279-.1-2.045t-.073-2.752v-9.351h2.672V1489Z" transform="translate(7068 -1432)" fill="#eaeaea"/>
    </g>
    <g id="Compass-2" data-name="Compass" transform="translate(3244 11)">
      <path id="Union_101" data-name="Union 101" d="M-6417.62,1489v-17.846h10.1v2.466h-7.179v4.858h6.728v2.442h-6.728v5.6h7.179V1489Z" transform="translate(7390 -1432)" fill="#eaeaea"/>
      <path id="Union_102" data-name="Union 102" d="M-6402.925,1476.6v-1.456a4.873,4.873,0,0,0,1.272.485,5.744,5.744,0,0,0,1.333.171,2.479,2.479,0,0,0,1.654-.485,1.767,1.767,0,0,0,.567-1.422q0-1.791-2.283-1.79a5.943,5.943,0,0,0-.792.064c-.316.044-.589.092-.828.147l-.717-.424.382-4.881h5.2v1.429h-3.779l-.226,2.475c.16-.027.354-.06.583-.1a5.43,5.43,0,0,1,.844-.055,3.428,3.428,0,0,1,2.394.8,2.8,2.8,0,0,1,.881,2.181,3.183,3.183,0,0,1-1,2.5,4.116,4.116,0,0,1-2.847.9A5.4,5.4,0,0,1-6402.925,1476.6Zm-7.607-.767a6.987,6.987,0,0,1-.862-3.828,7.154,7.154,0,0,1,.838-3.9,2.86,2.86,0,0,1,2.553-1.253,2.837,2.837,0,0,1,2.536,1.311,7.028,7.028,0,0,1,.862,3.842,7.123,7.123,0,0,1-.838,3.87,2.858,2.858,0,0,1-2.56,1.265A2.836,2.836,0,0,1-6410.533,1475.831Zm1.186-6.753a7.324,7.324,0,0,0-.421,2.926,7.27,7.27,0,0,0,.421,2.919,1.4,1.4,0,0,0,1.343.875,1.413,1.413,0,0,0,1.35-.889,7.176,7.176,0,0,0,.427-2.9,7.236,7.236,0,0,0-.427-2.908,1.413,1.413,0,0,0-1.35-.9A1.4,1.4,0,0,0-6409.347,1469.077Zm-7.195,7.923v-6.454q0-1.155.055-1.832c-.1.109-.234.23-.385.362s-.665.551-1.535,1.258l-.807-1.018,2.94-2.312h1.34V1477Z" transform="translate(7437 -1420)" fill="#ddd"/>
      <path id="Union_103" data-name="Union 103" d="M-6402.262,1475.831a6.987,6.987,0,0,1-.862-3.828,7.154,7.154,0,0,1,.838-3.9,2.859,2.859,0,0,1,2.553-1.253,2.837,2.837,0,0,1,2.536,1.311,7.028,7.028,0,0,1,.862,3.842,7.106,7.106,0,0,1-.837,3.87,2.859,2.859,0,0,1-2.56,1.265A2.836,2.836,0,0,1-6402.262,1475.831Zm1.186-6.753a7.334,7.334,0,0,0-.42,2.926,7.281,7.281,0,0,0,.42,2.919,1.4,1.4,0,0,0,1.344.875,1.414,1.414,0,0,0,1.35-.889,7.176,7.176,0,0,0,.427-2.9,7.236,7.236,0,0,0-.427-2.908,1.413,1.413,0,0,0-1.35-.9A1.4,1.4,0,0,0-6401.076,1469.077Zm-10.3,7.923v-1.216l2.576-2.592a21.177,21.177,0,0,0,1.515-1.658,3.93,3.93,0,0,0,.544-.918,2.5,2.5,0,0,0,.171-.923,1.4,1.4,0,0,0-.408-1.067,1.559,1.559,0,0,0-1.125-.39,2.987,2.987,0,0,0-1.11.213,5.152,5.152,0,0,0-1.241.765l-.868-1.06a5.583,5.583,0,0,1,1.619-1,4.735,4.735,0,0,1,1.675-.295,3.3,3.3,0,0,1,2.236.728,2.465,2.465,0,0,1,.839,1.959,3.453,3.453,0,0,1-.242,1.286,5.283,5.283,0,0,1-.746,1.253,16.923,16.923,0,0,1-1.67,1.746l-1.737,1.682v.069h4.745V1477Zm-5.162,0v-6.454q0-1.155.055-1.832c-.1.109-.234.23-.385.362s-.665.551-1.535,1.258l-.807-1.018,2.94-2.312h1.34V1477Z" transform="translate(7490 -1420)" fill="#ddd"/>
      <path id="Union_104" data-name="Union 104" d="M-6419.212,1476.61v-1.545a7.515,7.515,0,0,0,1.453.506,6.111,6.111,0,0,0,1.432.185,2.275,2.275,0,0,0,1.432-.369,1.2,1.2,0,0,0,.461-.991,1.238,1.238,0,0,0-.424-.95,6.338,6.338,0,0,0-1.75-.923,4.64,4.64,0,0,1-1.928-1.265,2.683,2.683,0,0,1-.561-1.709,2.392,2.392,0,0,1,.89-1.969,3.686,3.686,0,0,1,2.386-.719,7.023,7.023,0,0,1,2.858.63l-.521,1.332a6.237,6.237,0,0,0-2.377-.561,1.824,1.824,0,0,0-1.2.346,1.129,1.129,0,0,0-.411.912,1.289,1.289,0,0,0,.164.667,1.68,1.68,0,0,0,.54.522,9.178,9.178,0,0,0,1.354.651,7.374,7.374,0,0,1,1.614.854,2.515,2.515,0,0,1,.752.9,2.7,2.7,0,0,1,.238,1.176,2.515,2.515,0,0,1-.963,2.091,4.2,4.2,0,0,1-2.66.759A6.346,6.346,0,0,1-6419.212,1476.61Zm8.614.39v-9.993h5.653v1.381h-4.02v2.721h3.767v1.366h-3.767v3.138h4.02V1477Z" transform="translate(7546 -1420)" fill="#ddd"/>
      <path id="Union_105" data-name="Union 105" d="M-6402.262,1475.831a6.987,6.987,0,0,1-.862-3.828,7.154,7.154,0,0,1,.838-3.9,2.859,2.859,0,0,1,2.553-1.253,2.837,2.837,0,0,1,2.536,1.311,7.028,7.028,0,0,1,.862,3.842,7.106,7.106,0,0,1-.837,3.87,2.859,2.859,0,0,1-2.56,1.265A2.836,2.836,0,0,1-6402.262,1475.831Zm1.186-6.753a7.334,7.334,0,0,0-.42,2.926,7.281,7.281,0,0,0,.42,2.919,1.4,1.4,0,0,0,1.344.875,1.414,1.414,0,0,0,1.35-.889,7.176,7.176,0,0,0,.427-2.9,7.236,7.236,0,0,0-.427-2.908,1.413,1.413,0,0,0-1.35-.9A1.4,1.4,0,0,0-6401.076,1469.077Zm-10.12,7.52v-1.456a4.847,4.847,0,0,0,1.272.485,5.747,5.747,0,0,0,1.333.171,2.478,2.478,0,0,0,1.654-.485,1.767,1.767,0,0,0,.567-1.422q0-1.791-2.283-1.79a5.943,5.943,0,0,0-.793.064q-.473.065-.828.147l-.717-.424.382-4.881h5.2v1.429h-3.78l-.226,2.475c.16-.027.354-.06.583-.1a5.437,5.437,0,0,1,.844-.055,3.428,3.428,0,0,1,2.394.8,2.8,2.8,0,0,1,.881,2.181,3.183,3.183,0,0,1-1,2.5,4.116,4.116,0,0,1-2.847.9A5.392,5.392,0,0,1-6411.2,1476.6Zm-5.345.4v-6.454q0-1.155.055-1.832c-.1.109-.234.23-.385.362s-.665.551-1.535,1.258l-.807-1.018,2.94-2.312h1.34V1477Z" transform="translate(7594 -1420)" fill="#ddd"/>
      <path id="Union_106" data-name="Union 106" d="M-6402.925,1476.6v-1.456a4.873,4.873,0,0,0,1.272.485,5.744,5.744,0,0,0,1.333.171,2.479,2.479,0,0,0,1.654-.485,1.767,1.767,0,0,0,.567-1.422q0-1.791-2.283-1.79a5.943,5.943,0,0,0-.792.064c-.316.044-.589.092-.828.147l-.717-.424.382-4.881h5.2v1.429h-3.779l-.226,2.475c.16-.027.354-.06.583-.1a5.43,5.43,0,0,1,.844-.055,3.428,3.428,0,0,1,2.394.8,2.8,2.8,0,0,1,.881,2.181,3.183,3.183,0,0,1-1,2.5,4.116,4.116,0,0,1-2.847.9A5.4,5.4,0,0,1-6402.925,1476.6Zm-6.781.022a3.289,3.289,0,0,1-1.22-1.5,5.96,5.96,0,0,1-.427-2.376q0-5.865,4.778-5.864a5.93,5.93,0,0,1,1.271.116v1.339a4.358,4.358,0,0,0-1.2-.15,3.151,3.151,0,0,0-2.413.862,4.187,4.187,0,0,0-.875,2.761h.083a2.191,2.191,0,0,1,.9-.857,2.912,2.912,0,0,1,1.368-.3,2.718,2.718,0,0,1,2.119.833,3.24,3.24,0,0,1,.759,2.263,3.431,3.431,0,0,1-.878,2.484,3.166,3.166,0,0,1-2.4.913A3.345,3.345,0,0,1-6409.706,1476.62Zm.923-4.49a1.744,1.744,0,0,0-.689.607,1.422,1.422,0,0,0-.253.789,2.537,2.537,0,0,0,.522,1.624,1.635,1.635,0,0,0,1.337.661,1.573,1.573,0,0,0,1.274-.533,2.312,2.312,0,0,0,.448-1.526,2.019,2.019,0,0,0-.42-1.353,1.572,1.572,0,0,0-1.262-.491A2.082,2.082,0,0,0-6408.783,1472.13Zm-7.758,4.87v-6.454q0-1.155.055-1.832c-.1.109-.234.23-.385.362s-.665.551-1.535,1.258l-.807-1.018,2.94-2.312h1.34V1477Z" transform="translate(7646 -1420)" fill="#ddd"/>
      <path id="Union_107" data-name="Union 107" d="M-6418.652,1488.3v-2.759a13.459,13.459,0,0,0,2.595.9,11.02,11.02,0,0,0,2.557.329,4.062,4.062,0,0,0,2.557-.659,2.147,2.147,0,0,0,.825-1.77,2.219,2.219,0,0,0-.757-1.7A11.383,11.383,0,0,0-6414,1481a8.267,8.267,0,0,1-3.442-2.259,4.778,4.778,0,0,1-1-3.051,4.274,4.274,0,0,1,1.587-3.517,6.586,6.586,0,0,1,4.261-1.281,12.508,12.508,0,0,1,5.1,1.123l-.928,2.379a11.154,11.154,0,0,0-4.248-1,3.258,3.258,0,0,0-2.147.617,2.021,2.021,0,0,0-.733,1.629,2.3,2.3,0,0,0,.293,1.19,2.979,2.979,0,0,0,.963.934,16.359,16.359,0,0,0,2.418,1.16,13.193,13.193,0,0,1,2.88,1.526,4.487,4.487,0,0,1,1.344,1.6,4.8,4.8,0,0,1,.427,2.1,4.5,4.5,0,0,1-1.72,3.736,7.492,7.492,0,0,1-4.749,1.355A11.331,11.331,0,0,1-6418.652,1488.3Z" transform="translate(7703 -1432.107)" fill="#eaeaea"/>
      <rect id="Rectangle_786" data-name="Rectangle 786" width="1" height="6" transform="translate(717 34)" fill="#fff" opacity="0.4"/>
      <rect id="Rectangle_781" data-name="Rectangle 781" width="1" height="6" transform="translate(1029 34)" fill="#fff" opacity="0.4"/>
      <rect id="Rectangle_782" data-name="Rectangle 782" width="1" height="6" transform="translate(1081 34)" fill="#fff" opacity="0.4"/>
      <rect id="Rectangle_783" data-name="Rectangle 783" width="1" height="6" transform="translate(1133 34)" fill="#fff" opacity="0.4"/>
      <rect id="Rectangle_784" data-name="Rectangle 784" width="1" height="6" transform="translate(1185 34)" fill="#fff" opacity="0.4"/>
      <rect id="Rectangle_785" data-name="Rectangle 785" width="1" height="6" transform="translate(1237 34)" fill="#fff" opacity="0.4"/>
      <path id="Union_96" data-name="Union 96" d="M-6411.061,1476.6v-1.456a4.821,4.821,0,0,0,1.273.485,5.753,5.753,0,0,0,1.332.171,2.48,2.48,0,0,0,1.655-.485,1.766,1.766,0,0,0,.567-1.421q0-1.793-2.283-1.791a5.93,5.93,0,0,0-.792.064c-.314.043-.591.092-.828.147l-.717-.424.382-4.88h5.2v1.427h-3.779l-.226,2.474.584-.1a5.411,5.411,0,0,1,.844-.055,3.428,3.428,0,0,1,2.393.8,2.8,2.8,0,0,1,.881,2.18,3.187,3.187,0,0,1-1,2.5,4.125,4.125,0,0,1-2.849.9A5.393,5.393,0,0,1-6411.061,1476.6Zm-5.345.4v-6.452c0-.77.02-1.382.055-1.833q-.157.164-.387.362t-1.534,1.258l-.807-1.018,2.94-2.31h1.339V1477Z" transform="translate(7129 -1420)" fill="#ddd"/>
      <path id="Union_97" data-name="Union 97" d="M-6410.4,1475.83a6.984,6.984,0,0,1-.862-3.828,7.14,7.14,0,0,1,.837-3.9,2.861,2.861,0,0,1,2.554-1.255,2.84,2.84,0,0,1,2.536,1.313,7.027,7.027,0,0,1,.862,3.841,7.115,7.115,0,0,1-.838,3.87,2.86,2.86,0,0,1-2.56,1.265A2.835,2.835,0,0,1-6410.4,1475.83Zm1.186-6.754a7.335,7.335,0,0,0-.42,2.926,7.282,7.282,0,0,0,.42,2.919,1.4,1.4,0,0,0,1.344.875,1.414,1.414,0,0,0,1.35-.888,7.19,7.19,0,0,0,.427-2.906,7.241,7.241,0,0,0-.427-2.908,1.413,1.413,0,0,0-1.35-.9A1.4,1.4,0,0,0-6409.211,1469.077Zm-10.332,7.521v-1.429a6.431,6.431,0,0,0,1.347.485,5.819,5.819,0,0,0,1.366.171,2.89,2.89,0,0,0,1.737-.43,1.556,1.556,0,0,0,.573-1.334,1.265,1.265,0,0,0-.635-1.174,4.048,4.048,0,0,0-2-.377h-.868v-1.3h.881q2.4,0,2.392-1.655a1.219,1.219,0,0,0-.416-.991,1.881,1.881,0,0,0-1.231-.35,3.752,3.752,0,0,0-1.094.161,5.227,5.227,0,0,0-1.244.625l-.786-1.121a5.243,5.243,0,0,1,3.191-1.01,3.79,3.79,0,0,1,2.358.649,2.126,2.126,0,0,1,.848,1.79,2.319,2.319,0,0,1-.553,1.584,2.8,2.8,0,0,1-1.56.851v.055a3.015,3.015,0,0,1,1.8.748,2.146,2.146,0,0,1,.6,1.59,2.641,2.641,0,0,1-1.019,2.225,4.677,4.677,0,0,1-2.9.783A6.532,6.532,0,0,1-6419.543,1476.6Z" transform="translate(7182 -1420)" fill="#ddd"/>
      <path id="Union_98" data-name="Union 98" d="M-6406.965,1477v-9.993h5.653v1.38h-4.019v2.721h3.766v1.368h-3.766v3.138h4.019V1477Zm-4.921,0-4.916-7.964h-.055l.036.445q.094,1.271.1,2.324V1477h-1.484v-9.993h1.983l4.9,7.922h.04c-.008-.1-.027-.486-.055-1.144s-.041-1.173-.041-1.541v-5.237h1.5V1477Z" transform="translate(7232 -1420)" fill="#ddd"/>
      <path id="Union_99" data-name="Union 99" d="M-6410.4,1475.831a6.984,6.984,0,0,1-.86-3.828,7.142,7.142,0,0,1,.838-3.9,2.855,2.855,0,0,1,2.552-1.253,2.843,2.843,0,0,1,2.538,1.312,7.047,7.047,0,0,1,.86,3.842,7.106,7.106,0,0,1-.838,3.87,2.859,2.859,0,0,1-2.56,1.265A2.841,2.841,0,0,1-6410.4,1475.831Zm1.187-6.754a7.335,7.335,0,0,0-.42,2.926,7.282,7.282,0,0,0,.42,2.919,1.4,1.4,0,0,0,1.342.875,1.414,1.414,0,0,0,1.35-.889,7.174,7.174,0,0,0,.429-2.9,7.23,7.23,0,0,0-.429-2.908,1.413,1.413,0,0,0-1.35-.9A1.4,1.4,0,0,0-6409.21,1469.077Zm-8.63,7.543a3.292,3.292,0,0,1-1.221-1.5,5.987,5.987,0,0,1-.427-2.376q0-5.865,4.778-5.864a5.938,5.938,0,0,1,1.271.116v1.339a4.343,4.343,0,0,0-1.2-.15,3.148,3.148,0,0,0-2.412.862,4.177,4.177,0,0,0-.875,2.761h.081a2.2,2.2,0,0,1,.9-.859,2.918,2.918,0,0,1,1.366-.3,2.715,2.715,0,0,1,2.118.833,3.237,3.237,0,0,1,.759,2.264,3.43,3.43,0,0,1-.878,2.484,3.166,3.166,0,0,1-2.4.914A3.338,3.338,0,0,1-6417.841,1476.62Zm.921-4.49a1.755,1.755,0,0,0-.689.607,1.423,1.423,0,0,0-.253.789,2.528,2.528,0,0,0,.524,1.624,1.629,1.629,0,0,0,1.335.659,1.567,1.567,0,0,0,1.274-.533,2.3,2.3,0,0,0,.448-1.524,2.019,2.019,0,0,0-.42-1.353,1.565,1.565,0,0,0-1.26-.491A2.094,2.094,0,0,0-6416.919,1472.13Z" transform="translate(7286 -1420)" fill="#ddd"/>
      <path id="Union_100" data-name="Union 100" d="M-6411.06,1476.6v-1.456a4.788,4.788,0,0,0,1.271.485,5.757,5.757,0,0,0,1.333.171,2.48,2.48,0,0,0,1.655-.485,1.767,1.767,0,0,0,.567-1.421q0-1.791-2.283-1.792a5.943,5.943,0,0,0-.793.064c-.314.043-.589.093-.826.147l-.719-.424.383-4.88h5.194v1.429h-3.78l-.226,2.475q.24-.041.585-.1a5.613,5.613,0,0,1,.844-.055,3.428,3.428,0,0,1,2.393.8,2.8,2.8,0,0,1,.881,2.18,3.182,3.182,0,0,1-1,2.5,4.116,4.116,0,0,1-2.847.9A5.384,5.384,0,0,1-6411.06,1476.6Zm-7.323.4,3.952-8.565h-5.2v-1.416h6.912v1.121l-3.931,8.859Z" transform="translate(7338 -1420)" fill="#ddd"/>
      <rect id="Rectangle_787" data-name="Rectangle 787" width="1" height="6" transform="translate(769 34)" fill="#fff" opacity="0.4"/>
      <rect id="Rectangle_788" data-name="Rectangle 788" width="1" height="6" transform="translate(821 34)" fill="#fff" opacity="0.4"/>
      <rect id="Rectangle_789" data-name="Rectangle 789" width="1" height="6" transform="translate(873 34)" fill="#fff" opacity="0.4"/>
      <rect id="Rectangle_790" data-name="Rectangle 790" width="1" height="6" transform="translate(925 34)" fill="#fff" opacity="0.4"/>
    </g>
    <g id="Compass-3" data-name="Compass" transform="translate(4507 11)">
      <path id="Union_123" data-name="Union 123" d="M-7684.62,1489v-17.845h10.094v2.465h-7.178v4.858h6.727v2.442h-6.727v5.6h7.178V1489Z" transform="translate(8642 -1432)" fill="#eaeaea"/>
      <path id="Union_124" data-name="Union 124" d="M-7669.924,1476.6v-1.454a4.846,4.846,0,0,0,1.271.484,5.782,5.782,0,0,0,1.333.172,2.478,2.478,0,0,0,1.653-.486,1.762,1.762,0,0,0,.567-1.422q0-1.791-2.282-1.79a6.113,6.113,0,0,0-.793.064c-.314.044-.59.093-.828.147l-.717-.422.382-4.882h5.2v1.429h-3.781l-.226,2.475c.16-.027.355-.06.584-.1a5.48,5.48,0,0,1,.845-.054,3.421,3.421,0,0,1,2.392.8,2.793,2.793,0,0,1,.882,2.18,3.182,3.182,0,0,1-1,2.5,4.116,4.116,0,0,1-2.847.9A5.364,5.364,0,0,1-7669.924,1476.6Zm-7.608-.766a6.966,6.966,0,0,1-.862-3.827,7.165,7.165,0,0,1,.837-3.9,2.862,2.862,0,0,1,2.554-1.254,2.843,2.843,0,0,1,2.537,1.312,7.053,7.053,0,0,1,.86,3.843,7.117,7.117,0,0,1-.837,3.87,2.856,2.856,0,0,1-2.56,1.263A2.831,2.831,0,0,1-7677.532,1475.83Zm1.184-6.753a7.36,7.36,0,0,0-.42,2.926,7.3,7.3,0,0,0,.42,2.918,1.4,1.4,0,0,0,1.345.876,1.415,1.415,0,0,0,1.35-.889,7.21,7.21,0,0,0,.426-2.905,7.27,7.27,0,0,0-.426-2.909,1.412,1.412,0,0,0-1.35-.9A1.4,1.4,0,0,0-7676.348,1469.077Zm-7.193,7.922v-6.453q0-1.154.054-1.833a5.275,5.275,0,0,1-.386.363q-.229.2-1.535,1.258l-.807-1.019,2.94-2.311h1.341V1477Z" transform="translate(8689 -1420)" fill="#ddd"/>
      <path id="Union_125" data-name="Union 125" d="M-7669.262,1475.83a6.985,6.985,0,0,1-.86-3.827,7.165,7.165,0,0,1,.837-3.9,2.862,2.862,0,0,1,2.554-1.254,2.839,2.839,0,0,1,2.535,1.312,7.034,7.034,0,0,1,.862,3.843,7.117,7.117,0,0,1-.837,3.87,2.858,2.858,0,0,1-2.56,1.263A2.836,2.836,0,0,1-7669.262,1475.83Zm1.186-6.753a7.36,7.36,0,0,0-.42,2.926,7.3,7.3,0,0,0,.42,2.918,1.4,1.4,0,0,0,1.345.876,1.412,1.412,0,0,0,1.348-.889,7.169,7.169,0,0,0,.428-2.905,7.228,7.228,0,0,0-.428-2.909,1.41,1.41,0,0,0-1.348-.9A1.4,1.4,0,0,0-7668.076,1469.077Zm-10.3,7.922v-1.215l2.577-2.591a21.779,21.779,0,0,0,1.515-1.659,3.981,3.981,0,0,0,.544-.918,2.489,2.489,0,0,0,.169-.924,1.411,1.411,0,0,0-.4-1.067,1.566,1.566,0,0,0-1.125-.39,3,3,0,0,0-1.111.212,5.172,5.172,0,0,0-1.24.766l-.87-1.059a5.632,5.632,0,0,1,1.621-1,4.778,4.778,0,0,1,1.676-.293,3.293,3.293,0,0,1,2.233.727,2.458,2.458,0,0,1,.841,1.96,3.426,3.426,0,0,1-.243,1.285,5.135,5.135,0,0,1-.745,1.254,16.8,16.8,0,0,1-1.67,1.748l-1.736,1.68v.069h4.744V1477Zm-5.16,0v-6.453q0-1.154.054-1.833a5.275,5.275,0,0,1-.386.363q-.229.2-1.535,1.258l-.807-1.019,2.94-2.311h1.341V1477Z" transform="translate(8742 -1420)" fill="#ddd"/>
      <path id="Union_126" data-name="Union 126" d="M-7686.212,1476.611v-1.545a7.639,7.639,0,0,0,1.453.505,6.154,6.154,0,0,0,1.433.185,2.27,2.27,0,0,0,1.431-.37,1.2,1.2,0,0,0,.461-.991,1.245,1.245,0,0,0-.423-.949,6.4,6.4,0,0,0-1.751-.924,4.623,4.623,0,0,1-1.927-1.264,2.672,2.672,0,0,1-.56-1.709,2.4,2.4,0,0,1,.887-1.969,3.69,3.69,0,0,1,2.386-.718,7.016,7.016,0,0,1,2.857.629l-.519,1.333a6.269,6.269,0,0,0-2.378-.559,1.821,1.821,0,0,0-1.2.345,1.132,1.132,0,0,0-.411.912,1.3,1.3,0,0,0,.164.666,1.7,1.7,0,0,0,.54.523,9.155,9.155,0,0,0,1.354.65,7.329,7.329,0,0,1,1.612.854,2.488,2.488,0,0,1,.752.9,2.691,2.691,0,0,1,.239,1.177,2.515,2.515,0,0,1-.962,2.091,4.2,4.2,0,0,1-2.66.76A6.348,6.348,0,0,1-7686.212,1476.611Zm8.613.39v-9.994h5.654v1.379h-4.02v2.722h3.768v1.368h-3.768v3.137h4.02V1477Z" transform="translate(8798 -1420)" fill="#ddd"/>
      <path id="Union_127" data-name="Union 127" d="M-7669.262,1475.83a6.985,6.985,0,0,1-.86-3.827,7.165,7.165,0,0,1,.837-3.9,2.862,2.862,0,0,1,2.554-1.254,2.839,2.839,0,0,1,2.535,1.312,7.034,7.034,0,0,1,.862,3.843,7.117,7.117,0,0,1-.837,3.87,2.858,2.858,0,0,1-2.56,1.263A2.836,2.836,0,0,1-7669.262,1475.83Zm1.186-6.753a7.36,7.36,0,0,0-.42,2.926,7.3,7.3,0,0,0,.42,2.918,1.4,1.4,0,0,0,1.345.876,1.412,1.412,0,0,0,1.348-.889,7.169,7.169,0,0,0,.428-2.905,7.228,7.228,0,0,0-.428-2.909,1.41,1.41,0,0,0-1.348-.9A1.4,1.4,0,0,0-7668.076,1469.077Zm-10.119,7.519v-1.454a4.846,4.846,0,0,0,1.271.484,5.782,5.782,0,0,0,1.333.172,2.483,2.483,0,0,0,1.655-.486,1.768,1.768,0,0,0,.567-1.422q0-1.791-2.284-1.79a6.113,6.113,0,0,0-.793.064c-.314.044-.59.093-.828.147l-.717-.422.384-4.882h5.195v1.429h-3.781l-.226,2.475c.16-.027.355-.06.584-.1a5.48,5.48,0,0,1,.845-.054,3.421,3.421,0,0,1,2.392.8,2.793,2.793,0,0,1,.882,2.18,3.182,3.182,0,0,1-1,2.5,4.116,4.116,0,0,1-2.847.9A5.369,5.369,0,0,1-7678.2,1476.6Zm-5.345.4v-6.453q0-1.154.054-1.833a5.275,5.275,0,0,1-.386.363q-.229.2-1.535,1.258l-.807-1.019,2.94-2.311h1.341V1477Z" transform="translate(8846 -1420)" fill="#ddd"/>
      <path id="Union_128" data-name="Union 128" d="M-7669.924,1476.6v-1.454a4.846,4.846,0,0,0,1.271.484,5.782,5.782,0,0,0,1.333.172,2.478,2.478,0,0,0,1.653-.486,1.762,1.762,0,0,0,.567-1.422q0-1.791-2.282-1.79a6.113,6.113,0,0,0-.793.064c-.314.044-.59.093-.828.147l-.717-.422.382-4.882h5.2v1.429h-3.781l-.226,2.475c.16-.027.355-.06.584-.1a5.48,5.48,0,0,1,.845-.054,3.421,3.421,0,0,1,2.392.8,2.793,2.793,0,0,1,.882,2.18,3.182,3.182,0,0,1-1,2.5,4.116,4.116,0,0,1-2.847.9A5.364,5.364,0,0,1-7669.924,1476.6Zm-6.782.025a3.287,3.287,0,0,1-1.219-1.5,5.947,5.947,0,0,1-.428-2.375q0-5.865,4.778-5.866a5.975,5.975,0,0,1,1.273.116v1.341a4.348,4.348,0,0,0-1.2-.151,3.159,3.159,0,0,0-2.414.86,4.188,4.188,0,0,0-.875,2.762h.083a2.213,2.213,0,0,1,.9-.858,2.9,2.9,0,0,1,1.366-.3,2.722,2.722,0,0,1,2.12.833,3.235,3.235,0,0,1,.758,2.263,3.437,3.437,0,0,1-.878,2.484,3.166,3.166,0,0,1-2.4.912A3.351,3.351,0,0,1-7676.706,1476.621Zm.924-4.491a1.73,1.73,0,0,0-.69.608,1.429,1.429,0,0,0-.253.789,2.531,2.531,0,0,0,.523,1.624,1.63,1.63,0,0,0,1.336.66,1.573,1.573,0,0,0,1.275-.534,2.313,2.313,0,0,0,.447-1.524,2.024,2.024,0,0,0-.42-1.354,1.572,1.572,0,0,0-1.262-.492A2.072,2.072,0,0,0-7675.782,1472.13Zm-7.758,4.869v-6.453q0-1.154.054-1.833a5.275,5.275,0,0,1-.386.363q-.229.2-1.535,1.258l-.807-1.019,2.94-2.311h1.341V1477Z" transform="translate(8898 -1420)" fill="#ddd"/>
      <path id="Union_129" data-name="Union 129" d="M-7685.652,1488.3v-2.758a13.508,13.508,0,0,0,2.594.9,11,11,0,0,0,2.558.33,4.067,4.067,0,0,0,2.558-.66,2.146,2.146,0,0,0,.824-1.769,2.221,2.221,0,0,0-.756-1.7,11.383,11.383,0,0,0-3.127-1.647,8.293,8.293,0,0,1-3.441-2.259,4.777,4.777,0,0,1-1-3.052,4.27,4.27,0,0,1,1.587-3.516,6.577,6.577,0,0,1,4.259-1.283,12.5,12.5,0,0,1,5.1,1.125l-.928,2.38a11.15,11.15,0,0,0-4.249-1,3.267,3.267,0,0,0-2.149.615,2.026,2.026,0,0,0-.731,1.63,2.279,2.279,0,0,0,.293,1.19,2.946,2.946,0,0,0,.964.933,16.177,16.177,0,0,0,2.417,1.161,13.115,13.115,0,0,1,2.88,1.526,4.456,4.456,0,0,1,1.343,1.6,4.805,4.805,0,0,1,.428,2.1,4.5,4.5,0,0,1-1.721,3.736,7.5,7.5,0,0,1-4.749,1.354A11.331,11.331,0,0,1-7685.652,1488.3Z" transform="translate(8955 -1432)" fill="#eaeaea"/>
      <rect id="Rectangle_786-2" data-name="Rectangle 786" width="1" height="6" transform="translate(702 34)" fill="#fff" opacity="0.4"/>
      <rect id="Rectangle_781-2" data-name="Rectangle 781" width="1" height="6" transform="translate(1014 34)" fill="#fff" opacity="0.4"/>
      <rect id="Rectangle_782-2" data-name="Rectangle 782" width="1" height="6" transform="translate(1066 34)" fill="#fff" opacity="0.4"/>
      <rect id="Rectangle_783-2" data-name="Rectangle 783" width="1" height="6" transform="translate(1118 34)" fill="#fff" opacity="0.4"/>
      <rect id="Rectangle_784-2" data-name="Rectangle 784" width="1" height="6" transform="translate(1170 34)" fill="#fff" opacity="0.4"/>
      <rect id="Rectangle_785-2" data-name="Rectangle 785" width="1" height="6" transform="translate(1222 34)" fill="#fff" opacity="0.4"/>
      <path id="Union_118" data-name="Union 118" d="M-7678.061,1476.6v-1.456a4.794,4.794,0,0,0,1.273.486,5.77,5.77,0,0,0,1.333.17,2.485,2.485,0,0,0,1.653-.484,1.771,1.771,0,0,0,.567-1.424q0-1.791-2.282-1.79a5.807,5.807,0,0,0-.792.066c-.314.042-.59.091-.828.147l-.718-.424.382-4.88h5.194v1.427h-3.779l-.226,2.475c.158-.027.353-.058.584-.094a5.441,5.441,0,0,1,.843-.056,3.437,3.437,0,0,1,2.394.8,2.792,2.792,0,0,1,.881,2.18,3.189,3.189,0,0,1-1,2.5,4.129,4.129,0,0,1-2.847.9A5.4,5.4,0,0,1-7678.061,1476.6Zm-5.345.4v-6.452c0-.772.019-1.381.054-1.833-.1.108-.233.229-.386.363s-.664.55-1.533,1.258l-.809-1.019,2.94-2.311h1.341V1477Z" transform="translate(8381 -1420)" fill="#ddd"/>
      <path id="Union_119" data-name="Union 119" d="M-7677.4,1475.832a6.983,6.983,0,0,1-.862-3.829,7.129,7.129,0,0,1,.839-3.9,2.855,2.855,0,0,1,2.552-1.256,2.841,2.841,0,0,1,2.537,1.314,7.041,7.041,0,0,1,.86,3.841,7.1,7.1,0,0,1-.837,3.87,2.857,2.857,0,0,1-2.56,1.264A2.839,2.839,0,0,1-7677.4,1475.832Zm1.187-6.756a7.317,7.317,0,0,0-.42,2.926,7.247,7.247,0,0,0,.42,2.919,1.4,1.4,0,0,0,1.343.876,1.415,1.415,0,0,0,1.35-.889,7.177,7.177,0,0,0,.426-2.905,7.241,7.241,0,0,0-.426-2.909,1.416,1.416,0,0,0-1.35-.9A1.4,1.4,0,0,0-7676.21,1469.076Zm-10.332,7.52v-1.427a6.312,6.312,0,0,0,1.346.484,5.748,5.748,0,0,0,1.366.172,2.877,2.877,0,0,0,1.736-.43,1.556,1.556,0,0,0,.575-1.333,1.271,1.271,0,0,0-.634-1.177,4.065,4.065,0,0,0-2-.376h-.868v-1.3h.881q2.394,0,2.392-1.655a1.222,1.222,0,0,0-.417-.992,1.885,1.885,0,0,0-1.231-.349,3.7,3.7,0,0,0-1.094.162,5.105,5.105,0,0,0-1.244.625l-.785-1.121a5.235,5.235,0,0,1,3.192-1.013,3.8,3.8,0,0,1,2.357.65,2.13,2.13,0,0,1,.849,1.79,2.323,2.323,0,0,1-.554,1.584,2.805,2.805,0,0,1-1.559.851v.054a3.025,3.025,0,0,1,1.8.749,2.143,2.143,0,0,1,.6,1.589,2.643,2.643,0,0,1-1.019,2.226,4.681,4.681,0,0,1-2.9.781A6.5,6.5,0,0,1-7686.542,1476.6Z" transform="translate(8434 -1420)" fill="#ddd"/>
      <path id="Union_120" data-name="Union 120" d="M-7673.965,1477v-9.995h5.653v1.381h-4.02v2.719h3.767v1.367h-3.767v3.138h4.02V1477Zm-4.922,0-4.914-7.966h-.054l.033.445c.066.847.1,1.622.1,2.324v5.2h-1.483v-9.995h1.983l4.9,7.923h.041c-.008-.106-.027-.488-.054-1.146s-.041-1.173-.041-1.541v-5.236h1.5V1477Z" transform="translate(8484 -1420)" fill="#ddd"/>
      <path id="Union_121" data-name="Union 121" d="M-7677.4,1475.831a6.994,6.994,0,0,1-.86-3.827,7.139,7.139,0,0,1,.837-3.9,2.855,2.855,0,0,1,2.554-1.254,2.84,2.84,0,0,1,2.535,1.312,7.035,7.035,0,0,1,.862,3.843,7.11,7.11,0,0,1-.837,3.868,2.86,2.86,0,0,1-2.56,1.266A2.842,2.842,0,0,1-7677.4,1475.831Zm1.187-6.754a7.345,7.345,0,0,0-.42,2.926,7.3,7.3,0,0,0,.42,2.919,1.4,1.4,0,0,0,1.345.874,1.41,1.41,0,0,0,1.348-.887,7.17,7.17,0,0,0,.428-2.905,7.223,7.223,0,0,0-.428-2.909,1.41,1.41,0,0,0-1.348-.9A1.4,1.4,0,0,0-7676.211,1469.077Zm-8.63,7.543a3.3,3.3,0,0,1-1.219-1.5,5.957,5.957,0,0,1-.428-2.377q0-5.865,4.778-5.864a5.938,5.938,0,0,1,1.271.116v1.341a4.324,4.324,0,0,0-1.2-.151,3.157,3.157,0,0,0-2.413.86,4.185,4.185,0,0,0-.876,2.762h.083a2.2,2.2,0,0,1,.9-.858,2.909,2.909,0,0,1,1.366-.3,2.721,2.721,0,0,1,2.12.835,3.236,3.236,0,0,1,.758,2.263,3.431,3.431,0,0,1-.877,2.485,3.175,3.175,0,0,1-2.4.912A3.337,3.337,0,0,1-7684.842,1476.62Zm.924-4.491a1.752,1.752,0,0,0-.69.61,1.408,1.408,0,0,0-.253.789,2.532,2.532,0,0,0,.523,1.624,1.632,1.632,0,0,0,1.337.658,1.566,1.566,0,0,0,1.273-.532,2.3,2.3,0,0,0,.45-1.524,2.021,2.021,0,0,0-.421-1.354,1.571,1.571,0,0,0-1.261-.492A2.074,2.074,0,0,0-7683.918,1472.129Z" transform="translate(8538 -1420)" fill="#ddd"/>
      <path id="Union_122" data-name="Union 122" d="M-7678.061,1476.6v-1.455a4.871,4.871,0,0,0,1.273.484,5.784,5.784,0,0,0,1.333.172,2.477,2.477,0,0,0,1.653-.486,1.768,1.768,0,0,0,.567-1.422q0-1.791-2.282-1.79a6.112,6.112,0,0,0-.792.064c-.314.044-.59.093-.828.149l-.718-.424.382-4.881h5.2v1.427h-3.779l-.226,2.475c.158-.027.353-.06.584-.1a5.747,5.747,0,0,1,.843-.054,3.426,3.426,0,0,1,2.394.8,2.8,2.8,0,0,1,.882,2.18,3.182,3.182,0,0,1-1,2.5,4.12,4.12,0,0,1-2.848.9A5.381,5.381,0,0,1-7678.061,1476.6Zm-7.321.4,3.951-8.565h-5.195v-1.414h6.912v1.121l-3.932,8.858Z" transform="translate(8590 -1420)" fill="#ddd"/>
      <rect id="Rectangle_787-2" data-name="Rectangle 787" width="1" height="6" transform="translate(754 34)" fill="#fff" opacity="0.4"/>
      <rect id="Rectangle_788-2" data-name="Rectangle 788" width="1" height="6" transform="translate(806 34)" fill="#fff" opacity="0.4"/>
      <rect id="Rectangle_789-2" data-name="Rectangle 789" width="1" height="6" transform="translate(858 34)" fill="#fff" opacity="0.4"/>
      <rect id="Rectangle_790-2" data-name="Rectangle 790" width="1" height="6" transform="translate(910 34)" fill="#fff" opacity="0.4"/>
    </g>
    <g id="Compass-4" data-name="Compass" transform="translate(3866 11)">
      <path id="Union_113" data-name="Union 113" d="M-7040.173,1489l-3.026-10.646q-.2-.7-.489-2.008t-.354-1.824q-.122.781-.4,2.026t-.458,1.856l-2.954,10.6h-3.173l-2.308-8.935-2.344-8.912h2.979l2.551,10.4a44.76,44.76,0,0,1,.854,4.418q.135-1.038.4-2.32t.489-2.075l2.906-10.424h2.892l2.979,10.474a39.006,39.006,0,0,1,.9,4.345,31.942,31.942,0,0,1,.88-4.443l2.539-10.377h2.954L-7037,1489Z" transform="translate(8024 -1432)" fill="#eaeaea"/>
      <path id="Union_114" data-name="Union 114" d="M-7038.926,1476.6v-1.456a4.845,4.845,0,0,0,1.271.485,5.831,5.831,0,0,0,1.333.17,2.48,2.48,0,0,0,1.656-.485,1.769,1.769,0,0,0,.566-1.422q0-1.79-2.282-1.79a5.821,5.821,0,0,0-.793.066c-.315.042-.59.092-.827.147l-.719-.425.382-4.88h5.2v1.429h-3.778l-.227,2.474.584-.1a5.433,5.433,0,0,1,.845-.055,3.427,3.427,0,0,1,2.392.8,2.794,2.794,0,0,1,.882,2.18,3.18,3.18,0,0,1-1,2.5,4.115,4.115,0,0,1-2.847.9A5.4,5.4,0,0,1-7038.926,1476.6Zm-7.573-.158a2.355,2.355,0,0,1-.894-1.974,2.555,2.555,0,0,1,.467-1.5,3.921,3.921,0,0,1,1.535-1.186,3.87,3.87,0,0,1-1.307-1.154,2.487,2.487,0,0,1-.39-1.367,2.062,2.062,0,0,1,.855-1.734,3.6,3.6,0,0,1,2.228-.646,3.529,3.529,0,0,1,2.249.653,2.11,2.11,0,0,1,.829,1.746,2.75,2.75,0,0,1-1.847,2.449,4.75,4.75,0,0,1,1.671,1.236,2.329,2.329,0,0,1,.5,1.45,2.434,2.434,0,0,1-.908,1.981,3.767,3.767,0,0,1-2.461.745A4.021,4.021,0,0,1-7046.5,1476.439Zm1.04-3.12a1.655,1.655,0,0,0-.4,1.091,1.324,1.324,0,0,0,.5,1.1,2.132,2.132,0,0,0,1.353.393,2.076,2.076,0,0,0,1.371-.407,1.361,1.361,0,0,0,.489-1.1,1.415,1.415,0,0,0-.45-1.011,4.265,4.265,0,0,0-1.367-.848l-.2-.089A3.5,3.5,0,0,0-7045.459,1473.319Zm.342-4.868a1.122,1.122,0,0,0-.417.919,1.323,1.323,0,0,0,.151.637,1.65,1.65,0,0,0,.437.508,5.293,5.293,0,0,0,.971.551,3.211,3.211,0,0,0,1.158-.763,1.39,1.39,0,0,0,.338-.933,1.121,1.121,0,0,0-.419-.919,1.735,1.735,0,0,0-1.118-.338A1.7,1.7,0,0,0-7045.118,1468.451Zm-10.534,8.549v-1.217l2.578-2.591q1.14-1.171,1.514-1.659a4.037,4.037,0,0,0,.543-.919,2.49,2.49,0,0,0,.17-.922,1.405,1.405,0,0,0-.405-1.066,1.56,1.56,0,0,0-1.125-.39,3.028,3.028,0,0,0-1.112.211,5.2,5.2,0,0,0-1.241.767l-.868-1.061a5.576,5.576,0,0,1,1.62-1,4.728,4.728,0,0,1,1.675-.294,3.293,3.293,0,0,1,2.235.728,2.458,2.458,0,0,1,.841,1.958,3.45,3.45,0,0,1-.243,1.286,5.146,5.146,0,0,1-.745,1.254,16.8,16.8,0,0,1-1.672,1.746l-1.735,1.682v.069h4.744V1477Z" transform="translate(8075 -1420)" fill="#ddd"/>
      <path id="Union_115" data-name="Union 115" d="M-7038.262,1475.83a6.981,6.981,0,0,1-.861-3.827,7.153,7.153,0,0,1,.838-3.9,2.859,2.859,0,0,1,2.553-1.254,2.84,2.84,0,0,1,2.536,1.312,7.037,7.037,0,0,1,.86,3.842,7.123,7.123,0,0,1-.835,3.869,2.862,2.862,0,0,1-2.561,1.264A2.839,2.839,0,0,1-7038.262,1475.83Zm1.186-6.754a7.352,7.352,0,0,0-.419,2.927,7.29,7.29,0,0,0,.419,2.918,1.4,1.4,0,0,0,1.344.875,1.412,1.412,0,0,0,1.349-.889,7.176,7.176,0,0,0,.427-2.9,7.241,7.241,0,0,0-.427-2.909,1.412,1.412,0,0,0-1.349-.9A1.4,1.4,0,0,0-7037.076,1469.077Zm-9.458,6.754a6.982,6.982,0,0,1-.86-3.827,7.158,7.158,0,0,1,.837-3.9,2.86,2.86,0,0,1,2.554-1.254,2.84,2.84,0,0,1,2.536,1.312,7.037,7.037,0,0,1,.86,3.842,7.118,7.118,0,0,1-.836,3.869,2.861,2.861,0,0,1-2.56,1.264A2.841,2.841,0,0,1-7046.534,1475.83Zm1.187-6.754a7.352,7.352,0,0,0-.419,2.927,7.29,7.29,0,0,0,.419,2.918,1.4,1.4,0,0,0,1.344.875,1.411,1.411,0,0,0,1.349-.889,7.17,7.17,0,0,0,.429-2.9,7.234,7.234,0,0,0-.429-2.909,1.41,1.41,0,0,0-1.349-.9A1.4,1.4,0,0,0-7045.347,1469.077Zm-10.332,7.52v-1.429a6.418,6.418,0,0,0,1.347.485,5.872,5.872,0,0,0,1.367.172,2.893,2.893,0,0,0,1.737-.432,1.558,1.558,0,0,0,.574-1.332,1.268,1.268,0,0,0-.636-1.176,4.054,4.054,0,0,0-2-.377h-.87V1471.2h.882q2.393,0,2.392-1.654a1.22,1.22,0,0,0-.416-.992,1.882,1.882,0,0,0-1.23-.349,3.694,3.694,0,0,0-1.094.161,5.138,5.138,0,0,0-1.243.625l-.786-1.121a5.237,5.237,0,0,1,3.192-1.013,3.812,3.812,0,0,1,2.359.65,2.134,2.134,0,0,1,.846,1.792,2.318,2.318,0,0,1-.552,1.581,2.788,2.788,0,0,1-1.56.852v.055a3.009,3.009,0,0,1,1.806.749,2.143,2.143,0,0,1,.6,1.588,2.645,2.645,0,0,1-1.018,2.226,4.684,4.684,0,0,1-2.9.783A6.538,6.538,0,0,1-7055.679,1476.6Z" transform="translate(8128 -1420)" fill="#ddd"/>
      <path id="Union_116" data-name="Union 116" d="M-7036.234,1477l-1.695-5.962c-.074-.26-.165-.634-.274-1.124s-.175-.83-.2-1.022c-.046.29-.119.669-.221,1.135s-.187.811-.257,1.039l-1.654,5.933h-1.777l-1.292-5-1.312-4.991h1.668l1.429,5.825a25.139,25.139,0,0,1,.478,2.473c.049-.386.125-.82.225-1.3s.193-.866.274-1.163l1.627-5.838h1.62l1.668,5.866a22.288,22.288,0,0,1,.506,2.433,17.565,17.565,0,0,1,.492-2.488l1.421-5.811h1.654l-2.6,9.995Zm-12.366,0-4.915-7.964h-.055l.034.444q.1,1.272.1,2.325V1477h-1.483v-9.995h1.983l4.9,7.923h.042c-.009-.1-.028-.487-.055-1.146s-.042-1.172-.042-1.54v-5.237h1.5V1477Z" transform="translate(8180 -1420)" fill="#ddd"/>
      <path id="Union_117" data-name="Union 117" d="M-7038.262,1475.83a6.981,6.981,0,0,1-.861-3.827,7.153,7.153,0,0,1,.838-3.9,2.859,2.859,0,0,1,2.553-1.254,2.84,2.84,0,0,1,2.536,1.312,7.037,7.037,0,0,1,.86,3.842,7.123,7.123,0,0,1-.835,3.869,2.862,2.862,0,0,1-2.561,1.264A2.839,2.839,0,0,1-7038.262,1475.83Zm1.186-6.754a7.352,7.352,0,0,0-.419,2.927,7.29,7.29,0,0,0,.419,2.918,1.4,1.4,0,0,0,1.344.875,1.412,1.412,0,0,0,1.349-.889,7.176,7.176,0,0,0,.427-2.9,7.241,7.241,0,0,0-.427-2.909,1.412,1.412,0,0,0-1.349-.9A1.4,1.4,0,0,0-7037.076,1469.077Zm-10.332,7.52v-1.429a6.423,6.423,0,0,0,1.348.485,5.881,5.881,0,0,0,1.367.172,2.878,2.878,0,0,0,1.735-.432,1.554,1.554,0,0,0,.576-1.332,1.267,1.267,0,0,0-.636-1.176,4.055,4.055,0,0,0-2-.377h-.868V1471.2h.882q2.394,0,2.393-1.654a1.219,1.219,0,0,0-.417-.992,1.881,1.881,0,0,0-1.23-.349,3.7,3.7,0,0,0-1.094.161,5.138,5.138,0,0,0-1.243.625l-.786-1.121a5.237,5.237,0,0,1,3.192-1.013,3.8,3.8,0,0,1,2.357.65,2.129,2.129,0,0,1,.848,1.792,2.31,2.31,0,0,1-.554,1.581,2.776,2.776,0,0,1-1.558.852v.055a3,3,0,0,1,1.8.749,2.134,2.134,0,0,1,.6,1.588,2.64,2.64,0,0,1-1.018,2.226,4.682,4.682,0,0,1-2.9.783A6.539,6.539,0,0,1-7047.408,1476.6Zm-8.271,0v-1.429a6.418,6.418,0,0,0,1.347.485,5.872,5.872,0,0,0,1.367.172,2.893,2.893,0,0,0,1.737-.432,1.558,1.558,0,0,0,.574-1.332,1.268,1.268,0,0,0-.636-1.176,4.054,4.054,0,0,0-2-.377h-.87V1471.2h.882q2.393,0,2.392-1.654a1.22,1.22,0,0,0-.416-.992,1.882,1.882,0,0,0-1.23-.349,3.694,3.694,0,0,0-1.094.161,5.138,5.138,0,0,0-1.243.625l-.786-1.121a5.237,5.237,0,0,1,3.192-1.013,3.812,3.812,0,0,1,2.359.65,2.134,2.134,0,0,1,.846,1.792,2.318,2.318,0,0,1-.552,1.581,2.788,2.788,0,0,1-1.56.852v.055a3.009,3.009,0,0,1,1.806.749,2.143,2.143,0,0,1,.6,1.588,2.645,2.645,0,0,1-1.018,2.226,4.684,4.684,0,0,1-2.9.783A6.538,6.538,0,0,1-7055.679,1476.6Z" transform="translate(8232 -1420)" fill="#ddd"/>
      <path id="Union_82" data-name="Union 82" d="M-7038.925,1476.6v-1.456a4.89,4.89,0,0,0,1.271.485,5.808,5.808,0,0,0,1.333.17,2.475,2.475,0,0,0,1.654-.485,1.765,1.765,0,0,0,.567-1.422q0-1.79-2.283-1.79a6.113,6.113,0,0,0-.793.064c-.313.044-.589.092-.827.147l-.717-.423.382-4.88h5.2v1.427h-3.78l-.225,2.475q.24-.042.584-.1a5.409,5.409,0,0,1,.843-.055,3.431,3.431,0,0,1,2.394.8,2.794,2.794,0,0,1,.882,2.18,3.185,3.185,0,0,1-1,2.5,4.115,4.115,0,0,1-2.848.9A5.387,5.387,0,0,1-7038.925,1476.6Zm-16.754,0v-1.429a6.418,6.418,0,0,0,1.347.485,5.872,5.872,0,0,0,1.367.172,2.893,2.893,0,0,0,1.737-.432,1.558,1.558,0,0,0,.574-1.332,1.268,1.268,0,0,0-.636-1.176,4.054,4.054,0,0,0-2-.377h-.87V1471.2h.882q2.393,0,2.392-1.654a1.22,1.22,0,0,0-.416-.992,1.882,1.882,0,0,0-1.23-.349,3.694,3.694,0,0,0-1.094.161,5.138,5.138,0,0,0-1.243.625l-.786-1.121a5.237,5.237,0,0,1,3.192-1.013,3.812,3.812,0,0,1,2.359.65,2.134,2.134,0,0,1,.846,1.792,2.318,2.318,0,0,1-.552,1.581,2.788,2.788,0,0,1-1.56.852v.055a3.009,3.009,0,0,1,1.806.749,2.143,2.143,0,0,1,.6,1.588,2.645,2.645,0,0,1-1.018,2.226,4.684,4.684,0,0,1-2.9.783A6.538,6.538,0,0,1-7055.679,1476.6Zm12.517.4v-2.182h-4.567v-1.238l4.567-6.6h1.565v6.507h1.346v1.333h-1.346V1477Zm-.588-7.124-2.482,3.609h3.07v-2.509q0-1.339.067-2.194h-.055A7.818,7.818,0,0,1-7043.75,1469.877Z" transform="translate(8284 -1420)" fill="#ddd"/>
      <path id="Union_81" data-name="Union 81" d="M-7042.143,1489l-8.776-14.222h-.1l.06.795q.17,2.27.172,4.149V1489h-2.65v-17.847h3.541l8.752,14.149h.074c-.016-.188-.05-.869-.1-2.045s-.075-2.094-.075-2.754v-9.35h2.673V1489Z" transform="translate(8338 -1431.863)" fill="#eaeaea"/>
      <rect id="Rectangle_786-3" data-name="Rectangle 786" width="1" height="6" transform="translate(719 34)" fill="#fff" opacity="0.4"/>
      <rect id="Rectangle_781-3" data-name="Rectangle 781" width="1" height="6" transform="translate(1031 34)" fill="#fff" opacity="0.4"/>
      <rect id="Rectangle_782-3" data-name="Rectangle 782" width="1" height="6" transform="translate(1083 34)" fill="#fff" opacity="0.4"/>
      <rect id="Rectangle_783-3" data-name="Rectangle 783" width="1" height="6" transform="translate(1135 34)" fill="#fff" opacity="0.4"/>
      <rect id="Rectangle_784-3" data-name="Rectangle 784" width="1" height="6" transform="translate(1187 34)" fill="#fff" opacity="0.4"/>
      <rect id="Rectangle_785-3" data-name="Rectangle 785" width="1" height="6" transform="translate(1239 34)" fill="#fff" opacity="0.4"/>
      <path id="Union_108" data-name="Union 108" d="M-7038.924,1476.6v-1.457a4.816,4.816,0,0,0,1.271.487,5.8,5.8,0,0,0,1.333.17,2.476,2.476,0,0,0,1.654-.485,1.766,1.766,0,0,0,.568-1.422q0-1.79-2.284-1.792a6.158,6.158,0,0,0-.793.066c-.313.044-.589.092-.827.147l-.717-.423.383-4.882h5.195v1.429h-3.78l-.225,2.475q.24-.042.584-.1a5.414,5.414,0,0,1,.845-.055,3.43,3.43,0,0,1,2.392.8,2.8,2.8,0,0,1,.882,2.181,3.186,3.186,0,0,1-1,2.5,4.115,4.115,0,0,1-2.847.9A5.384,5.384,0,0,1-7038.924,1476.6Zm-7.773.43v-1.347a4.483,4.483,0,0,0,1.226.172,3.131,3.131,0,0,0,2.426-.875,4.249,4.249,0,0,0,.875-2.748h-.082a2.431,2.431,0,0,1-.974.889,3.066,3.066,0,0,1-1.337.273,2.7,2.7,0,0,1-2.086-.827,3.236,3.236,0,0,1-.758-2.27,3.472,3.472,0,0,1,.878-2.491,3.144,3.144,0,0,1,2.4-.926,3.319,3.319,0,0,1,1.859.519,3.336,3.336,0,0,1,1.223,1.509,5.857,5.857,0,0,1,.432,2.367,6.867,6.867,0,0,1-1.19,4.409,4.349,4.349,0,0,1-3.582,1.457A5.5,5.5,0,0,1-7046.7,1477.027Zm1.314-8.274a2.341,2.341,0,0,0-.444,1.526,2.023,2.023,0,0,0,.413,1.344,1.553,1.553,0,0,0,1.255.489,2,2,0,0,0,1.367-.485,1.471,1.471,0,0,0,.554-1.135,2.765,2.765,0,0,0-.237-1.139,2.011,2.011,0,0,0-.659-.837,1.618,1.618,0,0,0-.97-.306A1.555,1.555,0,0,0-7045.384,1468.753Zm-7.157,8.248v-6.454q0-1.155.055-1.833c-.106.11-.233.23-.386.363s-.666.551-1.535,1.257l-.808-1.018,2.939-2.311h1.34v10Z" transform="translate(7763 -1420)" fill="#ddd"/>
      <path id="Union_109" data-name="Union 109" d="M-7038.262,1475.832a6.991,6.991,0,0,1-.862-3.828,7.157,7.157,0,0,1,.838-3.9,2.861,2.861,0,0,1,2.553-1.254,2.843,2.843,0,0,1,2.538,1.312,7.042,7.042,0,0,1,.86,3.843,7.1,7.1,0,0,1-.837,3.869,2.858,2.858,0,0,1-2.561,1.264A2.838,2.838,0,0,1-7038.262,1475.832Zm1.187-6.755a7.31,7.31,0,0,0-.421,2.927,7.249,7.249,0,0,0,.421,2.918,1.4,1.4,0,0,0,1.342.875,1.414,1.414,0,0,0,1.351-.887,7.191,7.191,0,0,0,.427-2.906,7.246,7.246,0,0,0-.427-2.909,1.415,1.415,0,0,0-1.351-.9A1.4,1.4,0,0,0-7037.075,1469.076Zm-7.194,7.924v-6.454q0-1.153.055-1.831c-.106.11-.234.23-.386.361s-.664.552-1.536,1.259l-.807-1.018,2.939-2.311h1.34V1477Zm-11.382,0v-1.217l2.578-2.591q1.14-1.171,1.514-1.659a4.037,4.037,0,0,0,.543-.919,2.49,2.49,0,0,0,.17-.922,1.405,1.405,0,0,0-.405-1.066,1.56,1.56,0,0,0-1.125-.39,3.028,3.028,0,0,0-1.112.211,5.2,5.2,0,0,0-1.241.767l-.868-1.061a5.576,5.576,0,0,1,1.62-1,4.728,4.728,0,0,1,1.675-.294,3.293,3.293,0,0,1,2.235.728,2.458,2.458,0,0,1,.841,1.958,3.45,3.45,0,0,1-.243,1.286,5.146,5.146,0,0,1-.745,1.254,16.8,16.8,0,0,1-1.672,1.746l-1.735,1.682v.069h4.744V1477Z" transform="translate(7816 -1420)" fill="#ddd"/>
      <path id="Union_110" data-name="Union 110" d="M-7054.926,1476.611v-1.546a7.629,7.629,0,0,0,1.454.506,6.193,6.193,0,0,0,1.431.184,2.275,2.275,0,0,0,1.433-.37,1.2,1.2,0,0,0,.462-.99,1.248,1.248,0,0,0-.423-.951,6.4,6.4,0,0,0-1.751-.922,4.656,4.656,0,0,1-1.928-1.266,2.669,2.669,0,0,1-.56-1.709,2.393,2.393,0,0,1,.889-1.969,3.687,3.687,0,0,1,2.385-.717,7,7,0,0,1,2.858.629l-.519,1.333a6.248,6.248,0,0,0-2.379-.561,1.832,1.832,0,0,0-1.2.345,1.137,1.137,0,0,0-.409.914,1.293,1.293,0,0,0,.163.666,1.693,1.693,0,0,0,.542.524,9.068,9.068,0,0,0,1.353.648,7.492,7.492,0,0,1,1.613.855,2.516,2.516,0,0,1,.752.9,2.7,2.7,0,0,1,.239,1.176,2.511,2.511,0,0,1-.963,2.091,4.2,4.2,0,0,1-2.66.76A6.359,6.359,0,0,1-7054.926,1476.611Zm16.057.39-1.694-5.961c-.072-.26-.165-.636-.274-1.124s-.175-.83-.2-1.022q-.07.435-.223,1.135c-.1.464-.188.811-.257,1.038l-1.654,5.935h-1.777l-1.292-5.005-1.312-4.989h1.667l1.429,5.823q.335,1.4.478,2.475.074-.582.227-1.3c.1-.48.191-.866.272-1.163l1.627-5.838h1.62l1.667,5.866a22.042,22.042,0,0,1,.506,2.433,17.574,17.574,0,0,1,.493-2.488l1.421-5.811h1.654l-2.6,9.995Z" transform="translate(7869 -1420)" fill="#ddd"/>
      <path id="Union_111" data-name="Union 111" d="M-7038.262,1475.832a6.991,6.991,0,0,1-.862-3.828,7.157,7.157,0,0,1,.838-3.9,2.861,2.861,0,0,1,2.553-1.254,2.843,2.843,0,0,1,2.538,1.312,7.042,7.042,0,0,1,.86,3.843,7.1,7.1,0,0,1-.837,3.869,2.858,2.858,0,0,1-2.561,1.264A2.838,2.838,0,0,1-7038.262,1475.832Zm1.187-6.755a7.31,7.31,0,0,0-.421,2.927,7.249,7.249,0,0,0,.421,2.918,1.4,1.4,0,0,0,1.342.875,1.414,1.414,0,0,0,1.351-.887,7.191,7.191,0,0,0,.427-2.906,7.246,7.246,0,0,0-.427-2.909,1.415,1.415,0,0,0-1.351-.9A1.4,1.4,0,0,0-7037.075,1469.076Zm-6.088,7.924v-2.182h-4.566v-1.236l4.566-6.6h1.565v6.509h1.348v1.332h-1.348V1477Zm-.588-7.124-2.48,3.61h3.068v-2.509q0-1.341.069-2.2h-.055A7.649,7.649,0,0,1-7043.751,1469.877Zm-11.9,7.124v-1.217l2.578-2.591q1.14-1.171,1.514-1.659a4.037,4.037,0,0,0,.543-.919,2.49,2.49,0,0,0,.17-.922,1.405,1.405,0,0,0-.405-1.066,1.56,1.56,0,0,0-1.125-.39,3.028,3.028,0,0,0-1.112.211,5.2,5.2,0,0,0-1.241.767l-.868-1.061a5.576,5.576,0,0,1,1.62-1,4.728,4.728,0,0,1,1.675-.294,3.293,3.293,0,0,1,2.235.728,2.458,2.458,0,0,1,.841,1.958,3.45,3.45,0,0,1-.243,1.286,5.146,5.146,0,0,1-.745,1.254,16.8,16.8,0,0,1-1.672,1.746l-1.735,1.682v.069h4.744V1477Z" transform="translate(7920 -1420)" fill="#ddd"/>
      <path id="Union_112" data-name="Union 112" d="M-7038.926,1476.6v-1.456a4.845,4.845,0,0,0,1.271.485,5.831,5.831,0,0,0,1.333.17,2.48,2.48,0,0,0,1.656-.485,1.769,1.769,0,0,0,.566-1.422q0-1.79-2.282-1.79a5.821,5.821,0,0,0-.793.066c-.315.042-.59.092-.827.147l-.719-.425.382-4.88h5.2v1.429h-3.778l-.227,2.474.584-.1a5.433,5.433,0,0,1,.845-.055,3.427,3.427,0,0,1,2.392.8,2.794,2.794,0,0,1,.882,2.18,3.18,3.18,0,0,1-1,2.5,4.115,4.115,0,0,1-2.847.9A5.4,5.4,0,0,1-7038.926,1476.6Zm-8.271,0v-1.456a4.833,4.833,0,0,0,1.273.485,5.8,5.8,0,0,0,1.332.17,2.478,2.478,0,0,0,1.655-.485,1.767,1.767,0,0,0,.567-1.422q0-1.79-2.283-1.79a5.821,5.821,0,0,0-.793.066c-.315.042-.591.092-.827.147l-.719-.425.384-4.88h5.193v1.429h-3.779l-.227,2.474.584-.1a5.429,5.429,0,0,1,.845-.055,3.427,3.427,0,0,1,2.392.8,2.794,2.794,0,0,1,.882,2.18,3.182,3.182,0,0,1-1,2.5,4.115,4.115,0,0,1-2.847.9A5.393,5.393,0,0,1-7047.2,1476.6Zm-8.455.4v-1.217l2.578-2.591q1.14-1.171,1.514-1.659a4.037,4.037,0,0,0,.543-.919,2.49,2.49,0,0,0,.17-.922,1.405,1.405,0,0,0-.405-1.066,1.56,1.56,0,0,0-1.125-.39,3.028,3.028,0,0,0-1.112.211,5.2,5.2,0,0,0-1.241.767l-.868-1.061a5.576,5.576,0,0,1,1.62-1,4.728,4.728,0,0,1,1.675-.294,3.293,3.293,0,0,1,2.235.728,2.458,2.458,0,0,1,.841,1.958,3.45,3.45,0,0,1-.243,1.286,5.146,5.146,0,0,1-.745,1.254,16.8,16.8,0,0,1-1.672,1.746l-1.735,1.682v.069h4.744V1477Z" transform="translate(7972 -1420)" fill="#ddd"/>
      <rect id="Rectangle_787-3" data-name="Rectangle 787" width="1" height="6" transform="translate(771 34)" fill="#fff" opacity="0.4"/>
      <rect id="Rectangle_788-3" data-name="Rectangle 788" width="1" height="6" transform="translate(823 34)" fill="#fff" opacity="0.4"/>
      <rect id="Rectangle_789-3" data-name="Rectangle 789" width="1" height="6" transform="translate(875 34)" fill="#fff" opacity="0.4"/>
      <rect id="Rectangle_790-3" data-name="Rectangle 790" width="1" height="6" transform="translate(927 34)" fill="#fff" opacity="0.4"/>
    </g>
    <g id="Compass-5" data-name="Compass" transform="translate(5108 11)">
      <path id="Union_135" data-name="Union 135" d="M-8299.174,1489l-3.025-10.644q-.2-.695-.488-2.007c-.2-.876-.315-1.484-.355-1.826q-.122.782-.4,2.026t-.459,1.855l-2.952,10.6h-3.174l-2.309-8.935-2.343-8.912h2.978l2.552,10.4a44.974,44.974,0,0,1,.854,4.418q.135-1.036.405-2.318t.488-2.076l2.9-10.425h2.893l2.979,10.475a39.387,39.387,0,0,1,.9,4.344,31.748,31.748,0,0,1,.881-4.443l2.537-10.377h2.955L-8296,1489Z" transform="translate(9289 -1431.863)" fill="#eaeaea"/>
      <path id="Union_136" data-name="Union 136" d="M-8297.925,1476.6v-1.457a4.807,4.807,0,0,0,1.272.486,5.834,5.834,0,0,0,1.331.171,2.48,2.48,0,0,0,1.655-.486,1.761,1.761,0,0,0,.567-1.421q0-1.79-2.283-1.792a5.941,5.941,0,0,0-.793.067c-.314.042-.59.092-.828.146l-.718-.424.384-4.881h5.2v1.429h-3.781l-.226,2.473c.161-.027.354-.058.584-.094a5.35,5.35,0,0,1,.846-.056,3.421,3.421,0,0,1,2.392.8,2.8,2.8,0,0,1,.882,2.181,3.182,3.182,0,0,1-1,2.5,4.124,4.124,0,0,1-2.849.9A5.371,5.371,0,0,1-8297.925,1476.6Zm-7.573-.156a2.358,2.358,0,0,1-.9-1.976,2.544,2.544,0,0,1,.47-1.5,3.935,3.935,0,0,1,1.536-1.187,3.866,3.866,0,0,1-1.309-1.154,2.491,2.491,0,0,1-.388-1.367,2.061,2.061,0,0,1,.854-1.734,3.606,3.606,0,0,1,2.229-.645,3.539,3.539,0,0,1,2.249.651,2.115,2.115,0,0,1,.826,1.747,2.746,2.746,0,0,1-1.845,2.448,4.75,4.75,0,0,1,1.672,1.237,2.336,2.336,0,0,1,.5,1.45,2.437,2.437,0,0,1-.909,1.982,3.775,3.775,0,0,1-2.463.745A4.028,4.028,0,0,1-8305.5,1476.44Zm1.039-3.122a1.653,1.653,0,0,0-.4,1.091,1.323,1.323,0,0,0,.5,1.1,2.132,2.132,0,0,0,1.353.392,2.085,2.085,0,0,0,1.371-.407,1.356,1.356,0,0,0,.488-1.1,1.417,1.417,0,0,0-.451-1.012,4.278,4.278,0,0,0-1.367-.847l-.2-.088A3.492,3.492,0,0,0-8304.459,1473.318Zm.343-4.866a1.116,1.116,0,0,0-.42.918,1.357,1.357,0,0,0,.15.636,1.664,1.664,0,0,0,.438.509,5.353,5.353,0,0,0,.97.551,3.223,3.223,0,0,0,1.16-.764,1.4,1.4,0,0,0,.339-.933,1.115,1.115,0,0,0-.422-.918,1.729,1.729,0,0,0-1.116-.338A1.691,1.691,0,0,0-8304.116,1468.452Zm-10.536,8.547v-1.217l2.577-2.59a21.962,21.962,0,0,0,1.515-1.659,3.888,3.888,0,0,0,.543-.918,2.478,2.478,0,0,0,.171-.924,1.408,1.408,0,0,0-.407-1.066,1.553,1.553,0,0,0-1.122-.388,2.993,2.993,0,0,0-1.112.211,5.185,5.185,0,0,0-1.239.766l-.868-1.06a5.589,5.589,0,0,1,1.619-1,4.743,4.743,0,0,1,1.676-.294,3.29,3.29,0,0,1,2.234.728,2.463,2.463,0,0,1,.841,1.959,3.4,3.4,0,0,1-.244,1.283,5.139,5.139,0,0,1-.744,1.256,16.984,16.984,0,0,1-1.672,1.747l-1.736,1.68v.069h4.745V1477Z" transform="translate(9340 -1420)" fill="#ddd"/>
      <path id="Union_137" data-name="Union 137" d="M-8297.262,1475.831a6.993,6.993,0,0,1-.861-3.829,7.139,7.139,0,0,1,.839-3.9,2.858,2.858,0,0,1,2.552-1.254,2.839,2.839,0,0,1,2.535,1.313,7.018,7.018,0,0,1,.862,3.842,7.123,7.123,0,0,1-.837,3.869,2.859,2.859,0,0,1-2.561,1.267A2.838,2.838,0,0,1-8297.262,1475.831Zm1.186-6.755a7.356,7.356,0,0,0-.42,2.926,7.3,7.3,0,0,0,.42,2.919,1.4,1.4,0,0,0,1.344.874,1.415,1.415,0,0,0,1.351-.887,7.221,7.221,0,0,0,.428-2.907,7.28,7.28,0,0,0-.428-2.909,1.412,1.412,0,0,0-1.351-.9A1.4,1.4,0,0,0-8296.076,1469.077Zm-9.457,6.755a6.984,6.984,0,0,1-.861-3.829,7.139,7.139,0,0,1,.839-3.9,2.858,2.858,0,0,1,2.552-1.254,2.842,2.842,0,0,1,2.537,1.313,7.036,7.036,0,0,1,.862,3.842,7.1,7.1,0,0,1-.839,3.869,2.859,2.859,0,0,1-2.561,1.267A2.84,2.84,0,0,1-8305.533,1475.831Zm1.188-6.755a7.3,7.3,0,0,0-.422,2.926,7.239,7.239,0,0,0,.422,2.919,1.4,1.4,0,0,0,1.342.874,1.413,1.413,0,0,0,1.35-.887,7.169,7.169,0,0,0,.428-2.907,7.228,7.228,0,0,0-.428-2.909,1.41,1.41,0,0,0-1.35-.9A1.4,1.4,0,0,0-8304.346,1469.077Zm-10.334,7.521v-1.429a6.484,6.484,0,0,0,1.349.486,5.9,5.9,0,0,0,1.366.171,2.88,2.88,0,0,0,1.736-.432,1.558,1.558,0,0,0,.574-1.333,1.265,1.265,0,0,0-.637-1.175,4.061,4.061,0,0,0-2-.376h-.868V1471.2h.881q2.4,0,2.394-1.655a1.224,1.224,0,0,0-.417-.991,1.882,1.882,0,0,0-1.231-.349,3.748,3.748,0,0,0-1.094.161,5.106,5.106,0,0,0-1.243.626l-.787-1.12a5.231,5.231,0,0,1,3.193-1.012,3.788,3.788,0,0,1,2.357.649,2.132,2.132,0,0,1,.85,1.79,2.314,2.314,0,0,1-.556,1.584,2.788,2.788,0,0,1-1.559.851v.054a3.015,3.015,0,0,1,1.806.747,2.147,2.147,0,0,1,.6,1.59,2.635,2.635,0,0,1-1.019,2.224,4.669,4.669,0,0,1-2.9.785A6.552,6.552,0,0,1-8314.68,1476.6Z" transform="translate(9393 -1420)" fill="#ddd"/>
      <path id="Union_138" data-name="Union 138" d="M-8295.235,1477l-1.694-5.961q-.11-.388-.273-1.125c-.11-.488-.175-.83-.2-1.02-.046.29-.121.67-.223,1.135s-.188.81-.255,1.037l-1.654,5.934h-1.778l-1.291-5-1.312-4.991h1.667l1.43,5.826q.334,1.4.478,2.475c.05-.388.125-.82.226-1.3s.191-.866.272-1.162l1.628-5.838h1.619l1.669,5.865a21.829,21.829,0,0,1,.5,2.435,18.147,18.147,0,0,1,.493-2.489l1.423-5.811h1.652l-2.6,9.994Zm-12.364,0-4.916-7.964h-.055l.033.444q.1,1.274.1,2.324v5.2h-1.483v-9.994h1.981l4.9,7.925h.042q-.013-.159-.055-1.146c-.026-.659-.041-1.173-.041-1.542v-5.237h1.5V1477Z" transform="translate(9445 -1420)" fill="#ddd"/>
      <path id="Union_139" data-name="Union 139" d="M-8297.262,1475.831a6.993,6.993,0,0,1-.861-3.829,7.139,7.139,0,0,1,.839-3.9,2.858,2.858,0,0,1,2.552-1.254,2.839,2.839,0,0,1,2.535,1.313,7.018,7.018,0,0,1,.862,3.842,7.123,7.123,0,0,1-.837,3.869,2.859,2.859,0,0,1-2.561,1.267A2.838,2.838,0,0,1-8297.262,1475.831Zm1.186-6.755a7.356,7.356,0,0,0-.42,2.926,7.3,7.3,0,0,0,.42,2.919,1.4,1.4,0,0,0,1.344.874,1.415,1.415,0,0,0,1.351-.887,7.221,7.221,0,0,0,.428-2.907,7.28,7.28,0,0,0-.428-2.909,1.412,1.412,0,0,0-1.351-.9A1.4,1.4,0,0,0-8296.076,1469.077Zm-10.331,7.521v-1.429a6.478,6.478,0,0,0,1.346.486,5.923,5.923,0,0,0,1.369.171,2.884,2.884,0,0,0,1.736-.432,1.557,1.557,0,0,0,.573-1.333,1.269,1.269,0,0,0-.637-1.175,4.062,4.062,0,0,0-2-.376h-.865V1471.2h.88q2.392,0,2.392-1.655a1.223,1.223,0,0,0-.415-.991,1.882,1.882,0,0,0-1.231-.349,3.746,3.746,0,0,0-1.093.161,5.109,5.109,0,0,0-1.244.626l-.786-1.12a5.228,5.228,0,0,1,3.192-1.012,3.788,3.788,0,0,1,2.357.649,2.13,2.13,0,0,1,.848,1.79,2.316,2.316,0,0,1-.553,1.584,2.794,2.794,0,0,1-1.56.851v.054a3.018,3.018,0,0,1,1.806.747,2.147,2.147,0,0,1,.6,1.59,2.635,2.635,0,0,1-1.019,2.224,4.667,4.667,0,0,1-2.9.785A6.541,6.541,0,0,1-8306.407,1476.6Zm-8.272,0v-1.429a6.484,6.484,0,0,0,1.349.486,5.9,5.9,0,0,0,1.366.171,2.88,2.88,0,0,0,1.736-.432,1.558,1.558,0,0,0,.574-1.333,1.265,1.265,0,0,0-.637-1.175,4.061,4.061,0,0,0-2-.376h-.868V1471.2h.881q2.4,0,2.394-1.655a1.224,1.224,0,0,0-.417-.991,1.882,1.882,0,0,0-1.231-.349,3.748,3.748,0,0,0-1.094.161,5.106,5.106,0,0,0-1.243.626l-.787-1.12a5.231,5.231,0,0,1,3.193-1.012,3.788,3.788,0,0,1,2.357.649,2.132,2.132,0,0,1,.85,1.79,2.314,2.314,0,0,1-.556,1.584,2.788,2.788,0,0,1-1.559.851v.054a3.015,3.015,0,0,1,1.806.747,2.147,2.147,0,0,1,.6,1.59,2.635,2.635,0,0,1-1.019,2.224,4.669,4.669,0,0,1-2.9.785A6.552,6.552,0,0,1-8314.68,1476.6Z" transform="translate(9497 -1420)" fill="#ddd"/>
      <path id="Union_140" data-name="Union 140" d="M-8297.925,1476.6v-1.457a4.892,4.892,0,0,0,1.271.486,5.867,5.867,0,0,0,1.333.169,2.483,2.483,0,0,0,1.655-.484,1.763,1.763,0,0,0,.567-1.423q0-1.79-2.282-1.79a5.846,5.846,0,0,0-.793.065c-.315.044-.591.092-.829.148l-.718-.424.384-4.881h5.2v1.427h-3.781l-.226,2.475.585-.1a5.627,5.627,0,0,1,.845-.054,3.433,3.433,0,0,1,2.392.8,2.8,2.8,0,0,1,.883,2.181,3.187,3.187,0,0,1-1,2.5,4.124,4.124,0,0,1-2.849.9A5.392,5.392,0,0,1-8297.925,1476.6Zm-16.755,0v-1.429a6.484,6.484,0,0,0,1.349.486,5.9,5.9,0,0,0,1.366.171,2.88,2.88,0,0,0,1.736-.432,1.558,1.558,0,0,0,.574-1.333,1.265,1.265,0,0,0-.637-1.175,4.061,4.061,0,0,0-2-.376h-.868V1471.2h.881q2.4,0,2.394-1.655a1.224,1.224,0,0,0-.417-.991,1.882,1.882,0,0,0-1.231-.349,3.748,3.748,0,0,0-1.094.161,5.106,5.106,0,0,0-1.243.626l-.787-1.12a5.231,5.231,0,0,1,3.193-1.012,3.788,3.788,0,0,1,2.357.649,2.132,2.132,0,0,1,.85,1.79,2.314,2.314,0,0,1-.556,1.584,2.788,2.788,0,0,1-1.559.851v.054a3.015,3.015,0,0,1,1.806.747,2.147,2.147,0,0,1,.6,1.59,2.635,2.635,0,0,1-1.019,2.224,4.669,4.669,0,0,1-2.9.785A6.552,6.552,0,0,1-8314.68,1476.6Zm12.517.4v-2.181h-4.565v-1.237l4.565-6.6h1.565v6.508h1.348v1.333h-1.348V1477Zm-.586-7.124-2.483,3.61h3.069v-2.508q0-1.34.068-2.2h-.054A7.751,7.751,0,0,1-8302.749,1469.876Z" transform="translate(9549 -1420)" fill="#ddd"/>
      <path id="Union_141" data-name="Union 141" d="M-8301.144,1489l-8.776-14.221h-.1l.063.795q.168,2.269.171,4.149V1489h-2.649v-17.845h3.54l8.751,14.146h.073q-.025-.279-.1-2.044t-.075-2.752v-9.35h2.675V1489Z" transform="translate(9603 -1432)" fill="#eaeaea"/>
      <rect id="Rectangle_786-4" data-name="Rectangle 786" width="1" height="6" transform="translate(725 34)" fill="#fff" opacity="0.4"/>
      <rect id="Rectangle_781-4" data-name="Rectangle 781" width="1" height="6" transform="translate(1037 34)" fill="#fff" opacity="0.4"/>
      <rect id="Rectangle_782-4" data-name="Rectangle 782" width="1" height="6" transform="translate(1089 34)" fill="#fff" opacity="0.4"/>
      <rect id="Rectangle_783-4" data-name="Rectangle 783" width="1" height="6" transform="translate(1141 34)" fill="#fff" opacity="0.4"/>
      <rect id="Rectangle_784-4" data-name="Rectangle 784" width="1" height="6" transform="translate(1193 34)" fill="#fff" opacity="0.4"/>
      <rect id="Rectangle_785-4" data-name="Rectangle 785" width="1" height="6" transform="translate(1245 34)" fill="#fff" opacity="0.4"/>
      <path id="Union_130" data-name="Union 130" d="M-8297.924,1476.6v-1.456a4.806,4.806,0,0,0,1.271.486,5.723,5.723,0,0,0,1.333.171,2.48,2.48,0,0,0,1.654-.486,1.768,1.768,0,0,0,.568-1.421q0-1.79-2.285-1.79a5.918,5.918,0,0,0-.793.065c-.312.042-.589.092-.826.146l-.718-.424.384-4.881h5.193v1.429h-3.778l-.226,2.475c.158-.029.353-.061.584-.1a5.336,5.336,0,0,1,.843-.056,3.425,3.425,0,0,1,2.394.8,2.793,2.793,0,0,1,.883,2.18,3.189,3.189,0,0,1-1,2.5,4.122,4.122,0,0,1-2.848.9A5.366,5.366,0,0,1-8297.924,1476.6Zm-7.773.432v-1.348a4.492,4.492,0,0,0,1.226.171,3.125,3.125,0,0,0,2.424-.874,4.244,4.244,0,0,0,.877-2.748h-.084a2.425,2.425,0,0,1-.972.889,3.08,3.08,0,0,1-1.338.273,2.682,2.682,0,0,1-2.084-.828,3.225,3.225,0,0,1-.76-2.268,3.47,3.47,0,0,1,.878-2.491,3.149,3.149,0,0,1,2.4-.927,3.316,3.316,0,0,1,1.859.52,3.338,3.338,0,0,1,1.223,1.506,5.922,5.922,0,0,1,.433,2.368,6.869,6.869,0,0,1-1.189,4.409,4.359,4.359,0,0,1-3.583,1.456A5.486,5.486,0,0,1-8305.7,1477.028Zm1.313-8.276a2.356,2.356,0,0,0-.444,1.527,2.017,2.017,0,0,0,.413,1.344,1.556,1.556,0,0,0,1.257.488,2,2,0,0,0,1.366-.484,1.473,1.473,0,0,0,.553-1.135,2.781,2.781,0,0,0-.235-1.139,2.026,2.026,0,0,0-.659-.837,1.617,1.617,0,0,0-.971-.309A1.557,1.557,0,0,0-8304.385,1468.753Zm-7.156,8.248v-6.454q0-1.155.054-1.832c-.1.109-.231.229-.386.363s-.664.551-1.534,1.256l-.807-1.018,2.939-2.31h1.34V1477Z" transform="translate(9028 -1420)" fill="#ddd"/>
      <path id="Union_131" data-name="Union 131" d="M-8297.262,1475.831a6.981,6.981,0,0,1-.861-3.827,7.129,7.129,0,0,1,.839-3.9,2.854,2.854,0,0,1,2.552-1.254,2.838,2.838,0,0,1,2.535,1.31,7.026,7.026,0,0,1,.862,3.844,7.123,7.123,0,0,1-.837,3.869,2.862,2.862,0,0,1-2.561,1.265A2.838,2.838,0,0,1-8297.262,1475.831Zm1.188-6.755a7.307,7.307,0,0,0-.422,2.928,7.228,7.228,0,0,0,.422,2.917,1.4,1.4,0,0,0,1.342.876,1.411,1.411,0,0,0,1.35-.889,7.2,7.2,0,0,0,.428-2.9,7.249,7.249,0,0,0-.428-2.909,1.409,1.409,0,0,0-1.35-.9A1.4,1.4,0,0,0-8296.074,1469.076Zm-7.2,7.923v-6.452c0-.77.017-1.381.055-1.832-.1.109-.233.229-.386.361s-.664.553-1.536,1.258l-.808-1.018,2.94-2.31h1.339V1477Zm-11.383,0v-1.217l2.577-2.59a21.962,21.962,0,0,0,1.515-1.659,3.888,3.888,0,0,0,.543-.918,2.478,2.478,0,0,0,.171-.924,1.408,1.408,0,0,0-.407-1.066,1.553,1.553,0,0,0-1.122-.388,2.993,2.993,0,0,0-1.112.211,5.185,5.185,0,0,0-1.239.766l-.868-1.06a5.589,5.589,0,0,1,1.619-1,4.743,4.743,0,0,1,1.676-.294,3.29,3.29,0,0,1,2.234.728,2.463,2.463,0,0,1,.841,1.959,3.4,3.4,0,0,1-.244,1.283,5.139,5.139,0,0,1-.744,1.256,16.984,16.984,0,0,1-1.672,1.747l-1.736,1.68v.069h4.745V1477Z" transform="translate(9081 -1420)" fill="#ddd"/>
      <path id="Union_132" data-name="Union 132" d="M-8313.927,1476.61v-1.544a7.529,7.529,0,0,0,1.455.5,6.137,6.137,0,0,0,1.431.186,2.273,2.273,0,0,0,1.432-.369,1.2,1.2,0,0,0,.461-.991,1.25,1.25,0,0,0-.423-.952,6.458,6.458,0,0,0-1.749-.922,4.625,4.625,0,0,1-1.928-1.264,2.662,2.662,0,0,1-.562-1.709,2.4,2.4,0,0,1,.889-1.97,3.689,3.689,0,0,1,2.385-.718,7.022,7.022,0,0,1,2.859.63l-.52,1.333a6.256,6.256,0,0,0-2.379-.561,1.818,1.818,0,0,0-1.2.346,1.133,1.133,0,0,0-.411.912,1.292,1.292,0,0,0,.165.666,1.67,1.67,0,0,0,.54.524,9.058,9.058,0,0,0,1.354.649,7.448,7.448,0,0,1,1.612.855,2.477,2.477,0,0,1,.752.9,2.706,2.706,0,0,1,.239,1.175,2.516,2.516,0,0,1-.964,2.093,4.2,4.2,0,0,1-2.66.76A6.324,6.324,0,0,1-8313.927,1476.61Zm16.059.39-1.694-5.961q-.11-.388-.273-1.125c-.11-.49-.178-.83-.2-1.022-.046.292-.121.672-.224,1.135s-.187.812-.257,1.039l-1.654,5.934h-1.775l-1.294-5-1.312-4.991h1.67l1.427,5.826a24.456,24.456,0,0,1,.479,2.475q.076-.582.226-1.3t.273-1.162l1.628-5.838h1.619l1.669,5.865a22.29,22.29,0,0,1,.5,2.435,17.683,17.683,0,0,1,.492-2.489l1.421-5.811h1.655l-2.6,9.995Z" transform="translate(9134 -1420)" fill="#ddd"/>
      <path id="Union_133" data-name="Union 133" d="M-8297.262,1475.831a6.981,6.981,0,0,1-.861-3.827,7.129,7.129,0,0,1,.839-3.9,2.854,2.854,0,0,1,2.552-1.254,2.838,2.838,0,0,1,2.535,1.31,7.026,7.026,0,0,1,.862,3.844,7.123,7.123,0,0,1-.837,3.869,2.862,2.862,0,0,1-2.561,1.265A2.838,2.838,0,0,1-8297.262,1475.831Zm1.188-6.755a7.307,7.307,0,0,0-.422,2.928,7.228,7.228,0,0,0,.422,2.917,1.4,1.4,0,0,0,1.342.876,1.411,1.411,0,0,0,1.35-.889,7.2,7.2,0,0,0,.428-2.9,7.249,7.249,0,0,0-.428-2.909,1.409,1.409,0,0,0-1.35-.9A1.4,1.4,0,0,0-8296.074,1469.076Zm-6.087,7.923v-2.181h-4.567v-1.237l4.567-6.6h1.563v6.506h1.349v1.333h-1.349V1477Zm-.589-7.122-2.482,3.608h3.071v-2.508c0-.893.021-1.623.066-2.193h-.054A7.881,7.881,0,0,1-8302.75,1469.877Zm-11.9,7.122v-1.217l2.577-2.59a21.962,21.962,0,0,0,1.515-1.659,3.888,3.888,0,0,0,.543-.918,2.478,2.478,0,0,0,.171-.924,1.408,1.408,0,0,0-.407-1.066,1.553,1.553,0,0,0-1.122-.388,2.993,2.993,0,0,0-1.112.211,5.185,5.185,0,0,0-1.239.766l-.868-1.06a5.589,5.589,0,0,1,1.619-1,4.743,4.743,0,0,1,1.676-.294,3.29,3.29,0,0,1,2.234.728,2.463,2.463,0,0,1,.841,1.959,3.4,3.4,0,0,1-.244,1.283,5.139,5.139,0,0,1-.744,1.256,16.984,16.984,0,0,1-1.672,1.747l-1.736,1.68v.069h4.745V1477Z" transform="translate(9185 -1420)" fill="#ddd"/>
      <path id="Union_134" data-name="Union 134" d="M-8297.925,1476.6v-1.457a4.807,4.807,0,0,0,1.272.486,5.834,5.834,0,0,0,1.331.171,2.48,2.48,0,0,0,1.655-.486,1.761,1.761,0,0,0,.567-1.421q0-1.79-2.283-1.792a5.941,5.941,0,0,0-.793.067c-.314.042-.59.092-.828.146l-.718-.424.384-4.881h5.2v1.429h-3.781l-.226,2.473c.161-.027.354-.058.584-.094a5.35,5.35,0,0,1,.846-.056,3.421,3.421,0,0,1,2.392.8,2.8,2.8,0,0,1,.882,2.181,3.182,3.182,0,0,1-1,2.5,4.124,4.124,0,0,1-2.849.9A5.371,5.371,0,0,1-8297.925,1476.6Zm-8.27,0v-1.457a4.819,4.819,0,0,0,1.271.486,5.834,5.834,0,0,0,1.331.171,2.48,2.48,0,0,0,1.655-.486,1.765,1.765,0,0,0,.569-1.421q0-1.79-2.285-1.792a5.941,5.941,0,0,0-.793.067c-.312.042-.591.092-.826.146l-.718-.424.382-4.881h5.2v1.429h-3.781l-.224,2.473q.237-.041.582-.094a5.385,5.385,0,0,1,.846-.056,3.414,3.414,0,0,1,2.391.8,2.793,2.793,0,0,1,.883,2.181,3.185,3.185,0,0,1-1,2.5,4.122,4.122,0,0,1-2.847.9A5.361,5.361,0,0,1-8306.194,1476.6Zm-8.458.4v-1.217l2.577-2.59a21.962,21.962,0,0,0,1.515-1.659,3.888,3.888,0,0,0,.543-.918,2.478,2.478,0,0,0,.171-.924,1.408,1.408,0,0,0-.407-1.066,1.553,1.553,0,0,0-1.122-.388,2.993,2.993,0,0,0-1.112.211,5.185,5.185,0,0,0-1.239.766l-.868-1.06a5.589,5.589,0,0,1,1.619-1,4.743,4.743,0,0,1,1.676-.294,3.29,3.29,0,0,1,2.234.728,2.463,2.463,0,0,1,.841,1.959,3.4,3.4,0,0,1-.244,1.283,5.139,5.139,0,0,1-.744,1.256,16.984,16.984,0,0,1-1.672,1.747l-1.736,1.68v.069h4.745V1477Z" transform="translate(9237 -1420)" fill="#ddd"/>
      <rect id="Rectangle_787-4" data-name="Rectangle 787" width="1" height="6" transform="translate(777 34)" fill="#fff" opacity="0.4"/>
      <rect id="Rectangle_788-4" data-name="Rectangle 788" width="1" height="6" transform="translate(829 34)" fill="#fff" opacity="0.4"/>
      <rect id="Rectangle_789-4" data-name="Rectangle 789" width="1" height="6" transform="translate(881 34)" fill="#fff" opacity="0.4"/>
      <rect id="Rectangle_790-4" data-name="Rectangle 790" width="1" height="6" transform="translate(933 34)" fill="#fff" opacity="0.4"/>
    </g>
  </g>
</svg>
