<?xml version="1.0" encoding="UTF-8" standalone="no"?>
<!DOCTYPE svg PUBLIC "-//W3C//DTD SVG 1.1//EN" "http://www.w3.org/Graphics/SVG/1.1/DTD/svg11.dtd">
<svg width="100%" height="100%" viewBox="0 0 2023 2347" version="1.1" xmlns="http://www.w3.org/2000/svg" xmlns:xlink="http://www.w3.org/1999/xlink" xml:space="preserve" xmlns:serif="http://www.serif.com/" style="fill-rule:evenodd;clip-rule:evenodd;stroke-linejoin:round;stroke-miterlimit:2;">
    <g transform="matrix(1,0,0,1,0,-3.19595)">
        <g transform="matrix(4.16667,0,0,4.16667,0,0)">
            <path d="M219.787,171.558L219.787,117.26C219.787,108.623 215.8,104.614 207.51,104.614L193.999,104.614L193.999,184.21L207.51,184.21C215.8,184.21 219.787,180.197 219.787,171.558Z" style="fill:white;"/>
            <path d="M176.416,365.158L169.041,383.735L183.697,383.735L176.416,365.158Z" style="fill:white;"/>
            <path d="M415.492,389.336C415.492,402.686 404.944,410.621 389.074,410.621C377.499,410.621 366.482,406.979 358.454,399.792L368.537,387.749C374.979,392.884 382.166,395.591 389.728,395.591C394.581,395.591 397.195,393.911 397.195,391.11L397.195,390.924C397.195,388.216 395.049,386.722 386.181,384.669C372.271,381.495 361.535,377.573 361.535,364.132L361.535,363.945C361.535,351.809 371.15,343.034 386.834,343.034C397.943,343.034 406.624,346.021 413.72,351.716L404.664,364.505C398.689,360.304 392.155,358.063 386.367,358.063C381.98,358.063 379.832,359.931 379.832,362.265L379.832,362.451C379.832,365.437 382.073,366.745 391.128,368.799C406.157,372.066 415.492,376.92 415.492,389.149L415.492,389.336ZM317.671,253.311L317.671,113.869C317.671,87.026 330.877,73.763 357.583,73.763L373.552,73.763C400.258,73.763 413.152,86.721 413.152,113.558L413.152,157.678L380.92,157.678L380.92,115.409C380.92,106.77 376.927,102.763 368.637,102.763L363.109,102.763C354.515,102.763 350.522,106.77 350.522,115.409L350.522,251.771C350.522,260.41 354.515,264.417 363.109,264.417L369.254,264.417C377.539,264.417 381.531,260.41 381.531,251.771L381.531,203.027L413.769,203.027L413.769,253.311C413.769,280.154 400.569,293.417 373.857,293.417L357.583,293.417C330.877,293.417 317.671,280.154 317.671,253.311ZM353.787,409.5L300.763,409.5L300.763,344.154L353.32,344.154L353.32,359.557L318.687,359.557L318.687,369.452L350.053,369.452L350.053,383.735L318.687,383.735L318.687,394.098L353.787,394.098L353.787,409.5ZM241.172,518.482L149.104,486.829L337.158,486.829L241.172,518.482ZM167.828,343.687L185.284,343.687L213.104,409.5L193.686,409.5L188.925,397.831L163.72,397.831L159.053,409.5L140.008,409.5L167.828,343.687ZM134.406,400.726C127.498,406.42 117.883,410.808 106.027,410.808C85.676,410.808 70.46,396.805 70.46,377.014L70.46,376.827C70.46,357.783 85.396,342.848 105.654,342.848C117.136,342.848 125.258,346.395 132.166,352.369L121.523,365.158C116.856,361.237 112.188,358.997 105.747,358.997C96.318,358.997 89.036,366.932 89.036,376.92L89.036,377.106C89.036,387.656 96.411,395.217 106.773,395.217C111.162,395.217 114.522,394.284 117.23,392.51L117.23,384.576L104.347,384.576L104.347,371.319L134.406,371.319L134.406,400.726ZM71.606,75.615L144.679,75.615L144.679,105.537L104.456,105.537L104.456,166.622L143.139,166.622L143.139,196.544L104.456,196.544L104.456,261.643L145.291,261.643L145.291,291.566L71.606,291.566L71.606,75.615ZM161.149,75.615L212.725,75.615C239.437,75.615 252.637,88.878 252.637,115.72L252.637,173.103C252.637,199.941 239.437,213.205 212.725,213.205L193.999,213.205L193.999,291.566L161.149,291.566L161.149,75.615ZM269.676,344.154L288.813,344.154L288.813,409.5L270.796,409.5L270.796,371.973L254.086,397.551L253.712,397.551L237.096,372.16L237.096,409.5L219.359,409.5L219.359,344.154L238.496,344.154L254.086,369.452L269.676,344.154ZM267.456,75.615L300.311,75.615L300.311,291.566L267.456,291.566L267.456,75.615ZM441.297,0.767L44.078,0.767C11.881,0.767 0,12.648 0,44.86L0,433.535C0,437.181 0.147,440.566 0.468,443.704C1.202,450.733 1.339,457.547 7.879,465.305C8.517,466.064 15.193,471.032 15.193,471.032C18.784,472.794 21.237,474.091 25.287,475.721L220.883,557.668C231.037,562.322 235.283,564.138 242.658,563.991L242.658,563.992L242.716,563.992L242.716,563.991C250.091,564.138 254.337,562.322 264.492,557.668L460.087,475.721C464.138,474.091 466.589,472.794 470.181,471.032C470.181,471.032 476.857,466.064 477.495,465.305C484.034,457.547 484.172,450.733 484.905,443.704C485.227,440.566 485.375,437.181 485.375,433.535L485.375,44.86C485.375,12.648 473.492,0.767 441.297,0.767Z" style="fill:white;"/>
        </g>
    </g>
</svg>
