<?xml version="1.0" encoding="UTF-8" standalone="no"?><!DOCTYPE svg PUBLIC "-//W3C//DTD SVG 1.1//EN" "http://www.w3.org/Graphics/SVG/1.1/DTD/svg11.dtd"><svg width="100%" height="100%" viewBox="0 0 100 94" version="1.1" xmlns="http://www.w3.org/2000/svg" xmlns:xlink="http://www.w3.org/1999/xlink" xml:space="preserve" xmlns:serif="http://www.serif.com/" style="fill-rule:evenodd;clip-rule:evenodd;stroke-linejoin:round;stroke-miterlimit:2;"><path id="Biohazard" d="M77.091,84.932c0.474,-0.028 0.951,-0.075 1.43,-0.14c2.662,-0.366 5.114,-1.285 7.252,-2.628c0.418,-0.267 0.953,-0.269 1.373,-0.005c0,0 0,0 -0.002,0.005c1.01,0.635 1.64,1.73 1.681,2.923c0.041,1.193 -0.511,2.329 -1.476,3.033c-3.885,2.868 -8.521,4.832 -13.638,5.535c-9.018,1.239 -17.654,-1.695 -23.958,-7.322c-6.303,5.627 -14.939,8.561 -23.957,7.322c-5.117,-0.703 -9.753,-2.667 -13.638,-5.535c-0.965,-0.704 -1.517,-1.84 -1.476,-3.033c0.041,-1.193 0.671,-2.288 1.681,-2.923c-0.002,-0.005 -0.002,-0.005 -0.002,-0.005c0.42,-0.264 0.955,-0.262 1.373,0.005c2.138,1.343 4.59,2.262 7.252,2.628c2.414,0.331 4.784,0.178 7.012,-0.385c8.895,-1.544 15.656,-9.109 15.656,-18.196c-0,-10.202 -8.521,-18.485 -19.016,-18.485c-2.959,0 -5.762,0.659 -8.26,1.833c-5.805,2.441 -10.212,7.796 -11.13,14.48c-0.334,2.431 -0.177,4.816 0.396,7.056c0.154,0.579 -0.086,1.192 -0.594,1.511c0.002,0.003 0.002,0.004 0.002,0.004c-0.779,0.49 -1.746,0.572 -2.597,0.22c-0.85,-0.351 -1.477,-1.093 -1.683,-1.989c-0.803,-3.455 -1.002,-7.11 -0.491,-10.83c1.611,-11.722 9.837,-20.921 20.389,-24.346c-2.688,-10.738 0.722,-22.565 9.767,-30.155c2.876,-2.413 6.076,-4.191 9.428,-5.351c0.868,-0.304 1.83,-0.168 2.58,0.365c0.751,0.532 1.196,1.395 1.196,2.315c0,0.001 0,0.001 -0.004,0.001c0,0.6 -0.39,1.129 -0.963,1.307c-1.923,0.619 -3.773,1.566 -5.463,2.848c-4.806,3.356 -7.94,8.836 -7.94,15.022c0,10.202 8.521,18.485 19.016,18.485c10.495,-0 19.016,-8.283 19.016,-18.485c-0,-5.676 -2.638,-10.758 -6.787,-14.15c-1.276,-1.128 -2.679,-2.052 -4.164,-2.767c-0.449,-0.212 -0.736,-0.663 -0.736,-1.16c0,0 0,0 0.005,0c0,-1.194 0.592,-2.31 1.58,-2.98c0.988,-0.67 2.243,-0.807 3.353,-0.366c4.496,1.761 8.627,4.64 11.947,8.596c6.374,7.597 8.315,17.448 6.099,26.399c10.667,3.366 19.003,12.614 20.626,24.422c0.511,3.72 0.312,7.375 -0.491,10.83c-0.206,0.896 -0.833,1.638 -1.683,1.989c-0.851,0.352 -1.818,0.27 -2.597,-0.22c-0,-0 -0,-0.001 0.002,-0.004c-0.508,-0.319 -0.748,-0.932 -0.594,-1.511c0.573,-2.24 0.73,-4.625 0.396,-7.056c-1.128,-8.212 -7.521,-14.417 -15.301,-15.676c-1.157,-0.214 -2.349,-0.326 -3.569,-0.326c-10.495,0 -19.016,8.283 -19.016,18.484c0,10.202 8.521,18.484 19.016,18.484c0.573,0 1.14,-0.024 1.702,-0.073Zm-4.727,-31.802c-2.117,0.492 -2.459,0.684 -2.459,1.347c0,0.342 -0.15,1.198 -0.321,1.946c-0.898,3.806 -2.951,7.377 -5.859,10.157c-0.962,0.92 -1.732,1.818 -1.732,2.032c0,1.454 1.754,5.025 3.379,6.864l0.834,0.962l0.941,-0.727c4.512,-3.507 7.527,-7.334 9.644,-12.21c1.048,-2.416 2.031,-6.201 2.224,-8.511c0.128,-1.625 0.128,-1.668 -0.364,-1.817c-1.069,-0.321 -4.982,-0.343 -6.287,-0.043Zm-50.465,-0.214c-0.107,0.064 -0.578,0.15 -1.048,0.235l-0.834,0.129l0.149,1.646c0.15,1.946 0.941,5.346 1.711,7.378c2.01,5.281 5.325,9.644 10.157,13.407l0.941,0.727l0.834,-0.962c1.625,-1.839 3.379,-5.41 3.379,-6.864c-0,-0.214 -0.77,-1.112 -1.689,-1.989c-3.315,-3.165 -5.368,-6.971 -6.095,-11.291l-0.256,-1.539l-1.283,-0.385c-1.155,-0.364 -5.411,-0.706 -5.966,-0.492Zm27.854,-7.16c2.479,0 4.491,2.012 4.491,4.491c0,2.478 -2.012,4.49 -4.491,4.49c-2.478,0 -4.49,-2.012 -4.49,-4.49c-0,-2.479 2.012,-4.491 4.49,-4.491Zm-4.974,-23.162c-2.459,0.449 -4.448,1.026 -6.565,1.903l-1.86,0.791l0.492,1.369c0.684,1.881 1.732,3.549 3.186,5.046c0.855,0.92 1.326,1.262 1.604,1.176c6.351,-2.095 9.558,-2.095 15.909,0c0.278,0.086 0.749,-0.256 1.604,-1.176c1.454,-1.497 2.502,-3.165 3.186,-5.046l0.492,-1.369l-1.646,-0.706c-2.203,-0.919 -4.662,-1.625 -6.993,-2.01c-2.395,-0.406 -7.142,-0.385 -9.409,0.022Z" style="fill:#fff;"/></svg>