<?xml version="1.0" encoding="UTF-8" standalone="no"?><!DOCTYPE svg PUBLIC "-//W3C//DTD SVG 1.1//EN" "http://www.w3.org/Graphics/SVG/1.1/DTD/svg11.dtd"><svg width="100%" height="100%" viewBox="0 0 507 451" version="1.1" xmlns="http://www.w3.org/2000/svg" xmlns:xlink="http://www.w3.org/1999/xlink" xml:space="preserve" xmlns:serif="http://www.serif.com/" style="fill-rule:evenodd;clip-rule:evenodd;stroke-linejoin:round;stroke-miterlimit:2;"><path id="Movement" d="M252.546,342.191l69.729,-0.734c0,0 -96.945,93.659 -120.091,107.775c-8.463,5.163 -23,-14.087 -18.779,-23.054c8.395,-17.841 69.141,-83.987 69.141,-83.987Zm-69.354,-327.392c1.8,-2.783 4.713,-4.833 8.233,-5.437l53.55,-9.184c4.667,-0.8 9.171,1.15 11.855,4.679c12.07,-0.75 23.275,-0.933 32.095,-0.304c24.042,1.717 49.134,29.542 65.209,48.15c-0.596,3.692 -0.904,7.488 -0.904,11.354c-0,32.013 21.241,59.105 50.391,67.938c3.909,9.8 8.004,20.162 12.459,30.712c1.591,3.767 4.454,6.375 8.204,8.13c2.187,-2.146 5.183,-3.471 8.487,-3.471l43.721,-0c3.046,-0 5.833,1.125 7.963,2.983c6.829,-0.487 12.295,-0.312 15.162,1.471c9.55,5.937 8.692,30.037 -1.946,33.675c-2.337,0.8 -5.679,1.583 -9.746,2.317c-1.67,4.7 -6.162,8.075 -11.433,8.075l-43.721,-0c-3.329,-0 -6.341,-1.346 -8.533,-3.517c-12.467,-0.2 -23.463,-1.2 -30.15,-3.325c-16.521,-5.254 -30.671,-27.754 -32.133,-40.9l-65.73,29.212c0,0 41.875,73.655 46.742,95.321c2.842,12.638 -4.733,32.667 -17.529,34.679c-30.55,4.805 -138.15,0.73 -165.779,-5.845c-10.896,-2.592 -10.563,-29.867 -0,-33.592c18.621,-6.575 111.737,-5.842 111.737,-5.842c0,0 -28.962,-33.166 -49.112,-65.825c-54.563,46.425 -143.567,93.742 -170.238,98.854c-35.121,6.73 -5.321,-65.65 -8.871,-106.916c-3.55,-41.271 -85.795,-96.192 -13.604,-94.196c63.284,1.75 103.5,-28.363 206.409,-49.654c28.054,-5.804 49.033,-5.717 64.712,-2.517c-6.396,-7.158 -13.896,-13.708 -20.896,-15.275c-5.125,-1.15 -12.104,-1.437 -20.108,-1.221c-1.708,1.638 -3.908,2.8 -6.413,3.234l-53.55,9.183c-5.379,0.921 -10.541,-1.813 -12.945,-6.396c-7.15,0.304 -13.046,0.158 -16.9,-0.783c-10.192,-2.492 -11.975,-27.621 -2.188,-31.404c3.683,-1.425 9.029,-2.909 15.5,-4.363Zm238.054,-7.079c31.334,-0 56.775,25.442 56.775,56.779c0,31.338 -25.441,56.775 -56.775,56.775c-31.337,0 -56.779,-25.437 -56.779,-56.775c0,-31.337 25.442,-56.779 56.779,-56.779Z" style="fill:#fff;"/></svg>