<?xml version="1.0" encoding="utf-8"?>
<!-- Generator: Adobe Illustrator 26.0.3, SVG Export Plug-In . SVG Version: 6.00 Build 0)  -->
<svg version="1.1" id="Layer_1" xmlns="http://www.w3.org/2000/svg" xmlns:xlink="http://www.w3.org/1999/xlink" x="0px" y="0px"
	 viewBox="0 0 512 512" style="enable-background:new 0 0 512 512;" xml:space="preserve">
<style type="text/css">
	.st0{fill:#FFFFFF;}
</style>
<path class="st0" d="M339.37,75.94C231.47,33.22,127.6,88.76,91.69,178.55l-40.36-14.74L90.1,293.57l112.13-74.64l-43.3-15.82
	c23.56-55.92,90.22-89.4,158.15-58.56c22.66,10.29,40.76,28.63,50.91,51.36c37.61,84.23-23.45,166.28-103.31,166.28
	c-36.81,0-69.63-17.44-90.62-44.48c-4.91-6.33-13.65-8.21-20.68-4.36l-35.42,19.42c-8.02,4.39-10.51,14.82-5.22,22.27
	c33.77,47.58,89.29,78.69,151.95,78.69c126.96,0,224.65-127.71,171.36-261.41C420.94,134.44,377.27,90.94,339.37,75.94z"/>
</svg>
