<?xml version="1.0" encoding="UTF-8" standalone="no"?><!DOCTYPE svg PUBLIC "-//W3C//DTD SVG 1.1//EN" "http://www.w3.org/Graphics/SVG/1.1/DTD/svg11.dtd"><svg width="100%" height="100%" viewBox="0 0 1285 1208" version="1.1" xmlns="http://www.w3.org/2000/svg" xmlns:xlink="http://www.w3.org/1999/xlink" xml:space="preserve" xmlns:serif="http://www.serif.com/" style="fill-rule:evenodd;clip-rule:evenodd;stroke-linejoin:round;stroke-miterlimit:2;"><path d="M127.338,884.739c9.22,11.708 26.185,13.725 37.893,4.505c0.001,-0 0.001,-0.001 0.001,-0.001c30.714,-24.186 75.286,-18.887 99.473,11.827c24.187,30.714 18.887,75.286 -11.827,99.473c0,-0 0,0 -0,0c-11.708,9.22 -13.725,26.186 -4.505,37.894c34.9,44.318 112.372,142.699 112.372,142.699c23.856,30.293 67.817,35.519 98.11,11.664l798.704,-628.965c30.293,-23.855 35.52,-67.816 11.664,-98.109c0,-0 -77.472,-98.381 -112.372,-142.699c-9.22,-11.708 -26.186,-13.725 -37.894,-4.505c-0,0 -0,0 -0,0c-30.714,24.187 -75.287,18.888 -99.473,-11.826c-24.187,-30.714 -18.888,-75.287 11.826,-99.473c0,-0 0.001,-0 0.001,-0.001c11.708,-9.22 13.725,-26.185 4.505,-37.893c-34.9,-44.318 -112.373,-142.699 -112.373,-142.699c-23.855,-30.293 -67.816,-35.52 -98.109,-11.665l-798.704,628.965c-30.293,23.855 -35.52,67.817 -11.665,98.11c0,-0 77.473,98.38 112.373,142.699Zm719.17,-329.394c-9.177,-11.653 -26.088,-13.663 -37.741,-4.487l-255.662,201.329c-11.653,9.177 -13.664,26.088 -4.487,37.741l22.169,28.152c9.177,11.654 26.088,13.664 37.741,4.488l255.662,-201.329c11.653,-9.177 13.664,-26.088 4.487,-37.741l-22.169,-28.153Zm-133.106,-165.66c-9.177,-11.653 -26.088,-13.664 -37.742,-4.487l-255.661,201.329c-11.653,9.176 -13.664,26.088 -4.487,37.741l22.169,28.152c9.177,11.653 26.088,13.664 37.741,4.487l255.662,-201.328c11.653,-9.177 13.664,-26.088 4.487,-37.742l-22.169,-28.152Z"/></svg>