<svg clip-rule="evenodd" fill-rule="evenodd" stroke-linejoin="round" stroke-miterlimit="2" version="1.1" viewBox="0 0 463 160" xml:space="preserve" xmlns="http://www.w3.org/2000/svg">
    <path d="m418.1 110.4 6.6856 0.92857c0.0707 0.01 0.14147 2e-3 0.20654-0.0229l19.185-7.1943v6.6723l-3.9186 1.828c-0.28293 0.13212-0.40459 0.46909-0.27161 0.75202 0.0113 0.0246 0.0255 0.0481 0.0396 0.0699-4.773 1.6249-133.11 45.309-136.02 46.14-0.48663 0.14146-1.0893 0.11317-1.757-0.0255 0.20936-0.24332 0.232-0.61113 0.034-0.87991 0 0-2.0201-2.7529-5.2257-7.2345l35.816-12.563h7.8484c0.0509 0 0.10186-9e-3 0.14712-0.026zm-154.7-26.737-10.652 4.6944c-0.0226 0.0096-0.0424 0.02065-0.0623 0.03367-0.8403-0.69968-1.607-1.2551-2.303-1.6953-3.248-2.0546-5.1323-1.7491-5.6614-1.5949-3.7205-2.83e-4 -94.645-2.83e-4 -99.809-2.83e-4l-20.184-14.578c-0.12166-0.08714-0.26595-0.13411-0.4159-0.13411h-123.36c-0.39044 0-0.70732 0.31716-0.70732 0.70732 0 0.39044 0.31688 0.70732 0.70732 0.70732h123.13l20.187 14.578c0.11883 0.08714 0.26595 0.13382 0.41308 0.13382h100.16c0.0934 0 0.18673-0.01839 0.27161-0.05432 0 0 1.4599-0.50192 4.5127 1.4302 1.5476 0.97893 3.4489 2.5466 5.7123 5.0302l11.606 16.498c13.187 21.204 31.532 46.438 33.932 49.725-3.2735-1.194-7.1977-4.0261-7.1977-4.0261l-4.8805-6.2216-12.732-17.826-6.0122-1.3439-20.229-27.09h-86.788c-6.4366 0-7.4269-1.061-7.4269-1.061h-12.024l-2.0512-2.0512h-5.2342l-3.8365-0.23992c0-0.04272-6e-3 -0.08573-0.0141-0.12845l-1.7768-7.5754v-1.8206c0-0.31264-0.25463-0.56586-0.56586-0.56586h-5.4718c-0.31122 0-0.56586 0.25322-0.56586 0.56586v2.5464c0 0.04102 6e-3 0.08177 0.0142 0.12194l1.4146 6.4129c0.0226 0.09648 0.0679 0.18588 0.13298 0.25888l0.0707 0.07639-11.156 0.13467c0-0.05149-3e-3 -0.10355-0.0142-0.15504l-1.7796-7.5754v-1.8206c0-0.31264-0.25181-0.56586-0.56586-0.56586h-5.469c-0.31122 0-0.56585 0.25322-0.56585 0.56586v2.5464c0 0.04102 6e-3 0.08177 0.0141 0.12194l1.4146 6.4129c0.0198 0.09648 0.0679 0.18588 0.13297 0.25888l0.1924 0.2122h-12.63c-2.3342-6.6488-7.3562-7.2854-7.3562-7.2854h-9.0537l-0.14146-5.7293h-66.559l-12.166-11.388v-20.371l0.016693-0.01811c0.012166 0.37969 0.32424 0.68441 0.70676 0.68441h250.99zm-10.768-28.458h120.61c0.0481 0 0.0934-0.0045 0.13581-0.01302l1.3411 3.0378c0.0934 0.20512 0.29425 0.33725 0.51776 0.33725h25.679l-0.2518 3.5216s-2.9396 3.8603-2.9396 3.8603c-0.099 0.12845-0.11601 0.30104-0.0424 0.44561 0.0707 0.14458 0.21785 0.23596 0.37912 0.23596h8.5699l10.754 29.299s-4.3769 5.4716-4.3769 5.4716c-0.116 0.14571-0.12166 0.34631-0.0255 0.49655l-41.647 13.512c-0.18674 0.0606-0.30274 0.23964-0.29425 0.42723 0 0.0297 0 0.0603 6e-3 0.0908l0.36215 2.2547 0.20371 1.3711c0.0226 0.15561 0.13015 0.28548 0.27727 0.33782l6.7903 2.4049c0.034 0.0119 0.0679 0.0192 0.10186 0.0226l3.5904 0.3364-41.726 15.368h-7.8484c-0.0453 0-0.0934 8e-3 -0.13864 0.024l-35.723 12.531-21.8-30.985c-3.0585-4.6612-6.0462-9.3409-8.7538-13.782-5.0248-8.24-9.1443-13.231-12.367-16.244l-0.45269-0.64168 10.273-4.5269c0.099 0.04187 0.21786 0.04527 0.32537 8.48e-4 0.15278-0.06309 0.24898-0.20597 0.2603-0.36102 0.0594-0.11034 0.0679-0.24502 0.0141-0.36781-0.0424-0.09478-0.116-0.16693-0.20088-0.20937zm77.214 39.92h-3.961l-6.6007-6.2244h-34.517l-1.6976 1.6976 24.332 42.816 2.2634 1.1317 36.025-11.506zm83.823 7.443 3.4206 3.2653 0.54322 3.8156 3e-3 0.0184-33.898 12.485c-0.0594-0.1375-0.18957-0.23907-0.35084-0.25407l-4.4731-0.41958-6.5017-2.3019-0.16693-1.1261-0.31122-1.9434zm25.379-78.707h17.154c0.14995 0 0.2801-0.07724 0.35649-0.19437 2.2068 3.3592 5.602 9.2987 5.602 9.2987l-0.63659 12.095-0.0905 1.6314c-0.017-0.2006-0.17825-0.36554-0.38479-0.38365l-4.3373-0.37714c-0.23483-0.02037-0.44137 0.15278-0.46117 0.38592-0.0198 0.23342 0.15278 0.43939 0.38761 0.45976l4.3373 0.37714c0.21786 0.01896 0.41025-0.1293 0.45269-0.3381l-0.29991 5.4883c-0.0509-0.02971-0.11034-0.04866-0.17258-0.05432l-4.3401-0.37714c-0.232-0.02037-0.43854 0.15278-0.45835 0.38592-0.0198 0.23342 0.15278 0.43939 0.38479 0.45976l4.3401 0.37714c0.0736 0.0062 0.14146-0.0062 0.20371-0.03339l-0.8686 15.949c-0.0707-0.09025-0.17541-0.15222-0.2999-0.16297l-4.3373-0.37714c-0.23483-0.02037-0.44137 0.1525-0.46118 0.38592-0.0198 0.23342 0.15278 0.43939 0.38762 0.45948l4.3373 0.37743c0.13297 0.01132 0.25746-0.03933 0.34234-0.12817l-0.92522 16.944s0.0877-3.9449-0.0849 0.23483c-0.0594-0.03961-0.12731-0.06507-0.20087-0.07158l-4.3401-0.37714c-0.232-0.02037-0.43854 0.1525-0.45834 0.38592-0.0198 0.23342 0.15278 0.43939 0.38478 0.45948l4.3401 0.37743c0.0877 0.0076 0.17259-0.01273 0.24615-0.05347-0.0424 1.0686-0.099 2.5277-0.16976 4.4909-0.42439 11.742-6.9318 21.998-6.9318 21.998-5.5765 0.42892-9.5262-0.11741-11.111-0.40713l4.0487-1.8891c0.19805-0.0931 0.32536-0.29311 0.32536-0.51295v-16.971l2.8576 0.13609c0.16975 0.0079 0.32819-0.08743 0.40176-0.24247l1.2732-2.6878c0.0255-0.05121 0.0396-0.10695 0.0424-0.16382l1.9805-47.532c6e-3 -0.15731-0.0764-0.30528-0.2122-0.3845l-9.1245-5.3196-0.14146-10.729c-3e-3 -0.11346-0.0481-0.22153-0.13015-0.30019zm-91.213 46.838h22.917l11.812-1.5561 14.359-0.07073 2.3002 2.2988 8.6633 23.094-2.5464 3.6781-37.205 12.378-12.378-24.12s-3.8903-4.9513-5.2342-8.3464-2.6878-7.3562-2.6878-7.3562zm53.932-12.132h8.8726l5.1493 2.9886c0.0877 0.05008 0.18674 0.07639 0.28576 0.07639h7.2147c0.14995 0 0.29425-0.05941 0.39893-0.16551l4.0091-4.0083c0.13864-0.13948 0.19523-0.34121 0.14996-0.53304l-3.3018-13.675c-0.0594-0.25407-0.28859-0.43316-0.54889-0.43316h-24.377l-3.6441-2.0046c-0.082-0.04612-0.17541-0.07017-0.27161-0.07017h-11.883c-0.116 0-0.232 0.03621-0.32819 0.10355l-12.166 8.5821c-0.21786 0.15533-0.2999 0.44448-0.18956 0.6912l1.6212 3.671h-372.04c-0.009054 0-0.018107 0-0.027161 5.65e-4l1.2135-1.3035v-1.6268l-0.2122-0.77806v-0.23172l0.24134 0.59019h158.38l1.4826-3.0638h166.92l1.3015 1.3018c0.13014 0.13269 0.31122 0.2071 0.49795 0.2071h31.688c0.12449 0 0.24898-0.03282 0.35649-0.09506l11.645-6.743c0.19239-0.11034 0.31971-0.30245 0.348-0.52031 0.0283-0.21786-0.0453-0.43684-0.20088-0.59217l-5.2342-5.2342c-0.13297-0.13269-0.31405-0.2071-0.50078-0.2071h-14.135l-5.5454-5.5457c-0.13298-0.13269-0.31405-0.2071-0.50079-0.2071h-178.11l4.3005-8.8936h40.702c0.14429 0 0.28293-0.04301 0.39893-0.12336l5.1946-3.5547h28.873l4.1506 3.1566c0.12166 0.09365 0.27161 0.14429 0.42722 0.14429h63.328l0.93366 2.9662c0.0934 0.29453 0.36781 0.49484 0.6762 0.49484h45.69l58.558 0.42072 2.3681 8.7787v1.3668h-7.9729c0.84879 2.4332-0.16976 3.7912-0.16976 3.7912h8.1427v0.28406c0 0.0382 3e-3 0.07639 0.0113 0.11374l8.2049 40.034c0.0283 0.1375 0.10751 0.25973 0.22068 0.34291l9.812 7.1867v16.955l-19.381 7.2682-6.3178-0.87737c0-0.0224-3e-3 -0.045-6e-3 -0.0679l-0.56586-3.961c-0.0113-0.0942-0.0566-0.18107-0.12732-0.24699l-3.8676-3.6925s4.2836-5.355 4.2836-5.355c0.0934-0.11572 0.11883-0.2719 0.0679-0.41138l-10.941-29.802c-0.0594-0.16693-0.22069-0.27812-0.39893-0.27812h-8.0069l2.4983-3.2794c0.0509-0.06564 0.0792-0.14458 0.0849-0.22691zm-293.12 39.883-1.3694-6.2058v-1.9188h4.3373v1.3204c0 0.04329 6e-3 0.08686 0.017 0.12902l1.7202 7.3327-0.17259 0.1723-3.8535-0.08403zm17.918 0-1.3694-6.2058v-1.9188h4.3401v1.3204c0 0.04329 6e-3 0.08686 0.0141 0.12902l1.7202 7.3327-0.17259 0.1723-3.8535-0.08403zm315.44-59.792 9 5.2455s-1.9664 47.191-1.9664 47.191l-1.1147 2.3543-2.6143-0.12449v-7.3604c0-0.18023-0.0849-0.3497-0.232-0.45636l-9.8686-7.2271-5.8397-28.497zm-138.41 32.917h-17.57l-2.7161 2.7161v9.6762l4.0742 2.3766 0.53474-0.0099c0.0679 0.04725 0.14995 0.07554 0.23766 0.07696l36.922 0.63659c0.14995 0.0028 0.28858-0.07328 0.3678-0.19975 0.0792-0.12647 0.0849-0.28519 0.017-0.41789l-3.0217-5.8999-2.32-8.938c-0.0509-0.18984-0.22351-0.32112-0.41874-0.31745zm7.1383 0.71581c-8e-3 0.41958-8e-3 0.86859 0.0198 0.86859 0.0566 0 2.8293 2.8293 2.8293 2.8293 3.0556 6.7903-1.6976 9.9025-1.6976 9.9025l-2.2465 0.04131 14.746 0.25435-2.719-5.3117c-0.0141-0.02745-0.0255-0.05659-0.034-0.08658l-2.2493-8.6593zm148.33 8.4398-4.3373-0.37714c-0.23483-0.02037-0.44137 0.1525-0.46117 0.38592-0.0198 0.23342 0.15278 0.43939 0.38761 0.45948l4.3373 0.37743c0.23483 0.02009 0.43854-0.15278 0.45835-0.3862 0.0226-0.23313-0.14996-0.43911-0.38479-0.45948zm-16.257-9.5268c-1.4062 0-2.5464 1.1408-2.5464 2.5464 0 1.4053 1.1402 2.5464 2.5464 2.5464 1.4033 0 2.5464-1.1411 2.5464-2.5464 0-1.4056-1.143-2.5464-2.5464-2.5464zm0 0.84879c0.9365 0 1.6976 0.76051 1.6976 1.6976 0 0.93678-0.76108 1.6976-1.6976 1.6976-0.93649 0-1.6976-0.7608-1.6976-1.6976 0-0.93706 0.76108-1.6976 1.6976-1.6976zm17.199-9.1465-4.3373-0.37714c-0.232-0.02037-0.43854 0.1525-0.45834 0.38592-0.0198 0.23342 0.15278 0.43939 0.38478 0.45948l4.3373 0.37743c0.23483 0.02009 0.44137-0.15278 0.46118-0.3862 0.0198-0.23313-0.15278-0.43911-0.38761-0.45948zm-87.651-12.821 11.64-8.2114h11.558l3.647 2.0048c0.082 0.04583 0.17542 0.06988 0.27162 0.06988h24.074l3.1235 12.934-3.6187 3.6178h-6.8271l-5.1493-2.9886c-0.0877-0.05008-0.18673-0.07639-0.28575-0.07639h-35.185zm-279.17-1.6591-0.91386 0.033951h-90.396l-0.18051 1.379v-19.421s0.2122-6.4366 0.49513-7.144c0.28293-0.70732 3.5366-3.6073 3.5366-3.6073v-1.2737c0.016127 0.0014 0.03282 2e-3 0.04923 2e-3h25.816l6.9606 2.4128c0.07441 0.02603 0.15278 0.03904 0.23172 0.03904h66.434zm331.58-24.559 13.207 0.13326 3.5706 3.4382 0.13581 10.379-12.503 11.008-2.1135-10.309v-0.22691h4.3062c2.6567-2.0371 0.11035-3.7912 0.11035-3.7912h-4.4165v-1.4418c0-0.04951-6e-3 -0.09931-0.0198-0.14712l-2.3823-8.8387c0.0453-0.06083 0.0792-0.12902 0.10468-0.20286zm18.755 19.752c-1.4062 0-2.5464 1.1408-2.5464 2.5464 0 1.4053 1.1402 2.5464 2.5464 2.5464 1.4033 0 2.5464-1.1411 2.5464-2.5464 0-1.4056-1.143-2.5464-2.5464-2.5464zm-336.29-22.771h65.43l-11.614 24.435-0.53474 1.0706c-0.0311 0.06026-0.0509 0.12364-0.0622 0.18815l-0.97893 2.0603-63.376-0.28293-1.0864 0.04018zm336.29 23.62c0.9365 0 1.6976 0.76051 1.6976 1.6976 0 0.93678-0.76108 1.6976-1.6976 1.6976-0.93649 0-1.6976-0.7608-1.6976-1.6976 0-0.93706 0.76108-1.6976 1.6976-1.6976zm-180.7-13.312h85.331l5.5454 5.5457c0.13297 0.13269 0.31405 0.2071 0.50078 0.2071h14.138s4.3741 4.3761 4.3741 4.3761l-10.686 6.1865h-31.204l-1.3015-1.3018c-0.13297-0.13269-0.31405-0.2071-0.50078-0.2071h-166.53l5.8198-12.036 1.3864-2.7704h14.226l2.4162 3.1781h12.967l2.1559-3.1781h44.094l2.2719 2.9894h12.969zm-123.87-0.50475c0-0.83266-0.67621-1.5089-1.5108-1.5089h-1.8843c-0.83464 0-1.5108 0.6762-1.5108 1.5089v7.3562c0 0.83294 0.6762 1.5091 1.5108 1.5091h1.8843c0.83464 0 1.5108-0.6762 1.5108-1.5091v-7.3562zm-8.5841 0c0-0.83266-0.6762-1.5089-1.508-1.5089h-1.8871c-0.83181 0-1.508 0.6762-1.508 1.5089v7.3562c0 0.83294 0.6762 1.5091 1.508 1.5091h1.8871c0.83181 0 1.508-0.6762 1.508-1.5091v-7.3562zm17.072 0c0-0.83266-0.67621-1.5089-1.5108-1.5089h-1.8843c-0.83464 0-1.5108 0.6762-1.5108 1.5089v7.3562c0 0.83294 0.6762 1.5091 1.5108 1.5091h1.8843c0.83464 0 1.5108-0.6762 1.5108-1.5091zm-25.747 0c0-0.83266-0.6762-1.5089-1.5108-1.5089h-1.8843c-0.83464 0-1.5108 0.6762-1.5108 1.5089v7.3562c0 0.83294 0.6762 1.5091 1.5108 1.5091h1.8843c0.83464 0 1.5108-0.6762 1.5108-1.5091zm7.5429 0v7.3562c0 0.20824-0.16692 0.37743-0.37629 0.37743h-1.8871c-0.20654 0-0.37629-0.16919-0.37629-0.37743v-7.3562c0-0.20824 0.16975-0.37714 0.37629-0.37714h1.8871c0.20937 0 0.37629 0.16891 0.37629 0.37714zm-8.6746 0v7.3562c0 0.20824-0.16976 0.37743-0.37912 0.37743h-1.8843c-0.20937 0-0.37913-0.16919-0.37913-0.37743v-7.3562c0-0.20824 0.16976-0.37714 0.37913-0.37714h1.8843c0.20936 0 0.37912 0.16891 0.37912 0.37714zm17.259 0v7.3562c0 0.20824-0.16976 0.37743-0.37913 0.37743h-1.8843c-0.20937 0-0.37913-0.16919-0.37913-0.37743v-7.3562c0-0.20824 0.16976-0.37714 0.37913-0.37714h1.8843c0.20937 0 0.37913 0.16891 0.37913 0.37714zm8.4879 0v7.3562c0 0.20824-0.16976 0.37743-0.37913 0.37743h-1.8843c-0.20937 0-0.37913-0.16919-0.37913-0.37743v-7.3562c0-0.20824 0.16976-0.37714 0.37913-0.37714h1.8843c0.20937 0 0.37913 0.16891 0.37913 0.37714zm-84.941-4.7402c0-0.31235-0.25379-0.56586-0.56586-0.56586h-18.296c-0.31235 0-0.56586 0.2535-0.56586 0.56586v1.1317c0 0.31207 0.2535 0.56586 0.56586 0.56586h18.296c0.31207 0 0.56586-0.25379 0.56586-0.56586zm25.84-0.0945c0-0.31235-0.25181-0.56586-0.56586-0.56586h-14.335c-0.31235 0-0.56586 0.2535-0.56586 0.56586v1.1317c0 0.31235 0.2535 0.56586 0.56586 0.56586h14.335c0.31405 0 0.56586-0.2535 0.56586-0.56586zm-55.265 0c0-0.31235-0.25379-0.56586-0.56586-0.56586h-22.634c-0.31235 0-0.56586 0.2535-0.56586 0.56586v1.1317c0 0.31235 0.2535 0.56586 0.56586 0.56586h22.634c0.31207 0 0.56586-0.2535 0.56586-0.56586zm392.46-2.8044c-8e-3 -0.0045-0.0198-0.0091-0.0283-0.01358l-0.7243-2.6799c-8e-3 -0.03056-0.017-0.0597-0.0311-0.08742 4.4476-0.01075 24.881-0.05291 27.653 0.073 3.1122 0.14146 2.4049 0.14146 3.6781 1.2024 0.24332 0.20371 0.66205 0.75202 1.177 1.5055zm-70.877-7.0636v3.138c0 0.3231 0.0905 0.62527 0.24332 0.88415h-0.59698c-0.232 0-0.4244 0.19013-0.4244 0.42439v2.122h-32.913l-0.93366-2.9662c-0.0934-0.29453-0.36498-0.49484-0.67337-0.49484h-63.611l-4.1477-3.1564c-0.12166-0.09365-0.27444-0.14458-0.42722-0.14458h-29.331c-0.14147 0-0.2801 0.04329-0.39893 0.12364l-5.1946 3.5544h-54.368v-4.2714l3.0754-3.0749c0.20088-0.20229 0.2603-0.50673 0.15278-0.77098-0.11034-0.26426-0.3678-0.43656-0.65356-0.43656h-0.31971l1.1657-1.3971h94.781l10.013-8.3385h53.222l1.7287 1.3516s0.18107-0.015561 1.1006-0.93508c0.91952-0.91952 0.49513-1.5561 0.49513-1.5561h6.9318c-0.28293 1.7683 2.6171 3.2537 2.6171 3.2537h3.7488l0.77806 0.77805h1.1317l1.061 1.061h1.9098l4.3147-0.14146 1.5561 1.7683s14.571-0.2122 16.198 0c1.6268 0.2122 6.2952 2.8293 6.2952 2.8293l1.7683 0.2122 7.2854 0.2122v0.77805h35.012l1.6042 2.7317h-51.722c-0.23483 0-0.4244 0.18984-0.4244 0.42439v3.5836c0 0.23455 0.18957 0.42439 0.4244 0.42439h53.85c0.18108 0 0.33386-0.1126 0.3961-0.27133l2.4106 2.472c-0.10468 0.13524-0.14712 0.31575-0.099 0.49314l0.62528 2.3217-58.167-0.41789h-4.6994v-2.122c0-0.23426-0.18956-0.42439-0.42439-0.42439h-0.52342c0.15278-0.25888 0.24049-0.56105 0.24049-0.88415v-7.9927c0-0.9563-0.77522-1.7329-1.7315-1.7329h-2.6171c-0.9563 0-1.7344 0.77664-1.7344 1.7329v4.006h-33.671v-2.5181c0-0.23455-0.18956-0.42439-0.4244-0.42439h-59.924c-0.23483 0-0.42439 0.19013-0.42439 0.42439s0.18956 0.42439 0.42439 0.42439h59.5v2.5181c0 0.23427 0.18956 0.42439 0.42439 0.42439zm5.9415 6.5685h-5.8708v-1.6976h5.8708zm-0.70733-11.423v7.9927c0 0.48805-0.3961 0.88415-0.88273 0.88415h-2.6171c-0.48946 0-0.88556-0.3961-0.88556-0.88415v-7.9927c0-0.48777 0.3961-0.88415 0.88556-0.88415h2.6171c0.48663 0 0.88273 0.39638 0.88273 0.88415zm-285.83 8.3393h-34.02l-6.9606-2.4128c-0.07469-0.02603-0.15278-0.03904-0.23172-0.03904h-25.935c-0.01641 0-0.033103 5.66e-4 -0.04923 0.0017v-0.4275l1.6976-1.9098 0.070732-2.4049s2.6171-0.2122 4.8805-1.839c2.2634-1.6268 2.4756-9.4074 2.4756-9.4074l5.6586-0.2122 18.744 4.7391 0.28293 2.4049 4.2439 0.28293 6.2952 3.2537 26.239 0.05347-2.7549 2.8205c-0.11317 0.11572-0.18306 0.2668-0.19805 0.42807zm33.577 0h-26.107v-4.2714l3.0763-3.0749c0.14712-0.14882 0.22068-0.35281 0.20371-0.55567l1.061 0.0023 4.0317 1.4854 0.77806-1.4854 7.4269 0.07073 3.183 1.4854 0.84879-1.5561 6.9318-0.07073 3.3952 1.6268 0.77805-1.5561 7.4269 0.07073 1.839 1.2024h1.3439l0.70732-1.2732 6.9318 0.14146 1.9805 0.99025 1.5561 0.2122 0.63659-1.4146 7.2147 0.14146 1.839 1.3439 1.4854 0.14146 0.49512-1.6268 7.144 0.07073 2.3738 1.6053-1.1713 1.1979c-0.11317 0.11572-0.18107 0.2668-0.19805 0.42807l-0.43854 4.6683h-46.098c-0.0679-0.02179-0.13864-0.0314-0.2122-0.02716zm54.515-6.541-1.4769 1.4763c-0.13298 0.13269-0.20654 0.31264-0.20654 0.50022v4.1503l-4.5919-0.05715 0.35932-3.8156 2.0286-2.0775zm-86.626 6.0697 0.35762-3.8156s2.786-2.8522 2.786-2.8522h3.7284l-2.0744 2.0744c-0.13269 0.13269-0.20739 0.31264-0.20739 0.50022v4.1503zm345.42-1.8911-1.6947-2.9079c-0.0792 0.10497-0.20371 0.17315-0.34235 0.17315h-51.352v2.7348zm-90.319-11.246c-0.91103-0.95828-2.1984-1.5561-3.6243-1.5561-2.7586 0-4.9965 2.2399-4.9965 4.9985 0 2.7588 2.238 4.9985 4.9965 4.9985 2.7274 0 4.9484-2.189 4.9994-4.9043h13.204c0.23483 0 0.42439-0.18985 0.42439-0.42439v-2.6878c0-0.23427-0.18956-0.42439-0.42439-0.42439zm0.52625 3.5366c-0.0509 2.247-1.89 4.0555-4.1506 4.0555-2.2889 0-4.1477-1.8594-4.1477-4.1497s1.8588-4.1497 4.1477-4.1497c1.2138 0 2.3059 0.52229 3.067 1.3535v2.466c0 0.23455 0.18956 0.42439 0.42439 0.42439zm-311.67-0.9713v-4.5834l16.07 4.0176v0.90537zm311.43-0.50418c0.0707 0.20229 0.12731 0.41166 0.16692 0.62669h-0.16692zm0.35932-1.2124h13.504v1.839h-12.836c-0.10186-0.66488-0.33386-1.287-0.66771-1.839zm-22.759-1.7445c0-0.63772-0.51776-1.1555-1.1544-1.1555h-30.794c-0.63659 0-1.1544 0.51776-1.1544 1.1555v1.4616c0 0.63772 0.51776 1.1555 1.1544 1.1555h30.794c0.63659 0 1.1544-0.51776 1.1544-1.1555v-1.4616zm-0.84879 0v1.4616c0 0.16919-0.13864 0.3067-0.30556 0.3067h-30.794c-0.16692 0-0.30556-0.1375-0.30556-0.3067v-1.4616c0-0.16919 0.13864-0.3067 0.30556-0.3067h30.794c0.16692 0 0.30556 0.1375 0.30556 0.3067z"  fill="#fff" stroke="#000" stroke-width="1.5"/>
</svg>
