<?xml version="1.0" encoding="UTF-8"?>
<svg clip-rule="evenodd" fill-rule="evenodd" stroke-linejoin="round" stroke-miterlimit="2" version="1.1" viewBox="0 0 477 128" xmlns="http://www.w3.org/2000/svg">
  <path d="m475.12 91.717c1.126 3.9017 1.8335 9.1693 1.3088 11.37 0 .00059-27.296 24.913-27.296 24.913-.91381-.05955-6.7681-.49228-10.83-2.1295-1.0081-.40502-1.9043-.87961-2.5764-1.445l12.392-1.7097 24.685-22.879zm-40.744 30.514c-.95508-2.4626-2.5822-4.1056-4.0679-5.4345-1.0317-.92442-1.9868-1.6891-2.5704-2.4861-.45395-.62965-1.6272-1.4084-3.0539-2.1737-3.0952-1.6602-7.3871-3.3115-7.7408-3.4465 0 .00059-9.5802-5.7257-9.5802-5.7257 1.5387-.31423 2.9537-.57305 4.2566-.82538 5.7835-1.1184 9.5508-2.1583 13.112-6.9202 3.5491-4.7447 6.886-13.358 11.85-29.988.2535.15564.50112.30952.75462.46103 4.8343 2.9318 7.5817 5.902 10.353 8.7419 2.8004 2.877 5.6243 5.6226 10.6 8.0728 6.9567 3.4288 10.282 3.9459 12.416 4.2542.87844.12734 1.5505.21401 2.1931.47164.22403.089612.44217.32366.6662.65264.04716.068977.09432.14149.13559.21813l-2.9831 10.452-23.659 21.926zm-14.644-68.745c3.6258 2.752 9.5684 7.1224 15.299 10.772-4.9346 16.608-8.1948 25.195-11.714 29.901-3.2602 4.3538-6.7445 5.2211-12.033 6.2428-1.8276.35314-3.8557.71867-6.1549 1.2292l-2.3346-1.3943c-.18276-.13855-2.2757-1.7162-5.4652-3.8863 5.9781-15.866 9.8986-25.779 13.129-32.131 2.3936-4.7111 4.3745-7.416 6.5735-9.1263.85485-.66855 1.7451-1.1821 2.7002-1.6071zm-47.264 29.692c3.384-.84483 5.9309-1.6519 8.2832-3.4843 2.3464-1.827 4.5042-4.6869 7.0628-9.72 3.0598-6.0205 6.7445-15.223 12.192-29.63 5.5477 2.722 11.337 6.1467 16.213 10.432 0 .003538.00589.006486.01179.010023 0 0 .70746.56184 1.9278 1.4981-.77232.39677-1.5034.85839-2.2167 1.4143-2.3405 1.827-4.4983 4.6875-7.057 9.7206-3.2249 6.3336-7.1336 16.189-13.059 31.917-6.267-4.1776-15.635-9.8503-23.358-12.157zm-139.74-22.368h43.774c.06014 0 .11909-.018276.16861-.05306l11.125-7.7432h60.829l.83127.61608c5.4062 3.9877 8.4837 8.407 9.3916 13.328.96097 5.1898-.45396 10.871-3.8616 17.083-1.1614.57835-2.0281 1.2074-2.8593 1.7669-.80768.54062-1.58 1.0158-2.5881 1.2982l-46.698-.36788-20.522-8.6116c-.711-.76701-9.8225-10.44-19.444-12.935-6.9744-1.8082-18.921-2.9849-26.095-3.8439-1.6478-.1975-3.0397-.37378-4.052-.53767zm148.2-28.32c3.3546 1.3701 10.099 3.6063 17.48 7.0835-5.4475 14.401-9.1204 23.592-12.174 29.598-2.3936 4.7117-4.3745 7.4166-6.5676 9.1269-2.1754 1.6938-4.5514 2.3971-7.6878 3.1789-1.0376.25764-2.1578.52175-3.3722.82596-.71926-.10317-1.4149-.16154-2.0811-.17156-3.2484-.047754-5.6892.18807-7.5875.58248 2.7414-5.8708 3.726-11.306 2.8063-16.292-1.0199-5.5159-4.345-10.542-10.347-15.022zm-51.283 27.746c-.05071-.090202-.14503-.1468-.24821-.15034l-29.92-.88433c-.05955-.001768-.1185.014739-.16802.047165 0 0-4.2849 2.732-3.5238 9.1257.22226 1.8671.33899 3.5338.63966 4.9682.31247 1.4892.82479 2.7343 1.8247 3.7083 1.3129 1.2793 3.4872 2.1 7.2427 2.3423 9.1451.59014 24.191.59014 24.191.59014.00648 0 .01297 0 .01945-.00059l11.202-.73694c.02181-.001179.04422-.005306.06544-.011791 0 0 2.2438-.65971 3.4949-3.4406.81005-1.8017 1.2092-4.5142.24408-8.5538-.72044-3.0162-1.4474-4.7471-2.1029-5.6957-.70157-1.0152-1.3648-1.2033-1.8766-1.1154-.64733.11143-1.103.71866-1.2381.92029.00059-.00059-3.6328 2.4083-3.6328 2.4083-.102.067798-.15152.19102-.12499.3101 0 0 .46693 2.1.21755 4.4659-.1639 1.5517-.63318 3.2231-1.7692 4.4723-1.1933 1.3123-1.7675 2.3618-2.2828 3.1494-.35197.53708-.66797.94564-1.1768 1.2139-.43922.23228-1.0158.35963-1.8594.39441.51586-.99752 1.6543-3.5804 1.9986-7.4814.44983-5.0985.13383-7.6459-1.2156-10.045zm-10.726-50.143c-.03714-.001769-.07252-.010612-.10494-.025351l-58.684-.28652v5.9987c.10612-.014149.2146-.021814.32426-.021814h20.149c1.3182 0 2.3877 1.07 2.3877 2.3877v1.0465c0 1.3177-1.0694 2.3877-2.3877 2.3877h-20.149c-.10966 0-.21814-.007664-.32426-.021813v.41504c0 .37319-.17686.72397-.47636.94682l-15.623 11.594c-.2034.15092-.44983.23228-.70275.23228h-30.844c-.20988.32013-1.0087 1.0447-1.9933 2.1354-2.0009 2.2155-4.8302 6.3076-3.2396 12.276.65323 2.4531 2.0363 5.2052 4.4617 8.2673l.34666.43745h63.605l11.125-7.7432c.04952-.034784.10848-.05306.16861-.05306h59.427c.83717 0 1.3972.00059 1.6272.001179l23.924-15.32c-.12381-.072515-.24172-.14739-.36552-.22462-1.8276-1.1679-3.6434-2.8358-16.873-3.1706-7.1984-.18158-14.401-3.7165-20.434-7.9448-7.4578-5.2276-13.116-11.47-14.725-13.321zm-109.66 24.654c-1.8046 1.886-4.6168 5.3549-4.8231 10.371-.10848 2.6265.49228 5.6957 2.3771 9.1935 0 .000589-6.6189.000589-6.6189.000589l-10.028-19.566h19.094zm-27.149 19.565h-11.604l-1.7333-.13501-9.9593-19.431h13.268zm15.434 0h-12.784l-10.029-19.566h12.784zm-41.38-19.566 9.8491 19.216-13.505-1.0529-9.3096-18.163zm63.027 3.9453c-4.0673 0-7.3694 3.3021-7.3694 7.3694s3.3021 7.3694 7.3694 7.3694c4.0673 0 7.3694-3.3021 7.3694-7.3694s-3.3021-7.3694-7.3694-7.3694zm-78.643-3.9453 9.1994 17.948-14.229-1.1089-8.631-16.839zm223.14 13.335c-1.0553 0-1.916.85898-1.916 1.916 0 1.0577.86075 1.916 1.916 1.916 1.0612 0 1.916-.85839 1.916-1.916 0-1.0571-.85486-1.916-1.916-1.916zm-12.475 3.5456c.03537-.047754.07074-.10258.08253-.158l.02948-.018866c.0059.044806 0 .09197-.01179.13737-.01179.030657-.02358.058955-.04127.083716zm-226.97-16.88 8.5208 16.624-12.487-.97335-8.0214-15.65zm-14.638 0 7.9112 15.435-12.592-.98161-7.4083-14.453zm-27.773 0h13.034l7.2981 14.238-13.474-1.0506zm2.2474 9.4328h-62.841c-.28416-.39795-1.2286-1.6849-2.6011-3.1883h63.784zm291.55-4.3521c-1.0553 0-1.916.85898-1.916 1.916 0 1.0577.86075 1.916 1.916 1.916 1.0612 0 1.916-.85839 1.916-1.916 0-1.0571-.85485-1.916-1.916-1.916zm-294.71-1.725h-65.279c-1.8795-1.5647-4.0632-2.9089-6.2923-3.3139-.076052-.01415-.1521-.027709-.22757-.041859h70.054zm294.06-5.2995-.56597-.16684c-.84306-.24879-1.3206-.65382-1.9809-1.0783-1.916-1.2274-4.9935-2.8322-17.657-3.1523-6.6384-.16802-13.248-3.512-18.813-7.4124-6.682-4.6834-11.863-10.212-13.794-12.388-.00059-.0005895-.04304-3.2862-.04304-3.2862.1692-.22226.46162-.44334.94859-.62021.94624-.3443 2.9242-.7393 4.7264-.5359 1.1549.1297 2.2409.50112 2.9018 1.3271 1.0724 1.3401 5.3573 5.0442 10.064 7.3706 3.1771 1.5706 6.5452 2.5032 9.263 1.7191 5.9427-1.7168 9.539-4.0225 10.27-4.5172-.0059 0 10.358 4.4617 10.358 4.4617.1356.31187.54239 1.5499-.61903 3.2932-1.297 1.9473-3.5137 4.8125-4.009 5.4528-.47753-.051291-1.8866-.18571-3.3487-.14208-1.2322.036552-2.4938.20634-3.2956.63613-2.0104 1.0836-2.6235 2.1772-2.6235 2.1772-.04716.088433-.05306.19632 0 .28593.04716.089612.1356.14798.24172.15446l19.054 1.1726c.35963.32131 1.8807 1.7463 2.37 3.0421zm-171.78-20.361 3.8551 3.8551c.22108.22108.52116.34548.83363.34548h49.891v4.7371l-14.834 11.009h-240.67-.0005896c-1.4786-1.0311-2.2698-2.4066-2.2698-4.3108 0-2.9902.093149-11.17.14739-15.636zm-70.229 6.1815c-2.9201 0-5.5088.55241-7.1141 1.3925-1.1726.61372-1.8276 1.402-1.8276 2.2208 0 .8183.65499 1.6071 1.8276 2.2203 1.6054.8407 4.1941 1.3931 7.1141 1.3931s5.5094-.55241 7.1141-1.3931c1.1726-.61314 1.8276-1.402 1.8276-2.2203 0-.81889-.65499-1.6071-1.8276-2.2208-1.6048-.84011-4.1941-1.3925-7.1141-1.3925zm-106.12-.39323c-2.9201 0-5.5088.55241-7.1141 1.3931-1.1726.61314-1.8276 1.402-1.8276 2.2203 0 .81889.65499 1.6071 1.8276 2.2208 1.6054.84011 4.1941 1.3925 7.1141 1.3925s5.5094-.55241 7.1141-1.3925c1.1726-.61372 1.8276-1.402 1.8276-2.2208 0-.8183-.65499-1.6071-1.8276-2.2203-1.6048-.8407-4.1941-1.3931-7.1141-1.3931zm69.96 0c-2.9201 0-5.5094.55241-7.1141 1.3931-1.1726.61314-1.8276 1.402-1.8276 2.2203 0 .81889.65499 1.6071 1.8276 2.2208 1.6048.84011 4.1941 1.3925 7.1141 1.3925s5.5088-.55241 7.1141-1.3925c1.172-.61372 1.827-1.402 1.827-2.2208 0-.8183-.655-1.6071-1.827-2.2203-1.6054-.8407-4.1941-1.3931-7.1141-1.3931zm-35.373 0c-2.9201 0-5.5094.55241-7.1141 1.3931-1.1726.61314-1.8276 1.402-1.8276 2.2203 0 .81889.65499 1.6071 1.8276 2.2208 1.6048.84011 4.1941 1.3925 7.1141 1.3925s5.5088-.55241 7.1141-1.3925c1.172-.61372 1.827-1.402 1.827-2.2208 0-.8183-.65499-1.6071-1.827-2.2203-1.6054-.8407-4.1941-1.3931-7.1141-1.3931zm300.65-3.5927c-1.1319 0-2.1401.31895-2.7591.79649-.47165.36022-.73695.81417-.73695 1.2947 0 .48108.2653.93444.73695 1.2947.61903.47754 1.6272.79649 2.7591.79649 1.132 0 2.1342-.31895 2.7591-.79649.47164-.36022.73105-.81358.73105-1.2947 0-.48049-.25941-.93444-.73105-1.2947-.62492-.47754-1.6272-.79649-2.7591-.79649zm-153.55-.058366c.00884-.035373.00825-.073104-.0059-.11142.01415.034194.02182.071925.02182.11142zm-.07075-.20929.01061.011202zm-204.63-8.4571h45.094l.012971-.0017687c.043627-.0064851.18866-.03891.25174-.16272h208.58v8.5361h-49.402l-3.8557-3.8551c-.22108-.22108-.52058-.34548-.83363-.34548h-203.5c.0029478-.23995.0047164-.41917.0064851-.52765zm199.49 6.2375-.00295-.002948h-.29478c0 .081948.03361.15623.08726.20929l.20752.085485-.00177-.031836c-.00177-.051881-.00413-.15682.00472-.25999zm115.29-5.0312-58.474-.28534v-1.5039l.46575-.46575h5.7735c.07841 0 .15328-.031246.2087-.086664l2.0511-2.0505h38.714c.16331 0 .29478-.13206.29478-.29478v-2.4319h1.7687v2.0634c0 .077821.03125.15269.08666.20811l2.9478 2.9478c.05542.055418.13029.086664.20811.086664h5.5218s.41504.41505.41504.41505zm-314.54-1.501c-.021224.05306-.12616.1521-.2034.22108l.071336-.030067-.097276.097866c.13324-.028298.23346-.1468.23346-.28888zm-.53001.17215c.043627.055418.10494.086075.15446.10317-.06603-.0076642-.12734-.037731-.17333-.084306zm.091381-.091381c.01297.031836.02712.062493.04009.089022l-.064261-.064851zm.31718-.080769h-.032425c-.017687.051291-.04009.10199-.062493.14562.028888-.048343.062493-.10199.094918-.14562zm18.837-1.4739h-8.1918l3.2602-3.2596h1.6714z" fill="#fff" stroke="#000" stroke-width="1.5"/>
</svg>
