<?xml version="1.0" encoding="UTF-8" standalone="no"?><!DOCTYPE svg PUBLIC "-//W3C//DTD SVG 1.1//EN" "http://www.w3.org/Graphics/SVG/1.1/DTD/svg11.dtd"><svg width="100%" height="100%" viewBox="0 0 660 450" version="1.1" xmlns="http://www.w3.org/2000/svg" xmlns:xlink="http://www.w3.org/1999/xlink" xml:space="preserve" xmlns:serif="http://www.serif.com/" style="fill-rule:evenodd;clip-rule:evenodd;stroke-linecap:round;stroke-linejoin:round;stroke-miterlimit:1.5;"><g id="Knife---Gauntlet" serif:id="Knife - Gauntlet"><g id="Layer1"><path d="M18.082,181.257l13.073,13.798l9.356,6.94l15.095,10.296l15.406,7.686l26.143,10.026l12.233,2.629l9.711,1.403l10.007,1.155l25.78,-3.653l30.545,-2.684l63.425,-4.219l29,-0.736l9.9,-0.36l4.274,0.713l3.176,2.751l5.034,1.204l6.864,-0.284l11.938,-5.682l3.213,0.045l3.289,0.678l1.235,1.235l1.968,5.292l1.211,2.549l2.744,3.783l3.933,2.873l3.904,1.435l4.414,1.004l4.163,1.761l1.133,2.06l-0.833,3.575l-1.101,6.595l0.803,5.297l3.408,4.426l2.472,2.512l4.406,3.089l3.902,1.511l1.016,-0.492l-2.808,-7.118l-1.914,-7.063l0.573,-4.353l4.119,-10.287l2.275,-4.47l3.246,-3.096l2.409,-0.786l3.551,0.339l3.47,-0.05l4.794,0.735l7.869,0.075l7.885,-1.274l12.824,-1.45l7.903,-0.979l7.225,-0.256l11.824,-0.649l9.733,-0.045l7.345,-0.151l7.34,-0.029l10.814,0.914l5.797,0.215l8.296,1.131l9.981,1.123l7.776,1.597l6.515,1.289l5.461,1.234l6.793,1.545l4.741,1.598l13.684,4.24l9.048,3.654l7.608,3.847l5.659,3.314l6.235,4.444l4.225,3.347l4.512,4.04l5.649,6.518l1.747,2.771l1.557,2.424l4.343,-1.119l4.946,-0.962l2.789,2.907l2.81,2.912l3.235,0.774l3.548,-0.657l11.231,-12.118l4.489,-5.49l0.957,-2.575l-1.778,-3.05l-1.103,-2.065l-17.322,-10.465l-29.171,-17.25l-34.265,-16.063l-15.707,-4.379l-20.69,-4.559l-18.618,-2.923l-19.368,-1.168l-23.404,0.946l-13.067,1.433l-13.336,3.044l-8.8,2.332l-6.647,2.705c-0,-0 1.817,-6.499 -0.067,-9.132c-1.883,-2.634 -3.251,-3.273 -3.251,-3.273l-6.9,0.32l-4.484,2.543l-7.564,3.326l-6.414,1.123l-8.222,-0.939l-5.708,-4.322l-2.892,-7.07l-0.63,-6.837l2.191,-5.476l4.161,-4.722l3.532,-2.302l6.719,-3.139l1.172,-1.213l-6.757,-3.885l-5.235,-0.414l-4.54,1.657l-3.932,2.843l-1.918,1.376l-1.372,3.534l-2.275,2.878l-3.535,2.019l-4.99,-0.606l-6.295,-6.638c0,-0 -2.356,-3.518 -4.336,-3.441c-1.979,0.077 -16.48,3.142 -16.48,3.142l-18.405,2.884l-17.692,2.165l-21.715,1.446l-18.177,0.02l-14.14,-0.951l-21.363,-2.795l-15.443,-3.539l-17.305,-5.611l-3.66,-1.262l-11.376,6.718c-0,-0 -15.722,7.183 -17.637,7.916c-1.915,0.732 -14.621,5.052 -16.428,5.697c-1.807,0.645 -17.147,2.835 -19.303,2.927c-2.155,0.091 -15.279,0.382 -15.279,0.382l-15.189,-0.875l-15.724,-1.199l-15.815,-2.388l-16.612,-2.964l-5.788,-0.682Z" style="fill:#fff;stroke:#000;stroke-width:1.5px;"/></g><g id="Layer2"><path d="M376.907,171.622l-4.242,1.881l-6.029,3.088l-3.044,2.437l-3.582,6.331l-1.285,5.792l1.488,5.502l2.237,4.788l3.785,3.838l4.596,1.056l4.823,0.789l5.001,-0.97l6.25,-1.773l5.041,-2.546l2.644,-1.601l17.574,-1.272l15.621,-0.477l11.921,-0.206l10.294,-0.03l7.784,-0.071l10.223,0.486l8.467,0.459l8.703,0.316l8.928,1.034l11.112,1.643l9.748,2.025l8.212,1.83l8.307,3.581l23.422,9.163l23.508,12.399l17.333,9.514l17.697,10.688l12.228,6.257l3.163,-1.036l3.47,-0.816l8.18,-9.536l3.87,-6.091l1.047,-3.354l-1.332,-3.85l-1.783,-2.374l-9.944,-10.593l-10.089,-8.15l-12.685,-8.519l-17.35,-8.931l-14.022,-5.795l-19.595,-6.702l-10.683,-2.919l-10.586,-2.369l-11.277,-2.082l-23.106,-3.528l-12.629,-1.448l-8.451,-0.947l-17.957,-0.923l-16.439,-0.005l-10.975,1.516c0,-0 -7.069,1.906 -10.927,3.759c-3.859,1.852 -5.104,2.807 -9.059,3.415c-3.954,0.609 -15.863,0.222 -15.863,0.222l-12.05,-1.051l-9.277,-3.092l-2.416,-0.752Z" style="fill:#fff;stroke:#000;stroke-width:1.5px;"/></g><path d="M635.97,221.964c-1.125,-1.082 -2.309,-2.217 -3.508,-3.428c-1.472,-1.458 -36.921,-35.933 -118.312,-47.43c-66.03,-9.317 -79.495,-3.299 -89.336,1.089c-0.816,0.367 -1.598,0.705 -2.388,1.04c-10.975,4.57 -33.704,2.277 -43.931,-2.718l-0.449,-0.219l-0.028,0.013c-0.789,-0.449 -1.506,-0.904 -2.073,-1.374c-7.564,-6.307 -16.909,-3.044 -22.408,2.664l-0.201,0.21l-0.09,0.274c-1.52,4.531 -3.849,7.111 -6.726,7.44c-3.345,0.392 -6.605,-2.226 -8.222,-4.828c-3.871,-6.214 -5.348,-6.185 -11.015,-5.063l-0.733,0.152c-10.034,2.911 -59.902,11.187 -97.037,8.249c-41.658,-3.29 -61.29,-13.445 -61.481,-13.547l-0.683,-0.369l-0.646,0.438c-0.264,0.178 -26.818,17.788 -53.823,22.042c-0.981,0.159 -1.987,0.295 -3.006,0.417c-0.243,0.033 -0.495,0.062 -0.742,0.088c-2.137,0.25 -4.34,0.448 -6.61,0.589c-0.086,0.006 -0.166,0.01 -0.246,0.013c-35.346,2.172 -84.496,-7.997 -85.039,-8.111l-3.577,-0.746l2.307,2.838c0.409,0.511 42.186,50.962 113.979,54.848l0.255,-0.009c61.218,-8.662 153.854,-12.526 160.116,-11.018c2.916,2.99 11.503,6.414 18.851,3.41l0.04,0.145l1.442,-0.837c0.448,-0.264 0.905,-0.539 1.385,-0.824c4.037,-2.438 8.615,-5.19 13.171,-2.64c0.109,0.276 0.219,0.572 0.327,0.875c1.878,4.98 5.377,14.249 14.899,15.984c4.928,0.898 7.76,1.931 8.425,3.092c0.406,0.709 0.052,1.773 -0.55,3.458c-0.477,1.326 -1.019,2.833 -1.216,4.613c-0.619,5.452 1.01,9.567 5.791,14.668c4.175,4.445 11.333,6.167 11.632,6.239l2.862,0.672l-1.434,-2.572c-0.066,-0.112 -6.355,-11.517 -4.396,-18.33c2.002,-6.997 5.212,-14.354 8.34,-16.769c0.065,-0.05 0.127,-0.093 0.189,-0.136c0.143,-0.101 0.292,-0.191 0.429,-0.275c0.065,-0.037 0.129,-0.074 0.196,-0.105c0.118,-0.055 0.229,-0.094 0.349,-0.129c0.064,-0.023 0.12,-0.049 0.178,-0.07c2.607,-0.673 5.381,-0.219 8.577,0.311c2.924,0.472 6.242,1.013 10.008,0.751c1.231,-0.091 3.381,-0.387 6.354,-0.803c15.505,-2.177 56.656,-7.946 101.937,-0.778c45.229,7.158 75.275,21.642 89.301,43.046c0.708,1.079 1.069,1.618 1.494,1.944c1.101,0.841 2.913,0.362 5.44,-0.294c1.409,-0.366 4.347,-1.132 4.909,-0.747c3.482,5.544 8.023,7.713 12.155,5.782c0.441,-0.206 0.884,-0.467 1.32,-0.759l0.169,-0.148c12.73,-12.533 17.196,-18.223 16.466,-20.994l-0.045,-0.17l-0.087,-0.143c-0.708,-1.222 -1.128,-2.224 -1.262,-2.992l-0.109,-0.569l-0.484,-0.306c-0.033,-0.012 -0.062,-0.032 -0.098,-0.049l0.069,-0.203c0.021,-0.071 0.067,-0.221 0.424,-0.389c0.386,-0.18 0.98,-0.308 1.821,-0.374c0.521,-0.066 1.069,-0.233 1.634,-0.497c4.433,-2.071 10.001,-10.401 14.06,-16.479l0.267,-0.39l0.125,-0.243c2.614,-6.621 -2.823,-11.873 -9.702,-18.52Zm-330.241,-4.998l2.719,9.435c-6.516,2.861 -14.428,-0.634 -16.433,-2.899c-2.099,-2.131 -45.75,0.209 -59.079,0.982c-38.815,2.24 -76.332,5.685 -102.973,9.449c-60.645,-3.334 -99.493,-40.402 -109.446,-51.048c7.594,1.443 25.571,4.615 45.274,6.408c10.751,6.276 24.002,10.191 39.397,11.627l0.14,0.009c52.377,-0.676 186.192,-2.203 187.5,-2.216c0.078,0.005 7.77,0.464 12.901,18.253Zm22.236,7.753c-0.181,-0.487 -0.348,-0.934 -0.509,-1.335l-0.157,-0.397l-0.364,-0.225c-5.988,-3.719 -11.861,-0.226 -16.156,2.359l-2.566,-8.873c-5.735,-19.912 -14.984,-20.132 -15.387,-20.135c-1.348,0.017 -135.041,1.542 -187.473,2.217c-12.52,-1.172 -23.574,-4.016 -32.93,-8.458c9.108,0.662 17.334,0.864 24.688,0.656c0.478,-0.012 0.947,-0.027 1.423,-0.045c0.784,-0.026 1.566,-0.058 2.332,-0.095c1.186,-0.057 2.352,-0.126 3.503,-0.214c0.44,-0.035 0.863,-0.076 1.295,-0.114c0.943,-0.08 1.876,-0.169 2.79,-0.269c0.395,-0.041 0.797,-0.086 1.184,-0.131c1.238,-0.149 2.457,-0.31 3.644,-0.497c25.208,-3.973 49.97,-19.309 54.219,-22.037c3.857,1.87 23.401,10.466 61.797,13.495c37.458,2.958 87.825,-5.402 97.862,-8.321l0.622,-0.127c4.942,-0.981 5.236,-1.037 8.302,3.892c2.099,3.385 6.24,6.564 10.729,6.041c2.719,-0.317 6.422,-2.129 8.785,-8.907c4.848,-4.9 12.441,-7.467 18.668,-2.273c0.157,0.132 0.344,0.255 0.512,0.381c-1.624,0.548 -3.166,1.153 -4.57,1.808c-10.252,4.791 -14.357,12.286 -11.868,21.68c1.593,6.018 4.609,10.098 8.952,12.135c6.98,3.263 15.756,0.532 21.9,-2.339c2.694,-1.259 4.661,-2.443 5.36,-2.886c0.888,-0.081 3.636,-0.323 7.798,-0.612c3.014,4.687 3.075,8.608 0.187,12.266c-9.017,4.111 -15.056,2.424 -34.543,-3.032l-0.734,-0.201c-7.737,-1.868 -14.583,-1.564 -19.787,0.868c-5.73,2.677 -9.308,7.774 -9.821,13.98c-0.438,5.504 1.675,10.857 5.612,14.561c-0.738,-0.166 -1.521,-0.325 -2.375,-0.477c-8.063,-1.47 -11.106,-9.529 -12.924,-14.339Zm77.319,-23.819c24.084,-1.569 81.977,-3.937 117.028,6.275c1.737,0.51 3.502,1.067 5.281,1.653c-50.859,-15.023 -102.364,-7.147 -119.286,0.759c-0.475,0.222 -0.897,0.44 -1.325,0.661c0.704,-2.924 0.141,-6.053 -1.698,-9.348Zm-46.231,51.832c-1.618,5.646 1.339,13.418 3.231,17.526c-2.257,-0.852 -5.387,-2.332 -7.505,-4.591c-4.303,-4.589 -5.637,-7.882 -5.106,-12.591c0.166,-1.48 0.649,-2.836 1.082,-4.04c0.712,-1.974 1.383,-3.847 0.353,-5.627c-0.008,-0.017 -0.018,-0.025 -0.024,-0.036c3.484,0.429 7.494,-0.376 11.865,-2.418c0.291,-0.136 0.576,-0.283 0.848,-0.416c-2.277,4.237 -3.913,9.292 -4.744,12.193Zm267.8,11.29c-0.027,1.15 -2.238,5.064 -15.696,18.312c-0.284,0.194 -0.561,0.358 -0.846,0.491c-4.07,1.902 -7.549,-2.732 -8.858,-4.804c-1.297,-2.077 -4.583,-1.209 -7.76,-0.385c-1.081,0.28 -2.674,0.705 -3.267,0.661c-0.19,-0.231 -0.523,-0.756 -0.837,-1.223c-14.442,-22.047 -45.087,-36.911 -91.064,-44.183c-45.658,-7.231 -87.097,-1.422 -102.707,0.764c-2.921,0.411 -5.04,0.713 -6.177,0.788c-0.705,0.05 -1.387,0.049 -2.057,0.042l0.001,-0.042c-2.602,-0.03 -4.966,-0.41 -7.262,-0.775c-3.353,-0.544 -6.527,-1.057 -9.66,-0.24c-0.086,0.02 -0.156,0.059 -0.237,0.09c-0.253,0.071 -0.51,0.163 -0.761,0.281c-0.067,0.031 -0.132,0.068 -0.196,0.105c-0.593,0.305 -1.197,0.703 -1.803,1.258l-0.054,0.045c-0.025,0.019 -2.411,1.836 -5.765,3.403c-4.266,1.993 -10.323,3.692 -14.973,0.518c-4.533,-3.098 -7.06,-8.435 -6.624,-13.931c0.429,-5.247 3.464,-9.566 8.327,-11.838c4.668,-2.181 10.921,-2.427 18.036,-0.697l0.683,0.178c19.881,5.571 26.586,7.444 36.648,2.757l0.268,-0.126l0.186,-0.229c0.587,-0.711 1.932,-1.857 5.001,-3.291c17.172,-8.023 70.772,-15.979 122.593,0.971c32.232,10.548 79.164,39.106 93.55,48.089c0.236,0.871 0.671,1.873 1.311,3.011Zm16.469,-24.646l-0.186,0.271c-3.671,5.495 -9.228,13.805 -13.007,15.571c-0.324,0.151 -0.608,0.243 -0.808,0.268c-1.109,0.089 -1.978,0.284 -2.654,0.6c-0.347,0.162 -0.645,0.356 -0.907,0.581c-15.698,-10.23 -64.502,-40.842 -102.741,-51.988c-45.353,-13.224 -128.193,-5.608 -129.025,-5.539l-0.324,0.035l-0.267,0.173c-0.02,0.016 -2.158,1.416 -5.316,2.892c-5.635,2.633 -13.628,5.176 -19.7,2.339c-3.615,-1.688 -6.158,-5.206 -7.542,-10.444c-2.158,-8.131 1.357,-14.411 10.452,-18.661c1.901,-0.888 4.055,-1.684 6.404,-2.372c3.394,1.71 8.064,3.151 13.65,4.158l0.055,-0.305c11.093,1.907 24.285,1.893 31.989,-1.312c0.812,-0.345 1.616,-0.694 2.455,-1.072c9.551,-4.265 22.627,-10.109 87.917,-0.889c80.544,11.362 115.396,45.258 116.838,46.696c1.215,1.216 2.405,2.363 3.535,3.456c7.232,6.966 10.938,10.846 9.182,15.542Z" style="fill:#fff;stroke:#000;stroke-width:1.5px;"/><path d="M275.27,190.184l-124.959,1.415c-0.718,0.008 -1.294,0.598 -1.28,1.313c0.009,0.718 0.595,1.288 1.308,1.282l124.964,-1.417c0.191,-0.001 0.374,-0.045 0.53,-0.119c0.453,-0.211 0.758,-0.667 0.75,-1.194c-0.003,-0.707 -0.593,-1.283 -1.313,-1.28Z" style="fill:#fff;stroke:#000;stroke-width:1.5px;"/><path d="M374.842,185.205c-3.08,1.439 -4.411,5.105 -2.972,8.185c1.437,3.075 5.105,4.412 8.186,2.973c3.08,-1.44 4.411,-5.106 2.972,-8.186c-1.439,-3.08 -5.106,-4.412 -8.186,-2.972Zm4.114,8.804c-1.778,0.831 -3.899,0.065 -4.733,-1.718c-0.83,-1.778 -0.059,-3.902 1.719,-4.733c1.778,-0.83 3.902,-0.059 4.732,1.719c0.834,1.783 0.065,3.899 -1.718,4.732Z" style="fill:#fff;stroke:#000;stroke-width:1.5px;"/><path d="M351.524,221.632c-3.08,1.44 -4.409,5.111 -2.97,8.192c1.437,3.074 5.103,4.406 8.183,2.966c3.075,-1.436 4.412,-5.105 2.975,-8.18c-1.436,-3.074 -5.114,-4.414 -8.188,-2.978Zm4.116,8.81c-1.777,0.831 -3.902,0.06 -4.73,-1.712c-0.833,-1.784 -0.062,-3.908 1.716,-4.739c1.772,-0.828 3.902,-0.059 4.735,1.724c0.834,1.77 0.057,3.897 -1.721,4.727Z" style="fill:#fff;stroke:#000;stroke-width:1.5px;"/><path d="M475.985,178.776c-1.427,-0.708 -3.123,-0.693 -4.654,0.023c-1.303,0.609 -2.394,1.684 -3.068,3.027c-1.505,3.046 -0.493,6.625 2.248,7.987c1.427,0.709 3.122,0.707 4.66,-0.011c1.302,-0.609 2.393,-1.684 3.062,-3.038c1.504,-3.032 0.504,-6.617 -2.248,-7.988Zm-0.082,6.836c-0.835,1.697 -2.821,2.578 -4.232,1.875c-1.463,-0.726 -1.945,-2.749 -1.072,-4.512c0.402,-0.814 1.057,-1.468 1.834,-1.831c0.816,-0.381 1.673,-0.4 2.4,-0.038c1.466,0.732 1.95,2.746 1.07,4.506Z" style="fill:#fff;stroke:#000;stroke-width:1.5px;"/><path d="M452.665,180.363c-1.303,0.608 -2.391,1.689 -3.062,3.024c-0.712,1.449 -0.896,3.067 -0.496,4.549c0.409,1.546 1.384,2.773 2.746,3.444c1.428,0.708 3.123,0.707 4.66,-0.012c1.302,-0.608 2.391,-1.689 3.054,-3.041c1.508,-3.04 0.501,-6.622 -2.245,-7.982c-1.433,-0.706 -3.131,-0.696 -4.657,0.018Zm4.583,6.821c-0.846,1.702 -2.834,2.577 -4.246,1.874c-0.678,-0.343 -1.172,-0.978 -1.385,-1.784c-0.236,-0.87 -0.122,-1.836 0.315,-2.721c0.406,-0.823 1.061,-1.477 1.832,-1.837c0.822,-0.384 1.673,-0.4 2.406,-0.041c1.468,0.724 1.945,2.749 1.078,4.509Z" style="fill:#fff;stroke:#000;stroke-width:1.5px;"/><path d="M448.661,213.146c-1.475,-0.795 -3.241,-0.815 -4.851,-0.062c-1.236,0.577 -2.292,1.581 -2.969,2.844c-1.608,2.985 -0.73,6.6 1.967,8.057c1.467,0.793 3.236,0.818 4.846,0.066c1.241,-0.58 2.297,-1.585 2.974,-2.847c1.614,-2.989 0.727,-6.606 -1.967,-8.058Zm-0.319,6.824c-0.898,1.665 -2.923,2.475 -4.3,1.729c-1.437,-0.772 -1.844,-2.809 -0.915,-4.537c0.418,-0.767 1.053,-1.377 1.785,-1.719c0.861,-0.403 1.78,-0.403 2.518,-0.005c1.437,0.772 1.843,2.809 0.912,4.532Z" style="fill:#fff;stroke:#000;stroke-width:1.5px;"/><path d="M425.548,213.893c-1.241,0.58 -2.289,1.587 -2.969,2.845c-0.766,1.42 -0.994,3.032 -0.656,4.528c0.359,1.556 1.292,2.809 2.628,3.526c1.47,0.798 3.236,0.818 4.846,0.065c1.241,-0.579 2.297,-1.584 2.971,-2.838c0.767,-1.421 0.999,-3.021 0.661,-4.518c-0.356,-1.564 -1.289,-2.817 -2.628,-3.54c-1.475,-0.795 -3.243,-0.82 -4.853,-0.068Zm4.945,4.186c0.201,0.881 0.056,1.84 -0.417,2.708c-0.891,1.663 -2.927,2.465 -4.294,1.728c-0.669,-0.369 -1.146,-1.011 -1.323,-1.827c-0.211,-0.889 -0.059,-1.846 0.409,-2.711c0.409,-0.77 1.047,-1.388 1.779,-1.73c0.861,-0.403 1.78,-0.403 2.52,0c0.665,0.357 1.139,1.008 1.326,1.832Z" style="fill:#fff;stroke:#000;stroke-width:1.5px;"/><path d="M608.769,229.865c0.941,-1.325 1.358,-2.909 1.171,-4.477c-0.206,-1.606 -1.008,-2.988 -2.284,-3.897c-1.666,-1.19 -3.823,-1.361 -5.763,-0.454c-0.995,0.465 -1.859,1.195 -2.516,2.108c-1.969,2.766 -1.473,6.511 1.12,8.372c1.666,1.189 3.82,1.354 5.76,0.448c0.989,-0.462 1.861,-1.19 2.512,-2.1Zm-6.759,-0.458c-1.43,-1.021 -1.658,-3.155 -0.517,-4.751c0.393,-0.544 0.91,-0.983 1.502,-1.26c1.079,-0.504 2.261,-0.423 3.152,0.216c0.675,0.482 1.102,1.222 1.22,2.1c0.108,0.916 -0.132,1.86 -0.703,2.65c-0.392,0.545 -0.912,0.978 -1.504,1.255c-1.087,0.501 -2.267,0.426 -3.15,-0.21Z" style="fill:#fff;stroke:#000;stroke-width:1.5px;"/><path d="M611.004,228.977c-0.995,0.465 -1.862,1.19 -2.513,2.101c-0.949,1.321 -1.363,2.911 -1.17,4.476c0.197,1.604 1.008,2.989 2.278,3.9c1.666,1.19 3.821,1.355 5.76,0.449c0.995,-0.465 1.862,-1.19 2.518,-2.103c0.944,-1.319 1.356,-2.915 1.171,-4.477c-0.203,-1.601 -1.008,-2.988 -2.284,-3.897c-1.636,-1.17 -3.843,-1.344 -5.76,-0.449Zm5.468,4.664c0.114,0.914 -0.134,1.855 -0.705,2.645c-0.39,0.55 -0.909,0.984 -1.502,1.261c-1.079,0.504 -2.261,0.423 -3.149,-0.211c-0.672,-0.476 -1.108,-1.233 -1.214,-2.102c-0.117,-0.92 0.129,-1.852 0.699,-2.643c0.388,-0.555 0.91,-0.983 1.502,-1.26c1.079,-0.504 2.259,-0.429 3.147,0.205c0.683,0.485 1.108,1.233 1.222,2.105Z" style="fill:#fff;stroke:#000;stroke-width:1.5px;"/><path d="M587.825,251.099c-0.139,-1.61 -0.908,-3.022 -2.149,-3.974c-1.659,-1.275 -3.939,-1.49 -5.94,-0.555c-0.922,0.431 -1.749,1.096 -2.384,1.924c-2.064,2.694 -1.695,6.458 0.829,8.405c1.666,1.278 3.946,1.493 5.942,0.561c0.928,-0.434 1.752,-1.105 2.387,-1.932c0.992,-1.288 1.456,-2.86 1.315,-4.429Zm-3.374,2.85c-1.155,1.507 -3.355,1.915 -4.692,0.891c-1.385,-1.069 -1.546,-3.207 -0.351,-4.76c0.386,-0.5 0.88,-0.901 1.428,-1.157c1.118,-0.522 2.374,-0.414 3.264,0.266c0.66,0.509 1.065,1.273 1.144,2.142c0.078,0.911 -0.204,1.853 -0.793,2.618Z" style="fill:#fff;stroke:#000;stroke-width:1.5px;"/><path d="M590.993,253.753c-0.928,0.434 -1.755,1.099 -2.39,1.927c-0.986,1.285 -1.458,2.854 -1.315,4.428c0.139,1.611 0.908,3.022 2.147,3.969c1.666,1.278 3.938,1.49 5.934,0.558c0.933,-0.436 1.754,-1.099 2.389,-1.927c2.067,-2.689 1.695,-6.458 -0.826,-8.4c-1.666,-1.278 -3.938,-1.49 -5.939,-0.555Zm4.712,7.374c-0.389,0.495 -0.883,0.896 -1.436,1.154c-1.112,0.52 -2.36,0.415 -3.256,-0.263c-0.66,-0.509 -1.065,-1.273 -1.146,-2.147c-0.083,-0.922 0.198,-1.85 0.793,-2.618c0.385,-0.501 0.876,-0.893 1.43,-1.152c1.112,-0.52 2.365,-0.418 3.261,0.26c1.393,1.073 1.543,3.216 0.354,4.766Z" style="fill:#fff;stroke:#000;stroke-width:1.5px;"/><path d="M576.779,248.169c1.943,-5.082 0.202,-9.887 -5.178,-14.287l-0.124,-0.091c-0.508,-0.315 -12.852,-7.916 -49.233,-17.608c-30.277,-8.07 -59.225,-5.57 -59.433,-5.548c-1.66,0.047 -3.352,0.449 -4.895,1.17c-3.348,1.564 -5.458,4.307 -5.662,7.399l-0.013,0.919c-0.048,4.824 2.56,8.263 6.629,8.766l0.32,0.001c0.289,-0.04 28.712,-3.458 58.203,4.284c31.573,8.294 45.235,17.943 45.397,18.058c2.465,1.688 7.173,2.553 10.483,1.007c1.453,-0.679 2.529,-1.788 3.098,-3.164l0.408,-0.906Zm-2.785,-0.129c-0.345,0.836 -0.943,1.435 -1.827,1.848c-2.482,1.16 -6.288,0.316 -7.89,-0.781c-0.558,-0.407 -14.11,-10.011 -46.224,-18.441c-28.775,-7.566 -56.55,-4.655 -59.001,-4.375c-3.951,-0.585 -4.216,-4.84 -4.206,-6.132l0.017,-0.853c0.129,-2.069 1.688,-3.996 4.164,-5.153c1.219,-0.569 2.558,-0.895 3.95,-0.933c0.288,-0.025 28.769,-2.49 58.604,5.465c34.6,9.217 47.458,16.667 48.464,17.259c4.417,3.637 5.837,7.332 4.359,11.21l-0.41,0.886Z" style="fill:#fff;stroke:#000;stroke-width:1.5px;"/><path d="M598.543,223.78c2.33,-4.78 1.059,-9.6 -3.765,-14.327l-0.124,-0.106c-0.466,-0.354 -11.744,-8.794 -46.127,-21.381c-28.604,-10.465 -56.856,-10.587 -57.052,-10.583c-1.965,-0.124 -4.043,0.268 -5.854,1.114c-2.862,1.337 -4.736,3.609 -5.155,6.284l-0.093,0.894c-0.469,4.68 1.763,8.262 5.685,9.106l0.319,0.028c0.276,-0.007 28.063,-0.839 55.942,9.256c29.835,10.796 42.203,21.335 42.351,21.464c2.153,1.779 7.063,3.353 10.658,1.674c1.218,-0.569 2.15,-1.447 2.735,-2.572l0.48,-0.851Zm-2.76,-0.413c-0.355,0.67 -0.859,1.15 -1.557,1.477c-2.455,1.146 -6.33,-0.019 -7.874,-1.3c-0.516,-0.447 -12.789,-10.928 -43.145,-21.923c-27.188,-9.84 -54.313,-9.473 -56.75,-9.41c-3.735,-0.911 -3.626,-5.021 -3.507,-6.269l0.085,-0.823c0.276,-1.742 1.623,-3.305 3.685,-4.269c1.42,-0.663 3.052,-0.976 4.664,-0.878c0.284,0.01 28.067,0.119 56.25,10.441c32.661,11.947 44.461,20.28 45.384,20.958c3.949,3.89 4.991,7.578 3.231,11.186l-0.466,0.81Z" style="fill:#fff;stroke:#000;stroke-width:1.5px;"/></g></svg>