<svg clip-rule="evenodd" fill-rule="evenodd" stroke-linejoin="round" stroke-miterlimit="2" version="1.1" viewBox="0 0 450 282" xml:space="preserve" xmlns="http://www.w3.org/2000/svg">
    <path d="m374.12 275.14c0.549 3.232 0.907 5.393 1.023 6.096h-37.862l-13.827-6.096zm47.913 0c0.529 2.427 0.974 4.482 1.321 6.096h-45.126c0-0.082-7e-3 -0.166-0.02-0.249 0 0-0.356-2.163-0.981-5.847zm19.037 0c-0.974 3.645-1.916 6.096-1.916 6.096h-12.667c-0.335-1.564-0.78-3.625-1.319-6.096zm-122.78-36.128c-0.905-3.594-1.878-7.537-2.842-11.489h24.169l4.68-4.68v-0.598l-4.68-4.68h-26.578c-1.185-4.936-2.239-9.372-2.982-12.511h21.39l4.68-4.68v-0.597l-4.68-4.68h-26.862c-1.611-2.6-3.054-6.06-3.054-10.117 0-3.349-0.203-7.409-0.721-11.33h32.987c0.116 0 0.231-0.013 0.344-0.039 0 0 5.851-1.318 11.913 2.052 4.158 2.311 8.358 6.817 10.982 15.291 5.256 16.972 12.953 60.135 16.382 80.101h-59.235l-0.652-0.288s11.234-8.68 8.171-18.893c-0.238-0.792-0.516-1.772-0.825-2.905h30.485l4.68-4.68v-0.597l-4.68-4.68zm105.98 32.043c-4.203-19.126-12.251-54.664-19.805-81.857-9.863-35.507-34.487-47.42-39.838-49.629v-37.967l16.508-15.782h18.465c10.533 0.957 16.833-1.806 20.632-5.351 4.251-3.968 5.42-9.011 5.742-11.5h23.173l-0.136 9.447-9.096 6.734s-29.617 10.212-37.532 18.127-8.171 14.809 8.936 50.299c17.106 35.489 30.383 92.936 31.66 103.66 0.541 4.549-0.066 9.559-0.945 13.819zm-387.06-188.32c-0.335-2.349-0.806-4.259-1.468-4.995-2.298-2.553-19.66-2.042-19.66-2.042l-9.191-4.596-2.043-8.936-3.969-9.192h448.35v9.958l-0.043 2.968h-24.627c-0.846 0-1.532 0.686-1.532 1.532 0 0-0.016 6.242-4.891 10.792-3.362 3.138-8.991 5.396-18.33 4.534-0.047-5e-3 -0.094-7e-3 -0.141-7e-3h-19.149c-0.394 0-0.774 0.152-1.059 0.425l-17.425 16.659c-0.303 0.289-0.474 0.689-0.474 1.108v39.67c0 0.655 0.417 1.238 1.037 1.45 0 0 28.307 9.767 38.913 47.95 7.453 26.832 15.389 61.803 19.62 81.037h-44.609c-3.4-19.806-11.234-63.802-16.561-81.007-2.942-9.5-7.759-14.472-12.42-17.063-6.473-3.599-12.751-2.621-13.902-2.399h-33.31c-1.024-5.606-2.802-10.41-5.693-11.649-5.362-2.298-95.746-6.127-95.746-6.127s-21.191 1.312-23.744-27.302-7.149-27.337-7.149-27.337l-4.341-1.787-15.319 0.255-4.851-6.638h-6.383l0.255 6.383h-8.936l-6-6h-5.745v6.255h-9.191l-7.149-5.362h-3.575v5.362h-8.425l-9.958-5.617-3.063 0.511 1.276 5.361-9.447 0.256h-12l-17.106-0.128s0-5.895-0.481-11.218h22.961l5.122-5.122h123.48l8.139 6.223h96.013l9.521-8.41h30.575l7.58-7.579h-16.245l-3.478-3.479h-10.596l-1.386 1.298-0.012-0.014-17.118 15.12h-93.817l-8.138-6.223h-125.78l-5.122 5.122zm186.91 16.101-30.271-0.223s-9.766 5.745-10.341 8.617c-0.574 2.872-3.063 21.064 1.915 29.489 4.979 8.426 3.447 8.426 35.809 9.958s52.277 4.021 57.064-0.958c4.787-4.978 9.766-6.893 7.468-15.319-2.298-8.425-7.659-24.319-7.659-24.319l-3.639-5.891v-1.354zm36.988 3.319h-14.216l0.383 1.054s2.489 9 2.298 22.294c-0.192 13.295-16.469 16.961-10.149 17.153 6.319 0.191 12.446-5.554 16.468-13.405 3.152-6.154 4.696-20.977 5.216-27.096zm146.01-34.723c2.255 0 4.085 1.83 4.085 4.085s-1.83 4.085-4.085 4.085-4.085-1.83-4.085-4.085 1.83-4.085 4.085-4.085zm-260.42-37.532-18.734 18.734h-127.97v-18.734zm206.1-24.671h34.264s4.596-5.234 5.235-5.234h14.936v13.405h4.34l35.234 35.234h-137.41zm-128.32 5.873-36.345 36.345c-0.333 0.333-0.527 0.753-0.581 1.187h-53.815l37.532-37.532zm58.468 0-36.345 36.345c-0.333 0.333-0.527 0.753-0.581 1.187h-53.304l37.532-37.532zm5.77 0h52.443l-37.532 37.532h-52.443zm81.02 12.606v15.83h3.063v-15.83zm34.468 0v15.83h3.064v-15.83zm-11.49 0v15.83h3.064v-15.83zm-34.468 0v15.83h3.064v-15.83zm22.979 0v15.83h3.064v-15.83zm-34.468 0v15.83h3.064v-15.83zm-185.12-8.744-10.851 10.851h-150.79v-4.245l6.606-6.606zm-115.01-3.064h-23.905v-4.628l19.915-2.809z" fill="#fff" stroke="#000" stroke-width="1.5"/>
</svg>
