<?xml version="1.0" encoding="UTF-8" standalone="no"?><!DOCTYPE svg PUBLIC "-//W3C//DTD SVG 1.1//EN" "http://www.w3.org/Graphics/SVG/1.1/DTD/svg11.dtd"><svg width="100%" height="100%" viewBox="0 0 476 450" version="1.1" xmlns="http://www.w3.org/2000/svg" xmlns:xlink="http://www.w3.org/1999/xlink" xml:space="preserve" xmlns:serif="http://www.serif.com/" style="fill-rule:evenodd;clip-rule:evenodd;stroke-linecap:round;stroke-linejoin:round;stroke-miterlimit:1.5;"><g id="Revolver"><g id="Layer1"><path d="M14.381,125.617l-4.633,-0.138l-2.237,6.211l-0.033,46.624l-1.51,0.527l0.827,20.558l1.02,3.195l0.237,3.772l2.31,0.46l15.669,10.443l96.518,0.076l11.951,13.427l8.601,0.643l3.478,7.705l34.956,0.475l1.075,1.541l99.585,1.347c0,-0 11.998,20.729 31.828,21.596c19.829,0.868 57.115,0.933 57.115,0.933l1.568,0.664c0,0 7.506,2.475 13.464,2.774c5.958,0.3 13.467,2.072 16.126,9.607c2.659,7.536 2.83,10.895 2.038,17.121c-0.792,6.227 -1.697,8.822 -0.661,14.382c1.036,5.559 3.001,8.666 3.001,8.666c-0,-0 -1.682,1.869 -0.625,5.016c1.056,3.147 2.428,4.361 2.428,4.361c-0,-0 8.415,4.926 14.978,2.845c6.563,-2.08 35.548,-10.179 35.548,-10.179l10.68,-25.053l-4.593,-3.457c-0,0 -0.348,-11.306 -1.68,-15.058c-1.333,-3.753 -12.359,-33.041 -17.146,-40.315c-4.787,-7.273 -18.21,-19.535 -25.524,-22.556c-7.313,-3.022 -12.513,-11.733 -5.684,-23.872c6.829,-12.138 3.522,-7.023 3.522,-7.023c0,-0 3.326,-5.868 -2.782,-9.088c-6.109,-3.22 -9.995,-1.793 -13.065,-3.491c-3.07,-1.697 -8.109,-4.555 -8.109,-4.555l2.852,-3.411c0,-0 -4.943,-6.677 -1.36,-12.459c3.583,-5.782 19.082,-8.509 22.909,-8.677c3.828,-0.168 1.013,-7.198 1.013,-7.198l-18.327,0.726l-12.794,1.515l-6.487,8.271l-4.354,-1.069l-1.823,-9.396l-20.071,-8.569l-1.421,1.222l-8.606,-7.299l-10.62,-0.418c-0,0 -5.404,6.535 -17.984,6.781c-12.579,0.246 -110.879,0.151 -110.879,0.151l-105.595,0.097l-41.958,0.138l-1.854,-0.881l-27.032,0.194l-9.406,-4.861l-6.372,-0.047l-0.072,5.006Zm318.637,95.074l-21.637,-0.026c0,0 -8.823,1.725 -9.551,11.847c-0.728,10.122 0.063,10.087 0.063,10.087c-0,0 1.458,9.711 16.429,9.572c14.971,-0.139 42.779,-0.184 42.779,-0.184l0.108,-21.71c0,-0 -2.842,-1.708 -5.456,2.335c-2.613,4.043 -2.926,7.423 -7.385,11.987c-4.46,4.564 -6.808,4.888 -9.178,4.776c-2.371,-0.111 -3.36,-1.381 -3.36,-1.381c-0,0 4.603,-0.737 6.371,-7.394c1.767,-6.658 3.063,-9.372 -1.979,-11.947c-5.043,-2.575 -7.027,-3.287 -7.087,-5.817c-0.059,-2.53 -0.117,-2.145 -0.117,-2.145Z" style="fill:#fff;stroke:#000;stroke-width:2.25px;"/></g><g id="Layer2"><path d="M24.993,139.754l7.195,0.125l-0,25.858l-7.736,-0l0.541,-25.983Z" style="fill:none;stroke:#000;stroke-width:2.25px;"/></g><g id="Layer3"><path d="M7.303,178.121l210.491,0l0,-25.375l8.524,-8.524l16.177,-0l0,55.837l-1.778,1.779l-13.855,-0l-8.117,-12.5l-0.951,-11.217" style="fill:none;stroke:#000;stroke-width:2.25px;"/></g><g id="Layer4"></g><g id="Layer5"><path d="M6.565,199.506l160.686,0.01l11.105,-6.771l42.668,0l4.845,7.633l-58.618,-0.862" style="fill:none;stroke:#000;stroke-width:2.25px;"/></g><g id="Layer6"><path d="M10.763,207.374l104.092,-0l8.662,10.997l11.027,12.066l109.924,1.005l9.622,10.325" style="fill:none;stroke:#000;stroke-width:2.25px;"/></g><g id="Layer7"><path d="M7.303,131.439l4.787,2.945l50.994,0.007l76.205,0.15l17.369,43.288l18.098,0.478l-17.899,-40.387l-17.568,-3.379" style="fill:none;stroke:#000;stroke-width:2.25px;"/></g><g id="Layer8"><path d="M157.024,137.571l88.614,-0.348l7.541,-3.227l87.264,0.403l14.982,-6.21l1.002,6.954l-0.319,6.084l-16.764,2.995l-96.849,-0l3.143,-6.999" style="fill:none;stroke:#000;stroke-width:2.25px;"/></g><g id="Layer9"><path d="M339.753,144.222c0,-0 4.114,9.526 3.893,19.609c-0.221,10.084 0.273,21.136 -2.079,27.682c-2.352,6.546 -6.289,11.977 -6.289,11.977l-67.769,0.385l0,-2.037l-29.683,0.052" style="fill:none;stroke:#000;stroke-width:2.25px;"/></g><g id="Layer10"><path d="M356.427,141.192c-0,0 14.967,3.116 15.081,22.078c0.114,18.961 0.116,18.066 0.116,18.066c0,0 -0.628,19.727 -12.204,20.502c-11.576,0.774 -13.764,0.972 -13.764,0.972l-10.073,0.177" style="fill:none;stroke:#000;stroke-width:2.25px;"/></g><g id="Layer11"><path d="M245.996,144.222l-0.036,7.693l71.763,0.455l5.384,2.61l-0,3.881l-5.151,2.823l-71.769,0.405l0.067,15.625l71.707,0.17l5.383,2.571l-0.035,4.048l-5.991,3.21l-71.353,0.031l-0.56,10.558l69.75,0.568l5.087,4.626" style="fill:none;stroke:#000;stroke-width:2.25px;"/></g><g id="Layer12"><ellipse cx="128.965" cy="213.763" rx="2.233" ry="2.235" style="stroke:#000;stroke-width:0.75px;"/><ellipse cx="136.411" cy="225" rx="2.233" ry="2.235" style="stroke:#000;stroke-width:0.75px;"/></g><g id="Layer13"><path d="M114.584,207.374l110.045,-0l1.34,21.513l64.867,0l3.799,-3.887l0.096,-14.262l-4.114,-2.234l-55.704,-0l-10.284,-1.13" style="fill:none;stroke:#000;stroke-width:2.25px;"/></g><ellipse cx="204.687" cy="231.442" rx="6.437" ry="6.442" style="stroke:#000;stroke-width:0.75px;"/><g id="Layer14"></g><g id="Layer15"></g><ellipse cx="361.535" cy="212.038" rx="2.233" ry="2.235" style="stroke:#000;stroke-width:0.75px;"/><ellipse cx="393.847" cy="174.368" rx="2.233" ry="2.235" style="stroke:#000;stroke-width:0.75px;"/><g id="Layer16"><path d="M464.898,291.559l-2.751,-0.212l-11.522,17.87l-0.089,5.812l-30.89,8.066l-13.03,-4.906" style="fill:none;stroke:#000;stroke-width:2.25px;"/></g><path d="M416.316,321.668c-0,0 -2.961,-5.665 1.469,-14.447c4.43,-8.783 6.316,-30.055 -3.46,-36.226c-9.776,-6.17 -8.749,-5.674 -8.749,-5.674c0,0 -0.388,-12.211 -7.85,-8.065c-7.462,4.146 -6.614,6.891 -13.694,6.613c-7.08,-0.278 -12.768,0.504 -12.768,0.504l0.244,-28.54l-9.973,-14.686c-0,0 20.686,-13.044 26.031,-21.258c5.344,-8.214 9.726,-19.459 13.845,-20.587c4.119,-1.128 14.525,-5.443 14.525,-5.443" fill="#fff" stroke="#000" stroke-width="1.5"/></g></svg>