<?xml version="1.0" encoding="UTF-8"?>
<svg id="Layer_2" data-name="Layer 2" xmlns="http://www.w3.org/2000/svg" viewBox="0 0 256 256">
  <defs>
    <style>
      .cls-1 {
        fill: #fff;
        stroke-width: 0px;
      }
    </style>
  </defs>
  <g id="white_icons_L_exp" data-name="white icons L exp">
    <g id="_1_col_mv" data-name="1 col mv">
      <g id="wing_l" data-name="wing l">
        <path class="cls-1" d="M172.99,194.53c-.16,4.32-1.53,34.26-8.17,41.71-10.92,12.25-62.6,19.76-62.6,19.76l9.92-26.27c.68-.39,41.61-21.22,60.85-35.2Z"/>
      </g>
      <g id="wing_l-2" data-name="wing l">
        <path class="cls-1" d="M61.47,83.01c-4.32.16-34.26,1.53-41.71,8.17C7.51,102.1,0,153.78,0,153.78l26.27-9.92c.39-.68,21.22-41.61,35.2-60.85Z"/>
      </g>
      <g>
        <path class="cls-1" d="M78.64,94.34c8.38-11.87,27.07-39.56,59.07-60.84,6.34-4.22,13.15-7.89,20.17-11.11l75.74,75.74c-3.23,7.02-6.9,13.83-11.11,20.17-21.29,32.01-48.97,50.7-60.84,59.07-13.4,9.46-54.69,34.63-54.69,34.63l-62.96-62.96s25.18-41.29,34.63-54.69Z"/>
        <path class="cls-1" d="M179.18,14.07C217.85,1.35,255.89,0,255.89,0v.11c.08,0,.11,0,.11,0,0,0-1.35,38.04-14.07,76.7l-62.75-62.75Z"/>
      </g>
      <g>
        <polygon class="cls-1" points="20.14 235.86 69.2 200.59 55.41 186.8 20.14 235.86"/>
        <polygon class="cls-1" points="73.41 224.01 71.83 203.22 62.88 202.18 73.41 224.01"/>
        <polygon class="cls-1" points="31.98 182.59 52.77 184.16 53.81 193.12 31.98 182.59"/>
        <rect class="cls-1" x="58.56" y="181.77" width="4.39" height="26.96" transform="translate(-120.27 100.15) rotate(-45)"/>
      </g>
    </g>
  </g>
</svg>