<?xml version="1.0" encoding="UTF-8" standalone="no"?><!DOCTYPE svg PUBLIC "-//W3C//DTD SVG 1.1//EN" "http://www.w3.org/Graphics/SVG/1.1/DTD/svg11.dtd"><svg width="100%" height="100%" viewBox="0 0 525 375" version="1.1" xmlns="http://www.w3.org/2000/svg" xmlns:xlink="http://www.w3.org/1999/xlink" xml:space="preserve" xmlns:serif="http://www.serif.com/" style="fill-rule:evenodd;clip-rule:evenodd;stroke-linejoin:round;stroke-miterlimit:1.5;"><g id="Machine-Gun" serif:id="Machine Gun"><g id="Layer2"><path d="M475.233,178.135l-0.077,-52.289l0,-7.911c0,-0 2.351,-17.823 -23.202,-17.904c-25.553,-0.081 -26.865,-0.056 -26.865,-0.056l-9.062,7.02l-50.938,-0l-6.17,-9.006l-8.485,-0l-0.43,-3.641c0,0 -1.198,-4.806 -9.825,-4.544c-8.626,0.261 -6.91,-0 -6.91,-0l-3.281,-3.836l-14.952,-0l-13.122,-15.442l-3.882,-0l0,-5.517l-16.521,0l-0,20.989c-0,-0 -7.174,-0.81 -8.662,5.186l0.033,1.527l-36.163,0l-96.379,-1.254l-5.615,-3.415l-6.495,-1.272l-4.527,-5.062l-1.742,0l-0,-8.178l-3.803,-5.192l-5.122,-0l-0,13.164l-2.52,1.266l0,10.921l-4.866,4.735l-0,5.819l-2.962,1.815l-3.128,0l-2.494,-2.427l-43.182,0c-0,0 -4.259,2.197 -4.113,8.698c0.145,6.501 0.076,6.761 0.076,6.761c0,-0 -0.592,7.94 5.854,7.96c6.445,0.02 39.683,0 39.683,0l4.879,-2.553l3.137,0l-0,11.607l3.234,6.842l0.437,4.84l3.92,4.707l-0.153,12.04c0,0 -1.38,9.094 9.532,9c10.911,-0.095 9.553,-6.041 9.753,-7.918c0.199,-1.878 0.318,-3.666 0.318,-3.666l4.972,-0l2.268,2.253l14.397,0l1.399,-1.361l5.151,0l0.039,3.05l5.747,1.57l26.307,35.787l6.899,15.079c0,-0 0.739,2.488 4.102,1.078l3.363,-1.409l37.783,78.479c0,-0 -1.22,3.44 0.602,6.028c1.821,2.589 2.355,2.765 3.962,2.216c1.607,-0.549 5.273,5.272 5.273,5.272l21.064,-15.18l11.948,-4.821l-1.183,-2.53c0,-0 7.415,-2.462 5.731,-4.823c-1.684,-2.362 -11.18,-20.143 -11.18,-20.143l-30.674,-63.66l7.253,-3.64l59.4,-0c-0,-0 4.602,4.513 5.702,8.062c1.099,3.549 -0.877,10.023 3.304,15.988c4.18,5.964 19.579,30.84 19.579,30.84c-0,-0 2.465,3.253 0.676,6.35c-1.789,3.098 -2.188,9.259 7.973,6.437c10.16,-2.822 25.109,-8.396 28.444,-11.889c3.336,-3.493 5.834,-9.205 4.536,-13.086c-1.297,-3.882 -9.029,-27.528 -18.055,-36.157c-9.026,-8.629 -14.991,-14.314 -14.888,-23.936c0.102,-9.622 -0,-10.266 -0,-10.266l10.634,0l8.898,-8.657l-0,-11.983l-1.222,-5.136l1.757,0.123l22.985,0l3.12,-3.036l26.476,-0l0,5.358l11.047,13.318l5.574,5.62c-0,-0 -2.389,11.187 -1.037,14.372c1.353,3.186 5.359,7.358 9.256,7.937c3.897,0.58 8.459,-1.027 9.504,-2.633c1.045,-1.606 12.6,0 12.6,0l3.306,-4.685Zm-179.944,-11.455l-24.746,-0l-4.173,5.076l0,14.761l3.079,2.996l30.862,0c0,0 -0.129,-5.415 0.23,-6.693c0.359,-1.277 0.838,-6.759 0.277,-9.01c-0.56,-2.251 -2.303,-6.026 -5.529,-7.13Zm88.812,-51.292l35.272,0l1.595,6.391l-36.914,-0l0.047,-6.391Z" style="fill:#fff;stroke:#000;stroke-width:2.5px;"/></g><g id="Layer3"><path d="M223.2,210.469l25.604,52.772l5.238,-2.117l-25.605,-52.917l6.114,-2.856l26.017,52.978l4.316,-2.356l-24.846,-52.698" style="fill:none;stroke:#000;stroke-width:2.08px;"/></g><g id="Layer4"><path d="M270.543,166.982l-45.489,0.001l-11.064,4.465l-45.777,0" style="fill:none;stroke:#000;stroke-width:2.08px;"/></g><path d="M265.436,180.664l-37.491,-0l-0,-7.953l37.598,-0" style="fill:none;stroke:#000;stroke-width:2.08px;stroke-linecap:round;"/><g id="Layer5"><path d="M345.931,254.651c-0,-0 18.89,-6.23 20.309,-8.712c1.42,-2.482 -2.237,-6.188 3.09,-8.847c5.328,-2.659 12.488,-6.856 12.488,-6.856" style="fill:none;stroke:#000;stroke-width:2.08px;"/></g><path d="M186.822,111.819l0,6.014l70.578,0.561l2.972,0l0,-6.308l-73.55,-0.267Z" style="fill:none;stroke:#000;stroke-width:2.08px;"/><path d="M286.597,277.855l-2.264,2.203l-10.74,4.541l-29.831,13.069" style="fill:none;stroke:#000;stroke-width:2.08px;"/><g id="Layer6"><path d="M461.505,181.396l-8.012,-25.383l-3.918,-14.715l-18.7,-13.397l-6.356,-27.31" style="fill:none;stroke:#000;stroke-width:2.08px;"/><path d="M359.383,98.25l-180.408,0l-42.264,0l-6.826,-4.197l-18.777,0" style="fill:none;stroke:#000;stroke-width:2.08px;"/></g><path d="M362.62,104.836c-0,-0 -26.274,12.065 -26.365,16.555c-0.091,4.489 -0.724,7.764 6.024,7.75c6.748,-0.014 28.366,-0 28.366,-0l0,12.62" style="fill:none;stroke:#000;stroke-width:2.08px;"/><ellipse cx="294.471" cy="152.106" rx="8.891" ry="8.629" style="fill:none;stroke:#000;stroke-width:2.08px;"/><g id="Layer7"></g><g id="Layer8"><path d="M110.175,156.478l176.53,0" style="fill:none;stroke:#000;stroke-width:2.08px;"/></g><g id="Layer9"><path d="M302.026,156.478l9.648,0l13.092,-13.001l45.879,-0.022" style="fill:none;stroke:#000;stroke-width:2.08px;"/></g><path d="M199.847,220.551l56.079,-25.446" style="fill:none;stroke:#000;stroke-width:1.5px;"/><g id="Layer10"></g><path d="M74.024,104.354l-4.316,-0.032l3.06,5.502l3.973,0l-2.717,-5.47Z" style="stroke:#000;stroke-width:1.5px;"/><path d="M82.594,104.29l-4.316,-0.032l3.061,5.502l3.973,-0l-2.718,-5.47Z" style="stroke:#000;stroke-width:1.5px;"/><path d="M91.997,104.405l-4.316,-0.031l3.06,5.502l3.973,-0l-2.717,-5.471Z" style="stroke:#000;stroke-width:1.5px;"/><path d="M74.024,126.285l-4.316,0.032l3.06,-5.502l3.973,-0l-2.717,5.47Z" style="stroke:#000;stroke-width:1.5px;"/><path d="M82.594,126.35l-4.316,0.031l3.061,-5.502l3.973,0l-2.718,5.471Z" style="stroke:#000;stroke-width:1.5px;"/><path d="M91.997,126.234l-4.316,0.031l3.06,-5.502l3.973,0l-2.717,5.471Z" style="stroke:#000;stroke-width:1.5px;"/><g id="Layer11"><path d="M146.228,98.484l0,14.541l8.607,-0l-0,-14.513l-8.607,-0.028Z" style="fill:none;stroke:#000;stroke-width:2.08px;"/><path d="M169.955,98.403l0,6.228l7.357,-0l-0,-6.216l-7.357,-0.012Z" style="fill:none;stroke:#000;stroke-width:1.5px;"/><path d="M236.31,98.403l0,6.228l12.403,-0l-0,-6.216l-12.403,-0.012Z" style="stroke:#000;stroke-width:1.5px;"/></g></g></svg>