<svg clip-rule="evenodd" fill-rule="evenodd" stroke-linejoin="round" stroke-miterlimit="2" version="1.1" viewBox="0 0 477 113" xml:space="preserve" xmlns="http://www.w3.org/2000/svg">
    <path d="m370.93 89.767-3.1537 2.858-5.6542-0.12582-5.2726 4.6737s-3.4057 7.1897-3.4057 7.1897l-3.7101 2.5683c0.39403 0.63925 0.81819 1.1832 1.4228 2.0647 2.1977 3.2019 4.7087 3.0136 4.7087 3.0136s16.386-10.799 17.014-12.368c0.62796-1.5693 0.50214-2.2602 0.0629-4.332-0.21057-0.99185-1.0397-3.2505-2.0123-5.5416zm-73.054-21.639 1.2333 1.3102h29.006s11.74 7.4669 16.386 22.539c2.7725 8.9952 3.8235 12.175 4.6873 13.957l3.3632-2.3284 3.3748-7.1249 5.777-5.1208 5.6471 0.12544 3.104-2.8132c-0.93458-2.1095-1.9279-4.0774-2.5981-4.9152-1.5068-1.8835-7.2202-13.499-12.619-19.714-5.3996-6.2155-4.734-12.255-3.4784-13.862 1.1742-1.5026 6.8269-5.5081 5.545-7.2544-4.3445 0.84983-13.883 2.7514-20.953 4.4224-3.9753 0.93948-7.1606 1.7904-8.1367 2.3449l-0.12958 0.07383h-12.463c0.0373 1.0348 0.60197 0.91764 2.2097 3.4897 1.8835 3.0136 0 7.2326 0 7.2326-3.0136 4.8971-0.0753 3.767-0.0753 3.767 6.7052-3.541 4.445-10.171 4.445-10.171l3.6163-1.7328 0.52738 0.82874c2.2602 3.8423 0.75339 12.506 0.75339 12.506h-23.581l-5.8012-5.8011v-10.12h-15.872v0.58501l2.1347 2.1347v0.87884l7.9578 8.4531 2.7736-0.73456 4.7528 5.2738zm140.38 4.0197c3.0283 1.6522 5.1186 2.7943 5.1186 2.7943l11.653 6.278s0.0501-0.0501 1.6575-0.20078c1.607-0.15068 10.685 0.09643 10.685 0.09643l1.245-0.07798v-36.45h-41.812l-5.4621-5.4621h-14.13l-2.667 2.6674c2.0029 1.8349 6.3907 5.9756 7.2379 7.7848l0.20078 7.1324s0.0501 1.2555 4.8718 3.8171c1.2604 0.66977 3.6739 1.9743 6.5519 3.5361l-0.78014-0.48368 2.5114-3.5157 15.068 8.2874zm31.866 8.7959 1.2665-0.07911s1.8835 0.50252 1.758-6.0272c-0.12582-6.5293 0-24.988 0-24.988l-1.193-1.6951 1.3814-1.6951 3.2019-24.799s0.7534-2.8881-2.7627-2.6998l-0.12544-0.0083-3.5266 23.964zm-9.2762-6.8167c-0.85736 0-1.5539 0.69614-1.5539 1.5539s0.69652 1.5539 1.5539 1.5539c0.85774 0 1.5539-0.69614 1.5539-1.5539s-0.69614-1.5539-1.5539-1.5539zm-349.6-39.688v3.2019c0 0.10585-0.0301 0.20982-0.0866 0.29947l-2.4259 3.8807v8.3235c0.30889 0.42981 0.8325 0.73758 1.7177 0.64679 2.4485-0.25126 1.8232-0.43961 1.8232-0.43961s1.3184-1.6951 2.8855-1.8835c0.85887-0.10284 1.6612-0.13071 2.2112-0.13486v-9.4668h3.2396v9.2502l-0.43697 0.22602h0.56881v0.64905h6.194v-0.64905h0.0776v-9.4762h3.2396v9.2502l-0.43735 0.22602h0.51043v0.64905h6.6129v-0.64905h0.0945v-9.3255h3.2396v9.2502l-0.14578 0.07534h0.20191v0.60724h6.6133v-0.60724h0.11112v-9.0995h3.2396v9.0995h0.165v0.77487h6.6133v-0.77487h0.15294v-9.3255h3.2396v9.2502l-0.14578 0.07534h0.31077v0.77487h6.6133v-0.77487h2e-3v-9.2502h3.2396v9.2502h7.7607c-0.0471-0.0825-0.0742-0.17818-0.0742-0.27989v-13.624zm115.41 14.092h55.19v0.10548h45.95c1.1497-0.57748 4.3426-1.4541 8.2964-2.3886 4.4172-1.0438 9.7956-2.1777 14.275-3.0897l-0.75113-4.0084-5.8117-4.2902h-45.259l-6.7806-2.8881h-6.9098v0.76583c0 0.20003-0.0795 0.39177-0.22075 0.53303l-2.5427 2.5427c-0.14126 0.14126-0.333 0.22037-0.53265 0.22037h-6.7305v3.7734h-2.6237v-3.7734h-1.8967v5.6945h-3.1643v-5.6945h-40.489zm-1.5068-13.249-5.3996-4.8127v15.929c0 0.14164-0.0392 0.27461-0.10736 0.38762l1.7441 1.7445h3.7628zm-45.865-5.5522c9e-3 0.04068 0.0143 0.08287 0.0143 0.12544v18.207c0 0.10171-0.0271 0.19739-0.0746 0.27989h2.7348l1.355-1.4017c-0.23431-0.06894-0.40533-0.28591-0.40533-0.54207v-15.399l-1.2698-1.2698zm-69.172 0h-4.494l-2.0982 2.0986v14.288c0 0.07685-0.0151 0.1503-0.0452 0.21735h0.19212l1.9174 1.9148h2.0153v-6.5896c0-0.10585 0.0301-0.20982 0.0866-0.29948l2.4259-3.8807zm108.13 1.8771v-2.3186l-1.509-1.5087-0.029-0.03127c-0.0663-0.07383-0.11565-0.15821-0.14729-0.24749l-0.0207-0.06818c-0.0151-0.05801-0.023-0.11791-0.0234-0.17893v-14.149c0-0.41625 0.33715-0.7534 0.7534-0.7534h66.836c0.41588 0 0.7534 0.33714 0.7534 0.7534v17.736h7.1407l6.7806 2.8881h45.4l6.4687 4.7754 0.82949 4.4285c2.3962-0.48481 4.4665-0.89277 5.8931-1.1715l2.8817-5.5446s2.5928 0 3.7372-0.99863v-16.61c-0.13938-0.27499-0.30739-0.54245-0.51005-0.7824l-56.777-0.34619-8.5872-4.5633h-11.441l0.15746-5.1724-1.8119-1.8115h-12.4l-2.7152 2.7152-2.4327-2.4327h-12.871l-2.5427 2.5427-2.8252-2.8252h-12.023l-2.7152 2.7152h-175.28l-2.2828-2.2839h-31.115l-3.1417-4.6066h-4.7087l0.12808 3.7044s-2.765 0.12544-3.5786 2.8878h-5.2738l-4.5543 4.552v1.601l-0.31643 0.31831v31.354c0.28629 0.38988 0.68936 0.73456 1.228 0.78579 1.1753 0.11226 12.216 0.02411 14.567 0.0038-0.15821-0.13787-0.25616-0.34054-0.25616-0.56618v-13.915l-2.7574-2.7552c-0.3993-0.01582-0.72326-0.34694-0.72326-0.75264 0-0.04822 0.0075-0.09568 0.01507-0.14126-0.0075-0.04633-0.01507-0.09342-0.01507-0.14126v-12.72c0-0.19965 0.08287-0.39139 0.22225-0.53265l2.8704-2.8689c0.13938-0.14164 0.3315-0.22074 0.53114-0.22074h101.38c0.19965 0 0.39176 0.07911 0.53114 0.22074l4.8873 4.8865h75.571c0.22903 0 0.44563 0.10435 0.58878 0.28328l8.4136 10.533c0.24598 0.09643 0.42905 0.31869 0.46936 0.58765l2.1916 2.7439zm-114.22-1.8771h-84.734l1.9099 1.9095c0.14315 0.14126 0.22225 0.333 0.22225 0.53265v14.227c0 0.04859-0.0038 0.09643-0.01507 0.14239l0.39553-0.20756h80.632c-0.0264-0.06705-0.0414-0.14051-0.0414-0.21735v-14.522c0-0.14993 0.0565-0.29345 0.16575-0.39968zm80.017 13.555v3.1142c0 0.02034-1e-3 0.04031-3e-3 0.06027h34.21c-2e-3 -0.01996-3e-3 -0.03993-3e-3 -0.06027v-3.1142zm-181.17-9.8216h-1.3448s-1.0698 1.5697-0.88147 6.1526v2.8881s0.44074 2.6998 2.0718 2.574l0.15445-0.0177zm411.93 8.2648c-0.85736 0-1.5539 0.69614-1.5539 1.5539s0.69652 1.5539 1.5539 1.5539c0.85774 0 1.5539-0.69614 1.5539-1.5539s-0.69614-1.5539-1.5539-1.5539zm-30.133-20.998 7.9223 12.775h0.21322s4.6206 6.9813 5.374 7.1821c0.65282 0.17404 4.2088 0.19739 5.1472 0.2004l3.2694-3.2694h15.378l5.4621 5.4621h41.187v-0.27461l3.2486-22.076zm-201.42 9.0004 0.63624 0.63624c0.10586 0.10623 0.16537 0.24975 0.16537 0.39968v11.012h34.204v-8.6641h-4.5204c-0.22904 0-0.44564-0.10397-0.58841-0.2829l-2.4768-3.101zm34.783-2.8207v-13.051h65.329v18.567l-2.1016 2.1012h-54.681zm-40.434 2.8207h-66.343v3.9553h66.926v-3.5391zm205.97-8.635h-18.44v11.516c0.34167 0.0087 0.87658 0.10962 1.7121 0.09003 2.16-0.0501 4.0182 0.05048 4.0182 0.05048l0.55262 0.7534h19.853zm-380.69-5.4779h-1.0322s-2.0078 0.39252-1.8195 6.1055v5.7134s0 2.4485 1.7554 2.5114h1.0962zm206.59 12.606h-191.51v-11.937l2.4297-2.4278h100.75l4.8862 4.8865c0.14126 0.14126 0.333 0.22074 0.53303 0.22074h75.52zm34.317-9.3971c0.73155 0.37142 1.0239 1.2672 0.65206 1.9988l-2.9458 5.7985c-0.37181 0.73155-1.2672 1.0239-1.9988 0.65206l-0.36126-0.18345c-0.73154-0.3718-1.0239-1.2672-0.65206-1.9988l2.9458-5.7989c0.37142-0.73155 1.2672-1.0235 1.9988-0.65206zm-6.7806-0.22602c0.73154 0.37142 1.0239 1.2672 0.65206 1.9988l-2.9458 5.7985c-0.3718 0.73155-1.2672 1.0239-1.9988 0.65206l-0.36125-0.18345c-0.73155-0.3718-1.0239-1.2672-0.65207-1.9988l2.9458-5.7989c0.37143-0.73155 1.2672-1.0235 1.9988-0.65206zm-7.0819-0.15068c0.73155 0.37142 1.0239 1.2672 0.65207 1.9988l-2.9458 5.7985c-0.3718 0.73155-1.2672 1.0239-1.9988 0.65206l-0.36125-0.18345c-0.73155-0.3718-1.0239-1.2672-0.65207-1.9988l2.9458-5.7989c0.37142-0.73155 1.2672-1.0235 1.9988-0.65206zm-216.12 1.8255h-4.1437v-5.4621l1.5671-1.5663h2.765zm370.17-0.67542h88.045v0.16725l0.49762-3.3801-87.19 0.06216s-2.5284 0.85962-1.5942 2.7608zm-27.21-2.9443-8.1649-3.7222-6.341-0.18835-1.3814-1.2555h-4.8342l-1.2559 1.2555h-12.494v-2.3231l-4.5204-2.8252h-6.7806l-6.0901-5.7759h-5.525v-1.8206h-2.5111v1.5693h-2.6998l-6.1929 6.1929-0.12243 4.0246h10.558l8.5902 4.5652zm-58.045-12.547c-1.4974 0-2.713 1.1768-2.713 2.6263s1.2156 2.6263 2.713 2.6263c1.497 0 2.7126-1.1768 2.7126-2.6263s-1.2156-2.6263-2.7126-2.6263z"  fill="#fff" stroke="#000" stroke-width="1.5"/>
</svg>
