<svg clip-rule="evenodd" fill-rule="evenodd" stroke-linejoin="round" stroke-miterlimit="2" version="1.1" viewBox="0 0 479 98" xml:space="preserve" xmlns="http://www.w3.org/2000/svg">
    <path d="m406.71 56.563-0.0615-0.04187-19.229 0.19398s-3.1229 0.06492-5.1972 7.4247c-2.0704 7.3598-3.676 14.228-4.3099 16.483-0.62996 2.2552-1.5787 4.2411-1.5787 6.8866 0 2.6451 0.31882 3.8274-0.95263 4.8607-1.2714 1.0329-7.0525 3.9423-9.3649 4.6364-2.3086 0.69411-5.539 1.5891-7.2753-1.1159-1.7362-2.705-1.0602-1.6571-1.0602-1.6571l-0.0115-1.3406s-1.9852-1.883-3.7252-5.4215c-1.7362-3.5389-5.0973-10.764-8.4584-14.176-3.3611-3.4129-5.3278-4.563-5.9078-6.3542-0.57888-1.7916 0.0376-0.1475-1.2407 0.16901-1.2784 0.31613-3.9914 3.7763-9.9772 3.7898-5.9862 0.01383-13.17 0.07375-13.17 0.07375s-1.2411-0.95723-1.8645-1.8676c-0.62343-0.90999-1.5227-2.6032-2.7837-3.7291-1.0225-0.91344-4.5603-4.4785-6.6273-6.2193 0.0384-0.02651 0.0726-0.06069 0.0999-0.10179l3.3657-5.0624-0.0538-0.48976-10.428-10.021-0.26619-0.10717h-12.704l-7.6091-19.282h21.638s3.6411 5.0339 3.6411 5.0339l0.31114 0.15903h63.861l6.9872 15.234-60.068 1.0782c-0.0534 7.68e-4 -0.1041 0.01268-0.1502 0.03342-1.7124 0.08143-3.0784 1.4973-3.0784 3.2297 0 1.785 1.4493 3.2339 3.2336 3.2339 1.785 0 3.2343-1.4489 3.2343-3.2339 0-1.0245-0.47784-1.9383-1.2227-2.531l58.39-1.0479c4e-3 -3.84e-4 8e-3 -3.84e-4 0.0115-3.84e-4l1.0563 2.309-2.6197 4.3621c-0.0576 0.09142-0.0691 0.19706-0.0461 0.29309-4.717-0.46709-19.34 0.23777-19.34 0.23777-3.6722 0.99488-3.0768 4.7869 0.39565 7.3421 3.4725 2.5556 5.811 7.742 6.4871 9.2674 0.6799 1.5257 2.3124 5.0923 4.6556 9.3038 2.3393 4.2115 5.3854 1.2695 6.4725-0.32113 1.0832-1.5907 3.3496-11.541 4.3905-17.238 1.0448-5.6965-0.14597-7.3494-1.7132-8.3124-0.11908-0.07298-0.33803-0.13483-0.63764-0.18707l4.4251-7.3602c0.0615 0.05109 0.14597 0.08182 0.23432 0.08182h5.8617l12.084 7.719 0.20743 0.06031h7.3828zm65.247-30.934 1.0909 0.0077 5.1165 4.5123v8.3385h-0.55313v24.482l-10.256 16.086-2.7234-0.6388 0.12292-2.2467 7.1754-17.574c0.0384-0.09257 0.0576-0.19129 0.0576-0.29116zm-94.913 18.663 4.4942-7.4743h4.6594l0.38028-0.31805 1.1524-6.6127v-0.12906l-0.40333-2.423-0.22663-0.28924-6.2919-2.7315h7.1754l1.2254 1.2211-0.1114 0.09833 3.4033 3.872c0.0346 0.04148 0.0883 0.0653 0.14213 0.0653h8.4353c0.0576 0 0.1114-0.02497 0.14981-0.06876l2.9078-3.4702 0.31498-0.41793-0.14597-0.11101 1.114-1.1166h63.499l1.5019 1.4981 0.0307 32.27-7.1677 17.554c-0.0307 0.07913-0.0499 0.16325-0.0576 0.24891l-0.11139 2.1023-1.7286-0.40525-7.5134-2.9155s-0.79514-7.2822-3.4878-7.8945c-2.6927-0.61191-36.511-7.6494-36.511-7.6494s-1.7746 0.22625-2.9232 0.0169l-8.1511-7.0471-0.25352-0.09373h-7.4136s-12.085-7.719-12.085-7.719l-0.20743-0.06031zm-49.825 11.346h-13.845v3.9711s2.7411 8.7158 5.1038 8.7584c2.3624 0.04225 8.2172-0.04917 8.2172-0.04917s8.1884-1.762 8.2198-3.6611c0.0319-1.8991-0.0722-7.0851-1.4766-8.4269l-0.65915-0.53393 0.10217 4.1785s-1.0106 4.878-2.6489 6.0987c-1.6383 1.2211-2.6881 1.0932-2.6881 1.0932l-0.0269-1.4051s2.0946-2.4388 1.5884-4.7032c-0.50628-2.2648-2.0378-4.656-1.8872-5.3205zm-23.864-4.8868 3.2082 3.083-3.1878 4.795c-0.0134 0.02036-0.025-0.34264-0.0342-0.32113-0.2297-0.17631-0.42637 0.07145-0.58117-0.0146-1.4362-0.79782-2.574-2.0962-4.8822-2.0255-2.3078 0.07068-67.2 0-67.2 0l-1.6041 0.08297-3.1594-3.2508 2.506-2.3485h74.922zm-88.578-9.1091h28.014l5.3389 2.4657 0.16095 0.03534h48.187l6.0776 5.8402h-74.288l-0.26235 0.10371-2.6274 2.4618-7.5818-7.8008c-0.0315-0.14942-0.10793-0.29155-0.22855-0.40333l-1.7101-1.591zm97.918 4.7539c1.361 0 2.4657 1.1047 2.4657 2.4653 0 1.3609-1.1047 2.4661-2.4657 2.4661-1.3602 0-2.4649-1.1051-2.4649-2.4661 0-1.3606 1.1047-2.4653 2.4649-2.4653zm74.18-17.11h-20.259l8.0282 17.508 6.3496-10.558 0.3265-0.1863h4.5557l1.0871-6.2301zm-169.12-7.9183 0.0588 0.07874c-0.0496 0.12215-0.0346 0.26658 0.0511 0.37836l3.2558 4.2357 0.1813 0.08912 0.048 0.06453 0.50205-0.0038h21.027l0.0918-0.17401 0.20704-0.0015-0.10679-0.18784 0.12484-0.23624-0.25083-0.36837h31.616l0.27733-0.11831 0.75442-0.78707 7.5131 19.038h-34.727l-5.3389-2.4657-0.16133-0.03534h-29.038l-9.4621-8.8014-0.59462-6.2604 0.97721-4.1846 0.2128-0.2128zm-14.735 0.95992-0.76056 3.2574-0.0169 0.24738 0.63419 6.6761 0.24161 0.48976 9.131 8.4937h-167.02l-1.2365-4.3264-0.27964-10.707 0.40871-2.5275h131.01l2.0808-1.6033zm-159.39 19.164h-40.091l-2.5913-4.5227-0.11639-4.0279-0.7621-0.15442-0.063764-6.8735 0.63534-0.3484 0.13444-0.57734 0.46633-0.0822-0.00845-0.64955h0.96453l0.064917-0.4137h20.947l0.15595 0.48476h1.2515l0.39603-0.39603h17.551l-0.38028 2.3531c-0.0077 0.04725-0.01076 0.09488-0.0096 0.14251l0.28387 10.876c0.0015 0.06492 0.01152 0.12906 0.02919 0.19129zm-17.992-3.7744c0-0.40794-0.33111-0.73905-0.73905-0.73905h-5.3946c-0.40794 0-0.73944 0.33111-0.73944 0.73905v0.36991c0 0.40794 0.3315 0.73905 0.73944 0.73905h5.3946c0.40794 0 0.73905-0.33111 0.73905-0.73905zm-10.371 0c0-0.40794-0.33111-0.73905-0.73905-0.73905h-5.3946c-0.40794 0-0.73944 0.33111-0.73944 0.73905v0.36991c0 0.40794 0.3315 0.73905 0.73944 0.73905h5.3946c0.40794 0 0.73905-0.33111 0.73905-0.73905zm176.76-0.09603c0-0.40794-0.33111-0.73905-0.73905-0.73905h-138.17c-0.40794 0-0.73944 0.33111-0.73944 0.73905v0.36991c0 0.40794 0.3315 0.73905 0.73944 0.73905h138.17c0.40794 0 0.73905-0.33111 0.73905-0.73905zm-155.83 0c0-0.40794-0.33111-0.73905-0.73905-0.73905h-5.3946c-0.40794 0-0.73944 0.33111-0.73944 0.73905v0.36991c0 0.40794 0.3315 0.73905 0.73944 0.73905h5.3946c0.40794 0 0.73905-0.33111 0.73905-0.73905zm367.82-12.077h-14.489l3.1998 3.6419h8.2586l2.8464-3.398zm-163.71-4.5453 0.27657-0.19052 21.531 0.07913 0.0691-1.5499 0.63572-0.39872h1.7251l0.55237 0.55237h0.77362v-0.67759h3.5954v0.54776h3.0046v-0.6146h2.7991v0.57196h2.5729v-0.51626h2.728v0.50358h3.0788v-0.55237h9.5973l1.6148-1.6152h-1.6141l-0.39181 0.36722h-17.379l-0.69833-0.46517c0.14481-0.05493 0.24776-0.19514 0.24776-0.35916v-6.5808l1.1881-1.8814 0.0591-0.20512v-4.843c0-0.01959-1e-3 -0.038412-4e-3 -0.057234h0.088l0.68221-0.68259h15.829l0.75135 0.75134h3.3584l0.56735-0.56697h2.619v-2.274h0.43445v-0.34225h5.6846v0.32228h0.40909v2.5636l1.1939 1.0037h9.9146l4.4574-1.8845h5.977l1.1105-1.3091h6.2889v16.661c0 0.1475 0.0833 0.2758 0.2055 0.33995l-0.46709 0.46709h-8.5675l2.2041 1.7601h14.99v1.8557h3.0884l0.8566 2.5348h31.812c-0.0615 0.18707 0.0269 0.39411 0.21127 0.47401l6.63 2.879 0.14212 0.85083h-84.638s-3.6407-5.0339-3.6407-5.0339l-0.31153-0.15903h-22.494l-0.27734 0.11831-0.98796 1.031h-31.519c-0.13982 0-0.26198 0.0749-0.3292 0.18668l-0.92804-1.364zm-21.836 0.39718 2.904 4.2542 20.824-0.12292-2.5179-4.1793zm117.93-20.701h8.5072v16.661c0 0.07951 0.0242 0.15326 0.0657 0.21472h-8.6385c0.0415-0.06146 0.0657-0.13521 0.0657-0.21472zm9.2754 0h2.8886l0.79897 1.0548v3.8739l-0.33034 0.053777v11.016l-0.87581 0.87695h-2.5471c0.0415-0.06146 0.0657-0.13521 0.0657-0.21472zm-70.169 2.4184c-3e-3 0.018822-4e-3 0.037644-4e-3 0.057234v4.732l-1.1877 1.8814-0.0595 0.20512v6.6918c0 0.06492 0.0165 0.12638 0.0449 0.18015h-2.2663l-1.2461-1.2461v-11.333l1.1685-1.1685zm42.455 5.496c1.4842 0 2.6892 1.205 2.6892 2.6885 0 1.4843-1.205 2.6892-2.6892 2.6892-1.4835 0-2.6885-1.205-2.6885-2.6892 0-1.4835 1.205-2.6885 2.6885-2.6885zm0 0.76786c1.0606 0 1.921 0.86082 1.921 1.9206 0 1.0602-0.86044 1.921-1.921 1.921-1.0598 0-1.9202-0.86082-1.9202-1.921 0-1.0598 0.86043-1.9206 1.9202-1.9206zm-13.054-1.3348c-0.5708-1.2438-1.8277-2.1088-3.2846-2.1088-1.3018 0-2.4434 0.69065-3.0791 1.7247h-6.693l-0.29347 0.13636-1.2672 1.5019-0.0907 0.24776v0.65416l0.11255 0.27158 1.3913 1.3913 0.27158 0.11255h6.9776c0.66031 0.72561 1.6126 1.1816 2.6704 1.1816 1.2338 0 2.3243-0.61998 2.9758-1.5657h1.6417l1.3913-1.3913v-0.65416l-1.2672-1.5019zm-0.66031 2.5963c-0.42906 1.0268-1.4428 1.7489-2.6243 1.7489-1.5688 0-2.8425-1.2741-2.8425-2.8433 0-1.5688 1.2738-2.8425 2.8425-2.8425 1.4032 0 2.5702 1.0187 2.8014 2.3554zm-6.0588-2.2122c-0.11447 0.35186-0.17669 0.72753-0.17669 1.1178 0 0.59885 0.14635 1.1639 0.40448 1.6613h-6.282c-3.8e-4 0-1.1666-1.1662-1.1666-1.1662v-0.35455l1.0617-1.2584z"  fill="#fff" stroke="#000" stroke-width="1.5"/>
</svg>
