<?xml version="1.0" encoding="UTF-8" standalone="no"?><!DOCTYPE svg PUBLIC "-//W3C//DTD SVG 1.1//EN" "http://www.w3.org/Graphics/SVG/1.1/DTD/svg11.dtd"><svg width="100%" height="100%" viewBox="0 0 2134 2134" version="1.1" xmlns="http://www.w3.org/2000/svg" xmlns:xlink="http://www.w3.org/1999/xlink" xml:space="preserve" xmlns:serif="http://www.serif.com/" style="fill-rule:evenodd;clip-rule:evenodd;stroke-linejoin:round;stroke-miterlimit:2;"><g><path d="M1088.36,582.104l-93.038,93.038c2.996,2.071 5.875,4.4 8.542,7.066l111.241,111.246c23.942,23.938 23.942,62.759 0,86.704c-11.971,11.971 -27.662,17.959 -43.35,17.959c-15.687,-0 -31.383,-5.984 -43.354,-17.959l-111.242,-111.245c-2.67,-2.671 -4.991,-5.546 -7.062,-8.542l-115.217,115.217c2.996,2.07 5.875,4.4 8.542,7.066l160.037,160.033c23.942,23.938 23.942,62.759 0,86.705c-11.97,11.971 -27.662,17.958 -43.35,17.958c-15.687,0 -31.383,-5.987 -43.35,-17.958l-160.037,-160.034c-2.671,-2.67 -4.992,-5.545 -7.067,-8.541l-115.216,115.216c2.995,2.071 5.875,4.396 8.541,7.067l111.246,111.246c23.942,23.937 23.942,62.758 0,86.704c-11.971,11.971 -27.662,17.958 -43.35,17.958c-15.687,0 -31.383,-5.987 -43.35,-17.958l-111.246,-111.246c-2.671,-2.671 -4.991,-5.546 -7.066,-8.541l-156.009,156.004c-11.779,11.779 -16.625,28.821 -12.791,45.033l65.512,277.546l-366.55,366.546c-23.942,23.937 -23.942,62.758 0,86.704c11.971,11.971 27.663,17.958 43.35,17.958c15.688,0 31.383,-5.987 43.35,-17.958l365.338,-365.338l278.875,64.459c16.154,3.733 33.096,-1.121 44.816,-12.846l735.267,-735.267l-462.013,-462Z" style="fill:#fff;fill-rule:nonzero;"/><path d="M2093.95,422.379l-382.15,-382.146c-23.937,-23.937 -62.758,-23.937 -86.704,0c-23.942,23.938 -23.942,62.759 -0,86.704l146.862,146.863l-133.279,133.279l-147.404,-147.404c-22.225,-22.225 -58.262,-22.225 -80.492,-0l-235.725,235.725l461.996,462.004l235.725,-235.725c22.225,-22.225 22.225,-58.262 0,-80.492l-147.408,-147.408l133.279,-133.279l148.583,148.583c11.971,11.971 27.663,17.959 43.35,17.959c15.688,-0 31.384,-5.988 43.35,-17.959c23.959,-23.937 23.959,-62.758 0.017,-86.704Z" style="fill:#fff;fill-rule:nonzero;"/><path d="M1008.07,415.108c-23.942,23.938 -23.942,62.759 -0,86.705l80.291,80.291l86.705,-86.704l-80.292,-80.292c-23.946,-23.941 -62.767,-23.937 -86.704,0Z" style="fill:#fff;fill-rule:nonzero;"/><path d="M1637.07,957.404l-86.704,86.704l80.291,80.292c23.942,23.938 62.763,23.933 86.704,0c23.942,-23.937 23.942,-62.758 0,-86.704l-80.291,-80.292Z" style="fill:#fff;fill-rule:nonzero;"/></g></svg>