<svg clip-rule="evenodd" fill-rule="evenodd" stroke-linejoin="round" stroke-miterlimit="2" version="1.1" viewBox="0 0 458 244" xml:space="preserve" xmlns="http://www.w3.org/2000/svg">
    <path d="m367.9 167.54c1.5774 0.62626 2.8129 1.188 2.8129 1.188l5.7443 13.212s-1.4364 0.71823-1.1491 4.0214c0.28739 3.3027 0.43083 14.074 0.43083 14.074l-40.354 41.072s-7.4676 7.6116-13.499-2.0102c-3.1748-5.065-5.3154-7.782-6.0227-10.037l54.986-54.986zm-27.928 32.535-22.372 22.372-5.298-12.214 25.495-14.78zm-6.435-13.677 3.6716 7.803-25.459 14.758-3.4417-7.9359zm-4.5652-9.7018 3.976 8.4497-25.192 14.604-3.7271-8.5937zm12.036 22.342-25.173-53.5c0.31937-1.249 1.6978-7.0088 1.5424-12.816-0.12095-4.5118-1.193-9.032-4.2544-11.631-3.6621-3.1093-5.7348-4.6642-7.0128-5.6833-0.49231-0.39234-0.85667-0.69523-1.1471-0.98112l25.884-6.3316c0.7712 3.4762 3.2557 7.3387 8.8456 11.229 0 0 4.4518-0.86167 6.1751 3.4467 1.0621 2.655 1.9602 4.4918 2.4935 5.5104l-13.13 7.0553-6.1406 11.053 8.7101 19.84 10.772 1.5029 12.736-6.421 5.4189 12.007zm-16.956-32.799 4.3308 9.2049-24.906 14.439-4.0604-9.3619zm-4.7397-10.072 4.1504 8.8201-24.6 14.26-3.8905-8.9705zm-15.446-40.886c0.19642 0.20193 0.42233 0.40885 0.69023 0.63726 1.188 1.0126 3.2892 2.502 7.674 6.2251 2.7844 2.3641 3.6581 6.5125 3.768 10.617 0.17044 6.361-1.5589 12.664-1.5589 12.664l-0.0675 0.24541 4.3503 9.2454-24.303 14.089-2.5495-5.8772s3.3032-13.643 1.0056-17.089c-1.9942-2.9914-2.6905-7.8205-9.9726-8.6697zm57.524 43.675-13.172 6.6409-8.9885-1.2545-7.8335-17.843s5.3479-9.6268 5.3479-9.6268l13.134-7.0573 0.72822 0.42484 11.271 24.329zm58.061-138.71h0.011l4.9981-2.3741s27.239 0.37486 30.238 0.62476c2.9978 0.2499 2.8729 6.9973 2.8729 6.9973v120.83s-11.37 1.1246-19.616 0.74821c-0.63426-0.029-1.2285-0.11046-1.7863-0.24041l-5.6878-15.373-7.2722-41.674-0.99711-62.819c-5e-3 -0.2639-0.061-0.5248-0.16644-0.7667zm28.75 103.9c0-1.195-0.97062-2.1657-2.1657-2.1657h-1.0831c-1.1955 0-2.1657 0.97062-2.1657 2.1657v14.162c0 1.195 0.97013 2.1657 2.1657 2.1657h1.0831c1.195 0 2.1657-0.97062 2.1657-2.1657zm-178.31-23.211h28.227c0.70822 2.0602 3.5691 10.34 4.5707 12.576l-22.52 23.727c-0.34887 5e-3 -0.70973 0.0165-1.0831 0.0365-10.914 0.57428-40.498 0-40.498 0l-11.503-17.718 9.3914-9.3359 10.872 15.45h26.424s8.2718-5.5144 9.6503-11.948c0 0-6.8933 7.1232-12.638 7.5831-5.7443 0.45932-4.5952 0.68923-3.6761-1.6089 0.90215-2.2556 11.105-9.1615 2.7824-18.761zm-55.52 3.2512h26.22l-14.273 14.189-0.22391-0.34487h-11.722zm197.51-17.543 7.1627-7.1627 0.16744 10.519c2e-3 0.10496 0.0115 0.20892 0.0295 0.31238l0.63776 3.6571h-61.31v4.7027h-25.994c-1.1391 1.9413-2.1142 4.4743-1.9982 7.3592l-26.787 6.552c-1.2535-2.9698-4.5243-12.56-4.5243-12.56l-0.15894-0.46682h-53.856l-3.2707 3.2512h-27.606v-0.086h-13.857c-0.0685-0.30038-0.14244-0.60576-0.22141-0.91664-2.6655-10.496-9.8297-7.6635-11.662-7.6635-1.8328 0-1.1666-3.4986-1.1666-3.4986s-1.6379-0.02799-4.4983-0.07297v3.4467l-0.99961 0.99961h-5.248v-4.5417c-1.359-0.01999-2.8209-0.04148-4.3733-0.06347v3.6056l-0.99961 0.99961h-5.248v-4.6912c-1.374-0.01799-2.7924-0.03649-4.2484-0.05498v3.7466l-0.99962 0.99961h-5.248v-4.8221c-1.5179-0.01799-3.0608-0.03499-4.6232-0.05248v4l-0.99961 0.99961h-5.248v-5.064c-1.3695-0.0135-2.7444-0.02599-4.1234-0.03849v4.2279l-0.99962 0.99961h-5.248v-5.2785c-1.4594-0.01099-2.9199-0.02099-4.3733-0.02999v4.1839l-0.99962 0.99961h-5.248v-5.2165c-1.5584-7e-3 -3.1028-0.012-4.6232-0.01599v4.2329l-0.99962 0.99961h-5.248v-5.2385c-1.5829 1e-3 -3.1273 0.0045-4.6232 0.01v3.979l-0.99961 0.99961h-5.248v-4.9376c-1.4944 0.01499-2.9159 0.03299-4.2484 0.05498v4.3828l-0.99961 0.99961h-5.248v-5.226c-3.0408 0.11346-4.9981 0.2699-5.4979 0.47782-2.4071 1.0031-5.4344 8.7581-7.0648 13.578l-6.0022-0.48831-2.1542-1.7233-1.4394-3.3377v-20.953h-0.08297v-15.881h108.65l16.312 8.0314c0.22891 0.11296 0.48082 0.17143 0.73572 0.17143h33.484c0.44183 0 0.86567-0.17543 1.178-0.48781l2.5505-2.5505h65.582c0.44182 0 0.86566-0.17543 1.178-0.48781l15.006-15.006h104.66l0.099 6.2326-6.8179 6.8179v7.0908l6.9288-6.9283 0.12345 7.7795-7.0523 7.0523zm36.318-48.964c0-1.195-0.97062-2.1657-2.1657-2.1657h-1.0831c-1.1955 0-2.1657 0.97063-2.1657 2.1657v66.391c0 1.195 0.97013 2.1657 2.1657 2.1657h1.0831c1.195 0 2.1657-0.97062 2.1657-2.1657zm-355.83 30.921c-1.8148 0.7732-2.6595 2.8744-1.8863 4.6892l3.5881 8.4158c0.7737 1.8143 2.8749 2.6595 4.6897 1.8858 1.8143-0.7737 2.6595-2.8749 1.8858-4.6892l-3.5881-8.4158c-0.7737-1.8148-2.8749-2.6595-4.6892-1.8858zm27.739-0.2499c-1.8148 0.7732-2.6595 2.8744-1.8863 4.6892l3.5881 8.4158c0.7737 1.8143 2.8749 2.6595 4.6897 1.8858 1.8143-0.7737 2.6595-2.8749 1.8858-4.6892l-3.5881-8.4158c-0.7737-1.8148-2.8749-2.6595-4.6892-1.8858zm-13.995 0c-1.8148 0.7732-2.6595 2.8744-1.8863 4.6892l3.5881 8.4158c0.7737 1.8143 2.8749 2.6595 4.6897 1.8858 1.8143-0.7737 2.6595-2.8749 1.8858-4.6892l-3.5881-8.4158c-0.7737-1.8148-2.8749-2.6595-4.6892-1.8858zm43.733-0.2499c-1.8148 0.7732-2.6595 2.8744-1.8863 4.6892l3.5881 8.4158c0.7737 1.8143 2.8749 2.6595 4.6897 1.8858 1.8143-0.7737 2.6595-2.8749 1.8858-4.6892l-3.5881-8.4158c-0.7737-1.8148-2.8749-2.6595-4.6892-1.8858zm-15.744-0.49981c-1.8148 0.7732-2.6595 2.8744-1.8863 4.6892l3.5881 8.4158c0.7737 1.8143 2.8749 2.6595 4.6897 1.8858 1.8143-0.7737 2.6595-2.8749 1.8858-4.6892l-3.5881-8.4158c-0.7737-1.8148-2.8749-2.6595-4.6892-1.8858zm-79.835-15.081v21.908l-0.16694 0.16694h-54.104v-22.179h54.167zm3.3322 2.582h8.3303v16.868h-8.3303zm11.662-6.8723h0.08297l5.8118-14.715h260.08l-14.661 14.661h-7.3247c-0.44183 0-0.86566 0.17543-1.178 0.48831l-15.006 15.006h-65.582c-0.44183 0-0.86567 0.17543-1.178 0.48831l-2.55 2.55h-32.405s-16.312-8.0314-16.312-8.0314c-0.22941-0.11296-0.48082-0.17143-0.73622-0.17143h-109.04zm72.613-10.157c-1.8643-0.64425-3.901 0.34637-4.5452 2.2106l-2.9878 8.6472c-0.64375 1.8643 0.34686 3.901 2.2111 4.5452 1.8643 0.64375 3.901-0.34687 4.5452-2.2111l2.9878-8.6467c0.64426-1.8648-0.34686-3.9015-2.2111-4.5452zm-44.983 0c-1.8643-0.64425-3.901 0.34637-4.5452 2.2106l-2.9878 8.6472c-0.64375 1.8643 0.34687 3.901 2.2111 4.5452 1.8643 0.64375 3.901-0.34687 4.5452-2.2111l2.9878-8.6467c0.64425-1.8648-0.34687-3.9015-2.2111-4.5452zm74.971 0c-1.8643-0.64425-3.901 0.34637-4.5452 2.2106l-2.9878 8.6472c-0.64375 1.8643 0.34686 3.901 2.2111 4.5452 1.8643 0.64375 3.901-0.34687 4.5452-2.2111l2.9878-8.6467c0.64426-1.8648-0.34686-3.9015-2.2111-4.5452zm-44.983 0c-1.8643-0.64425-3.901 0.34637-4.5452 2.2106l-2.9878 8.6472c-0.64375 1.8643 0.34686 3.901 2.2111 4.5452 1.8643 0.64375 3.901-0.34687 4.5452-2.2111l2.9878-8.6467c0.64426-1.8648-0.34686-3.9015-2.2111-4.5452zm59.977 0c-1.8643-0.64425-3.901 0.34637-4.5452 2.2106l-2.9878 8.6472c-0.64375 1.8643 0.34686 3.901 2.2111 4.5452 1.8643 0.64375 3.901-0.34687 4.5452-2.2111l2.9878-8.6467c0.64426-1.8648-0.34686-3.9015-2.2111-4.5452zm-74.971 0c-1.8643-0.64425-3.901 0.34637-4.5452 2.2106l-2.9878 8.6472c-0.64375 1.8643 0.34686 3.901 2.2111 4.5452 1.8643 0.64375 3.901-0.34687 4.5452-2.2111l2.9878-8.6467c0.64426-1.8648-0.34686-3.9015-2.2111-4.5452zm44.983 0c-1.8643-0.64425-3.901 0.34637-4.5452 2.2106l-2.9878 8.6472c-0.64375 1.8643 0.34686 3.901 2.2111 4.5452 1.8643 0.64375 3.901-0.34687 4.5452-2.2111l2.9878-8.6467c0.64426-1.8648-0.34686-3.9015-2.2111-4.5452zm261.68 10.103h-22.671l14.661-14.661h7.778zm-10.838-14.661h-16.415l-14.661 14.661h17.121c-0.089-0.33337-2e-3 -0.70373 0.2589-0.96513zm-19.243 0h-15.416l-14.661 14.661h15.838c-2e-3 -0.2584 0.095-0.5178 0.29238-0.71522zm-18.243 0h-15.668c-0.0135 0.01499-0.0275 0.02999-0.042 0.04448l-14.616 14.616h15.867c0.0425-0.17043 0.12995-0.33187 0.26339-0.46532zm-18.493 0h-13.931c-0.0325 0.19942-0.12595 0.39085-0.27939 0.54429l-14.117 14.117h13.666zm66.531-3.3322h-341.92l2.627-7.4431h8.3093v-9.059l3.6861-3.6861h25.365v7.4971h15.453v3.3317h41.929l2.1792 2.1792h20.325l2.1792-2.1792h19.549l2.1792 2.1792h20.325l2.1792-2.1792h30.295l2.1792 2.1792h20.325l2.1792-2.1792h30.766l4.1234-2.9554h5.8727v-15.619l2.9988-1.6244 9.3714-0.62476 0.87466 3.9985c11.121-10.496 18.618 3.9985 18.618 3.9985l4.2484 3.6236v9.4963h4.9981l2.2491 2.499 2.2491-1.8743 11.496-0.37486 1.1246-1.1246h18.493l3.1303 7.1822zm-58.278-27.218c-3.2183 0-5.8312 2.6125-5.8312 5.8307 0 3.2183 2.613 5.8312 5.8312 5.8312 3.2182 0 5.8312-2.613 5.8312-5.8312 0-3.2183-2.613-5.8307-5.8312-5.8307zm0 2.6655c1.7473 0 3.1653 1.4185 3.1653 3.1653 0 1.7473-1.418 3.1658-3.1653 3.1658-1.7468 0-3.1653-1.4185-3.1653-3.1658 0-1.7468 1.4184-3.1653 3.1653-3.1653z"  fill="#fff" stroke="#000" stroke-width="1.5"/>
</svg>
