<svg xmlns="http://www.w3.org/2000/svg" width="20.044" height="18.85" viewBox="0 0 20.044 18.85">
  <g id="Polygon_101" data-name="Polygon 101" transform="translate(19.922 19.5) rotate(180)" fill="#fff">
    <path d="M 16.41746139526367 18.75000381469727 L 3.382540464401245 18.75000381469727 C 2.400240659713745 18.75000381469727 1.515320539474487 18.24519538879395 1.015370607376099 17.39963531494141 C 0.5154205560684204 16.55408477783203 0.4995605647563934 15.53542423248291 0.9729505777359009 14.67472457885742 L 7.490410804748535 2.824794769287109 C 7.981070518493652 1.932684659957886 8.881850242614746 1.400084733963013 9.90000057220459 1.400084733963013 C 10.91815090179443 1.400084733963013 11.81893062591553 1.932684659957886 12.30959033966064 2.824794769287109 L 18.82705116271973 14.67472457885742 C 19.30043983459473 15.53542423248291 19.28458023071289 16.55408477783203 18.78462982177734 17.39964485168457 C 18.28468132019043 18.24519538879395 17.39976119995117 18.75000381469727 16.41746139526367 18.75000381469727 Z" stroke="none"/>
    <path d="M 9.90000057220459 2.15007209777832 C 9.213747978210449 2.15007209777832 8.527495384216309 2.495460510253906 8.147570610046387 3.186235427856445 L 1.630109786987305 15.03616523742676 C 0.8970108032226562 16.36906433105469 1.861330032348633 17.9999942779541 3.382539749145508 17.9999942779541 L 16.41746139526367 17.9999942779541 C 17.93865966796875 17.9999942779541 18.90299034118652 16.36906433105469 18.16989135742188 15.03616523742676 L 11.65243053436279 3.186235427856445 C 11.27250576019287 2.495460510253906 10.58625316619873 2.15007209777832 9.90000057220459 2.15007209777832 M 9.90000057220459 0.6500740051269531 C 11.17648029327393 0.6500740051269531 12.35159111022949 1.344884872436523 12.96675109863281 2.463354110717773 L 19.48421096801758 14.3132848739624 C 20.08670997619629 15.40872478485107 20.06653022766113 16.7051944732666 19.43023109436035 17.7813549041748 C 18.79393005371094 18.85751533508301 17.66765975952148 19.4999942779541 16.41746139526367 19.4999942779541 L 3.382539749145508 19.4999942779541 C 2.132341384887695 19.4999942779541 1.006071090698242 18.85751533508301 0.3697700500488281 17.7813549041748 C -0.2665290832519531 16.7051944732666 -0.2867088317871094 15.40872478485107 0.3157901763916016 14.3132848739624 L 6.833250999450684 2.463354110717773 C 7.448390960693359 1.344884872436523 8.623500823974609 0.6500740051269531 9.90000057220459 0.6500740051269531 Z" stroke="none" fill="#000"/>
  </g>
</svg>
