<?xml version="1.0" encoding="UTF-8"?>
<svg id="Layer_2" data-name="Layer 2" xmlns="http://www.w3.org/2000/svg" viewBox="0 0 403.12 430">
  <defs>
    <style>
      .cls-1 {
        fill: #fff;
        stroke-width: 0px;
      }
    </style>
  </defs>
  <g id="white_icons_L_exp" data-name="white icons L exp">
    <g id="_4_-7" data-name="4 -7">
      <g>
        <rect class="cls-1" x="10.43" y="148.51" width="90.35" height="215.46"/>
        <path class="cls-1" d="m90.35,158.94v194.61H20.85v-194.61h69.5m20.85-20.85H0v236.31h111.2v-236.31h0Z"/>
      </g>
      <polygon class="cls-1" points="111.2 402.2 0 402.2 0 430 111.2 430 111.2 402.2 111.2 402.2"/>
      <g>
        <path class="cls-1" d="m14.22,98.95c3.15-9.65,7.85-23.36,13.32-37.24C43.74,20.63,53.14,12.27,55.6,10.69c2.46,1.59,11.86,9.95,28.06,51.01,5.48,13.88,10.17,27.6,13.32,37.24H14.22Z"/>
        <path class="cls-1" d="m55.6,26.87c4.34,6.85,11.03,19.56,19.93,42.68,2.54,6.59,4.88,13.07,6.94,18.97H28.73c2.06-5.9,4.4-12.38,6.94-18.97,8.9-23.12,15.59-35.83,19.93-42.68m0-26.87C32.43,0,0,109.37,0,109.37h111.2S78.77,0,55.6,0h0Z"/>
      </g>
      <g>
        <rect class="cls-1" x="156.38" y="148.51" width="90.35" height="215.46"/>
        <path class="cls-1" d="m236.31,158.94v194.61h-69.5v-194.61h69.5m20.85-20.85h-111.2v236.31h111.2v-236.31h0Z"/>
      </g>
      <polygon class="cls-1" points="257.16 402.2 145.96 402.2 145.96 430 257.16 430 257.16 402.2 257.16 402.2"/>
      <g>
        <path class="cls-1" d="m160.17,98.95c3.15-9.65,7.85-23.36,13.32-37.24,16.2-41.07,25.6-49.43,28.06-51.01,2.46,1.59,11.86,9.95,28.06,51.01,5.48,13.88,10.17,27.6,13.32,37.24h-82.77Z"/>
        <path class="cls-1" d="m201.56,26.87c4.34,6.85,11.03,19.56,19.93,42.68,2.54,6.59,4.88,13.07,6.94,18.97h-53.74c2.06-5.9,4.4-12.38,6.94-18.97,8.9-23.12,15.59-35.83,19.93-42.68m0-26.87c-23.17,0-55.6,109.37-55.6,109.37h111.2S224.73,0,201.56,0h0Z"/>
      </g>
      <g>
        <rect class="cls-1" x="302.34" y="148.51" width="90.35" height="215.46"/>
        <path class="cls-1" d="m382.26,158.94v194.61h-69.5v-194.61h69.5m20.85-20.85h-111.2v236.31h111.2v-236.31h0Z"/>
      </g>
      <polygon class="cls-1" points="403.12 402.2 291.91 402.2 291.91 430 403.12 430 403.12 402.2 403.12 402.2"/>
      <g>
        <path class="cls-1" d="m306.13,98.95c3.15-9.65,7.85-23.36,13.32-37.24,16.2-41.07,25.6-49.43,28.06-51.01,2.46,1.59,11.86,9.95,28.06,51.01,5.48,13.88,10.17,27.6,13.32,37.24h-82.77Z"/>
        <path class="cls-1" d="m347.51,26.87c4.34,6.85,11.03,19.56,19.93,42.68,2.54,6.59,4.88,13.07,6.94,18.97h-53.74c2.06-5.9,4.4-12.38,6.94-18.97,8.9-23.12,15.59-35.83,19.93-42.68m0-26.87c-23.17,0-55.6,109.37-55.6,109.37h111.2S370.68,0,347.51,0h0Z"/>
      </g>
    </g>
  </g>
</svg>