<?xml version="1.0" encoding="UTF-8"?>
<svg id="Layer_2" data-name="Layer 2" xmlns="http://www.w3.org/2000/svg" viewBox="0 0 426.89 440.96">
  <defs>
    <style>
      .cls-1 {
        fill: #fff;
        stroke-width: 0px;
      }
    </style>
  </defs>
  <g id="white_icons_L_exp" data-name="white icons L exp">
    <g id="_11" data-name="11">
      <path class="cls-1" d="m405.39,188.14c5.43-9.41,12.89-16.91,21.48-22.32-10.16-39.76-31.05-75.17-59.49-102.97-18.96,9.9-42.4,10.24-62.3-1.25-19.94-11.51-31.37-32.04-32.23-53.46C253.95,2.85,234.03,0,213.44,0s-40.48,2.85-59.37,8.12c-.39,10.16-3.16,20.38-8.59,29.8-17.41,30.15-55.4,40.9-85.95,24.9C31.06,90.65,10.15,126.08,0,165.88c29.2,18.44,38.92,56.76,21.5,86.94-5.43,9.41-12.9,16.91-21.5,22.33,10.17,39.75,31.06,75.16,59.52,102.96,18.96-9.89,42.39-10.23,62.29,1.25,19.94,11.51,31.37,32.04,32.23,53.46,18.9,5.28,38.82,8.14,59.41,8.14s40.48-2.85,59.37-8.12c.39-10.16,3.16-20.38,8.59-29.8,17.41-30.15,55.4-40.9,85.95-24.9,28.47-27.82,49.37-63.25,59.52-103.05-29.2-18.44-38.92-56.76-21.5-86.94Zm-95.39-98.08c30.93-17.86,70.48-7.26,88.33,23.67,17.86,30.93,7.26,70.48-23.67,88.33-30.93,17.86-70.48,7.26-88.33-23.67-17.86-30.93-7.26-70.48,23.67-88.33Zm-29.73,169c-21.31,36.91-68.51,49.55-105.42,28.24-36.91-21.31-49.56-68.5-28.25-105.41,21.31-36.91,68.51-49.55,105.42-28.25,36.91,21.31,49.56,68.51,28.25,105.41ZM213.44,6.98c35.72,0,64.68,28.96,64.68,64.67s-28.96,64.67-64.68,64.67-64.68-28.96-64.68-64.67S177.72,6.98,213.44,6.98ZM28.55,113.74c17.86-30.93,57.41-41.53,88.33-23.67,30.93,17.86,41.53,57.4,23.67,88.33-17.86,30.93-57.41,41.52-88.33,23.67-30.93-17.86-41.53-57.4-23.67-88.33Zm88.33,237.16c-30.93,17.86-70.48,7.26-88.33-23.67-17.86-30.93-7.26-70.48,23.67-88.33,30.93-17.86,70.48-7.26,88.33,23.67,17.86,30.93,7.26,70.48-23.67,88.33Zm96.56,83.08c-35.72,0-64.68-28.96-64.68-64.67s28.96-64.67,64.68-64.67,64.68,28.96,64.68,64.67-28.96,64.67-64.68,64.67Zm184.89-106.75c-17.86,30.93-57.41,41.52-88.33,23.67-30.93-17.86-41.53-57.4-23.67-88.33,17.86-30.93,57.41-41.52,88.33-23.67,30.93,17.86,41.53,57.4,23.67,88.33Z"/>
      <g id="mid_hollow" data-name="mid hollow">
        <path class="cls-1" d="m213.44,186.73c18.61,0,33.75,15.14,33.75,33.75s-15.14,33.75-33.75,33.75-33.75-15.14-33.75-33.75,15.14-33.75,33.75-33.75m0-8.82c-23.51,0-42.57,19.06-42.57,42.56s19.06,42.56,42.57,42.56,42.57-19.06,42.57-42.56-19.06-42.56-42.57-42.56h0Z"/>
      </g>
      <g id="fill_s" data-name="fill s">
        <g id="fill">
          <circle class="cls-1" cx="84.55" cy="146.6" r="20.58"/>
          <path class="cls-1" d="m84.55,128.97c9.73,0,17.64,7.91,17.64,17.64s-7.91,17.64-17.64,17.64-17.64-7.91-17.64-17.64,7.91-17.64,17.64-17.64m0-5.88c-12.99,0-23.52,10.53-23.52,23.52s10.53,23.52,23.52,23.52,23.52-10.53,23.52-23.52-10.53-23.52-23.52-23.52h0Z"/>
        </g>
        <g id="fill-2" data-name="fill">
          <path class="cls-1" d="m342.33,166.65c-11.35,0-20.58-9.23-20.58-20.58s9.23-20.58,20.58-20.58,20.58,9.23,20.58,20.58-9.23,20.58-20.58,20.58Z"/>
          <path class="cls-1" d="m342.33,128.43c9.73,0,17.64,7.91,17.64,17.64s-7.91,17.64-17.64,17.64-17.64-7.91-17.64-17.64,7.91-17.64,17.64-17.64m0-5.88c-12.99,0-23.52,10.53-23.52,23.52s10.53,23.52,23.52,23.52,23.52-10.53,23.52-23.52-10.53-23.52-23.52-23.52h0Z"/>
        </g>
        <g id="fill-3" data-name="fill">
          <path class="cls-1" d="m213.44,389.88c-11.35,0-20.58-9.23-20.58-20.58s9.23-20.58,20.58-20.58,20.58,9.23,20.58,20.58-9.23,20.58-20.58,20.58Z"/>
          <path class="cls-1" d="m213.44,351.67c9.73,0,17.64,7.91,17.64,17.64s-7.91,17.64-17.64,17.64-17.64-7.91-17.64-17.64,7.91-17.64,17.64-17.64m0-5.88c-12.99,0-23.52,10.53-23.52,23.52s10.53,23.52,23.52,23.52,23.52-10.53,23.52-23.52-10.53-23.52-23.52-23.52h0Z"/>
        </g>
      </g>
    </g>
  </g>
</svg>