<?xml version="1.0" encoding="UTF-8"?>
<svg id="Layer_2" xmlns="http://www.w3.org/2000/svg" viewBox="0 0 430 430">
  <defs>
    <style>
      .cls-1 {
        fill: #fff;
      }
    </style>
  </defs>
  <g id="white_icons_L_exp">
    <g id="_6">
      <path class="cls-1" d="M215,51.19c43.76,0,84.89,17.04,115.83,47.98s47.98,72.08,47.98,115.83-17.04,84.89-47.98,115.83-72.08,47.98-115.83,47.98-84.89-17.04-115.83-47.98-47.98-72.08-47.98-115.83,17.04-84.89,47.98-115.83,72.08-47.98,115.83-47.98M215,35.83c-98.95,0-179.17,80.22-179.17,179.17s80.22,179.17,179.17,179.17,179.17-80.22,179.17-179.17S313.95,35.83,215,35.83h0Z"/>
      <path class="cls-1" d="M215,46.77c44.94,0,87.18,17.5,118.96,49.27s49.27,74.02,49.27,118.96-17.5,87.18-49.27,118.96-74.02,49.27-118.96,49.27-87.18-17.5-118.96-49.27-49.27-74.02-49.27-118.96,17.5-87.18,49.27-118.96,74.02-49.27,118.96-49.27M215,31C113.38,31,31,113.38,31,215s82.38,184,184,184,184-82.38,184-184S316.62,31,215,31h0Z"/>
      <g>
        <g>
          <path class="cls-1" d="M122.11,182l1.06-2.73c9.99-25.65,30.44-46.09,56.1-56.09l2.73-1.06v7.22l-1.25.5c-23.04,9.29-41.58,27.84-50.87,50.9l-.5,1.25h-7.26Z"/>
          <path class="cls-1" d="M180,125.05v2.95c-23.62,9.52-42.46,28.37-51.98,52h-2.99c9.79-25.15,29.81-45.15,54.96-54.95M184,119.2l-5.45,2.12c-26.18,10.2-47.05,31.06-57.24,57.23l-2.12,5.45h11.54l1.01-2.51c9.09-22.56,27.22-40.7,49.76-49.79l2.5-1.01v-11.5h0Z"/>
        </g>
        <g>
          <path class="cls-1" d="M179.27,306.81c-25.66-10-46.1-30.44-56.1-56.09l-1.06-2.73h7.26l.5,1.25c9.28,23.06,27.82,41.61,50.87,50.9l1.25.5v7.22l-2.73-1.06Z"/>
          <path class="cls-1" d="M128.02,250c9.51,23.63,28.35,42.48,51.98,52.01v2.95c-25.14-9.8-45.16-29.81-54.96-54.95h2.98M130.72,246h-11.53l2.12,5.45c10.2,26.17,31.06,47.02,57.23,57.23l5.45,2.12v-11.5l-2.51-1.01c-22.55-9.08-40.68-27.23-49.76-49.79l-1.01-2.51h0Z"/>
        </g>
      </g>
      <g>
        <g>
          <path class="cls-1" d="M300.63,182l-.5-1.25c-9.29-23.06-27.83-41.61-50.87-50.9l-1.25-.5v-7.22l2.73,1.06c25.65,10,46.1,30.44,56.1,56.09l1.06,2.73h-7.26Z"/>
          <path class="cls-1" d="M250,125.05c25.14,9.8,45.16,29.81,54.96,54.95h-2.98c-9.52-23.63-28.35-42.48-51.98-52.01v-2.95M246,119.2v11.5l2.51,1.01c22.54,9.08,40.68,27.23,49.76,49.79l1.01,2.51h11.54l-2.12-5.45c-10.2-26.17-31.06-47.03-57.23-57.23l-5.45-2.12h0Z"/>
        </g>
        <g>
          <path class="cls-1" d="M248,300.65l1.25-.5c23.04-9.29,41.58-27.84,50.87-50.9l.5-1.25h7.26l-1.06,2.73c-9.99,25.65-30.44,46.09-56.1,56.09l-2.73,1.06v-7.22Z"/>
          <path class="cls-1" d="M304.96,250c-9.79,25.15-29.81,45.15-54.96,54.95v-2.95c23.62-9.52,42.46-28.37,51.98-52h2.99M310.81,246h-11.54l-1.01,2.51c-9.09,22.56-27.22,40.7-49.76,49.79l-2.5,1.01v11.5l5.45-2.12c26.18-10.2,47.05-31.06,57.24-57.23l2.12-5.45h0Z"/>
        </g>
      </g>
      <g>
        <polygon class="cls-1" points="222 0 208 0 208 135 222 135 222 0 222 0"/>
        <polygon class="cls-1" points="222 295 208 295 208 430 222 430 222 295 222 295"/>
      </g>
      <g>
        <polygon class="cls-1" points="135 208 0 208 0 222 135 222 135 208 135 208"/>
        <polygon class="cls-1" points="430.17 208 295.17 208 295.17 222 430.17 222 430.17 208 430.17 208"/>
      </g>
      <circle class="cls-1" cx="215" cy="215" r="20.48"/>
    </g>
  </g>
</svg>