<?xml version="1.0" encoding="UTF-8"?>
<svg id="Layer_2" data-name="Layer 2" xmlns="http://www.w3.org/2000/svg" viewBox="0 0 402.04 402.04">
  <defs>
    <style>
      .cls-1 {
        fill: #fff;
        stroke-width: 0px;
      }
    </style>
  </defs>
  <g id="white_icons_L_exp" data-name="white icons L exp">
    <g id="_7_-16_col_mv" data-name="7 -16 col mv">
      <g>
        <line class="cls-1" x1="402.04" y1="402.04" x2="0"/>
        <path class="cls-1" d="m402.04,402.04c-39.87-35.41-80.34-70.54-120.84-105.31-31-26.27-64.95-53.78-95.05-80.84-35.47-31.45-73.31-60.61-103.83-97.19C51.23,82.17,21.59,43.22,0,0c43.22,21.59,82.17,51.23,118.71,82.31,36.58,30.52,65.74,68.36,97.19,103.83,27.04,30.08,54.61,64.09,80.84,95.05,34.76,40.5,69.9,80.97,105.31,120.84h0Z"/>
      </g>
      <polygon class="cls-1" points="235.77 113 330.13 143.86 157.1 57.99 281.68 171.26 235.77 113"/>
      <polygon class="cls-1" points="177.18 268.16 267.39 368.92 213.5 324.61 214.9 350.94 177.18 268.16"/>
      <polygon class="cls-1" points="17.93 105.77 88.92 193.86 63.02 181.58 92.84 290.32 17.93 105.77"/>
    </g>
  </g>
</svg>