<?xml version="1.0" encoding="UTF-8"?>
<svg id="Layer_2" data-name="Layer 2" xmlns="http://www.w3.org/2000/svg" viewBox="0 0 430 429.97">
  <defs>
    <style>
      .cls-1 {
        fill: #fff;
        stroke-width: 0px;
      }
    </style>
  </defs>
  <g id="white_icons_L_exp" data-name="white icons L exp">
    <g id="_14" data-name="14">
      <g>
        <g>
          <polygon class="cls-1" points="262.55 291.41 291.45 262.52 365.32 365.29 262.55 291.41"/>
          <path class="cls-1" d="m289.6,285.25l11.04,15.36-15.36-11.04,4.32-4.32m3.69-45.46l-53.48,53.48,190.18,136.71-136.71-190.18h0Z"/>
        </g>
        <g>
          <polygon class="cls-1" points="238.03 323.55 251.35 319.5 248.29 354.35 238.03 323.55"/>
          <polygon class="cls-1" points="267.97 299.01 219.22 313.83 256.76 426.55 267.97 299.01 267.97 299.01"/>
        </g>
        <g>
          <polygon class="cls-1" points="323.59 238 354.39 248.26 319.55 251.32 323.59 238"/>
          <polygon class="cls-1" points="313.87 219.2 299.06 267.95 426.59 256.74 313.87 219.2 313.87 219.2"/>
        </g>
        <g>
          <polygon class="cls-1" points="315.53 241.6 241.63 315.49 219.26 313.82 313.85 219.23 315.53 241.6"/>
          <polygon class="cls-1" points="313.85 219.23 219.26 313.82 241.63 315.49 315.53 241.6 313.85 219.23 313.85 219.23"/>
        </g>
      </g>
      <g>
        <g>
          <path class="cls-1" d="m44.69,156.16c-15.21-15.21-28.59-46.51-35.78-83.73C1.99,36.62,3.9,11.95,7.94,7.91c1.67-1.67,8.29-3.62,21.47-3.62,36.08,0,100.18,14.06,126.7,40.46l1.26,1.25h.16l69.76,69.71-111.54,111.54-71.05-71.1Z"/>
          <path class="cls-1" d="m29.4,0v8.59c18.61,0,43.88,3.94,65.96,10.28,25.98,7.46,46.47,17.73,57.71,28.92l2.51,2.5h.16l65.46,65.41-105.46,105.46-68.01-68.06c-14.32-14.32-27.12-44.1-34.23-79.65-2.99-14.93-4.72-29.86-4.89-42.03-.18-13.13,1.56-18.98,2.39-20.45.88-.48,5.24-2.39,18.4-2.39V0M29.4,0C17.16,0,8.17,1.6,4.9,4.87c-13.05,13.05.25,117.82,36.75,154.32l74.08,74.14,117.62-117.62-74.14-74.08v.08h-.08C131.71,14.41,66.06,0,29.4,0h0Z"/>
        </g>
        <g>
          <polygon class="cls-1" points="145.45 256.98 257.01 145.42 276.8 165.2 165.23 276.77 145.45 256.98"/>
          <path class="cls-1" d="m257.01,151.5l13.71,13.7-105.49,105.49-13.7-13.71,105.48-105.48m0-12.15l-117.63,117.63,25.85,25.87,117.65-117.65-25.87-25.85h0Z"/>
        </g>
      </g>
    </g>
  </g>
</svg>