<?xml version="1.0" encoding="UTF-8"?>
<svg id="Layer_2" data-name="Layer 2" xmlns="http://www.w3.org/2000/svg" viewBox="0 0 479.44 479.44">
  <defs>
    <style>
      .cls-1 {
        fill: #fff;
        stroke-width: 0px;
      }
    </style>
  </defs>
  <g id="white_icons_L_exp" data-name="white icons L exp">
    <g id="_14" data-name="14">
      <polygon class="cls-1" points="239.72 332.45 222.18 479.44 257.26 479.44 239.72 332.45"/>
      <polygon class="cls-1" points="239.72 146.99 222.18 0 257.26 0 239.72 146.99"/>
      <polygon class="cls-1" points="146.99 239.72 0 222.18 0 257.26 146.99 239.72"/>
      <polygon class="cls-1" points="332.45 239.72 479.44 222.18 479.44 257.26 332.45 239.72"/>
      <g>
        <path class="cls-1" d="m239.72,251.41c-6.45,0-11.69-5.25-11.69-11.69s5.25-11.69,11.69-11.69,11.69,5.25,11.69,11.69-5.25,11.69-11.69,11.69Z"/>
        <path class="cls-1" d="m239.72,233.87c3.22,0,5.85,2.62,5.85,5.85s-2.62,5.85-5.85,5.85-5.85-2.62-5.85-5.85,2.62-5.85,5.85-5.85m0-11.69c-9.69,0-17.54,7.85-17.54,17.54s7.85,17.54,17.54,17.54,17.54-7.85,17.54-17.54-7.85-17.54-17.54-17.54h0Z"/>
      </g>
      <path class="cls-1" d="m366.93,52.62l59.89,59.89v254.42l-59.89,59.89H112.51l-59.89-59.89V112.51l59.89-59.89h254.42m7.27-17.54H105.24L35.08,105.24v268.95l70.16,70.16h268.95l70.16-70.16V105.24l-70.16-70.16h0Z"/>
    </g>
  </g>
</svg>