<?xml version="1.0" encoding="UTF-8"?>
<svg id="Layer_2" data-name="Layer 2" xmlns="http://www.w3.org/2000/svg" viewBox="0 0 333.64 430">
  <defs>
    <style>
      .cls-1 {
        fill: #fff;
        stroke-width: 0px;
      }
    </style>
  </defs>
  <g id="white_icons_L_exp" data-name="white icons L exp">
    <g id="_8_-7" data-name="8 -7">
      <g>
        <g>
          <rect class="cls-1" x="12.13" y="123.39" width="42.46" height="248.88"/>
          <path class="cls-1" d="m45.5,132.49v230.68h-24.26v-230.68h24.26m18.2-18.2H3.03v267.08h60.66V114.29h0Z"/>
        </g>
        <polygon class="cls-1" points="66.73 405.68 0 405.68 0 430 66.73 430 66.73 405.68 66.73 405.68"/>
        <g>
          <path class="cls-1" d="m16.91,86.56c1.45-7.98,3.66-19.57,6.26-31.51,4.36-20.02,7.78-31.7,10.19-38.46,2.41,6.76,5.84,18.44,10.19,38.46,2.6,11.95,4.81,23.53,6.26,31.51H16.91Z"/>
          <path class="cls-1" d="m33.36,51.12c.57,2.51,1.16,5.19,1.77,8.04,1.38,6.44,2.64,12.72,3.72,18.3h-10.98c1.07-5.55,2.32-11.77,3.69-18.18.62-2.9,1.22-5.62,1.8-8.17m0-51.12C21.99,0,6.07,95.66,6.07,95.66h54.6S44.74,0,33.36,0h0Z"/>
        </g>
        <g>
          <rect class="cls-1" x="145.59" y="123.39" width="42.46" height="248.88"/>
          <path class="cls-1" d="m178.95,132.49v230.68h-24.26v-230.68h24.26m18.2-18.2h-60.66v267.08h60.66V114.29h0Z"/>
        </g>
        <polygon class="cls-1" points="200.18 405.68 133.46 405.68 133.46 430 200.18 430 200.18 405.68 200.18 405.68"/>
        <g>
          <rect class="cls-1" x="279.04" y="123.39" width="42.46" height="248.88"/>
          <path class="cls-1" d="m312.41,132.49v230.68h-24.26v-230.68h24.26m18.2-18.2h-60.66v267.08h60.66V114.29h0Z"/>
        </g>
        <polygon class="cls-1" points="333.64 405.68 266.91 405.68 266.91 430 333.64 430 333.64 405.68 333.64 405.68"/>
        <g>
          <rect class="cls-1" x="224.45" y="144.7" width="18.2" height="206.25"/>
          <polygon class="cls-1" points="242.65 144.7 224.45 144.7 224.45 350.95 242.65 350.95 242.65 144.7 242.65 144.7"/>
        </g>
        <g>
          <rect class="cls-1" x="90.99" y="144.7" width="18.2" height="206.25"/>
          <polygon class="cls-1" points="109.19 144.7 90.99 144.7 90.99 350.95 109.19 350.95 109.19 144.7 109.19 144.7"/>
        </g>
        <g>
          <path class="cls-1" d="m150.36,86.56c1.45-7.98,3.66-19.57,6.26-31.51,4.36-20.02,7.78-31.7,10.2-38.46,2.41,6.77,5.84,18.46,10.21,38.52,2.6,11.93,4.8,23.48,6.25,31.45h-32.91Z"/>
          <path class="cls-1" d="m166.82,51.12c.57,2.51,1.16,5.19,1.77,8.04,1.38,6.44,2.64,12.72,3.72,18.3h-10.98c1.07-5.55,2.32-11.77,3.69-18.18.62-2.9,1.22-5.62,1.8-8.17m0-51.12c-11.37,0-27.3,95.66-27.3,95.66h54.6S178.19,0,166.82,0h0Z"/>
        </g>
        <g>
          <path class="cls-1" d="m283.82,86.56c1.45-7.98,3.66-19.57,6.26-31.51,4.36-20.02,7.78-31.7,10.19-38.46,2.41,6.76,5.84,18.44,10.19,38.46,2.6,11.95,4.81,23.53,6.26,31.51h-32.91Z"/>
          <path class="cls-1" d="m300.28,51.12c.57,2.51,1.16,5.19,1.77,8.04,1.38,6.44,2.64,12.72,3.72,18.3h-10.98c1.08-5.59,2.34-11.86,3.72-18.3.61-2.85,1.2-5.53,1.77-8.04m0-51.12c-11.37,0-27.3,95.66-27.3,95.66h54.6S311.65,0,300.28,0h0Z"/>
        </g>
      </g>
    </g>
  </g>
</svg>