<?xml version="1.0" encoding="UTF-8"?>
<svg id="Layer_2" data-name="Layer 2" xmlns="http://www.w3.org/2000/svg" viewBox="0 0 415.6 332.23">
  <defs>
    <style>
      .cls-1 {
        fill: #fff;
        stroke-width: 0px;
      }
    </style>
  </defs>
  <g id="ability_death" data-name="ability death">
    <g id="Layer_1-2" data-name="Layer 1">
      <polygon class="cls-1" points="167.97 267.65 60.41 289.43 111.97 264.54 33.75 257.87 117.3 247.21 51.52 154.76 155.52 228.54 84.41 44.99 195.08 209.43 205.97 113.65 228.41 223.21 291.08 87.65 257.75 226.32 329.49 124.62 288.43 241.36 370.63 204.99 299.98 256.34 411.08 259.21 305.97 271.65 348.61 292.58 217.3 271.65 178.19 299.21 167.97 267.65"/>
      <path class="cls-1" d="M122.63,72.32S113.3,10.32,157.3.99s56.67,50.67,56.67,50.67c0,0,18-4,23.33,11.33s1.11,36-5.56,40.67c0,0,6.22-24.67-3.11-34-10.32-10.32-18.67-6-18.67-6,0,0-11.78-44.86-47.33-39.33s-40,48-40,48Z"/>
      <path class="cls-1" d="M353.3,181.65s18.67-35.33,47.33-19.33,7.33,67.33,7.33,67.33c0,0,7.63-32-13.67-48.67s-41,.67-41,.67Z"/>
      <path class="cls-1" d="M270.63,66.65s.83-15,16-19,23.33,12.67,23.33,12.67c0,0,11.8-20.26,38.17-10,26.37,10.26,26.67,42.67,23.67,58.17s-18.5,41.17-18.5,41.17c0,0,21.5-51-2.17-72.33s-43.5-.83-43.5-.83c0,0-4.17-16-18-17s-19,7.17-19,7.17Z"/>
      <path class="cls-1" d="M367.97,277.65s49.67,8,28.14,30.86c-17.45,18.53-74.95,13.06-90.64-6.86,0,0,26.67,10.67,62.67,2s-.17-26-.17-26Z"/>
      <path class="cls-1" d="M259.13,305.32s10.17,19.17-5.67,25-44.17-17.33-44.17-17.33c0,0-31.74,29.67-60,15.33-33.83-17.17-2.17-36-2.17-36,0,0-14.33,17.17,7.5,23.33,34.41,9.72,55.85-11.63,55.85-11.63,0,0,15.32,16.45,33.15,15.84s15.5-14.55,15.5-14.55Z"/>
      <path class="cls-1" d="M83.63,143.65s-39.01-27.46-71.89.07c-33.89,28.38,16.33,67.04,16.33,67.04,0,0-20.4,4.92-23.95,19.36s13.95,20.86,13.95,20.86c0,0-7.45-8.36-1.99-17.62,8.88-15.05,26.51-20.38,26.51-20.38,0,0-34.91-25.17-21.13-50.83,15.46-28.81,62.17-18.5,62.17-18.5Z"/>
    </g>
  </g>
</svg>