<?xml version="1.0" encoding="UTF-8"?>
<svg id="Layer_2" data-name="Layer 2" xmlns="http://www.w3.org/2000/svg" viewBox="0 0 440.76 440.76">
  <defs>
    <style>
      .cls-1 {
        fill: #fff;
        stroke-width: 0px;
      }
    </style>
  </defs>
  <g id="white_icons_L_exp" data-name="white icons L exp">
    <g id="_8" data-name="8">
      <g>
        <g>
          <polygon class="cls-1" points=".55 378.78 57.1 336.26 73.86 335.62 7.38 414.95 .55 378.78"/>
          <path class="cls-1" d="m72.75,336.17L7.68,413.82l-6.58-34.83,56.18-42.24,15.48-.59m2.21-1.08l-18.04.68L0,378.57l7.09,37.51,67.88-81h0Z"/>
        </g>
        <g>
          <path class="cls-1" d="m61.98,440.22c-1.64-.38-8.28-1.67-36.17-6.86l79.33-66.46-.63,16.76-42.53,56.56Z"/>
          <path class="cls-1" d="m104.6,368.01l-.59,15.48-42.25,56.19c-2.33-.53-9.8-1.95-34.82-6.61l77.66-65.06m1.08-2.21l-81.01,67.87s37.37,6.95,37.52,7.1l42.8-56.92.68-18.04h0Z"/>
        </g>
      </g>
      <g>
        <polygon class="cls-1" points="400.66 40.07 304.12 45.56 316.94 33.82 439.89 .87 406.94 123.82 395.16 136.64 400.66 40.07"/>
        <path class="cls-1" d="m439.02,1.74l-32.63,121.77-10.51,11.44,5.36-94.16.08-1.38-1.38.08-94.12,5.35,11.43-10.47L439.02,1.74m1.74-1.74l-124.13,33.26-14.2,13.01,97.57-5.55-5.56,97.61,13.05-14.2L440.76,0h0Z"/>
      </g>
      <g>
        <polygon class="cls-1" points="333.2 88.69 358.23 82.51 352.05 107.54 91.92 348.81 333.2 88.69"/>
        <path class="cls-1" d="m357.55,83.19l-5.95,24.08-250.27,232.13,232.13-250.27,24.09-5.95m1.37-1.37l-25.98,6.42L82.51,358.22,352.5,107.81l6.42-25.98h0Z"/>
      </g>
    </g>
  </g>
</svg>