<?xml version="1.0" encoding="UTF-8"?>
<svg id="Layer_2" data-name="Layer 2" xmlns="http://www.w3.org/2000/svg" viewBox="0 0 434.62 489.16">
  <defs>
    <style>
      .cls-1 {
        fill: #fff;
        stroke-width: 0px;
      }
    </style>
  </defs>
  <g id="white_icons_L_exp" data-name="white icons L exp">
    <g id="_5" data-name="5">
      <g id="centre">
        <polygon class="cls-1" points="120.33 194.34 317.19 194.34 218.76 364.82 120.33 194.34"/>
        <path class="cls-1" d="m315.72,195.18l-96.96,167.94-96.96-167.94h193.92m2.94-1.7H118.86l99.9,173.04,99.9-173.04h0Z"/>
      </g>
      <g id="centre_btm" data-name="centre btm">
        <polygon class="cls-1" points="120.42 158.98 218.76 1.6 317.1 158.98 120.42 158.98"/>
        <path class="cls-1" d="m218.76,3.2l96.8,154.93H121.96L218.76,3.2m0-3.2l-99.87,159.83h199.73L218.76,0h0Z"/>
      </g>
      <g id="r_1" data-name="r 1">
        <polygon class="cls-1" points="348.16 215.03 417.97 360.95 256.46 373.86 348.16 215.03"/>
        <path class="cls-1" d="m348.09,216.85l68.58,143.35-158.67,12.68,90.09-156.04m.14-3.64l-93.32,161.63,164.35-13.14-71.04-148.49h0Z"/>
      </g>
      <g id="r_2" data-name="r 2">
        <polygon class="cls-1" points="377.72 180.09 433.77 143.81 433.77 312.68 377.72 180.09"/>
        <path class="cls-1" d="m432.92,145.37v163.13l-54.14-128.08,54.14-35.05m1.7-3.12l-57.96,37.52,57.96,137.11v-174.63h0Z"/>
      </g>
      <g id="r_top" data-name="r top">
        <polygon class="cls-1" points="236.97 417.4 383.57 403.07 236.97 487.69 236.97 417.4"/>
        <path class="cls-1" d="m379.75,404.3l-141.93,81.92v-68.05l141.93-13.87m7.65-2.45l-151.27,14.79v72.53l151.27-87.31h0Z"/>
      </g>
      <g id="r_btm_2" data-name="r btm 2">
        <polygon class="cls-1" points="270.62 18.5 410.67 110.05 354.51 146.41 270.62 18.5"/>
        <path class="cls-1" d="m273.56,21.44l135.55,88.61-54.35,35.18-81.2-123.8m-5.88-5.87l86.59,132.01,57.96-37.52L267.68,15.56h0Z"/>
      </g>
      <g id="l_1" data-name="l 1">
        <polygon class="cls-1" points="17.11 361.73 86.92 215.03 178.63 373.87 17.11 361.73"/>
        <path class="cls-1" d="m87,216.86l90.09,156.05-158.68-11.93,68.59-144.12m-.14-3.65L15.81,362.48l164.35,12.36-93.32-161.63h0Z"/>
      </g>
      <g id="l_2" data-name="l 2">
        <polygon class="cls-1" points=".85 143.81 56.81 180.09 .85 312.68 .85 143.81"/>
        <path class="cls-1" d="m1.7,145.37l54.06,35.05L1.7,308.48v-163.11m-1.7-3.12v174.63l57.87-137.11L0,142.24h0Z"/>
      </g>
      <g id="l_top" data-name="l top">
        <polygon class="cls-1" points="52.05 403.07 198.57 417.4 198.57 487.69 52.05 403.07"/>
        <path class="cls-1" d="m55.87,404.3l141.85,13.87v68.05l-141.85-81.92m-7.64-2.45l151.19,87.31v-72.53l-151.19-14.79h0Z"/>
      </g>
      <g id="l_btm" data-name="l btm">
        <polygon class="cls-1" points="23.71 110.06 163.72 18.5 79.78 146.4 23.71 110.06"/>
        <path class="cls-1" d="m160.77,21.44l-81.24,123.79-54.27-35.18L160.77,21.44m5.89-5.88L22.15,110.06l57.87,37.52L166.66,15.56h0Z"/>
      </g>
    </g>
  </g>
</svg>