<?xml version="1.0" encoding="UTF-8"?>
<svg id="Layer_2" data-name="Layer 2" xmlns="http://www.w3.org/2000/svg" viewBox="0 0 351.84 430">
  <defs>
    <style>
      .cls-1 {
        fill: #fff;
        stroke-width: 0px;
      }
    </style>
  </defs>
  <g id="white_icons_L_exp" data-name="white icons L exp">
    <g id="_6_-7" data-name="6 -7">
      <g>
        <rect class="cls-1" x="9.1" y="195.91" width="66.73" height="176.36"/>
        <path class="cls-1" d="m66.73,205.01v158.16H18.2v-158.16h48.53m18.2-18.2H0v194.56h84.93v-194.56h0Z"/>
      </g>
      <polygon class="cls-1" points="84.93 405.68 0 405.68 0 430 84.93 430 84.93 405.68 84.93 405.68"/>
      <g>
        <path class="cls-1" d="m26.01,86.56c1.45-7.98,3.66-19.57,6.26-31.51,4.36-20.02,7.78-31.69,10.19-38.45,2.41,6.77,5.84,18.46,10.21,38.52,2.6,11.93,4.8,23.48,6.25,31.45H26.01Z"/>
        <path class="cls-1" d="m42.46,51.12c.57,2.51,1.16,5.19,1.77,8.04,1.38,6.44,2.64,12.72,3.72,18.3h-10.98c1.08-5.59,2.34-11.86,3.72-18.3.61-2.85,1.2-5.53,1.77-8.04m0-51.12C31.09,0,15.17,95.66,15.17,95.66h54.6S53.84,0,42.46,0h0Z"/>
      </g>
      <g>
        <rect class="cls-1" x="142.56" y="195.91" width="66.73" height="176.36"/>
        <path class="cls-1" d="m200.18,205.01v158.16h-48.53v-158.16h48.53m18.2-18.2h-84.93v194.56h84.93v-194.56h0Z"/>
      </g>
      <polygon class="cls-1" points="218.38 405.68 133.46 405.68 133.46 430 218.38 430 218.38 405.68 218.38 405.68"/>
      <g>
        <rect class="cls-1" x="276.01" y="195.91" width="66.73" height="176.36"/>
        <path class="cls-1" d="m333.64,205.01v158.16h-48.53v-158.16h48.53m18.2-18.2h-84.93v194.56h84.93v-194.56h0Z"/>
      </g>
      <polygon class="cls-1" points="351.84 405.68 266.91 405.68 266.91 430 351.84 430 351.84 405.68 351.84 405.68"/>
      <rect class="cls-1" x="103.12" y="197.46" width="12.13" height="80.8" transform="translate(-136.22 146.88) rotate(-45)"/>
      <rect class="cls-1" x="103.12" y="308.11" width="12.13" height="80.8" transform="translate(-214.45 179.28) rotate(-45)"/>
      <rect class="cls-1" x="236.58" y="197.46" width="12.13" height="80.8" transform="translate(-97.13 241.24) rotate(-45)"/>
      <rect class="cls-1" x="236.58" y="308.11" width="12.13" height="80.8" transform="translate(-175.37 273.65) rotate(-45)"/>
      <g>
        <polygon class="cls-1" points="16.51 177.71 23.5 166.65 23.5 126.69 61.43 126.69 61.43 166.65 68.41 177.71 16.51 177.71"/>
        <path class="cls-1" d="m52.33,135.79v32.82h-19.73v-32.82h19.73m18.2-18.2H14.4v46.42L0,186.81h84.93l-14.4-22.79v-46.42h0Z"/>
      </g>
      <g>
        <path class="cls-1" d="m159.46,86.56c1.45-7.98,3.66-19.57,6.26-31.51,4.36-20.02,7.78-31.69,10.2-38.46,2.41,6.77,5.84,18.46,10.21,38.52,2.6,11.93,4.8,23.48,6.25,31.45h-32.91Z"/>
        <path class="cls-1" d="m175.92,51.12c.57,2.51,1.16,5.19,1.77,8.04,1.38,6.44,2.64,12.72,3.72,18.3h-10.98c1.08-5.59,2.34-11.86,3.72-18.3.61-2.85,1.2-5.53,1.77-8.04m0-51.12c-11.37,0-27.3,95.66-27.3,95.66h54.6S187.29,0,175.92,0h0Z"/>
      </g>
      <g>
        <polygon class="cls-1" points="149.97 177.71 156.96 166.65 156.96 126.69 194.88 126.69 194.88 166.65 201.87 177.71 149.97 177.71"/>
        <path class="cls-1" d="m185.78,135.79v32.82h-19.73v-32.82h19.73m18.2-18.2h-56.12v46.42l-14.4,22.79h84.93l-14.4-22.79v-46.42h0Z"/>
      </g>
      <g>
        <path class="cls-1" d="m292.92,86.56c1.45-7.98,3.66-19.57,6.26-31.51,4.36-20.02,7.78-31.69,10.19-38.45,2.41,6.77,5.84,18.46,10.21,38.52,2.6,11.93,4.8,23.48,6.25,31.45h-32.91Z"/>
        <path class="cls-1" d="m309.37,51.12c.57,2.51,1.16,5.19,1.77,8.04,1.38,6.44,2.64,12.72,3.72,18.3h-10.98c1.08-5.59,2.34-11.86,3.72-18.3.61-2.85,1.2-5.53,1.77-8.04m0-51.12c-11.37,0-27.3,95.66-27.3,95.66h54.6S320.75,0,309.37,0h0Z"/>
      </g>
      <g>
        <polygon class="cls-1" points="283.42 177.71 290.41 166.65 290.41 126.69 328.34 126.69 328.34 166.65 335.33 177.71 283.42 177.71"/>
        <path class="cls-1" d="m319.24,135.79v32.82h-19.73v-32.82h19.73m18.2-18.2h-56.12v46.42l-14.4,22.79h84.93l-14.4-22.79v-46.42h0Z"/>
      </g>
    </g>
  </g>
</svg>