<?xml version="1.0" encoding="UTF-8"?>
<svg id="Layer_2" data-name="Layer 2" xmlns="http://www.w3.org/2000/svg" viewBox="0 0 471.94 450.56">
  <defs>
    <style>
      .cls-1 {
        fill: #fff;
        stroke-width: 0px;
      }
    </style>
  </defs>
  <g id="white_icons_L_exp" data-name="white icons L exp">
    <g id="_4_-9_col_mv" data-name="4 -9 col mv">
      <path class="cls-1" d="m232.11,192.04c2.03-.07,54.41,7.14,104.31,30.9-16.4-38.82-54.66-66.12-99.46-66.12-14.04,0-27.43,2.74-39.73,7.63-16.96,107.55-19.13,143.73-20.39,141.74-1.1-1.73-21.47-51.13-25.96-106.57-13.81,18.16-22.07,40.77-22.07,65.35,0,34.62,16.32,65.35,41.63,85.12,100.29-40.27,132.28-56.83,131.22-54.74-.92,1.82-32.84,44.55-78.08,76.81,4.39.56,8.83.96,13.38.96,54.34,0,99.2-40.13,106.87-92.34-83.95-68.53-114.07-88.64-111.72-88.73Z"/>
      <g id="tri">
        <path class="cls-1" d="m236.45,23.71c28.36-4.15,48.68,19.71,53.32,42.52C278.65-5.14,238.22.09,236.45.09c-39.19,0-68.72,59.65-68.72,147.8,0,23.11.57,45.05,4.37,64.88.42-15.65,10.39-181.16,64.35-189.06Z"/>
        <path class="cls-1" d="m26.63,386.71c-17.78-22.48-7.28-52.02,10.16-67.44-56.24,45.32-31.5,77.72-30.62,79.25,19.59,33.94,86.02,29.69,162.36-14.38,20.01-11.56,38.73-23.02,54-36.23-13.77,7.46-162.08,81.58-195.91,38.8Z"/>
        <path class="cls-1" d="m446.29,385.81c-10.58,26.64-41.41,32.31-63.48,24.92,67.37,26.05,83.06-11.58,83.94-13.11,19.59-33.94-17.3-89.34-93.64-133.42-20.01-11.56-39.3-22.04-58.38-28.66,13.34,8.19,151.69,99.58,131.55,150.26Z"/>
      </g>
      <g id="cut_circ_rt" data-name="cut circ rt">
        <path class="cls-1" d="m102.36,366.54c-20.56-27.08-33.17-60.59-34.13-97.18-1.59-60.81,29.3-114.92,76.9-145.71.31-5.23-1.53-14.5-.77-19.92-57.41,32.82-95.4,95.34-93.55,166.08.99,37.98,13.35,72.99,33.71,101.88,4.83-.74,13.24-4.27,17.84-5.16Z"/>
        <path class="cls-1" d="m221.01,80.01c-1.77,4.54-2.95,13.57-4.48,17.98,5.07-.6,10.2-1,15.41-1.14,91.2-2.39,167.28,68.3,172.26,158.8,4.4,2.92,13.36,5.96,17.69,9.38,0-1.64.04-3.27,0-4.92-2.68-102.47-87.93-183.36-190.4-180.68-3.52.09-7.01.3-10.48.59Z"/>
        <path class="cls-1" d="m391.01,330.96c-25.04,58.58-82.41,100.34-150.27,102.11-28.74.75-55.98-5.77-79.97-17.86-4.69,2.38-11.76,8.64-16.85,10.72,28.58,16.45,61.9,25.49,97.28,24.56,72.52-1.9,134.19-45.18,163.12-106.62-3.03-3.82-10.26-9.37-13.31-12.92Z"/>
      </g>
    </g>
  </g>
</svg>