<?xml version="1.0" encoding="UTF-8"?>
<svg id="Layer_2" data-name="Layer 2" xmlns="http://www.w3.org/2000/svg" viewBox="0 0 511.32 510.69">
  <defs>
    <style>
      .cls-1 {
        stroke-width: 0px;
      }

      .cls-1, .cls-2 {
        fill: #fff;
      }

      .cls-2 {
        stroke: #fff;
        stroke-miterlimit: 10;
      }
    </style>
  </defs>
  <g id="self_frag_copy" data-name="self frag copy">
    <path class="cls-1" d="M38.24,47.45l.56,12.86.48,12.86.96,25.72.83,25.72.67,25.72c.21,8.57.61,17.15.95,25.72.32,8.57.34,17.15.05,25.72-.29,8.57-.77,17.15-1.47,25.72-.73,8.57-1.59,17.15-3.03,25.72h-1c-1.44-8.57-2.3-17.15-3.03-25.72-.7-8.57-1.17-17.15-1.47-25.72-.29-8.57-.27-17.15.05-25.72.34-8.57.74-17.15.95-25.72l.67-25.72.83-25.72.96-25.72.48-12.86.56-12.86h1Z"/>
    <path class="cls-1" d="M398.02,11.74l.56,9.67.48,9.67.96,19.34.82,19.34.68,19.34c.21,6.45.61,12.89.95,19.34.32,6.45.34,12.89.05,19.34-.29,6.45-.77,12.89-1.47,19.34-.73,6.45-1.59,12.89-3.03,19.34h-1c-1.44-6.45-2.3-12.89-3.03-19.34-.7-6.45-1.17-12.89-1.47-19.34-.29-6.45-.27-12.89.05-19.34.34-6.45.74-12.89.95-19.34l.67-19.34.83-19.34.96-19.34.48-9.67.56-9.67h1Z"/>
    <path class="cls-1" d="M278.28,55.64c1.61,21.92,2.9,45.98,3.8,68.02.23,5.67.66,11.34,1.03,17,.74,11.37-.08,22.71-1.54,34.01-.78,5.67-1.74,11.34-3.29,17h-1.09c-2.98-11.21-4.17-22.55-4.88-34.01-.78-11.35.62-22.68,1.09-34.01.33-8.47,1.14-25.54,1.63-34.01.67-11.34,1.31-22.67,2.17-34.01h1.09Z"/>
    <path class="cls-1" d="M233.7,0c1.54,41.85,2.94,90.37,3.8,132.33.23,11.03.66,22.06,1.03,33.08.71,22.07-.04,44.13-1.56,66.17-.75,11.03-1.72,22.06-3.27,33.08h-1.09c-4.21-32.93-5.67-66.1-4.83-99.25.75-19.11,1.36-46.76,1.76-66.17.6-23.83,1.69-58.96,2.46-82.71C232,16.54,232.61,0,232.61,0c0,0,1.09,0,1.09,0h0Z"/>
    <path class="cls-2" d="M32.56,319.96c-22.56,8.77-35.04,24.29-31.45,43.6,3.59,19.31,17,26.78,39.02,25.07,16.71-1.3,38.93-15.52,35.34-34.83s-19.51-42.93-42.91-33.84ZM41.05,365.6c-10.92,2.03-21.25-4.28-23.08-14.1s5.55-19.42,16.47-21.46,21.25,4.28,23.08,14.1-5.55,19.42-16.47,21.46Z"/>
    <path class="cls-1" d="M139.22,413.43c-12.35,4.46-27.29,7.18-37.12-11.98-4.13-8.06-9.63-25.03-9.61-38.73.03-18.05,1.83-38.88,11.83-54.38,2.08-3.22,15.33-2.66,23.25-1.75,28.58,3.27,74.62,28.09,74.62,37.37,0,12.86-25.75,42.49-51.8,51.28-7.53,2.54-23.44,5.11-25.06,9.1-1.83,4.52,1.33,7.44,13.9,9.1Z"/>
    <path class="cls-1" d="M217.85,328.43c8.7-.28,37.17,16.43,45.87,26.24.42,3.33.64,3.67.48,8.05-8.18,4.91-16.8,8.75-26.6,16.17-6.63,5.01-12.34,9.83-13,13.17s2.63,4.52,2.63,4.52c-10.13,2.74-26.94-8.27-24.63-12.86,4.2-8.34,7.88-8.67,13.3-23.37,6.42-17.41.97-25.6,1.95-31.91Z"/>
    <path class="cls-1" d="M269.32,424.12c-13.33-2.06-24.14-16.52-25.48-21.57-1.78-6.67,9.48-17.84,29.93-27.06,19.74-8.9,47.85-17.48,54.56-17.99,3.83-.29-6.31,7.95-3.33,14.36,3,6.47,7.17,7.4,12.78,12.26-3.74,13.32-39.46,44.48-68.44,40Z"/>
    <path class="cls-1" d="M341.72,366.74c2.67-4.8,15.49-11.5,20.91-12.83,16.37,2.03,33.62,23.62,79.13,39.35-3.2,13.54-33.16,5.95-56.66,5.87-7.85-.02-16.79-2.76-24.65-15.16-6.91-10.9-16.03-12.9-18.74-17.23Z"/>
    <path class="cls-1" d="M456.72,391.83c13.41,4.45,20.91,6.98,53.02,10.76,7.95.94-15.98,11.3-33.61,18.58-3.11,1.28-13.25,2.06-21.92,3.38-9.24-5.61-13.71-9.34-17.33-12.93,4.49-.87,10.4-1.7,15.54-4.58,1.5-6.62,2.29-11.67,4.3-15.22Z"/>
    <path class="cls-1" d="M390.32,225.88c20.53-16.94,23.61-26.69,39.39-35.41,5.67,1.09.78,15.93-.22,18.94-2.6,7.78-16.69,45.49-20.33,47.25-9.07.55-14.74-.73-19.74-3.3,3.89-3.76,6.93-5.77,9.32-10.53-4.11-5.4-6.59-11.99-8.42-16.95Z"/>
    <path class="cls-1" d="M249.11,328.38c-.26-16.07,8.6-35.38,14.39-48.17,5.28-11.66,7.23-19.5,11.17-19.5,2.12,0,2.08,4.38,8.02,8.92,6.37,4.87,8.51,4.19,9.59,4.67,1.62.75,2.09,15.52,3.13,36.19-1.11,13.2-5.62,35.73-13.81,40.56-8.93-11.33-16.75-23.56-32.5-22.67Z"/>
    <path class="cls-1" d="M294.79,242.92c9.75-4.5,31.58,3,66.05-3.06,7.8-1.37,15.42-3.82,20.7-4.17.5-.03,3.34,7.04,1.25,8.42-8.18,5.43-23.75,14.35-46.47,28.81-8.11,5.17-25.94-.17-30.34-5.89-5.06-6.58-17-9.47-17.39-10.41-.41-1.01,1.03-7.94,6.19-13.69Z"/>
    <path class="cls-1" d="M115.06,222.67c2.92-2.25,9.81-5.55,11.7-4.72,21.42,9.42,41.14,28.39,45.8,43.72.92,3.02-.08,7.08-2.33,7.25,3.2-5.99-14.42-10.67-23.83-8.83s-18.56,9.58-15.83,13.47c-4.25-1.25-11.39-12.24-10.25-29.56.67-10.17-8.97-18.47-5.25-21.33Z"/>
    <path class="cls-1" d="M88.17,190c-1.12-5.14-1.59-9.68-.89-13.67.42-2.36,14.22-8.56,18.22-9.56,3.4-.85,18.67,0,20.36,3.83,5.31,12.06,5.86,7.84,4.61,28.15-.63,10.29-.37,4.38-15.75,9.08-11.17,3.42-10.25,10.33-17.83,4.17-8.54-6.94-17.24-10.99-15.25-16.01,3.2-2.77,1.98-2.33,6.53-5.99Z"/>
    <path class="cls-1" d="M158.99,467.67c2.83-18.33,19.24-26.79,32.58-29.5,10.81,7.55,14.37,9.94,20.82,27.42,2.78,5.11,6.03,6.62,12.48,11.86,1.54,1.25-2.54,12.51-3.89,12.29-50.83-8.07-49.2-11.57-61.99-22.07Z"/>
    <path class="cls-1" d="M238.58,471.56c-1.56,2.17,1.78,5.56.69,13.76-1.33,10.03-6.91,11.13-5.8,14.8,8.7,4.41,18.64,8.77,22.56,9.95s26.76.7,27.28-1.12c9.22-32.28,5.79-28.94-6.39-33.28.18-6.34-.89-13.29-4.22-13.17-7,.25-20.94,1-34.11,9.06Z"/>
  </g>
</svg>