<?xml version="1.0" encoding="UTF-8"?>
<svg id="Layer_2" data-name="Layer 2" xmlns="http://www.w3.org/2000/svg" viewBox="0 0 430 430">
  <defs>
    <style>
      .cls-1 {
        fill: #fff;
        stroke-width: 0px;
      }
    </style>
  </defs>
  <g id="white_icons_L_exp" data-name="white icons L exp">
    <g id="_6" data-name="6">
      <path class="cls-1" d="m215,51.19c43.76,0,84.89,17.04,115.83,47.98,30.94,30.94,47.98,72.08,47.98,115.83s-17.04,84.89-47.98,115.83c-30.94,30.94-72.08,47.98-115.83,47.98s-84.89-17.04-115.83-47.98c-30.94-30.94-47.98-72.08-47.98-115.83s17.04-84.89,47.98-115.83c30.94-30.94,72.08-47.98,115.83-47.98m0-15.36c-98.95,0-179.17,80.22-179.17,179.17s80.22,179.17,179.17,179.17,179.17-80.22,179.17-179.17S313.95,35.83,215,35.83h0Z"/>
      <path class="cls-1" d="m215,46.77c44.94,0,87.18,17.5,118.96,49.27s49.27,74.02,49.27,118.96-17.5,87.18-49.27,118.96-74.02,49.27-118.96,49.27-87.18-17.5-118.96-49.27-49.27-74.02-49.27-118.96,17.5-87.18,49.27-118.96,74.02-49.27,118.96-49.27m0-15.77C113.38,31,31,113.38,31,215s82.38,184,184,184,184-82.38,184-184S316.62,31,215,31h0Z"/>
      <g>
        <g>
          <path class="cls-1" d="m131.4,191c8.25-28.73,30.86-51.36,59.6-59.6v-2.64c-30.16,8.38-53.89,32.1-62.27,62.24h2.67Z"/>
          <path class="cls-1" d="m191,128.76c-30.16,8.38-53.89,32.1-62.27,62.24h2.67c8.25-28.73,30.86-51.36,59.6-59.6v-2.64h0Z"/>
        </g>
        <g>
          <path class="cls-1" d="m131.4,239h-2.67c8.39,30.14,32.12,53.86,62.27,62.24v-2.64c-28.75-8.24-51.36-30.87-59.6-59.6Z"/>
          <path class="cls-1" d="m131.4,239h-2.67c8.39,30.14,32.12,53.86,62.27,62.24v-2.64c-28.75-8.24-51.36-30.87-59.6-59.6h0Z"/>
        </g>
      </g>
      <g>
        <g>
          <path class="cls-1" d="m298.6,191h2.67c-8.39-30.14-32.12-53.86-62.27-62.24v2.64c28.75,8.24,51.35,30.87,59.6,59.6Z"/>
          <path class="cls-1" d="m239,128.76v2.64c28.75,8.24,51.35,30.87,59.6,59.6h2.67c-8.39-30.14-32.12-53.86-62.27-62.24h0Z"/>
        </g>
        <g>
          <path class="cls-1" d="m298.6,239c-8.25,28.73-30.86,51.36-59.6,59.6v2.64c30.16-8.38,53.89-32.1,62.27-62.24h-2.67Z"/>
          <path class="cls-1" d="m301.27,239h-2.67c-8.25,28.73-30.86,51.36-59.6,59.6v2.64c30.16-8.38,53.89-32.1,62.27-62.24h0Z"/>
        </g>
      </g>
      <g>
        <polygon class="cls-1" points="219 0 211 0 211 127.98 219 127.98 219 0 219 0"/>
        <polygon class="cls-1" points="219 302.02 211 302.02 211 430 219 430 219 302.02 219 302.02"/>
      </g>
      <g>
        <polygon class="cls-1" points="127.98 211 0 211 0 219 127.98 219 127.98 211 127.98 211"/>
        <polygon class="cls-1" points="430 211 302.02 211 302.02 219 430 219 430 211 430 211"/>
      </g>
      <circle class="cls-1" cx="215" cy="215" r="20.48"/>
    </g>
  </g>
</svg>