<?xml version="1.0" encoding="UTF-8"?>
<svg id="Layer_2" data-name="Layer 2" xmlns="http://www.w3.org/2000/svg" viewBox="0 0 430 446.36">
  <defs>
    <style>
      .cls-1 {
        fill: #fff;
        stroke-width: 0px;
      }
    </style>
  </defs>
  <g id="white_icons_L_exp" data-name="white icons L exp">
    <g id="_2" data-name="2">
      <path class="cls-1" d="m269.12,101.59c46.81,42.82,96.45,100.88,116.51,171.5-15.74-78.82-69.32-144.86-123.27-194.2C180.68,4.17,89.18-31.77,65.01,35.69c-10.28,28.7-.79,77.37,12,114.31-6.69-28.25-6.71-54.16,1.28-74.45,23.74-60.28,109.27-48.57,190.83,26.04Z"/>
      <g>
        <path class="cls-1" d="m413.64,231.8c6.69,28.24,6.71,54.17-1.28,74.45-20.97,53.24-90.14,50.04-162.2-2.77-4.38,2.45-8.75,4.87-13.1,7.25,79.36,69.32,165.27,100.45,188.58,35.39,10.28-28.7.79-77.37-12-114.31Z"/>
        <path class="cls-1" d="m144.89,192.72c-17.04-25.54-31.23-53.58-39.87-84.01,6.48,32.47,19.47,62.72,36.18,90.57,1.22-2.19,2.45-4.37,3.69-6.56Z"/>
      </g>
      <path class="cls-1" d="m176.23,312.61c-43.73,27.63-107.32,74.33-176.23,133.75,59.48-68.85,106.18-132.44,133.81-176.17,29.63-46.98,76.39-165.19,147.98-105.59,59.65,71.64-58.64,118.32-105.56,148.01Z"/>
    </g>
  </g>
</svg>