<?xml version="1.0" encoding="UTF-8"?>
<svg id="Layer_2" data-name="Layer 2" xmlns="http://www.w3.org/2000/svg" viewBox="0 0 488.18 440.34">
  <defs>
    <style>
      .cls-1 {
        stroke: #fff;
        stroke-miterlimit: 10;
        stroke-width: 6.93px;
      }

      .cls-1, .cls-2 {
        fill: #fff;
      }

      .cls-2 {
        stroke-width: 0px;
      }
    </style>
  </defs>
  <g id="white_icons_L_exp" data-name="white icons L exp">
    <g id="_4_col_mv" data-name="4 col mv">
      <circle id="_12" data-name="12" class="cls-1" cx="250.45" cy="283.83" r="25.02"/>
      <path class="cls-2" d="m227.67,220.75c7.14-2.51,14.78-3.94,22.77-3.94,6.53,0,12.82.97,18.81,2.67l32.89-111.96-40.53-.12L289.86,0l-81.95,141.29,42.8.15-23.04,79.32Z"/>
      <path class="cls-2" d="m204.11,331.35c-9.51-9.28-16.34-21.29-19.22-34.77l-110.42,48.31,25.96,31.13L0,423.42l160.91-28.04-27.4-32.88,70.6-31.14Z"/>
      <path class="cls-2" d="m394.76,306.36l-18.22,38.73-59.97-52.49c-2.19,14.15-8.65,26.86-18.07,36.79l87.04,76.65,17.24-36.68,85.4,70.98-93.42-133.98Z"/>
      <path class="cls-2" d="m317.81,245.43c2.57,4.45,4.94,8.91,7.29,13.38l69.87-57.93-85.1,31.55c2.69,4.26,5.37,8.55,7.94,13Z"/>
      <path class="cls-2" d="m183.08,245.43c2.57-4.45,5.25-8.74,7.94-13l-85.1-31.55,69.87,57.93c2.34-4.46,4.72-8.93,7.29-13.38Z"/>
    </g>
  </g>
</svg>