<?xml version="1.0" encoding="UTF-8"?>
<svg id="Layer_2" data-name="Layer 2" xmlns="http://www.w3.org/2000/svg" viewBox="0 0 430 317.23">
  <defs>
    <style>
      .cls-1 {
        fill: #fff;
        stroke-width: 0px;
      }
    </style>
  </defs>
  <g id="white_icons_L_exp" data-name="white icons L exp">
    <g id="_6" data-name="6">
      <g>
        <rect class="cls-1" x="14.39" y="218.04" width="260.5" height="74.47"/>
        <path class="cls-1" d="m260.51,232.43v45.68H28.78v-45.68h231.72m27.78-28.78H1c-.55,0-1,.45-1,1v101.25c0,.55.45,1,1,1h287.29c.55,0,1-.45,1-1v-101.25c0-.55-.45-1-1-1h0Z"/>
      </g>
      <rect class="cls-1" x="325.77" y="201.07" width="40.41" height="108.42" rx="1" ry="1"/>
      <path class="cls-1" d="m408.24,313.56l14.27,3.46c3.72.9,7.49-1.27,7.49-4.3v-114.89c0-3.04-3.77-5.2-7.49-4.3l-14.27,3.46c-2.42.59-4.06,2.33-4.06,4.3v107.97c0,1.97,1.65,3.72,4.06,4.3Z"/>
      <g>
        <rect class="cls-1" x="14.39" y="24.72" width="260.5" height="74.47"/>
        <path class="cls-1" d="m260.51,39.11v45.68H28.78v-45.68h231.72m27.78-28.78H1c-.55,0-1,.45-1,1v101.25c0,.55.45,1,1,1h287.29c.55,0,1-.45,1-1V11.33c0-.55-.45-1-1-1h0Z"/>
      </g>
      <rect class="cls-1" x="325.77" y="7.74" width="40.41" height="108.42" rx="1" ry="1"/>
      <path class="cls-1" d="m408.24,120.24l14.27,3.46c3.72.9,7.49-1.27,7.49-4.3V4.51c0-3.04-3.77-5.2-7.49-4.3l-14.27,3.46c-2.42.59-4.06,2.33-4.06,4.3v107.97c0,1.97,1.65,3.72,4.06,4.3Z"/>
    </g>
  </g>
</svg>