<?xml version="1.0" encoding="UTF-8"?>
<svg id="Layer_2" data-name="Layer 2" xmlns="http://www.w3.org/2000/svg" viewBox="0 0 429.77 429.77">
  <defs>
    <style>
      .cls-1 {
        fill: #fff;
        stroke-width: 0px;
      }
    </style>
  </defs>
  <g id="white_icons_L_exp" data-name="white icons L exp">
    <g id="_1_col_mv" data-name="1 col mv">
      <g id="wing_l" data-name="wing l">
        <path class="cls-1" d="m290.41,326.58c-.28,7.25-2.56,57.51-13.72,70.02-18.34,20.56-105.09,33.17-105.09,33.17l16.65-44.1c1.14-.66,69.85-35.62,102.16-59.09Z"/>
      </g>
      <g id="wing_l-2" data-name="wing l">
        <path class="cls-1" d="m103.19,139.36c-7.25.28-57.51,2.56-70.02,13.72C12.61,171.41,0,258.17,0,258.17l44.1-16.65c.66-1.14,35.62-69.85,59.09-102.16Z"/>
      </g>
      <g>
        <path class="cls-1" d="m132.02,158.37c14.06-19.94,45.44-66.41,99.17-102.14,10.64-7.08,22.07-13.24,33.85-18.66l127.15,127.15c-5.42,11.78-11.58,23.21-18.66,33.85-35.74,53.74-82.21,85.11-102.14,99.17-22.5,15.87-91.81,58.14-91.81,58.14l-105.7-105.7s42.27-69.31,58.14-91.81Z"/>
        <path class="cls-1" d="m300.81,23.62C365.72,2.26,429.58,0,429.58,0v.19c.13,0,.19,0,.19,0,0,0-2.26,63.86-23.62,128.77l-105.34-105.34Z"/>
      </g>
      <g>
        <polygon class="cls-1" points="33.8 395.97 116.18 336.75 93.02 313.59 33.8 395.97"/>
        <polygon class="cls-1" points="123.24 376.07 120.59 341.17 105.56 339.42 123.24 376.07"/>
        <polygon class="cls-1" points="53.69 306.53 88.59 309.17 90.34 324.21 53.69 306.53"/>
        <rect class="cls-1" x="98.31" y="305.14" width="7.37" height="45.26" transform="translate(-201.9 168.12) rotate(-45)"/>
      </g>
    </g>
  </g>
</svg>