<?xml version="1.0" encoding="UTF-8" standalone="no"?><!DOCTYPE svg PUBLIC "-//W3C//DTD SVG 1.1//EN" "http://www.w3.org/Graphics/SVG/1.1/DTD/svg11.dtd"><svg width="100%" height="100%" viewBox="0 0 563 101" version="1.1" xmlns="http://www.w3.org/2000/svg" xmlns:xlink="http://www.w3.org/1999/xlink" xml:space="preserve" xmlns:serif="http://www.serif.com/" style="fill-rule:evenodd;clip-rule:evenodd;stroke-linejoin:round;stroke-miterlimit:2;"><path id="Rogue" d="M69.621,48.888l-35.204,-0l51.146,51.15l35.204,-0l-51.146,-51.15Zm183.921,-23.984l81.225,0l-0,-24.891l-107.638,-0l0,99.583l107.642,-0l-0,-54.792l-24.892,0l0,29.871l-57.858,0l1.521,-49.771Zm177.929,74.679l20.896,-20.895l-0,-78.675l-24.892,-0l0,60.529l-14.167,14.166l-43.696,0l0,-74.695l-24.891,-0l-0,99.583l86.746,-0l0.004,-0.013Zm-331.888,-54.779l0,-44.791l-99.583,-0l0,99.583l24.892,-0l-0,-74.692l46.666,0l0,19.9l28.025,0Zm362.742,33.988l20.792,20.791l79.383,0l0,-24.891l-75.279,-0l-0,-12.563l61.062,0l0,-24.891l-61.062,-0l-0,-12.33l75.279,0l0,-24.895l-100.175,-0l0,78.779Zm-352.796,-4.3l25.092,25.091l82.546,0l-0,-99.583l-107.638,0l0,74.492Zm24.892,-49.584l-0,38l11.787,11.788l46.067,-0l-0,-49.792l-57.854,0.004Z" style="fill:#fff;"/></svg>