<svg xmlns="http://www.w3.org/2000/svg" width="39.052" height="34.288" viewBox="0 0 39.052 34.288">
  <path id="Subtraction_731" data-name="Subtraction 731" d="M-2905.723-12898.713h-16.553a3.006,3.006,0,0,1-2.59-1.489l-8.251-14.143a3,3,0,0,1,0-3.024l8.251-14.142a3.006,3.006,0,0,1,2.59-1.49h16.553a3.006,3.006,0,0,1,2.59,1.49l8.251,14.142a3,3,0,0,1,0,3.024l-8.251,14.143A3.006,3.006,0,0,1-2905.723-12898.713Zm-8.689-26.287a.993.993,0,0,0-.708.292l-7.585,7.589a.982.982,0,0,0-.217,1.088.985.985,0,0,0,.925.616h4.586v8a1,1,0,0,0,1,1h4a1,1,0,0,0,1-1v-8h4.586a.985.985,0,0,0,.925-.616.983.983,0,0,0-.217-1.088l-7.585-7.589A.994.994,0,0,0-2914.412-12925Z" transform="translate(2933.526 12933.001)"/>
</svg>
