<svg xmlns="http://www.w3.org/2000/svg" width="38.001" height="38.001" viewBox="0 0 38.001 38.001">
  <path id="Subtraction_732" data-name="Subtraction 732" d="M-2490-12895a18.881,18.881,0,0,1-13.435-5.564A18.876,18.876,0,0,1-2509-12914a18.878,18.878,0,0,1,5.565-13.437A18.881,18.881,0,0,1-2490-12933a18.881,18.881,0,0,1,13.436,5.564A18.878,18.878,0,0,1-2471-12914a18.876,18.876,0,0,1-5.565,13.436A18.881,18.881,0,0,1-2490-12895Zm0-28.293a.985.985,0,0,0-.7.292l-7.585,7.586a.984.984,0,0,0-.22,1.09.984.984,0,0,0,.924.617H-2493v8a1,1,0,0,0,1,1h4a1,1,0,0,0,1-1v-8h4.586a.986.986,0,0,0,.927-.619.982.982,0,0,0-.219-1.088l-7.585-7.586A.992.992,0,0,0-2490-12923.293Z" transform="translate(2509.001 12933.001)"/>
</svg>
