<svg width="256" height="256">
 <g>
  <title>Layer 1</title>
  <ellipse fill-opacity="0.64" stroke-width="14" ry="90" rx="90" id="svg_1" cy="128" cx="128" stroke="#000" fill="#a5a5a5"/>
  <path fill-opacity="0.87" transform="rotate(55.786, 99.9767, 86.0999)" id="svg_4" d="m129.49315,161.90262l0,0c-32.60012,0 -59.03297,-33.93206 -59.03297,-75.8027c0,-41.86528 26.43286,-75.8027 59.03297,-75.8027l0,0c-18.57882,17.89399 -29.51446,45.97939 -29.51446,75.8027s10.93564,57.90335 29.51446,75.8027z" stroke-width="0" stroke="#000" fill="#ffffff"/>
  <path transform="rotate(-122.084, 152.895, 167.235)" id="svg_7" d="m189.1295,246.81836l0,0c-40.02043,0 -72.46982,-35.62454 -72.46982,-79.58363c0,-43.95346 32.4494,-79.58363 72.46982,-79.58363l0,0c-22.80766,18.78651 -36.23242,48.27278 -36.23242,79.58363s13.42476,60.79149 36.23242,79.58363z" fill-opacity="0.65" stroke-width="0" stroke="#000" fill="#3d3d3d"/>
 </g>
</svg>